<svg width="180" height="46" fill="none" xmlns="http://www.w3.org/2000/svg"><g clip-path="url(#a)"><g fill="#fff"><path d="M34.357 11.427c.482-3.019-.426-6.22-2.75-8.542-3.848-3.847-10.11-3.846-13.957 0-2.289 2.287-3.204 5.425-2.77 8.404a10.766 10.766 0 0 1 8.686 8.371c.718.077 1.444.075 2.162-.004a10.766 10.766 0 0 1 8.629-8.229ZM25.662 25.853h-2.066a1.13 1.13 0 0 0-1.13 1.13v17.318c.712.08 1.434.131 2.163.15.728.02 1.45 0 2.163-.05V26.983a1.13 1.13 0 0 0-1.13-1.13Z"/><path d="M25.662 25.853h-2.066a1.13 1.13 0 0 0-1.13 1.13v17.318c.712.08 1.434.131 2.163.15.728.02 1.45 0 2.163-.05V26.983a1.13 1.13 0 0 0-1.13-1.13Z"/><path d="M24.629 44.453C11.346 44.093.569 33.684.569 20.4c0-2.643.428-5.186 1.216-7.565A23.977 23.977 0 0 0 0 21.94c0 13.284 10.776 23.693 24.06 24.053 10.396.282 19.454-6.708 22.745-16.553-3.684 9.025-12.33 15.28-22.176 15.014Z"/><path d="M6.005 14.968c3.848-3.847 10.11-3.848 13.956 0 3.849 3.846 3.848 10.105 0 13.953-3.846 3.845-10.105 3.845-13.955-.003-3.847-3.846-3.848-10.104 0-13.95Zm23.292 14.086c3.848 3.847 10.108 3.847 13.954.002 3.848-3.848 3.848-10.107 0-13.954-3.846-3.846-10.11-3.846-13.955.001-3.847 3.846-3.845 10.103.001 13.95v.001Z"/></g><path d="M174.771 35.016H58.787a1.33 1.33 0 0 0-1.33 1.329v5.085c0 .734.596 1.329 1.33 1.329H174.77a1.33 1.33 0 0 0 1.33-1.33v-5.084a1.33 1.33 0 0 0-1.33-1.33Z" fill="#fff"/><path d="M165.719 38.876a1.269 1.269 0 0 0-.192-.404.973.973 0 0 0-.333-.288 1.054 1.054 0 0 0-.506-.11 1.07 1.07 0 0 0-.794.339c-.104.11-.191.248-.26.412-.07.164-.117.352-.143.564h2.302v-.059a2.209 2.209 0 0 0-.073-.454h-.001Zm0 0a1.269 1.269 0 0 0-.192-.404.973.973 0 0 0-.333-.288 1.054 1.054 0 0 0-.506-.11 1.07 1.07 0 0 0-.794.339c-.104.11-.191.248-.26.412-.07.164-.117.352-.143.564h2.302v-.059a2.209 2.209 0 0 0-.073-.454h-.001Zm0 0a1.269 1.269 0 0 0-.192-.404.973.973 0 0 0-.333-.288 1.054 1.054 0 0 0-.506-.11 1.07 1.07 0 0 0-.794.339c-.104.11-.191.248-.26.412-.07.164-.117.352-.143.564h2.302v-.059a2.209 2.209 0 0 0-.073-.454h-.001Zm0 0a1.269 1.269 0 0 0-.192-.404.973.973 0 0 0-.333-.288 1.054 1.054 0 0 0-.506-.11 1.07 1.07 0 0 0-.794.339c-.104.11-.191.248-.26.412-.07.164-.117.352-.143.564h2.302v-.059a2.209 2.209 0 0 0-.073-.454h-.001Zm0 0a1.269 1.269 0 0 0-.192-.404.973.973 0 0 0-.333-.288 1.054 1.054 0 0 0-.506-.11 1.07 1.07 0 0 0-.794.339c-.104.11-.191.248-.26.412-.07.164-.117.352-.143.564h2.302v-.059a2.209 2.209 0 0 0-.073-.454h-.001Zm0 0a1.269 1.269 0 0 0-.192-.404.973.973 0 0 0-.333-.288 1.054 1.054 0 0 0-.506-.11 1.07 1.07 0 0 0-.794.339c-.104.11-.191.248-.26.412-.07.164-.117.352-.143.564h2.302v-.059a2.209 2.209 0 0 0-.073-.454h-.001Zm-50.541 1.002c-.45 0-.796.07-1.04.21a.685.685 0 0 0-.365.635c0 .11.018.215.055.31a.655.655 0 0 0 .167.25.853.853 0 0 0 .276.165 1.303 1.303 0 0 0 .78.002c.124-.04.237-.092.339-.155.102-.063.191-.136.266-.219.075-.081.134-.167.176-.254v-.943h-.654v-.001Zm50.541-1.002a1.269 1.269 0 0 0-.192-.404.973.973 0 0 0-.333-.288 1.054 1.054 0 0 0-.506-.11 1.07 1.07 0 0 0-.794.339c-.104.11-.191.248-.26.412-.07.164-.117.352-.143.564h2.302v-.059a2.209 2.209 0 0 0-.073-.454h-.001Zm0 0a1.269 1.269 0 0 0-.192-.404.973.973 0 0 0-.333-.288 1.054 1.054 0 0 0-.506-.11 1.07 1.07 0 0 0-.794.339c-.104.11-.191.248-.26.412-.07.164-.117.352-.143.564h2.302v-.059a2.209 2.209 0 0 0-.073-.454h-.001Zm-50.541 1.002c-.45 0-.796.07-1.04.21a.685.685 0 0 0-.365.635c0 .11.018.215.055.31a.655.655 0 0 0 .167.25.853.853 0 0 0 .276.165 1.303 1.303 0 0 0 .78.002c.124-.04.237-.092.339-.155.102-.063.191-.136.266-.219.075-.081.134-.167.176-.254v-.943h-.654v-.001Zm0 0c-.45 0-.796.07-1.04.21a.685.685 0 0 0-.365.635c0 .11.018.215.055.31a.655.655 0 0 0 .167.25.853.853 0 0 0 .276.165 1.303 1.303 0 0 0 .78.002c.124-.04.237-.092.339-.155.102-.063.191-.136.266-.219.075-.081.134-.167.176-.254v-.943h-.654v-.001Zm50.541-1.002a1.269 1.269 0 0 0-.192-.404.973.973 0 0 0-.333-.288 1.054 1.054 0 0 0-.506-.11 1.07 1.07 0 0 0-.794.339c-.104.11-.191.248-.26.412-.07.164-.117.352-.143.564h2.302v-.059a2.209 2.209 0 0 0-.073-.454h-.001Zm0 0a1.269 1.269 0 0 0-.192-.404.973.973 0 0 0-.333-.288 1.054 1.054 0 0 0-.506-.11 1.07 1.07 0 0 0-.794.339c-.104.11-.191.248-.26.412-.07.164-.117.352-.143.564h2.302v-.059a2.209 2.209 0 0 0-.073-.454h-.001Zm-50.541 1.002c-.45 0-.796.07-1.04.21a.685.685 0 0 0-.365.635c0 .11.018.215.055.31a.655.655 0 0 0 .167.25.853.853 0 0 0 .276.165 1.303 1.303 0 0 0 .78.002c.124-.04.237-.092.339-.155.102-.063.191-.136.266-.219.075-.081.134-.167.176-.254v-.943h-.654v-.001Zm0 0c-.45 0-.796.07-1.04.21a.685.685 0 0 0-.365.635c0 .11.018.215.055.31a.655.655 0 0 0 .167.25.853.853 0 0 0 .276.165 1.303 1.303 0 0 0 .78.002c.124-.04.237-.092.339-.155.102-.063.191-.136.266-.219.075-.081.134-.167.176-.254v-.943h-.654v-.001Zm50.541-1.002a1.269 1.269 0 0 0-.192-.404.973.973 0 0 0-.333-.288 1.054 1.054 0 0 0-.506-.11 1.07 1.07 0 0 0-.794.339c-.104.11-.191.248-.26.412-.07.164-.117.352-.143.564h2.302v-.059a2.209 2.209 0 0 0-.073-.454h-.001Zm0 0a1.269 1.269 0 0 0-.192-.404.973.973 0 0 0-.333-.288 1.054 1.054 0 0 0-.506-.11 1.07 1.07 0 0 0-.794.339c-.104.11-.191.248-.26.412-.07.164-.117.352-.143.564h2.302v-.059a2.209 2.209 0 0 0-.073-.454h-.001Zm-50.541 1.002c-.45 0-.796.07-1.04.21a.685.685 0 0 0-.365.635c0 .11.018.215.055.31a.655.655 0 0 0 .167.25.853.853 0 0 0 .276.165 1.303 1.303 0 0 0 .78.002c.124-.04.237-.092.339-.155.102-.063.191-.136.266-.219.075-.081.134-.167.176-.254v-.943h-.654v-.001Zm0 0c-.45 0-.796.07-1.04.21a.685.685 0 0 0-.365.635c0 .11.018.215.055.31a.655.655 0 0 0 .167.25.853.853 0 0 0 .276.165 1.303 1.303 0 0 0 .78.002c.124-.04.237-.092.339-.155.102-.063.191-.136.266-.219.075-.081.134-.167.176-.254v-.943h-.654v-.001Zm50.541-1.002a1.269 1.269 0 0 0-.192-.404.973.973 0 0 0-.333-.288 1.054 1.054 0 0 0-.506-.11 1.07 1.07 0 0 0-.794.339c-.104.11-.191.248-.26.412-.07.164-.117.352-.143.564h2.302v-.059a2.209 2.209 0 0 0-.073-.454h-.001Zm0 0a1.269 1.269 0 0 0-.192-.404.973.973 0 0 0-.333-.288 1.054 1.054 0 0 0-.506-.11 1.07 1.07 0 0 0-.794.339c-.104.11-.191.248-.26.412-.07.164-.117.352-.143.564h2.302v-.059a2.209 2.209 0 0 0-.073-.454h-.001Zm-50.541 1.002c-.45 0-.796.07-1.04.21a.685.685 0 0 0-.365.635c0 .11.018.215.055.31a.655.655 0 0 0 .167.25.853.853 0 0 0 .276.165 1.303 1.303 0 0 0 .78.002c.124-.04.237-.092.339-.155.102-.063.191-.136.266-.219.075-.081.134-.167.176-.254v-.943h-.654v-.001Zm-37.072-1.393a1.12 1.12 0 0 0-.534-.341 1.3 1.3 0 0 0-.37-.05c-.215 0-.4.046-.554.135-.155.089-.281.21-.381.363-.1.152-.172.33-.218.533-.047.202-.071.418-.071.647v.09c0 .228.024.444.07.647.047.202.12.378.219.529.1.15.225.268.378.356.153.088.335.132.548.132.138 0 .263-.016.373-.049a1.119 1.119 0 0 0 .538-.35c.069-.082.13-.173.18-.272v-2.11c-.05-.094-.11-.18-.178-.26Zm37.072 1.393c-.45 0-.796.07-1.04.21a.685.685 0 0 0-.365.635c0 .11.018.215.055.31a.655.655 0 0 0 .167.25.853.853 0 0 0 .276.165 1.303 1.303 0 0 0 .78.002c.124-.04.237-.092.339-.155.102-.063.191-.136.266-.219.075-.081.134-.167.176-.254v-.943h-.654v-.001Zm50.541-1.002a1.269 1.269 0 0 0-.192-.404.973.973 0 0 0-.333-.288 1.054 1.054 0 0 0-.506-.11 1.07 1.07 0 0 0-.794.339c-.104.11-.191.248-.26.412-.07.164-.117.352-.143.564h2.302v-.059a2.209 2.209 0 0 0-.073-.454h-.001Zm0 0a1.269 1.269 0 0 0-.192-.404.973.973 0 0 0-.333-.288 1.054 1.054 0 0 0-.506-.11 1.07 1.07 0 0 0-.794.339c-.104.11-.191.248-.26.412-.07.164-.117.352-.143.564h2.302v-.059a2.209 2.209 0 0 0-.073-.454h-.001Zm-50.541 1.002c-.45 0-.796.07-1.04.21a.685.685 0 0 0-.365.635c0 .11.018.215.055.31a.655.655 0 0 0 .167.25.853.853 0 0 0 .276.165 1.303 1.303 0 0 0 .78.002c.124-.04.237-.092.339-.155.102-.063.191-.136.266-.219.075-.081.134-.167.176-.254v-.943h-.654v-.001Zm-37.072-1.393a1.12 1.12 0 0 0-.534-.341 1.3 1.3 0 0 0-.37-.05c-.215 0-.4.046-.554.135-.155.089-.281.21-.381.363-.1.152-.172.33-.218.533-.047.202-.071.418-.071.647v.09c0 .228.024.444.07.647.047.202.12.378.219.529.1.15.225.268.378.356.153.088.335.132.548.132.138 0 .263-.016.373-.049a1.119 1.119 0 0 0 .538-.35c.069-.082.13-.173.18-.272v-2.11c-.05-.094-.11-.18-.178-.26Zm98.054-3.81H57.399a1.844 1.844 0 0 0-1.844 1.842v4.74c0 1.018.825 1.844 1.843 1.844H176.16a1.843 1.843 0 0 0 1.844-1.843v-4.74a1.844 1.844 0 0 0-1.844-1.844ZM63.999 42.106h-.816v-6.182H64v6.182Zm7.59 0h-.785v-3.018c0-.18-.02-.331-.06-.457a.747.747 0 0 0-.176-.308.702.702 0 0 0-.288-.174 1.303 1.303 0 0 0-.398-.056c-.255 0-.478.069-.67.204a1.381 1.381 0 0 0-.45.535v3.274h-.786v-4.594h.743l.025.578c.164-.207.362-.369.594-.487.233-.117.494-.176.782-.176.224 0 .426.03.607.091.181.062.335.159.463.294.128.134.226.307.296.518.069.21.103.466.103.765v3.01Zm7.481 0h-.722l-.039-.493c-.153.187-.336.33-.552.429-.215.099-.468.148-.76.148-.27 0-.515-.058-.737-.173a1.707 1.707 0 0 1-.571-.487 2.318 2.318 0 0 1-.367-.739 3.203 3.203 0 0 1-.13-.931v-.09c0-.35.043-.67.13-.957.086-.287.208-.533.367-.739a1.69 1.69 0 0 1 .57-.478c.223-.113.472-.169.746-.169.275 0 .526.047.735.142.21.095.391.232.544.41v-2.395h.785v6.522h.001Zm7.43 0h-.748l-.016-.455c-.145.17-.328.302-.548.397a2.017 2.017 0 0 1-.799.142 1.86 1.86 0 0 1-.615-.095 1.204 1.204 0 0 1-.477-.302 1.378 1.378 0 0 1-.308-.53 2.484 2.484 0 0 1-.108-.783v-2.968h.786v2.976c0 .207.024.377.072.512.048.134.112.24.192.318.079.079.17.132.271.162.102.03.207.044.315.044.32 0 .577-.06.77-.182.195-.122.337-.284.428-.488v-3.341h.785v4.593Zm7.138-.722c-.084.166-.203.31-.359.428a1.776 1.776 0 0 1-.56.278c-.219.067-.461.1-.727.1-.306 0-.575-.043-.81-.127a1.817 1.817 0 0 1-.588-.338c-.158-.14-.278-.3-.36-.48a1.311 1.311 0 0 1-.123-.554h.785a.816.816 0 0 0 .378.671c.105.069.22.116.344.144.124.029.25.043.374.043.162 0 .303-.017.424-.051a.967.967 0 0 0 .308-.14.554.554 0 0 0 .252-.472.742.742 0 0 0-.037-.24.516.516 0 0 0-.15-.211 1.139 1.139 0 0 0-.322-.185 3.397 3.397 0 0 0-.547-.157 5.08 5.08 0 0 1-.689-.19 2.08 2.08 0 0 1-.52-.267 1.082 1.082 0 0 1-.329-.367 1.029 1.029 0 0 1-.114-.497c0-.19.04-.353.121-.515.081-.163.195-.306.343-.43.146-.122.324-.22.534-.292.21-.072.443-.108.7-.108.275 0 .52.038.737.112.217.076.402.179.553.308a1.32 1.32 0 0 1 .465 1.015h-.79a.687.687 0 0 0-.063-.282.779.779 0 0 0-.187-.255.969.969 0 0 0-.302-.182 1.113 1.113 0 0 0-.413-.071c-.164 0-.302.02-.418.057a.838.838 0 0 0-.282.153.582.582 0 0 0-.16.216.638.638 0 0 0-.01.478c.029.069.083.13.162.185.08.056.188.107.325.153.138.047.315.094.533.142.28.065.523.138.73.221.207.083.378.177.514.286.136.11.238.235.304.376.067.142.1.306.1.493 0 .2-.042.384-.125.552h-.001Zm5.703.722a3.628 3.628 0 0 1-.243.055c-.099.02-.219.029-.36.029-.143 0-.281-.02-.41-.061a.83.83 0 0 1-.338-.206 1.014 1.014 0 0 1-.229-.38 1.717 1.717 0 0 1-.085-.58V38.12h-.836v-.607h.836V36.4h.786v1.113h.857v.607h-.857v2.849a.8.8 0 0 0 .042.286.36.36 0 0 0 .274.247c.06.012.124.018.19.018.064 0 .133-.006.205-.018.072-.013.127-.024.168-.033v.638Zm5.726-3.89a2.207 2.207 0 0 0-.386-.029c-.272 0-.493.06-.665.179a1.072 1.072 0 0 0-.383.48v3.26h-.786v-4.593h.765l.012.53c.118-.19.268-.339.446-.45.178-.11.395-.166.65-.166a1.188 1.188 0 0 1 .348.06v.73h-.001Zm4.185 3.89h-.786v-4.594h.786v4.594Zm-.038-5.494c-.08.085-.196.127-.349.127-.153 0-.268-.042-.346-.127a.45.45 0 0 1-.118-.319c0-.127.039-.234.118-.322.077-.088.193-.132.346-.132.153 0 .268.044.349.132a.469.469 0 0 1 .118.322c0 .128-.04.234-.118.319Zm7.564 5.494h-.823a.859.859 0 0 1-.069-.215 2.775 2.775 0 0 1-.042-.27c-.074.077-.157.15-.249.22a1.723 1.723 0 0 1-1.06.35c-.235 0-.448-.036-.639-.106a1.499 1.499 0 0 1-.489-.289 1.272 1.272 0 0 1-.423-.963c0-.246.048-.463.145-.652.096-.188.233-.346.414-.473.18-.128.397-.223.651-.288.256-.066.54-.098.854-.098h.782v-.361c0-.275-.083-.493-.246-.656-.164-.162-.407-.244-.726-.244-.148 0-.283.02-.404.06a1 1 0 0 0-.312.159.737.737 0 0 0-.202.231.566.566 0 0 0-.072.276h-.79c0-.164.043-.326.129-.488.086-.162.209-.306.368-.435.158-.129.35-.234.575-.315.225-.08.476-.12.754-.12.249 0 .479.03.69.095.211.063.392.16.542.289.15.128.267.288.353.481.085.192.127.418.127.675v2.135c0 .156.014.32.04.49.027.172.068.32.121.445v.067h.001Zm4.534 0h-.786v-6.522h.786v6.522Zm9.454-1.923c.063.266.16.499.291.698.13.2.296.357.497.471.201.115.438.172.713.172.26 0 .48-.03.658-.093.178-.063.327-.152.443-.27.118-.117.209-.261.275-.433.064-.17.114-.365.148-.584h.819a2.852 2.852 0 0 1-.214.813c-.109.252-.26.468-.452.65a2.055 2.055 0 0 1-.706.429 2.773 2.773 0 0 1-.972.154c-.372 0-.697-.067-.994-.203a2.148 2.148 0 0 1-.762-.58 2.674 2.674 0 0 1-.489-.902 3.792 3.792 0 0 1-.172-1.176v-.62c0-.432.059-.826.175-1.178.116-.353.282-.654.497-.904.215-.251.476-.444.783-.582a2.508 2.508 0 0 1 1.035-.205c.348 0 .657.05.926.152.268.102.497.244.686.427.188.182.337.4.448.654.11.253.181.532.211.838h-.819a2.778 2.778 0 0 0-.144-.582 1.33 1.33 0 0 0-.27-.44 1.131 1.131 0 0 0-.427-.282 1.71 1.71 0 0 0-.611-.097c-.275 0-.516.053-.724.16a1.449 1.449 0 0 0-.522.445 2.018 2.018 0 0 0-.317.692 3.56 3.56 0 0 0-.106.893v.63c0 .302.032.587.095.853h.001Zm8.298 1.923h-.785v-6.522h.785v6.522Zm7.467 0h-.747l-.017-.455c-.144.17-.327.302-.548.397a2.014 2.014 0 0 1-.798.142c-.227 0-.432-.03-.616-.095a1.19 1.19 0 0 1-.475-.302 1.364 1.364 0 0 1-.308-.53 2.496 2.496 0 0 1-.108-.783v-2.968h.786v2.976c0 .207.023.377.072.512.048.134.112.24.191.318.079.079.17.132.272.162.101.03.207.044.314.044.32 0 .577-.06.771-.182.194-.122.337-.284.427-.488v-3.341h.785v4.593h-.001Zm7.138-.722c-.083.166-.203.31-.358.428a1.774 1.774 0 0 1-.561.278c-.218.067-.461.1-.727.1a2.36 2.36 0 0 1-.808-.127 1.806 1.806 0 0 1-.588-.338 1.42 1.42 0 0 1-.361-.48 1.306 1.306 0 0 1-.124-.554h.786a.823.823 0 0 0 .117.406c.069.109.156.197.261.265.105.069.219.116.344.144.124.029.25.043.373.043.162 0 .303-.017.426-.051a.973.973 0 0 0 .308-.14.559.559 0 0 0 .252-.472.728.728 0 0 0-.038-.24.492.492 0 0 0-.151-.211 1.13 1.13 0 0 0-.321-.185 3.326 3.326 0 0 0-.547-.157 5.1 5.1 0 0 1-.688-.19 2.07 2.07 0 0 1-.52-.267 1.095 1.095 0 0 1-.33-.367 1.045 1.045 0 0 1-.114-.497c0-.19.041-.353.122-.515.08-.163.194-.306.341-.43.148-.122.325-.22.535-.292.21-.072.444-.108.701-.108.275 0 .52.038.737.112.217.076.4.179.552.308a1.317 1.317 0 0 1 .466 1.015h-.79a.753.753 0 0 0-.251-.538.958.958 0 0 0-.301-.181 1.117 1.117 0 0 0-.412-.071c-.164 0-.304.02-.418.057a.833.833 0 0 0-.282.153.581.581 0 0 0-.162.216.638.638 0 0 0-.008.478c.028.069.081.13.161.185.079.056.187.107.324.153.138.047.315.094.533.142.28.065.524.138.731.221.206.083.378.177.514.286.135.11.237.235.304.376.066.142.099.306.099.493 0 .2-.042.384-.126.552h-.001Zm5.703.722a3.622 3.622 0 0 1-.241.055c-.1.02-.22.029-.362.029-.141 0-.28-.02-.409-.061a.827.827 0 0 1-.338-.206 1.015 1.015 0 0 1-.229-.38 1.707 1.707 0 0 1-.085-.58V38.12h-.837v-.607h.837V36.4h.785v1.113h.858v.607h-.858v2.849c0 .118.014.214.043.286a.4.4 0 0 0 .113.168c.046.04.1.066.161.079a.947.947 0 0 0 .189.018c.065 0 .134-.006.206-.018.073-.013.128-.024.167-.033v.638Zm7.205-2.072h-3.113c.006.212.04.41.104.594.064.185.154.344.272.48.117.136.259.244.425.323.165.08.353.118.562.118.277 0 .512-.056.705-.17.192-.113.361-.263.505-.45l.481.374a2.074 2.074 0 0 1-.268.329 1.862 1.862 0 0 1-.85.484c-.181.05-.386.074-.615.074-.321 0-.61-.055-.869-.166a1.93 1.93 0 0 1-.665-.46 2.044 2.044 0 0 1-.424-.703 2.588 2.588 0 0 1-.148-.892v-.178c0-.374.055-.708.167-1.002a2.25 2.25 0 0 1 .448-.743c.187-.201.401-.355.641-.46a1.83 1.83 0 0 1 .752-.16c.329 0 .612.057.85.172.238.115.433.272.588.473.154.202.268.44.342.713.073.275.11.574.11.896v.354Zm5.739-1.817a2.207 2.207 0 0 0-.386-.03c-.272 0-.494.06-.665.179a1.08 1.08 0 0 0-.384.48v3.26h-.786v-4.593h.764l.014.53c.118-.19.267-.339.446-.45a1.21 1.21 0 0 1 .65-.166c.056 0 .121.007.195.019a.598.598 0 0 1 .152.04v.73Zm-6.79.255a.985.985 0 0 0-.334-.289 1.05 1.05 0 0 0-.505-.11 1.07 1.07 0 0 0-.794.34 1.37 1.37 0 0 0-.261.411 2.084 2.084 0 0 0-.142.565h2.302v-.06a2.21 2.21 0 0 0-.074-.454 1.266 1.266 0 0 0-.191-.403h-.001Zm-51.389 1.615a.686.686 0 0 0-.366.635c0 .11.019.215.055.31a.666.666 0 0 0 .167.25.858.858 0 0 0 .277.165 1.299 1.299 0 0 0 .779.002c.124-.04.238-.092.34-.155.101-.063.19-.136.265-.219.075-.081.134-.167.177-.254v-.943h-.655c-.45 0-.796.07-1.039.21ZM77.869 38.28a1.12 1.12 0 0 0-.299-.136 1.3 1.3 0 0 0-.37-.05c-.215 0-.4.046-.553.135-.155.089-.281.21-.381.363-.1.152-.172.33-.218.533-.047.202-.071.418-.071.647v.09c0 .228.024.444.07.647.047.202.12.378.219.529.1.15.225.268.378.356.152.088.335.132.547.132.14 0 .264-.016.374-.049a1.117 1.117 0 0 0 .538-.35c.069-.082.13-.173.18-.272v-2.11a1.5 1.5 0 0 0-.179-.26 1.064 1.064 0 0 0-.235-.205Zm.235.205a1.12 1.12 0 0 0-.534-.341 1.3 1.3 0 0 0-.37-.05c-.215 0-.4.046-.553.135-.155.089-.281.21-.381.363-.1.152-.172.33-.218.533-.047.202-.071.418-.071.647v.09c0 .228.024.444.07.647.047.202.12.378.219.529.1.15.225.268.378.356.152.088.335.132.547.132.14 0 .264-.016.374-.049a1.117 1.117 0 0 0 .538-.35c.069-.082.13-.173.18-.272v-2.11a1.5 1.5 0 0 0-.179-.26Zm37.073 1.393c-.45 0-.796.07-1.04.21a.685.685 0 0 0-.365.635c0 .11.018.215.055.31a.655.655 0 0 0 .167.25.853.853 0 0 0 .276.165 1.308 1.308 0 0 0 .78.002c.124-.04.237-.092.339-.155.102-.063.191-.136.266-.219.075-.081.134-.167.176-.254v-.943h-.654v-.001Zm50.54-1.002a1.246 1.246 0 0 0-.191-.404.973.973 0 0 0-.333-.288 1.054 1.054 0 0 0-.506-.11c-.158 0-.304.028-.437.087a1.116 1.116 0 0 0-.357.252c-.104.11-.191.248-.26.412-.07.164-.117.352-.143.564h2.302v-.059a2.209 2.209 0 0 0-.073-.454h-.002Zm0 0a1.246 1.246 0 0 0-.191-.404.973.973 0 0 0-.333-.288 1.054 1.054 0 0 0-.506-.11c-.158 0-.304.028-.437.087a1.116 1.116 0 0 0-.357.252c-.104.11-.191.248-.26.412-.07.164-.117.352-.143.564h2.302v-.059a2.209 2.209 0 0 0-.073-.454h-.002Zm-50.54 1.002c-.45 0-.796.07-1.04.21a.685.685 0 0 0-.365.635c0 .11.018.215.055.31a.655.655 0 0 0 .167.25.853.853 0 0 0 .276.165 1.308 1.308 0 0 0 .78.002c.124-.04.237-.092.339-.155.102-.063.191-.136.266-.219.075-.081.134-.167.176-.254v-.943h-.654v-.001Zm-37.073-1.393a1.12 1.12 0 0 0-.534-.341 1.3 1.3 0 0 0-.37-.05c-.215 0-.4.046-.553.135-.155.089-.281.21-.381.363-.1.152-.172.33-.218.533-.047.202-.071.418-.071.647v.09c0 .228.024.444.07.647.047.202.12.378.219.529.1.15.225.268.378.356.152.088.335.132.547.132.14 0 .264-.016.374-.049a1.117 1.117 0 0 0 .538-.35c.069-.082.13-.173.18-.272v-2.11a1.5 1.5 0 0 0-.179-.26Zm37.073 1.393c-.45 0-.796.07-1.04.21a.685.685 0 0 0-.365.635c0 .11.018.215.055.31a.655.655 0 0 0 .167.25.853.853 0 0 0 .276.165 1.308 1.308 0 0 0 .78.002c.124-.04.237-.092.339-.155.102-.063.191-.136.266-.219.075-.081.134-.167.176-.254v-.943h-.654v-.001Zm50.54-1.002a1.246 1.246 0 0 0-.191-.404.973.973 0 0 0-.333-.288 1.054 1.054 0 0 0-.506-.11c-.158 0-.304.028-.437.087a1.116 1.116 0 0 0-.357.252c-.104.11-.191.248-.26.412-.07.164-.117.352-.143.564h2.302v-.059a2.209 2.209 0 0 0-.073-.454h-.002Zm0 0a1.246 1.246 0 0 0-.191-.404.973.973 0 0 0-.333-.288 1.054 1.054 0 0 0-.506-.11c-.158 0-.304.028-.437.087a1.116 1.116 0 0 0-.357.252c-.104.11-.191.248-.26.412-.07.164-.117.352-.143.564h2.302v-.059a2.209 2.209 0 0 0-.073-.454h-.002Zm-50.54 1.002c-.45 0-.796.07-1.04.21a.685.685 0 0 0-.365.635c0 .11.018.215.055.31a.655.655 0 0 0 .167.25.853.853 0 0 0 .276.165 1.308 1.308 0 0 0 .78.002c.124-.04.237-.092.339-.155.102-.063.191-.136.266-.219.075-.081.134-.167.176-.254v-.943h-.654v-.001Zm0 0c-.45 0-.796.07-1.04.21a.685.685 0 0 0-.365.635c0 .11.018.215.055.31a.655.655 0 0 0 .167.25.853.853 0 0 0 .276.165 1.308 1.308 0 0 0 .78.002c.124-.04.237-.092.339-.155.102-.063.191-.136.266-.219.075-.081.134-.167.176-.254v-.943h-.654v-.001Zm50.54-1.002a1.246 1.246 0 0 0-.191-.404.973.973 0 0 0-.333-.288 1.054 1.054 0 0 0-.506-.11c-.158 0-.304.028-.437.087a1.116 1.116 0 0 0-.357.252c-.104.11-.191.248-.26.412-.07.164-.117.352-.143.564h2.302v-.059a2.209 2.209 0 0 0-.073-.454h-.002Zm0 0a1.246 1.246 0 0 0-.191-.404.973.973 0 0 0-.333-.288 1.054 1.054 0 0 0-.506-.11c-.158 0-.304.028-.437.087a1.116 1.116 0 0 0-.357.252c-.104.11-.191.248-.26.412-.07.164-.117.352-.143.564h2.302v-.059a2.209 2.209 0 0 0-.073-.454h-.002Zm-50.54 1.002c-.45 0-.796.07-1.04.21a.685.685 0 0 0-.365.635c0 .11.018.215.055.31a.655.655 0 0 0 .167.25.853.853 0 0 0 .276.165 1.308 1.308 0 0 0 .78.002c.124-.04.237-.092.339-.155.102-.063.191-.136.266-.219.075-.081.134-.167.176-.254v-.943h-.654v-.001Zm0 0c-.45 0-.796.07-1.04.21a.685.685 0 0 0-.365.635c0 .11.018.215.055.31a.655.655 0 0 0 .167.25.853.853 0 0 0 .276.165 1.308 1.308 0 0 0 .78.002c.124-.04.237-.092.339-.155.102-.063.191-.136.266-.219.075-.081.134-.167.176-.254v-.943h-.654v-.001Zm50.54-1.002a1.246 1.246 0 0 0-.191-.404.973.973 0 0 0-.333-.288 1.054 1.054 0 0 0-.506-.11c-.158 0-.304.028-.437.087a1.116 1.116 0 0 0-.357.252c-.104.11-.191.248-.26.412-.07.164-.117.352-.143.564h2.302v-.059a2.209 2.209 0 0 0-.073-.454h-.002Zm0 0a1.246 1.246 0 0 0-.191-.404.973.973 0 0 0-.333-.288 1.054 1.054 0 0 0-.506-.11c-.158 0-.304.028-.437.087a1.116 1.116 0 0 0-.357.252c-.104.11-.191.248-.26.412-.07.164-.117.352-.143.564h2.302v-.059a2.209 2.209 0 0 0-.073-.454h-.002Zm-50.54 1.002c-.45 0-.796.07-1.04.21a.685.685 0 0 0-.365.635c0 .11.018.215.055.31a.655.655 0 0 0 .167.25.853.853 0 0 0 .276.165 1.308 1.308 0 0 0 .78.002c.124-.04.237-.092.339-.155.102-.063.191-.136.266-.219.075-.081.134-.167.176-.254v-.943h-.654v-.001Zm50.54-1.002a1.246 1.246 0 0 0-.191-.404.973.973 0 0 0-.333-.288 1.054 1.054 0 0 0-.506-.11c-.158 0-.304.028-.437.087a1.116 1.116 0 0 0-.357.252c-.104.11-.191.248-.26.412-.07.164-.117.352-.143.564h2.302v-.059a2.209 2.209 0 0 0-.073-.454h-.002Zm0 0a1.246 1.246 0 0 0-.191-.404.973.973 0 0 0-.333-.288 1.054 1.054 0 0 0-.506-.11c-.158 0-.304.028-.437.087a1.116 1.116 0 0 0-.357.252c-.104.11-.191.248-.26.412-.07.164-.117.352-.143.564h2.302v-.059a2.209 2.209 0 0 0-.073-.454h-.002Zm0 0a1.246 1.246 0 0 0-.191-.404.973.973 0 0 0-.333-.288 1.054 1.054 0 0 0-.506-.11c-.158 0-.304.028-.437.087a1.116 1.116 0 0 0-.357.252c-.104.11-.191.248-.26.412-.07.164-.117.352-.143.564h2.302v-.059a2.209 2.209 0 0 0-.073-.454h-.002Zm0 0a1.246 1.246 0 0 0-.191-.404.973.973 0 0 0-.333-.288 1.054 1.054 0 0 0-.506-.11c-.158 0-.304.028-.437.087a1.116 1.116 0 0 0-.357.252c-.104.11-.191.248-.26.412-.07.164-.117.352-.143.564h2.302v-.059a2.209 2.209 0 0 0-.073-.454h-.002Zm0 0a1.246 1.246 0 0 0-.191-.404.973.973 0 0 0-.333-.288 1.054 1.054 0 0 0-.506-.11c-.158 0-.304.028-.437.087a1.116 1.116 0 0 0-.357.252c-.104.11-.191.248-.26.412-.07.164-.117.352-.143.564h2.302v-.059a2.209 2.209 0 0 0-.073-.454h-.002Zm0 0a1.246 1.246 0 0 0-.191-.404.973.973 0 0 0-.333-.288 1.054 1.054 0 0 0-.506-.11c-.158 0-.304.028-.437.087a1.116 1.116 0 0 0-.357.252c-.104.11-.191.248-.26.412-.07.164-.117.352-.143.564h2.302v-.059a2.209 2.209 0 0 0-.073-.454h-.002Zm0 0a1.246 1.246 0 0 0-.191-.404.973.973 0 0 0-.333-.288 1.054 1.054 0 0 0-.506-.11c-.158 0-.304.028-.437.087a1.116 1.116 0 0 0-.357.252c-.104.11-.191.248-.26.412-.07.164-.117.352-.143.564h2.302v-.059a2.209 2.209 0 0 0-.073-.454h-.002Zm0 0a1.246 1.246 0 0 0-.191-.404.973.973 0 0 0-.333-.288 1.054 1.054 0 0 0-.506-.11c-.158 0-.304.028-.437.087a1.116 1.116 0 0 0-.357.252c-.104.11-.191.248-.26.412-.07.164-.117.352-.143.564h2.302v-.059a2.209 2.209 0 0 0-.073-.454h-.002Z" fill="#673918"/><g fill="#fff"><path d="M157.511 10.054c0 1.12-.211 2.075-.634 2.864a4.155 4.155 0 0 1-1.84 1.79c-.804.403-1.78.604-2.929.604-.274 0-.687-.01-1.239-.033a28.86 28.86 0 0 1-1.34-.08 17.08 17.08 0 0 1-.815-.088c-.298-.05-.446-.23-.446-.538V2.998c0-.302.148-.479.446-.53.19-.033.47-.065.84-.096.37-.03.82-.057 1.349-.08.529-.022.931-.033 1.205-.033 1.149 0 2.125.201 2.929.605a4.148 4.148 0 0 1 1.84 1.793c.423.793.634 1.75.634 2.87v2.528-.001Zm-2.377 0V7.525c0-.818-.127-1.467-.379-1.949-.252-.481-.602-.818-1.05-1.012-.448-.193-.98-.29-1.597-.29-.268 0-.445.002-.529.004a36.953 36.953 0 0 0-.916.047v8.929c.28.011.532.023.756.033.224.012.454.017.689.017.616 0 1.146-.096 1.592-.29.445-.192.795-.528 1.05-1.008.255-.478.383-1.13.383-1.953h.001ZM169.139 14.883c0 .09-.029.162-.088.215a.32.32 0 0 1-.222.08h-1.824a.303.303 0 0 1-.206-.089.381.381 0 0 1-.122-.206l-.79-3.267h-3.957l-.79 3.268a.387.387 0 0 1-.122.205.3.3 0 0 1-.206.089h-1.823a.317.317 0 0 1-.222-.08.275.275 0 0 1-.089-.215.152.152 0 0 0 .013-.033.213.213 0 0 0 .004-.05l2.823-10.786c.302-1.17 1.098-1.756 2.386-1.756s2.092.585 2.395 1.756l2.823 10.786.012.042a.169.169 0 0 1 .004.041h.001Zm-3.714-5.224-1.243-5.116a.49.49 0 0 0-.097-.214c-.037-.037-.097-.055-.18-.055-.079 0-.136.018-.173.055a.503.503 0 0 0-.096.214l-1.244 5.116h3.033ZM180 15.027c0 .1-.087.15-.26.15h-2.303c-.185 0-.316-.064-.395-.193l-3.941-5.863v5.712a.321.321 0 0 1-.109.243.34.34 0 0 1-.235.101h-1.706a.343.343 0 0 1-.236-.1.319.319 0 0 1-.109-.244V2.737c0-.09.035-.167.105-.23a.344.344 0 0 1 .24-.098h1.706c.089 0 .169.033.239.097.07.065.105.142.105.23v5.478l4.218-5.662c.062-.095.193-.142.396-.142h1.957c.219 0 .328.07.328.21 0 .078-.039.17-.118.277l-4.411 5.696 4.445 6.224a.496.496 0 0 1 .084.21ZM157.511 24.889c0 1.12-.211 2.074-.634 2.864a4.155 4.155 0 0 1-1.84 1.79c-.804.403-1.78.604-2.929.604-.274 0-.687-.011-1.239-.033a28.86 28.86 0 0 1-1.34-.08c-.342-.03-.614-.06-.815-.088-.298-.05-.446-.23-.446-.538V17.833c0-.302.148-.48.446-.53.19-.033.47-.065.84-.096.37-.03.82-.057 1.349-.08a31.59 31.59 0 0 1 1.205-.033c1.149 0 2.125.201 2.929.604a4.148 4.148 0 0 1 1.84 1.794c.423.793.634 1.75.634 2.869v2.529-.002Zm-2.377 0v-2.53c0-.817-.127-1.466-.379-1.948-.252-.481-.602-.819-1.05-1.012-.448-.193-.98-.29-1.597-.29-.268 0-.445.002-.529.004a36.376 36.376 0 0 0-.916.047v8.929c.28.011.532.022.756.033.224.012.454.017.689.017.616 0 1.146-.097 1.592-.29.445-.192.795-.529 1.05-1.008s.383-1.13.383-1.953h.001ZM168.816 24.78c0 1.22-.207 2.233-.622 3.036-.415.803-.991 1.393-1.731 1.768-.739.375-1.591.563-2.554.563-.963 0-1.815-.187-2.554-.563-.739-.375-1.317-.965-1.731-1.768-.415-.803-.622-1.816-.622-3.037v-2.318c0-1.22.207-2.233.622-3.037.414-.803.992-1.393 1.731-1.768.739-.375 1.591-.563 2.554-.563.963 0 1.815.188 2.554.563.74.375 1.317.965 1.731 1.768.414.804.622 1.816.622 3.037v2.318Zm-2.411 0V22.46c0-1.131-.204-1.961-.609-2.49-.407-.53-1.036-.794-1.887-.794s-1.48.264-1.886.793c-.407.53-.609 1.36-.609 2.491v2.318c0 1.126.203 1.956.609 2.491.405.535 1.034.802 1.886.802.852 0 1.48-.267 1.887-.802.406-.535.609-1.365.609-2.49ZM180 29.718c0 .09-.029.162-.088.215a.32.32 0 0 1-.223.08h-1.823a.3.3 0 0 1-.206-.089.375.375 0 0 1-.122-.206l-.79-3.267h-3.958l-.79 3.267a.385.385 0 0 1-.121.206.302.302 0 0 1-.206.089h-1.823a.32.32 0 0 1-.223-.08.274.274 0 0 1-.088-.215.113.113 0 0 0 .012-.033.214.214 0 0 0 .004-.05l2.823-10.786c.303-1.17 1.098-1.756 2.387-1.756 1.288 0 2.092.585 2.394 1.756l2.823 10.786a.54.54 0 0 1 .013.041.17.17 0 0 1 .004.042H180Zm-3.714-5.224-1.243-5.116a.502.502 0 0 0-.097-.215c-.037-.036-.097-.054-.181-.054-.078 0-.136.018-.172.054a.502.502 0 0 0-.097.215l-1.243 5.116h3.033Z"/></g><path d="M112.74 26.596v3.55h-9.132c-5.073 0-8.652-1.046-10.812-3.174-2.514-2.466-3.746-5.983-3.746-10.582 0-2.382.395-4.597 1.232-6.732.925-2.423 2.294-4.26 4.056-5.479 1.902-1.288 4.897-1.921 9.006-1.921h9.396v3.557h-9.132c-1.724 0-3.049.082-3.931.291-1.41.337-2.51.963-3.305 1.924-1.548 1.88-2.343 4.684-2.343 8.492 0 3.55.88 6.266 2.696 8.068.882.872 1.982 1.456 3.351 1.752.835.169 2.159.254 3.926.254h8.738ZM60.049 7.903v22.244h-4.548V2.258h5.607L76.152 24.59V2.258h4.545v27.889h-5.426L60.049 7.903Zm64.399-5.645v27.889h-4.722V2.258h4.722Zm19.608 26.784-13.311-12.85a.636.636 0 0 1 .003-.94l12.41-11.886a.636.636 0 0 0-.426-1.108h-4.085l-14.198 13.68 14.516 14.209h4.662c.58 0 .858-.714.429-1.106Z" fill="#fff"/></g><defs><clipPath id="a"><path fill="#fff" d="M0 0h180v46H0z"/></clipPath></defs></svg>