<svg width="808" height="372" fill="none" xmlns="http://www.w3.org/2000/svg"><g opacity=".8"><path fill-rule="evenodd" clip-rule="evenodd" d="M363.077 272.331a3.262 3.262 0 0 1 5.657 2.212v.006a2.938 2.938 0 0 1 2.541 4.035 3.442 3.442 0 0 1-2.793 5.455 3.444 3.444 0 0 1-3.048-1.837c-.37.29-.836.46-1.34.46-.58 0-1.105-.225-1.494-.595a1.961 1.961 0 0 1-1.914 1.539 1.957 1.957 0 0 1-1.949-2.139 2.246 2.246 0 0 1-2.735-3.531 3.335 3.335 0 0 1 1.856-4.14v-.082a2.794 2.794 0 0 1 5.219-1.383Z" fill="#0B8936"/><path fill-rule="evenodd" clip-rule="evenodd" d="M369.967 270.482a3.262 3.262 0 0 1 5.657 2.212v.006a2.938 2.938 0 0 1 2.541 4.035 3.443 3.443 0 1 1-5.841 3.618c-.37.29-.836.46-1.34.46-.58 0-1.104-.225-1.494-.594a1.958 1.958 0 0 1-3.863-.601 2.246 2.246 0 0 1-2.734-3.531 3.335 3.335 0 0 1 1.855-4.14v-.082a2.794 2.794 0 0 1 5.219-1.383Z" fill="#0B8936"/><path fill-rule="evenodd" clip-rule="evenodd" d="M366.076 260.718a3.25 3.25 0 0 1 2.394-1.049 3.263 3.263 0 0 1 3.262 3.262v.005a2.939 2.939 0 0 1 2.541 4.035 3.443 3.443 0 0 1-2.793 5.456 3.444 3.444 0 0 1-3.048-1.837 2.16 2.16 0 0 1-1.339.46 2.164 2.164 0 0 1-1.495-.595 1.958 1.958 0 0 1-3.872-.419c0-.061 0-.123.009-.181a2.246 2.246 0 0 1-2.734-3.531 3.336 3.336 0 0 1 1.855-4.141v-.082a2.793 2.793 0 0 1 5.22-1.383Z" fill="#0B8936"/><path fill-rule="evenodd" clip-rule="evenodd" d="M369.546 275.817a2.19 2.19 0 1 1-4.314-.729 1.615 1.615 0 1 1 1.228-2.986 2.044 2.044 0 0 1 3.909.349 2.448 2.448 0 0 1 4.291 1.43 1.956 1.956 0 0 1 1.732.964 1.963 1.963 0 0 1-1.196 2.892 1.181 1.181 0 1 1-1.899 1.391 1.643 1.643 0 0 1-2.415-.465 1.643 1.643 0 0 1 .58-2.248l.024-.014a2.443 2.443 0 0 1-1.205-.839c-.035.027-.073.05-.111.074-.197.114-.41.176-.624.181ZM364.713 265.099a2.189 2.189 0 1 0-4.314.73 1.613 1.613 0 1 0 1.228 2.985 2.047 2.047 0 0 0 3.909-.348 2.449 2.449 0 0 0 4.291-1.43 1.958 1.958 0 0 0 1.037-3.648 1.985 1.985 0 0 0-.501-.208 1.182 1.182 0 1 0-1.899-1.392 1.643 1.643 0 0 0-2.415.466 1.642 1.642 0 0 0 .58 2.247l.024.015a2.441 2.441 0 0 0-1.205.838 1.304 1.304 0 0 0-.735-.255ZM363.057 274.61a1.296 1.296 0 0 1 .302 2.406 2.219 2.219 0 1 1-3.998 1.691 1.326 1.326 0 0 1-2.172-1.02c0-.279.086-.539.235-.75a1.527 1.527 0 0 1-1.445-1.524c0-.815.683-1.527 1.527-1.527.141 0 .276.018.407.056a2.593 2.593 0 0 1 5.141.674l.003-.006Z" fill="#37C668"/><path fill-rule="evenodd" clip-rule="evenodd" d="M373.819 265.55c.568.138.993.651.993 1.26 0 .498-.278.929-.692 1.146a2.22 2.22 0 1 1-3.997 1.691 1.325 1.325 0 0 1-2.172-1.02c0-.279.085-.539.235-.75a1.527 1.527 0 0 1-1.445-1.524c0-.815.683-1.527 1.527-1.527.14 0 .275.021.407.056a2.592 2.592 0 0 1 5.141.674l.003-.006Z" fill="#37C668"/><path fill-rule="evenodd" clip-rule="evenodd" d="M368.282 266.218a1.816 1.816 0 1 1-1.975 2.933 1.526 1.526 0 0 1-2.652-1.268.953.953 0 0 1-1.639-.66.95.95 0 0 1 .841-.943 1.584 1.584 0 0 1 2.181-1.779 1.842 1.842 0 0 1 3.241 1.717h.003Z" fill="#0B8936"/><path d="M367.752 312.623c-.964-5.992-1.507-10.329-1.586-14.68-.026-1.503 0-3.006.085-4.577-.384-2.722-1.137-4.823-1.864-6.848-.513-1.427-1.011-2.821-1.362-4.366-.842-2.048-2.102-3.489-3.148-5.321 1.037 1.509 2.207 2.717 2.954 4.357-.258-1.465-.372-3.091-.24-5.013l.173-.059c-.302 4.387.967 7.285 2.031 10.256.571 1.594 1.16 3.235 1.576 5.189.194-2.467.519-5.148.979-8.283-.694-4.264-5.583-9.655-4.443-13.236-.346 4.662 3.5 8.137 4.572 12.099.188-2.538-.234-5.119-.618-7.692-1.029-2.74-3.787-3.736-3.836-7.091.471 3.217 2.541 3.95 3.704 6.206-.223-1.562-.407-3.118-.407-4.659h.196c0 2.93.803 5.755 1.263 8.662.903-3.645 3.192-6.491 3.52-10.355.179 2.355-3.156 9.394-3.344 11.647.164 1.453.202 2.936-.023 4.468-.144.964-.267 1.887-.376 2.772 1.703-3.557 5.247-5.672 5.856-9.792.703 2.467-5.231 8.283-6.02 11.219a79.506 79.506 0 0 0-.471 10.405c.079 4.305.618 8.612 1.576 14.572l-.747.12Z" fill="#0B8936"/><path fill-rule="evenodd" clip-rule="evenodd" d="M372.596 265.07a1.816 1.816 0 1 1-1.975 2.933 1.525 1.525 0 0 1-2.652-1.269.953.953 0 0 1-1.638-.656c0-.487.366-.891.841-.944a1.585 1.585 0 0 1 2.18-1.779 1.844 1.844 0 0 1 3.244 1.718v-.003ZM375.973 274.235a1.816 1.816 0 1 1-1.976 2.933 1.524 1.524 0 0 1-2.675-1.005c0-.091.008-.179.023-.264a.953.953 0 0 1-1.638-.659c0-.486.366-.891.841-.943a1.584 1.584 0 0 1 2.18-1.779c.331-.495.894-.82 1.536-.82a1.842 1.842 0 0 1 1.709 2.537ZM364.812 268.867a1.816 1.816 0 1 1-1.975 2.933 1.526 1.526 0 0 1-2.652-1.269.953.953 0 0 1-1.639-.659c0-.486.367-.891.841-.943a1.584 1.584 0 0 1 2.181-1.779c.331-.495.894-.82 1.536-.82a1.842 1.842 0 0 1 1.708 2.537ZM363.054 275.724a1.815 1.815 0 1 1-1.975 2.933 1.525 1.525 0 0 1-2.653-1.269.953.953 0 0 1-1.638-.656c0-.487.366-.891.841-.944a1.584 1.584 0 0 1 2.181-1.778 1.843 1.843 0 0 1 3.244 1.717v-.003Z" fill="#0B8936"/><path fill-rule="evenodd" clip-rule="evenodd" d="M365.821 261.729a1.59 1.59 0 0 1 1.749.481 1.593 1.593 0 0 1-.196 2.247 1.61 1.61 0 0 1-1.222.364 1.344 1.344 0 0 1-2.506.647.807.807 0 0 1-.062.264l.018.07a1.377 1.377 0 0 1-2.142 1.404 1.162 1.162 0 0 1-2.169-.534.721.721 0 1 1-.838-1.069 1.202 1.202 0 0 1 1.345-1.656c.155-.386.483-.697.906-.82a1.298 1.298 0 0 1 2.001-1.304 1.623 1.623 0 0 1 3.116-.097v.003ZM407.742 264.141a5.082 5.082 0 0 0-8.813 3.449v.008a4.574 4.574 0 0 0-3.956 6.286 5.347 5.347 0 0 0-1.014 3.135 5.365 5.365 0 0 0 10.111 2.499 3.363 3.363 0 0 0 2.087.718c.902 0 1.723-.352 2.329-.929a3.047 3.047 0 0 0 6.011-.934 3.501 3.501 0 0 0 4.259-5.503 5.197 5.197 0 0 0-2.893-6.447v-.129a4.35 4.35 0 0 0-8.13-2.15l.009-.003Z" fill="#0B8936"/><path d="M404.823 308.181c-.753-11.246 3.587-20.341 6.146-30.028 2.594-1.966 5.472.085 7.113-3.9l-.284-.035c-.736 3.059-4.183 1.731-6.644 3.217.993-3.912 1.67-7.932 1.582-12.239l-.51-.135c.109 2.766-.126 5.409-.58 7.982-1.401-2.491-5.009-3.162-4.294-6.35l-.19-.041c-.58 4.158 3.23 3.824 4.376 6.988-1.064 5.573-3.119 10.821-4.871 16.266-.399-7.25-7.667-12.922-7.236-20.673l-.258.027c-.167 8.333 7.517 14.917 6.846 22.723-1.524 5.066-2.652 10.355-2.374 16.277l1.178-.079Z" fill="#0B8936"/><path fill-rule="evenodd" clip-rule="evenodd" d="M413.088 269.389a3.41 3.41 0 1 0 4.393 5.212 2.515 2.515 0 1 0 3.036-4.008 3.185 3.185 0 0 0-2.509-5.148c-.366 0-.72.061-1.049.175a3.816 3.816 0 0 0-5.31-4.629 3.053 3.053 0 0 0-5.601 2.329 1.839 1.839 0 0 0-2.183 1.808c0 1.017.811 1.826 1.814 1.84a2.56 2.56 0 1 0 5.096.314v-.044c.563.51 1.281.856 2.075.955-.005.07-.011.138-.011.211 0 .355.09.689.249.982v.003ZM395.266 270.886a2.018 2.018 0 0 0-.472 3.748 3.455 3.455 0 1 0 6.225 2.628 2.065 2.065 0 0 0 3.022-2.76 2.377 2.377 0 0 0 2.247-2.377c0-1.271-1.063-2.379-2.379-2.379-.22 0-.431.029-.633.085a4.042 4.042 0 0 0-8.013 1.049l.003.006Z" fill="#37C668"/><path fill-rule="evenodd" clip-rule="evenodd" d="M396.711 268.858a2.83 2.83 0 0 0 1.002 5.474 2.82 2.82 0 0 0 2.069-.903 2.38 2.38 0 0 0 4.136-1.978 1.48 1.48 0 1 0 1.239-2.496 2.468 2.468 0 0 0-3.391-2.769 2.873 2.873 0 0 0-5.049 2.675l-.006-.003ZM410.225 262.321a2.486 2.486 0 1 0-.516 4.811 2.08 2.08 0 0 0 .744 1.559 2.093 2.093 0 0 0 3.157-.551c.008.141.041.282.096.411l-.026.108a2.144 2.144 0 0 0 3.338 2.189 1.805 1.805 0 0 0 3.376-.829c.156.249.411.436.724.504a1.128 1.128 0 0 0 1.331-.871 1.125 1.125 0 0 0-.745-1.295 1.874 1.874 0 0 0-2.089-2.581 2.179 2.179 0 0 0-1.413-1.278 2.018 2.018 0 0 0-3.121-2.027 2.527 2.527 0 0 0-4.848-.15h-.008ZM211.073 303.214a7.657 7.657 0 0 1 8.59-6.001 7.63 7.63 0 0 1 5.223 3.253 4.401 4.401 0 0 1 4.006-1.533 4.406 4.406 0 0 1 3.76 4.718 6.313 6.313 0 0 1 4.197-.862 6.239 6.239 0 0 1 2.746 1.096c1.076-6.449 7.116-10.888 13.623-9.948a12.053 12.053 0 0 1 9.193 6.81 4.98 4.98 0 0 1 6.958 3.264 10.696 10.696 0 0 1 4.698-2.701 10.69 10.69 0 0 1 6.82.386 5.578 5.578 0 0 1 9.938-3.173 5.553 5.553 0 0 1 2.093-1.087 5.575 5.575 0 0 1 7.025 4.882 9.087 9.087 0 0 1 11.292 1.397 10.893 10.893 0 0 1 6.169-4.415c4.505-1.234 9.127.539 11.729 4.096a4.528 4.528 0 0 1 1.767-.941 4.497 4.497 0 0 1 2.591.059 7.639 7.639 0 0 1 5.425-9.101 7.643 7.643 0 0 1 9.311 5.09 5.164 5.164 0 0 1 8.194 3.53 6.178 6.178 0 0 1 1.214-.471 6.196 6.196 0 0 1 7.775 5.151 7.961 7.961 0 0 1 2.465-.234 8.755 8.755 0 0 1 7.948-6.637 5.922 5.922 0 0 1 5.442-8.252 5.92 5.92 0 0 1 5.921 5.919v.141a8.194 8.194 0 0 1 4.633-1.427 8.223 8.223 0 0 1 6.902 3.742 8.95 8.95 0 0 1 6.5-2.79c4.584 0 8.365 3.44 8.904 7.877a8.101 8.101 0 0 1 10.48 7.744 8.102 8.102 0 0 1-8.1 8.099 8.097 8.097 0 0 1-6.943-3.927v31.051h-87.779a6.178 6.178 0 0 1 6.465-8.524 10.925 10.925 0 0 1-.179-1.081 586.88 586.88 0 0 1-19.182 5.597 592.212 592.212 0 0 1-14.58 3.794l-.255.211h-.598c-10.99 2.69-21.154 4.826-29.879 6.321l-1.729-6.321h-52.654v-29.442h-.12a7.778 7.778 0 0 1-4.736-1.6 6.077 6.077 0 0 1-5.592 3.912c.131.753.202 1.527.202 2.315 0 7.346-5.958 13.306-13.309 13.306-7.35 0-13.308-5.957-13.308-13.306 0-7.349 5.958-13.306 13.308-13.306 2.79 0 5.381.862 7.523 2.33a6.08 6.08 0 0 1 8.224-2.843 7.816 7.816 0 0 1 9.704-6.165l-.015-.003Z" fill="#0B8936"/><path fill-rule="evenodd" clip-rule="evenodd" d="M685.144.09h32.578c17.919 0 32.579 14.657 32.579 32.572v275.153h-65.16V.09h.003Z" fill="url(#a)"/><path fill-rule="evenodd" clip-rule="evenodd" d="M692.858.09h24.862c17.918 0 32.578 14.657 32.578 32.572v259.535C718.048 277.37 692.855 152.226 692.855.09h.003Z" fill="url(#b)"/><path fill-rule="evenodd" clip-rule="evenodd" d="M697.216 4.441c.021 6.27.082 12.547.188 18.82h46.921c-3.898-10.932-14.378-18.82-26.605-18.82h-20.507.003Zm.226 21.015c.055 3.068.123 6.136.202 9.204h48.308v-1.998c0-2.488-.329-4.905-.941-7.209h-47.566l-.003.003Zm.261 11.399c.082 3.068.175 6.135.281 9.203h47.968v-9.203h-48.249Zm.36 11.4c.111 3.069.232 6.137.363 9.204h47.526v-9.203h-47.889Zm.463 11.4c.138 3.067.287 6.135.449 9.203h46.98v-9.204h-47.429Zm.566 11.397c.167 3.068.346 6.14.536 9.204h46.327v-9.204h-46.863Zm.674 11.402c.196 3.07.404 6.138.624 9.203h45.562v-9.203h-46.186Zm.785 11.398c.226 3.07.466 6.139.715 9.204h44.686v-9.204h-45.404.003Zm.9 11.398c.062.736.123 1.468.188 2.204.199 2.332.407 4.665.621 7h43.695v-9.204h-44.504Zm1.014 11.399c.29 3.067.592 6.135.909 9.203h42.581v-9.203h-43.49Zm1.137 11.398c.323 3.068.663 6.136 1.014 9.203h41.339v-9.203h-42.353Zm1.269 11.398c.361 3.071.739 6.139 1.131 9.204h39.953v-9.204h-41.084Zm1.416 11.398c.401 3.071.82 6.139 1.26 9.204h38.41v-9.204h-39.67Zm1.576 11.402c.449 3.07.912 6.141 1.398 9.203h36.696v-9.203h-38.094Zm1.75 11.398a626.291 626.291 0 0 0 1.551 9.204h34.793v-9.204h-36.344Zm1.937 11.398c.551 3.074 1.12 6.142 1.715 9.204h32.692v-9.204H711.55Zm2.143 11.402.067.339a585.873 585.873 0 0 0 1.829 8.867h30.368v-9.204h-32.261l-.003-.002Zm2.371 11.398c.674 3.074 1.38 6.144 2.119 9.203h27.772v-9.203h-29.891Zm2.652 11.398a374.15 374.15 0 0 0 2.389 9.204h24.85v-9.204h-27.239Zm2.995 11.401.431 1.533a328.269 328.269 0 0 0 2.28 7.674h21.53v-9.204h-24.244l.003-.003Zm3.406 11.399c.99 3.088 2.04 6.162 3.156 9.203h17.682v-9.203h-20.838Zm3.977 11.398c.838 2.2 1.714 4.383 2.632 6.54.354.835.744 1.729 1.166 2.664h13.063v-9.204h-16.861Zm4.806 11.401c2.946 6.25 7.102 13.772 12.052 18.821v-18.821H733.9Z" fill="#42B86A"/><path fill-rule="evenodd" clip-rule="evenodd" d="M697.216 4.441c.021 6.27.082 12.547.188 18.82h1.714c-.091-5.778-.143-11.556-.161-17.331h20.506c6.565 0 12.626 2.274 17.436 6.074-5.044-4.685-11.791-7.563-19.173-7.563h-20.51Zm.226 21.015c.055 3.068.123 6.136.202 9.204h1.7a1323.44 1323.44 0 0 1-.164-7.715h46.183a28.587 28.587 0 0 0-.355-1.489h-47.566Zm.261 11.399c.082 3.068.175 6.135.281 9.203h1.688c-.085-2.572-.161-5.142-.232-7.715h46.512v-1.488h-48.249Zm.36 11.4c.111 3.069.232 6.137.363 9.204h1.674c-.109-2.572-.208-5.142-.302-7.715h46.151v-1.488H698.06h.003Zm.463 11.4c.138 3.067.287 6.135.449 9.203h1.661c-.132-2.573-.255-5.143-.372-7.715h45.691v-1.489h-47.429Zm.566 11.397c.167 3.068.346 6.14.536 9.204h1.647c-.155-2.57-.305-5.142-.445-7.715h45.125v-1.489h-46.863Zm.674 11.402c.196 3.07.404 6.138.624 9.203h1.632c-.181-2.57-.354-5.142-.518-7.715h44.451v-1.488h-46.189Zm.785 11.398c.226 3.07.466 6.139.715 9.204h1.618c-.208-2.57-.404-5.143-.595-7.715h43.666v-1.489h-45.404Zm.9 11.398c.062.736.123 1.468.188 2.204.199 2.332.407 4.665.621 7h1.6c-.167-1.837-.328-3.675-.486-5.512l-.188-2.203h42.766v-1.489h-44.504.003Zm1.014 11.399c.29 3.067.592 6.135.909 9.203h1.585a971.868 971.868 0 0 1-.753-7.715h41.751v-1.488h-43.492Zm1.137 11.398c.323 3.068.663 6.136 1.014 9.203h1.568a874.005 874.005 0 0 1-.844-7.715h40.615v-1.488h-42.353Zm1.269 11.398c.361 3.071.739 6.139 1.131 9.204h1.548c-.325-2.57-.639-5.143-.941-7.715h39.346v-1.489h-41.084Zm1.416 11.398c.401 3.071.82 6.139 1.26 9.204h1.527c-.361-2.57-.712-5.142-1.049-7.715h37.93v-1.489h-39.668Zm1.576 11.402c.449 3.07.912 6.141 1.398 9.203h1.504a758.491 758.491 0 0 1-1.164-7.715h36.356v-1.488h-38.094Zm1.75 11.398a626.291 626.291 0 0 0 1.551 9.204h1.477c-.446-2.567-.874-5.14-1.29-7.715h34.606v-1.489h-36.344Zm1.937 11.398c.551 3.074 1.12 6.142 1.715 9.204h1.451c-.49-2.567-.968-5.14-1.428-7.715h32.669v-1.489H711.55Zm2.143 11.402.067.339a585.873 585.873 0 0 0 1.829 8.867h1.421a598.833 598.833 0 0 1-1.512-7.378l-.067-.34h30.524v-1.488h-32.262Zm2.371 11.398c.674 3.074 1.38 6.144 2.119 9.203h1.38a462.623 462.623 0 0 1-1.761-7.715h28.153v-1.488h-29.891Zm2.652 11.398a374.15 374.15 0 0 0 2.389 9.204h1.336a385.887 385.887 0 0 1-1.984-7.715h25.5v-1.489h-27.241Zm2.995 11.401.431 1.533a328.269 328.269 0 0 0 2.28 7.674h1.278c-.63-2.06-1.237-4.123-1.823-6.183-.143-.51-.29-1.019-.431-1.532h22.506v-1.489h-24.244l.003-.003Zm3.406 11.399c.99 3.088 2.04 6.162 3.156 9.203h1.196a230.861 230.861 0 0 1-2.614-7.715h19.1v-1.488h-20.838Zm3.977 11.398c.838 2.2 1.714 4.383 2.632 6.54.354.835.744 1.729 1.166 2.664h1.079c-.176-.405-.346-.795-.507-1.175a177.386 177.386 0 0 1-2.632-6.541h15.123v-1.488h-16.861Zm4.806 11.401c2.946 6.25 7.102 13.772 12.052 18.821v-.419c-4.188-4.92-7.72-11.408-10.314-16.913h10.314v-1.489H733.9Z" fill="#0B8936"/><path fill-rule="evenodd" clip-rule="evenodd" d="M523.018 102.1h55.233l25.594 7.762v211.777L523.018 102.1Z" fill="url(#c)"/><path fill-rule="evenodd" clip-rule="evenodd" d="M603.845 117.232v.934l-24.624-6.604h-52.722l-.331-.903h53.109l.117.015 24.451 6.558Zm0 6.578-23.657-6.347-.117-.015h-51.403l.331.903h51.013l23.833 6.394v-.935Zm0 6.578v.935l-23.039-6.18h-49.304l-.331-.902h49.697l.117.017 22.866 6.133-.006-.003Zm0 6.578-22.071-5.922-.118-.014h-47.988l.334.902h47.599l22.247 5.966v-.935l-.003.003Zm0 6.578v.935l-21.453-5.755h-45.89l-.331-.902h46.28l.117.014 21.28 5.708h-.003Zm0 6.579v.934l-20.662-5.541h-44.184l-.331-.902h44.574l.117.015 20.489 5.494h-.003Zm0 6.578v.934l-19.868-5.329h-42.475l-.331-.903h42.865l.117.015 19.695 5.283h-.003Zm0 6.578v.935l-19.076-5.116h-40.767l-.331-.903h41.156l.118.018 18.903 5.069-.003-.003Zm0 6.578v.935l-18.282-4.905h-39.061l-.331-.903h39.451l.117.015 18.109 4.858h-.003Zm0 6.578v.935l-17.491-4.691h-37.352l-.331-.903h37.742l.117.015 17.318 4.644h-.003Zm0 6.579v.934l-16.699-4.48h-35.644l-.334-.902h36.036l.117.014 16.524 4.434Zm0 6.578v.934l-15.905-4.266h-33.938l-.332-.902h34.328l.118.014 15.732 4.22h-.003Zm0 6.578v.935l-15.114-4.053h-32.229l-.332-.902h32.62l.117.017 14.941 4.009-.003-.006Zm0 6.578v.935l-14.32-3.842h-30.523l-.335-.902h30.914l.117.015 14.147 3.794Zm0 6.578v.935l-13.528-3.627h-28.816l-.331-.903h29.205l.118.015 13.355 3.58h-.003Zm0 6.579v.934l-12.734-3.416h-27.11l-.331-.903h27.497l.117.015 12.561 3.37Zm0 6.578v.934l-11.943-3.202h-25.401l-.331-.903h25.791l.117.015 11.77 3.156h-.003Zm0 6.578v.935l-11.151-2.992h-23.693l-.334-.903h24.082l.117.018 10.976 2.945.003-.003Zm0 6.578v.935l-10.357-2.778h-21.987l-.331-.902h22.376l.118.014 10.184 2.731h-.003Zm0 6.578v.935l-9.566-2.567h-20.278l-.331-.902h20.668l.117.014 9.39 2.52Zm0 6.579v.934l-8.772-2.353h-18.572l-.334-.902h18.959l.117.014 8.599 2.307h.003Zm0 6.578v.934l-7.98-2.139h-16.864l-.331-.902h17.253l.117.015 7.805 2.095v-.003Zm0 6.578v.935l-7.186-1.928h-15.158l-.331-.903h15.545l.117.018 7.013 1.881v-.003Zm0 6.578v.935l-6.395-1.714h-13.449l-.331-.903h13.839l.117.015 6.222 1.667h-.003Zm0 6.578v.935l-5.601-1.503h-11.74l-.334-.903h12.13l.117.015 5.428 1.456Z" fill="#0B8936"/><path fill-rule="evenodd" clip-rule="evenodd" d="m523.018 102.1 80.827 219.539h-80.827V102.1Z" fill="url(#d)"/><path fill-rule="evenodd" clip-rule="evenodd" d="M523.018 102.1h55.233l25.594 219.539h-55.233L523.018 102.1Z" fill="url(#e)"/><path fill-rule="evenodd" clip-rule="evenodd" d="m579.247 110.659.109.941-.135-.038H524.12l-.106-.903h55.233Zm.792 6.789.111.941-.135-.035h-55.101l-.105-.903h55.233l-.003-.003Zm.791 6.79.108.94-.134-.035h-55.105l-.105-.902h55.233l.003-.003Zm.791 6.789.109.937-.132-.035h-55.104l-.106-.902h55.233Zm.792 6.789.108.938-.132-.036h-55.104l-.106-.902h55.234Zm.791 6.789.108.938-.132-.035h-55.104l-.105-.903h55.233Zm.791 6.789.109.938-.129-.035h-55.107l-.106-.903h55.233Zm.791 6.789.109.938-.129-.035h-55.107l-.106-.903h55.233Zm.792 6.793.108.937-.129-.035H530.45l-.105-.902h55.233Zm.791 6.789.109.937-.129-.035h-55.11l-.106-.902h55.236Zm.791 6.792.109.937-.126-.035h-55.11l-.106-.902h55.233Zm.792 6.789.108.938-.126-.033h-55.11l-.105-.902h55.233v-.003Zm.791 6.789.108.938-.123-.032h-55.113l-.105-.903h55.233v-.003Zm.791 6.789.109.935-.123-.032h-55.113l-.106-.903h55.233Zm.792 6.789.108.935-.123-.032h-55.113l-.106-.903h55.234Zm.791 6.793.108.934-.123-.032h-55.116l-.105-.902h55.236Zm.791 6.789.109.934-.121-.032h-55.115l-.106-.902h55.233Zm.792 6.789.108.935-.12-.033h-55.116l-.106-.902H592.7Zm.791 6.792.108.935-.12-.033h-55.116l-.105-.902h55.233Zm.791 6.789.109.935-.118-.032h-55.118l-.106-.903h55.233Zm.791 6.789.109.935-.117-.032h-55.119l-.106-.903h55.233Zm.792 6.789.108.935-.114-.032h-55.122l-.105-.903h55.233Zm.791 6.79.109.934-.115-.032h-55.122l-.105-.902h55.233Zm.791 6.789.109.935-.115-.03H542.32l-.106-.902h55.233v-.003Zm.792 6.789.108.935-.114-.03h-55.122l-.105-.902h55.233v-.003Z" fill="#0B8936"/><path fill-rule="evenodd" clip-rule="evenodd" d="M669.057 281.543a14.865 14.865 0 0 0-1.629-.088c-2.79 0-5.405.762-7.644 2.089a11.261 11.261 0 0 0-13.135-5.362c-2.562-7.554-9.716-12.989-18.136-12.989a19.068 19.068 0 0 0-11.937 4.178c-1.541-3.63-5.14-6.18-9.334-6.18a10.123 10.123 0 0 0-8.215 4.199c-2.837-4.336-7.737-7.202-13.306-7.202-6.069 0-11.342 3.402-14.021 8.404a10.546 10.546 0 0 0-2.872-.399c-5.301 0-9.686 3.927-10.407 9.028a12.965 12.965 0 0 0-6.11-1.521c-2.21 0-4.159.516-5.938 1.433-2.477-3.78-6.75-6.279-11.606-6.279-5.111 0-9.578 2.769-11.981 6.886a10.039 10.039 0 0 0-3.766-.727c-5.577 0-10.099 4.521-10.099 10.097 0 .279.011.554.035.827a11.256 11.256 0 0 0-3.798-.657c-5.774 0-10.539 4.334-11.214 9.925H669.06V281.54l-.003.003ZM802.094 128.185l-11.14 84.88 8.329 108.574h9.118V131.774l-6.307-3.589Z" fill="#0B8936"/><path d="m797.527 139.196-.281 3.162h4.487l6.667 3.29v-3.516l-5.609-2.769-.698-.167h-4.566Zm10.873 13.868v3.484l-6.655-3.1h-5.487l.282-3.161h5.553l.666.149 5.641 2.626v.002Zm0 10.942v3.44l-6.626-2.901h-6.5l.281-3.162h6.538l.63.135 5.677 2.488Zm0 10.935v3.405l-6.606-2.711h-7.511l.281-3.161h7.526l.598.123 5.709 2.341.003.003Zm0 10.932v3.382l-6.594-2.523h-8.508l.281-3.159h8.514l.563.106 5.744 2.197v-.003Zm0 10.936v3.349l-6.57-2.333h-9.52l.282-3.161h9.501l.525.091 5.782 2.054Zm0 10.935v3.32l-6.55-2.145h-10.527l.281-3.162h10.489l.487.08 5.82 1.904v.003Zm0 10.932v3.294l-6.529-1.957H791.49l-.243-3.159h10.849l.452.067 5.855 1.755h-.003Zm0 10.936v3.261l-6.494-1.77h-9.569l-.243-3.158h9.996l.414.061 5.893 1.606h.003Zm0 10.929v3.244l-6.477-1.585h-8.736l-.243-3.162h9.146l.37.05 5.935 1.453h.005Zm0 10.927v3.232l-6.471-1.407h-7.889l-.244-3.161h8.297l.334.038 5.973 1.301v-.003Zm0 10.932v3.209l-6.436-1.225h-7.074l-.244-3.162h7.444l.291.033 6.016 1.145h.003Zm0 10.93v3.194l-6.409-1.044h-6.249l-.243-3.161h6.594l.252.023 6.055.985v.003Zm0 10.926v3.179l-6.38-.864h-5.428l-.243-3.162h5.741l.211.018 6.096.826.003.003Zm0 10.927v3.173l-6.359-.688h-4.596l-.243-3.162h4.891l.167.012 6.14.665Zm0 10.923v3.168l-6.354-.516h-3.751l-.243-3.161h4.041l.123.005 6.184.501v.003Zm0 10.93v3.156l-6.307-.343h-2.948l-.243-3.159h3.188l.08.006 6.227.337.003.003Z" fill="#42B86A"/><path fill-rule="evenodd" clip-rule="evenodd" d="M802.093 128.185v193.454h-66.505l1.674-188.248 64.831-5.206Z" fill="url(#f)"/><path d="M802.093 139.196v3.338l-.36-.179h-35.729v-3.162h36.089v.003Zm0 11.094v3.322l-.349-.161h-35.74v-3.161h36.089Zm0 11.093v3.3l-.319-.141h-35.77v-3.162h36.089v.003Zm0 11.094v3.282l-.299-.124h-35.79v-3.161h36.089v.003Zm0 11.093v3.27l-.287-.108h-35.802v-3.159h36.089v-.003Zm0 11.094v3.252l-.264-.093h-35.825v-3.162h36.089v.003Zm0 11.093v3.241l-.243-.079h-35.846v-3.162h36.089Zm0 11.094v3.226l-.223-.067h-35.863v-3.159h36.089-.003Zm0 11.094v3.211l-.188-.05h-35.901v-3.159h36.089v-.002Zm0 11.093v3.203l-.17-.041h-35.919v-3.162h36.089Zm0 11.094v3.196l-.164-.035h-35.925v-3.161h36.089Zm0 11.093v3.185l-.129-.023h-35.96v-3.162h36.089Zm0 11.094v3.176l-.103-.017h-35.986v-3.162h36.089v.003Zm0 11.093v3.171l-.073-.009h-36.016v-3.162h36.089Zm0 11.094v3.165l-.053-.006h-36.036v-3.162h36.089v.003Zm0 11.094v3.164h-.047l-36.042-.003V305.6h36.089Zm0 11.093v3.159h-36.089v-3.159h36.089Z" fill="#0B8936"/><path fill-rule="evenodd" clip-rule="evenodd" d="M745.691 299.883c2.025-.041 4.053-.106 6.081-.147 2.025-.041 4.056-.085 6.084-.146v16.157c-2.028.041-4.056.085-6.084.105-2.025.021-4.053.065-6.081.085v-16.054Zm0-32.082c2.025-.085 4.053-.159 6.081-.232 2.028-.073 4.056-.167 6.084-.252v16.157c-2.028.061-4.056.138-6.084.187-2.028.053-4.053.147-6.081.191v-16.051Zm0-32.103c2.025-.106 4.053-.232 6.081-.337 2.025-.106 4.056-.232 6.084-.334v16.177c-2.028.106-4.056.211-6.084.293-2.025.085-4.053.191-6.081.273v-16.072Zm0-32.082c2.025-.147 4.053-.285 6.081-.42 2.028-.137 4.056-.293 6.084-.439v16.157c-2.028.126-4.056.264-6.084.378-2.028.114-4.053.272-6.081.378v-16.054Zm0-32.083c2.025-.167 4.053-.357 6.081-.524 2.025-.167 4.056-.358 6.084-.525v16.157c-2.028.147-4.056.337-6.084.484-2.025.146-4.053.316-6.081.463v-16.055Zm0-32.123c2.025-.188 4.053-.419 6.081-.609 2.025-.188 4.056-.42 6.084-.61v16.177c-2.028.188-4.059.39-6.084.566-2.028.179-4.053.398-6.081.565v-16.092.003Z" fill="#42B86A"/><path fill-rule="evenodd" clip-rule="evenodd" d="M745.691 299.883c2.025-.041 4.053-.106 6.081-.147 2.025-.041 4.056-.085 6.084-.146v3.211c-1.67.041-3.341.073-5.011.106-1.671.032-3.341.085-5.009.126v12.884c-.715 0-1.43.02-2.145.02v-16.054Zm0-32.082c2.025-.085 4.053-.159 6.081-.232 2.028-.073 4.056-.167 6.084-.252v3.211c-1.67.065-3.341.126-5.011.188l-5.009.188v12.883c-.715.021-1.43.041-2.145.065v-16.051Zm0-32.103c2.025-.106 4.053-.232 6.081-.337 2.025-.106 4.056-.232 6.084-.334v3.232c-1.67.085-3.341.178-5.011.272-1.668.094-3.341.167-5.009.252v12.884c-.715.041-1.43.062-2.145.106v-16.075Zm0-32.082c2.025-.147 4.053-.285 6.081-.42 2.028-.137 4.056-.293 6.084-.439v3.211c-1.67.106-3.341.232-5.011.337-1.668.106-3.341.232-5.009.337v12.884c-.715.065-1.43.106-2.145.147v-16.057Zm0-32.083c2.025-.167 4.053-.357 6.081-.524 2.025-.167 4.056-.358 6.084-.525v3.209c-1.67.126-3.341.284-5.011.419-1.668.135-3.341.272-5.009.419v12.884c-.715.061-1.43.105-2.145.167V171.53v.003Zm0-32.123c2.025-.188 4.053-.419 6.081-.609 2.025-.188 4.056-.42 6.084-.61v3.232c-1.67.147-3.341.314-5.011.483-1.668.167-3.341.335-5.009.504v12.884c-.715.085-1.43.126-2.145.208V139.41ZM797.638 118.427l4.344 2.265 6.418 6.247v4.835l-6.307-3.589-6.075-4.179 1.62-5.579Z" fill="#0B8936"/><path fill-rule="evenodd" clip-rule="evenodd" d="m737.262 133.391 35.969-12.163 24.408-2.801 4.454 9.758-64.831 5.206Z" fill="url(#g)"/><path fill-rule="evenodd" clip-rule="evenodd" d="m599.935 64.647 63.841-54.325-.683 34.901 27.057 19.424V321.64h-90.215V64.647Z" fill="url(#h)"/><path fill-rule="evenodd" clip-rule="evenodd" d="M690.15 75.77v245.866h-20.934c-1.225-18.838-1.876-38.517-1.876-58.764 0-74.698 8.836-141.682 22.81-187.102Z" fill="#0B8936"/><path fill-rule="evenodd" clip-rule="evenodd" d="m599.935 64.647.123-.105c6.011 36.565 9.901 94.84 9.901 160.475 0 35.033-1.111 67.962-3.057 96.619h-6.967V64.647Z" fill="#D0DDE8"/><path fill-rule="evenodd" clip-rule="evenodd" d="M690.15 105.989v6.721h-20.677c1.395-2.3 2.814-4.544 4.256-6.721h16.424-.003Zm0 202.002v6.721h-70.028c.047-2.247.106-4.489.179-6.721h69.849Zm0-11.882v6.721h-69.658c.093-2.247.202-4.489.322-6.721h69.336Zm0-11.882v6.722h-69.034c.14-2.248.293-4.492.46-6.722h68.577-.003Zm0-11.882v6.722h-68.167c.191-2.25.396-4.489.61-6.722h67.557Zm0-11.882v6.722h-67.035c.237-2.25.486-4.492.75-6.722h66.285Zm0-11.881v6.721h-65.643c.29-2.253.595-4.492.911-6.721h64.732Zm0-11.882v6.722h-63.973c.343-2.254.704-4.495 1.073-6.722h62.9Zm0-11.882v6.722h-62.012c.398-2.253.812-4.498 1.237-6.722h60.775Zm0-11.882v6.722h-59.752c.457-2.256.926-4.498 1.412-6.722h58.34Zm0-11.881v6.721h-57.173c.521-2.259 1.058-4.5 1.606-6.721h55.567Zm0-11.882v6.722h-54.254c.589-2.26 1.192-4.501 1.811-6.722h52.443Zm0-11.882v6.722h-50.969a370.886 370.886 0 0 1 2.034-6.722h48.935Zm0-11.882v6.722h-47.279a377.682 377.682 0 0 1 2.277-6.722h45.002Zm0-11.882v6.722h-43.144a335.013 335.013 0 0 1 2.556-6.722h40.588Zm0-11.881v6.721h-38.516a304.33 304.33 0 0 1 2.872-6.721h35.644Zm0-11.882v6.722h-33.299a280.101 280.101 0 0 1 3.238-6.722h30.061Zm0-11.882v6.722h-27.406a239.792 239.792 0 0 1 3.69-6.722h23.716Z" fill="#42B86A"/><path fill-rule="evenodd" clip-rule="evenodd" d="M690.15 105.989v6.721h-9.264c.463-2.27.934-4.512 1.418-6.721h7.846Zm0 202.002v6.721h-21.357c-.126-2.23-.246-4.471-.357-6.721h21.714Zm0-11.882v6.721h-21.952c-.096-2.229-.184-4.471-.266-6.721h22.218Zm0-11.882v6.722h-22.388a975.738 975.738 0 0 1-.179-6.722h22.567Zm0-11.882v6.722h-22.67a1060.75 1060.75 0 0 1-.091-6.722h22.761Zm0-11.882v6.722h-22.799c-.006-1.433-.008-2.868-.008-4.307 0-.806 0-1.609.005-2.415h22.805-.003Zm0-11.881v6.721h-22.778c.017-2.247.044-4.489.079-6.721h22.699Zm0-11.882v6.722h-22.608c.047-2.248.099-4.489.164-6.722h22.444Zm0-11.882v6.722h-22.283c.076-2.25.158-4.492.252-6.722h22.031Zm0-11.882v6.722h-21.802c.105-2.25.22-4.492.343-6.722h21.462-.003Zm0-11.881v6.721h-21.166c.138-2.253.281-4.492.434-6.721h20.732Zm0-11.882v6.722h-20.36c.17-2.254.346-4.495.53-6.722H690.15Zm0-11.882v6.722h-19.381c.202-2.256.413-4.495.633-6.722h18.748Zm0-11.882v6.722h-18.224c.238-2.256.484-4.498.739-6.722h17.485Zm0-11.882v6.722h-16.876c.276-2.259.56-4.5.85-6.722h16.026Zm0-11.881v6.721h-15.325c.316-2.262.639-4.5.973-6.721h14.352Zm0-11.882v6.722h-13.555c.36-2.265.73-4.504 1.108-6.722h12.447Zm0-11.882v6.722h-11.542c.408-2.268.827-4.51 1.255-6.722h10.287Z" fill="#0B8936"/><path fill-rule="evenodd" clip-rule="evenodd" d="M690.15 105.989v1.764h-15.46a204.985 204.985 0 0 0-3.174 4.957h-2.043c1.395-2.3 2.814-4.544 4.256-6.721h16.424-.003Zm0 202.002v1.763h-68.885c-.052 1.65-.099 3.303-.137 4.958h-1.003c.047-2.247.106-4.489.179-6.721h69.849-.003Zm0-11.882v1.764h-68.372c-.088 1.649-.17 3.299-.246 4.957h-1.04c.093-2.247.202-4.489.322-6.721h69.336Zm0-11.882v1.764h-67.613a556.287 556.287 0 0 0-.346 4.958h-1.075c.14-2.248.293-4.492.46-6.722h68.577-.003Zm0-11.882v1.764h-66.596c-.158 1.647-.313 3.3-.457 4.958h-1.114c.191-2.25.396-4.489.61-6.722h67.557Zm0-11.882v1.764h-65.321c-.196 1.647-.381 3.3-.563 4.958h-1.151c.237-2.25.486-4.492.75-6.722h66.285Zm0-11.881v1.764h-63.768c-.234 1.646-.46 3.299-.68 4.957h-1.192c.29-2.253.595-4.492.911-6.721h64.729Zm0-11.882v1.764h-61.936a534.38 534.38 0 0 0-.8 4.958h-1.234c.343-2.254.704-4.495 1.073-6.722h62.897Zm0-11.882v1.764h-59.811a469.925 469.925 0 0 0-.923 4.958h-1.278c.398-2.253.812-4.498 1.237-6.722h60.775Zm0-11.882v1.764h-57.376a424.78 424.78 0 0 0-1.052 4.958h-1.324c.457-2.256.926-4.498 1.412-6.722h58.34Zm0-11.881v1.764h-54.606a417.758 417.758 0 0 0-1.196 4.957h-1.374c.521-2.259 1.058-4.5 1.606-6.721h55.57Zm0-11.882v1.764h-51.482a444.286 444.286 0 0 0-1.348 4.958h-1.427c.589-2.26 1.193-4.501 1.811-6.722h52.446Zm0-11.882v1.764h-47.974a369.81 369.81 0 0 0-1.512 4.958h-1.483a370.886 370.886 0 0 1 2.034-6.722h48.935Zm0-11.882v1.764h-44.038a359.362 359.362 0 0 0-1.694 4.958h-1.544a377.682 377.682 0 0 1 2.277-6.722h44.999Zm0-11.882v1.764h-39.627a385.368 385.368 0 0 0-1.902 4.958h-1.618a335.013 335.013 0 0 1 2.556-6.722h40.591Zm0-11.881v1.764h-34.683a319.656 319.656 0 0 0-2.136 4.957h-1.697a304.33 304.33 0 0 1 2.872-6.721h35.644Zm0-11.882v1.764h-29.097a272.156 272.156 0 0 0-2.412 4.958h-1.79a280.101 280.101 0 0 1 3.238-6.722h30.061Zm0-11.882v1.764h-22.755a248.036 248.036 0 0 0-2.749 4.958h-1.902a239.792 239.792 0 0 1 3.69-6.722h23.716ZM549.286 173.101l-31.283-9.157-2.347 88.916 2.347 75.152h31.283V173.101Z" fill="#0B8936"/><path fill-rule="evenodd" clip-rule="evenodd" d="m441.205 171.574 76.798-7.63v164.068h-78.21l1.412-156.438Z" fill="url(#i)"/><path fill-rule="evenodd" clip-rule="evenodd" d="M458.831 197.679c1.811-.138 3.625-.275 5.443-.428v7.9c-1.818.138-3.632.275-5.443.401v-7.873Zm0 109.998c1.811-.015 3.625-.029 5.443-.029v7.885h-5.443v-7.856Zm-11.899.056c1.811 0 3.626-.015 5.437-.03v7.83h-5.437v-7.8Zm23.798-.126c1.82-.015 3.631-.015 5.442-.027v7.953h-5.442v-7.926Zm11.905-.056c1.814-.015 3.625-.026 5.442-.026v8.008h-5.442v-7.982Zm11.899-.07c1.817-.015 3.631-.015 5.442-.03v8.079h-5.442v-8.049Zm11.904-.056c1.812-.015 3.623-.026 5.437-.041v8.146h-5.437v-8.105ZM458.831 181.95c1.811-.152 3.625-.319 5.443-.484v7.912c-1.818.167-3.632.316-5.443.457v-7.885Zm-11.899 1.078c1.811-.167 3.626-.331 5.437-.498v7.856c-1.811.152-3.626.305-5.437.469v-7.83.003Zm23.798-2.145c1.82-.167 3.631-.319 5.442-.483v7.982l-5.442.457v-7.956Zm11.905-1.063c1.814-.167 3.625-.32 5.442-.484v8.038c-1.82.167-3.631.304-5.442.457v-8.011Zm11.899-1.067c1.817-.167 3.631-.331 5.442-.483v8.104c-1.811.138-3.625.305-5.442.458v-8.079Zm11.904-1.064c1.812-.167 3.623-.331 5.437-.483v8.16l-5.437.458v-8.135ZM458.831 291.96c1.811-.027 3.625-.056 5.443-.082v7.896c-1.818.015-3.632.041-5.443.056v-7.87Zm-11.899.193c1.811-.026 3.626-.056 5.437-.097v7.844c-1.811.015-3.626.041-5.437.056v-7.803Zm23.798-.387c1.82-.026 3.631-.055 5.442-.082v7.967c-1.811.015-3.625.027-5.442.056v-7.941Zm11.905-.179c1.814-.029 3.625-.055 5.442-.082v8.023c-1.82.015-3.631.027-5.442.056v-7.997Zm11.899-.193c1.817-.026 3.631-.056 5.442-.082v8.093c-1.811.015-3.625.027-5.442.056v-8.067Zm11.904-.179c1.812-.026 3.623-.07 5.443-.096v8.148c-1.82.027-3.631.041-5.443.071v-8.123Zm-47.607-14.967c1.811-.041 3.625-.082 5.443-.138v7.9c-1.818.041-3.632.082-5.443.111v-7.873Zm-11.899.317c1.811-.041 3.626-.097 5.437-.138v7.829l-5.437.123v-7.814Zm23.798-.622c1.82-.055 3.631-.096 5.442-.152v7.967c-1.811.041-3.625.07-5.442.111v-7.926Zm11.905-.319c1.814-.041 3.625-.097 5.442-.138v8.023c-1.82.041-3.631.07-5.442.111v-7.996Zm11.899-.319c1.817-.041 3.631-.097 5.442-.138v8.093c-1.811.026-3.625.07-5.442.111v-8.066Zm11.904-.305c1.812-.056 3.623-.097 5.443-.152v8.148l-5.443.123V275Zm-47.607-14.469c1.811-.071 3.625-.138 5.443-.208v7.899c-1.818.056-3.632.124-5.443.179v-7.87Zm-11.899.442c1.811-.067 3.626-.137 5.437-.208v7.83a822.46 822.46 0 0 1-5.437.178v-7.803.003Zm23.798-.885c1.82-.07 3.631-.123 5.442-.193v7.955l-5.442.167v-7.929Zm11.905-.442c1.814-.07 3.625-.123 5.442-.193v8.022l-5.442.167v-7.996Zm11.899-.428 5.442-.208v8.093l-5.442.167v-8.052Zm11.904-.442c1.812-.071 3.623-.138 5.443-.208v8.148c-1.82.056-3.631.123-5.443.179v-8.119Zm-47.607-13.957c1.811-.082 3.625-.167 5.443-.249v7.885c-1.818.082-3.632.167-5.443.235v-7.871Zm-11.899.569c1.811-.082 3.626-.167 5.437-.264v7.844c-1.811.07-3.626.152-5.437.234v-7.814Zm23.798-1.134c1.82-.082 3.631-.167 5.442-.249v7.952c-1.811.082-3.625.153-5.442.235v-7.941.003Zm11.905-.554c1.814-.097 3.625-.179 5.442-.264v8.023c-1.82.082-3.631.152-5.442.223V243.7Zm11.899-.568c1.817-.097 3.631-.179 5.442-.264v8.093c-1.811.07-3.625.152-5.442.223v-8.052Zm11.904-.566c1.812-.082 3.623-.179 5.443-.264v8.149c-1.82.082-3.631.152-5.443.234v-8.119Zm-47.607-13.458c1.811-.097 3.625-.194 5.443-.305v7.9c-1.818.096-3.632.193-5.443.275v-7.87Zm-11.899.706c1.811-.111 3.626-.223 5.437-.319v7.829l-5.437.29v-7.8Zm23.798-1.383c1.82-.111 3.631-.208 5.442-.319v7.952l-5.442.29v-7.926.003Zm11.905-.692c1.814-.111 3.625-.208 5.442-.319v8.023l-5.442.29v-7.996.002Zm11.899-.691c1.817-.111 3.631-.22 5.442-.317v8.094c-1.811.082-3.625.178-5.442.275v-8.052Zm11.904-.692c1.812-.111 3.623-.208 5.443-.319v8.146l-5.443.29v-8.12.003Zm-47.607-12.96c1.811-.123 3.625-.249 5.443-.372v7.9c-1.818.111-3.632.234-5.443.346V213.396Zm-11.899.818c1.811-.126 3.626-.249 5.437-.372v7.829c-1.811.126-3.626.235-5.437.361V214.214Zm23.798-1.632c1.82-.123 3.631-.249 5.442-.372v7.967c-1.811.111-3.625.219-5.442.331v-7.926Zm11.905-.815 5.442-.375v8.023c-1.82.123-3.631.22-5.442.346v-7.997.003Zm11.899-.817c1.817-.123 3.631-.249 5.442-.375v8.093c-1.811.111-3.625.219-5.442.345v-8.063Zm11.904-.818c1.812-.123 3.623-.249 5.443-.372v8.149c-1.82.111-3.631.234-5.443.346v-8.123Zm-59.506-11.495c1.811-.152 3.626-.29 5.437-.442v7.844a827.85 827.85 0 0 0-5.437.401v-7.803Zm23.798-1.896c1.82-.137 3.631-.275 5.442-.427v7.967c-1.811.137-3.625.263-5.442.401v-7.941Zm11.905-.94c1.814-.138 3.625-.276 5.442-.428v8.023c-1.82.137-3.631.263-5.442.401v-7.996Zm11.899-.941c1.817-.138 3.631-.29 5.442-.428v8.093c-1.811.124-3.625.264-5.442.402v-8.067Zm11.904-.94c1.812-.138 3.623-.29 5.443-.428v8.149c-1.82.137-3.631.263-5.443.401v-8.122Z" fill="#42B86A"/><path fill-rule="evenodd" clip-rule="evenodd" d="M458.831 197.679c1.811-.138 3.625-.275 5.443-.428v1.577c-1.495.111-2.987.222-4.482.345v6.309c-.325.026-.644.041-.961.07v-7.873Zm0 109.998c1.811-.015 3.625-.029 5.443-.029v1.576c-1.495 0-2.987.015-4.482.015v6.294h-.961v-7.856Zm-11.899.056c1.811 0 3.626-.015 5.437-.03v1.577c-1.495 0-2.987.014-4.481.014v6.239h-.956v-7.8Zm23.798-.126c1.82-.015 3.631-.015 5.442-.027v1.591c-1.494.015-2.986.015-4.481.03v6.335h-.961v-7.929Zm11.905-.056c1.814-.015 3.625-.026 5.442-.026v1.605c-1.495 0-2.986.015-4.481.015v6.391h-.961v-7.985Zm11.899-.07c1.817-.015 3.631-.015 5.442-.03v1.618c-1.495.014-2.986.014-4.481.014v6.447h-.961v-8.049Zm11.904-.056c1.812-.015 3.623-.026 5.437-.041v1.632c-1.495.015-2.987.015-4.475.026v6.488h-.962v-8.105ZM458.831 181.95c1.811-.152 3.625-.319 5.443-.484v1.592c-1.495.137-2.987.263-4.482.401v6.309c-.325.014-.644.041-.961.07v-7.888Zm-11.899 1.078c1.811-.167 3.626-.331 5.437-.498v1.577c-1.495.137-2.987.275-4.481.401v6.253c-.317.029-.636.056-.956.097v-7.83Zm23.798-2.145c1.82-.167 3.631-.319 5.442-.483v1.606c-1.494.137-2.986.263-4.481.386v6.365c-.325.026-.642.055-.961.082v-7.956Zm11.905-1.063c1.814-.167 3.625-.32 5.442-.484v1.618c-1.495.123-2.986.249-4.481.386v6.417c-.325.027-.642.042-.961.071v-8.008Zm11.899-1.067c1.817-.167 3.631-.331 5.442-.483v1.632c-1.495.111-2.986.249-4.481.387v6.461c-.325.026-.642.055-.961.082v-8.079Zm11.904-1.064c1.812-.167 3.623-.331 5.437-.483v1.632c-1.495.126-2.987.276-4.475.402v6.513c-.326.03-.642.056-.962.071v-8.135ZM458.831 291.96c1.811-.027 3.625-.056 5.443-.082v1.561c-1.495.027-2.987.041-4.482.071v6.308c-.325 0-.644.015-.961.015v-7.873Zm-11.899.193c1.811-.026 3.626-.056 5.437-.097v1.562c-1.495.026-2.987.041-4.481.07v6.253c-.317 0-.636.015-.956.015v-7.803Zm23.798-.387c1.82-.026 3.631-.055 5.442-.082v1.591c-1.494.015-2.986.041-4.481.056v6.364c-.325 0-.642.015-.961.015v-7.944Zm11.905-.179c1.814-.029 3.625-.055 5.442-.082v1.592c-1.495.014-2.986.041-4.481.07v6.405c-.325 0-.642 0-.961.015v-8Zm11.899-.193c1.817-.026 3.631-.056 5.442-.082v1.606c-1.495.026-2.986.041-4.481.07v6.461c-.325 0-.642 0-.961.015v-8.07Zm11.904-.179c1.812-.026 3.623-.07 5.443-.096v1.617c-1.495.026-2.987.056-4.481.067v6.517c-.326 0-.642 0-.962.015v-8.12Zm-47.607-14.967c1.811-.041 3.625-.082 5.443-.138v1.562l-4.482.123v6.309c-.325 0-.644.015-.961.015v-7.871Zm-11.899.317c1.811-.041 3.626-.097 5.437-.138v1.55c-1.495.041-2.987.082-4.481.111v6.268c-.317 0-.636.015-.956.026v-7.817Zm23.798-.622c1.82-.055 3.631-.096 5.442-.152v1.591c-1.494.041-2.986.07-4.481.111v6.365c-.325 0-.642.014-.961.014v-7.929Zm11.905-.319c1.814-.041 3.625-.097 5.442-.138v1.591c-1.495.041-2.986.071-4.481.112v6.417c-.325 0-.642 0-.961.014v-7.996Zm11.899-.319c1.817-.041 3.631-.097 5.442-.138v1.606c-1.495.041-2.986.085-4.481.111v6.461c-.325.015-.642.015-.961.026v-8.066Zm11.904-.305c1.812-.056 3.623-.097 5.443-.152v1.617l-4.481.123v6.502c-.326.015-.642.015-.962.026v-8.119.003Zm-47.607-14.469c1.811-.071 3.625-.138 5.443-.208v1.591c-1.495.055-2.987.097-4.482.152v6.294c-.325.015-.644.029-.961.041v-7.87Zm-11.899.442c1.811-.067 3.626-.137 5.437-.208v1.562l-4.481.167v6.253c-.317 0-.636.015-.956.026v-7.803.003Zm23.798-.885c1.82-.07 3.631-.123 5.442-.193v1.591c-1.494.056-2.986.097-4.481.152v6.35c-.325.015-.642.026-.961.026v-7.926Zm11.905-.442c1.814-.07 3.625-.123 5.442-.194v1.606l-4.481.167v6.391c-.325.015-.642.015-.961.029V259.646Zm11.899-.428 5.442-.208v1.617l-4.481.167v6.447c-.325.014-.642.014-.961.026v-8.049Zm11.904-.442c1.812-.071 3.623-.138 5.443-.208v1.632l-4.481.167v6.502c-.326 0-.642.014-.962.029v-8.122Zm-47.607-13.957c1.811-.082 3.625-.167 5.443-.249v1.562l-4.482.208v6.309c-.325.014-.644.029-.961.041v-7.871Zm-11.899.569c1.811-.082 3.626-.167 5.437-.264v1.562c-1.495.067-2.987.138-4.481.208v6.253c-.317.014-.636.026-.956.055v-7.814Zm23.798-1.134c1.82-.082 3.631-.167 5.442-.249v1.576l-4.481.208v6.364c-.325.015-.642.027-.961.042v-7.941Zm11.905-.554c1.814-.097 3.625-.179 5.442-.264v1.591c-1.495.071-2.986.138-4.481.208v6.417c-.325.015-.642.015-.961.027v-7.982.003Zm11.899-.568c1.817-.097 3.631-.179 5.442-.264v1.606c-1.495.067-2.986.137-4.481.208v6.461c-.325.014-.642.026-.961.041v-8.052Zm11.904-.566c1.812-.082 3.623-.179 5.443-.264v1.618c-1.495.07-2.987.152-4.481.222v6.502c-.326.015-.642.027-.962.041v-8.119Zm-47.607-13.458c1.811-.097 3.625-.194 5.443-.305v1.562c-1.495.097-2.987.167-4.482.264v6.308c-.325.015-.644.027-.961.041v-7.87Zm-11.899.706c1.811-.111 3.626-.223 5.437-.319v1.55c-1.495.085-2.987.178-4.481.263v6.253c-.317.015-.636.027-.956.056v-7.803Zm23.798-1.383c1.82-.111 3.631-.208 5.442-.319v1.576c-1.494.097-2.986.167-4.481.264v6.349c-.325.027-.642.041-.961.056v-7.926Zm11.905-.692c1.814-.111 3.625-.208 5.442-.319v1.591c-1.495.082-2.986.167-4.481.264v6.405c-.325.015-.642.027-.961.056v-7.997Zm11.899-.691c1.817-.111 3.631-.22 5.442-.317v1.606c-1.495.082-2.986.167-4.481.264v6.461c-.325.015-.642.029-.961.041v-8.055Zm11.904-.692c1.812-.111 3.623-.208 5.443-.319v1.617c-1.495.083-2.987.179-4.481.264v6.517c-.326.014-.642.026-.962.041v-8.12Zm-47.607-12.96c1.811-.123 3.625-.249 5.443-.372v1.562c-1.495.111-2.987.208-4.482.305v6.308c-.325.027-.644.041-.961.068v-7.871Zm-11.899.818c1.811-.126 3.626-.249 5.437-.372v1.55a483.76 483.76 0 0 1-4.481.305v6.264a20.79 20.79 0 0 0-.956.071V214.214Zm23.798-1.632c1.82-.123 3.631-.249 5.442-.372v1.576a479.08 479.08 0 0 1-4.481.305v6.364c-.325.015-.642.041-.961.056v-7.929Zm11.905-.815 5.442-.375v1.591c-1.495.097-2.986.208-4.481.305v6.417c-.325.015-.642.026-.961.056v-7.997.003Zm11.899-.817c1.817-.123 3.631-.249 5.442-.375v1.605c-1.495.097-2.986.208-4.481.305v6.461c-.325.026-.642.041-.961.07v-8.066Zm11.904-.818c1.812-.123 3.623-.249 5.443-.372v1.617c-1.495.097-2.987.223-4.481.305v6.514c-.326.015-.642.041-.962.056v-8.12Zm-59.506-11.495c1.811-.152 3.626-.29 5.437-.442v1.561c-1.495.112-2.987.235-4.481.346v6.253a94.56 94.56 0 0 1-.956.082v-7.803.003Zm23.798-1.896c1.82-.137 3.631-.275 5.442-.427v1.591c-1.494.111-2.986.222-4.481.345v6.365c-.325.014-.642.041-.961.07v-7.944Zm11.905-.94c1.814-.138 3.625-.276 5.442-.428v1.606c-1.495.096-2.986.222-4.481.345v6.406c-.325.029-.642.041-.961.07V195.801Zm11.899-.941c1.817-.138 3.631-.29 5.442-.428v1.618c-1.495.097-2.986.223-4.481.346v6.461c-.325.014-.642.041-.961.07v-8.067Zm11.904-.94c1.812-.138 3.623-.29 5.443-.428v1.617c-1.495.112-2.987.249-4.481.361v6.502c-.326.029-.642.055-.962.07v-8.122Z" fill="#0B8936"/><path fill-rule="evenodd" clip-rule="evenodd" d="M530.239 195.508c1.43.304 2.864.621 4.294.926l.026 7.955-4.299-.87-.018-8.008-.003-.003Zm.261 112.017c1.468.029 2.94.041 4.408.07l.029 7.941h-4.419l-.018-8.008v-.003Zm-9.642-.138c1.468.026 2.936.056 4.408.067 0 2.699.006 5.395.009 8.079h-4.417v-8.146Zm19.287.275c1.469.015 2.94.041 4.408.056.018 2.614.029 5.216.044 7.815h-4.417c-.011-2.614-.023-5.228-.038-7.871h.003Zm-9.944-128.173c1.424.345 2.852.706 4.276 1.052l.026 7.967c-1.427-.317-2.854-.651-4.281-.982-.006-2.684-.015-5.353-.021-8.037Zm-9.343-2.283c1.421.36 2.846.706 4.27 1.052 0 2.71.006 5.424.009 8.105-1.427-.331-2.855-.651-4.279-.997v-8.16Zm18.692 4.565 4.273 1.037c.018 2.629.033 5.228.047 7.844-1.427-.316-2.854-.65-4.282-.981-.014-2.628-.026-5.257-.041-7.9h.003Zm-9.088 109.764c1.465.055 2.931.123 4.396.178.006 2.643.018 5.313.026 7.953l-4.402-.123-.017-8.008h-.003Zm-9.604-.416c1.462.07 2.925.137 4.39.193 0 2.684.006 5.394.006 8.078-1.465-.041-2.934-.07-4.396-.123v-8.148Zm19.214.817c1.465.071 2.928.126 4.396.179.015 2.602.032 5.216.044 7.815-1.468-.027-2.937-.082-4.402-.112l-.038-7.885v.003Zm-9.648-16.406c1.456.097 2.922.208 4.378.32l.027 7.94c-1.46-.082-2.922-.152-4.385-.234-.005-2.684-.014-5.353-.02-8.023v-.003Zm-9.566-.677c1.457.112 2.916.208 4.373.32 0 2.684.005 5.38.005 8.078-1.459-.082-2.922-.152-4.381-.249v-8.149h.003Zm19.138 1.357c1.456.097 2.916.193 4.378.305.018 2.602.033 5.201.047 7.814-1.465-.07-2.925-.152-4.384-.234-.015-2.643-.027-5.257-.041-7.885Zm-9.607-16.696c1.453.152 2.907.29 4.358.442.009 2.655.02 5.298.026 7.956l-4.367-.375c-.006-2.67-.014-5.339-.017-8.023Zm-9.531-.941c1.451.153 2.904.305 4.358.443 0 2.699.006 5.394.006 8.078-1.457-.126-2.91-.234-4.364-.372v-8.149Zm19.064 1.882c1.454.152 2.908.29 4.361.427.015 2.614.033 5.216.044 7.815a428.511 428.511 0 0 1-4.369-.36c-.012-2.629-.027-5.242-.038-7.885l.002.003Zm-9.571-16.931c1.447.179 2.898.372 4.343.554.009 2.643.018 5.312.029 7.952-1.45-.167-2.901-.331-4.352-.498-.006-2.669-.012-5.338-.02-8.008Zm-9.493-1.216c1.445.194 2.893.372 4.337.569.006 2.684.006 5.394.009 8.078-1.448-.167-2.898-.319-4.346-.498v-8.149Zm18.991 2.42c1.445.179 2.893.376 4.344.554.017 2.599.029 5.216.046 7.815-1.453-.152-2.904-.319-4.352-.483-.014-2.629-.026-5.257-.038-7.886Zm-9.534-17.194c1.442.223 2.884.443 4.323.665.009 2.655.018 5.298.03 7.953-1.445-.193-2.893-.416-4.335-.61l-.018-8.008Zm-9.457-1.494c1.439.234 2.881.457 4.32.691 0 2.684.006 5.38.009 8.079-1.445-.208-2.887-.402-4.332-.621v-8.146l.003-.003Zm18.915 2.974c1.442.22 2.884.443 4.326.665l.044 7.815c-1.448-.208-2.893-.416-4.335-.61l-.035-7.87Zm-9.499-17.499c1.434.264 2.873.539 4.309.803.008 2.655.02 5.298.029 7.952l-4.317-.747-.018-8.008h-.003Zm-9.419-1.758c1.433.276 2.869.539 4.305.818 0 2.698.006 5.394.009 8.078-1.439-.249-2.878-.483-4.314-.747v-8.149Zm18.842 3.499c1.436.263 2.872.524 4.308.788.018 2.614.029 5.216.047 7.815-1.442-.235-2.881-.484-4.32-.733-.012-2.614-.023-5.242-.038-7.87h.003Zm-18.842-19.767c1.43.316 2.857.621 4.288.94l.008 8.079c-1.433-.29-2.863-.569-4.296-.87v-8.149Zm18.766 4.041c1.43.304 2.857.609 4.293.911.015 2.602.032 5.216.044 7.815-1.436-.291-2.869-.569-4.299-.859-.012-2.614-.027-5.257-.038-7.87v.003Z" fill="#42B86A"/><path fill-rule="evenodd" clip-rule="evenodd" d="M530.239 195.508c1.43.304 2.863.621 4.294.926 0 .524 0 1.052.005 1.576l-3.534-.747c.006 2.157.009 4.287.015 6.417l-.759-.167-.018-8.008-.003.003Zm.261 112.017c1.468.029 2.939.041 4.408.07 0 .539.006 1.066.006 1.591-1.214-.015-2.424-.026-3.635-.041.003 2.13.009 4.26.018 6.391h-.78l-.017-8.008v-.003Zm-9.642-.138c1.468.026 2.936.056 4.407.067v1.618c-1.213-.015-2.423-.027-3.634-.041v6.502h-.779v-8.146h.006Zm19.287.275c1.468.015 2.94.041 4.408.056.006.539.006 1.052.009 1.576-1.214-.014-2.424-.029-3.634-.041.008 2.09.017 4.191.032 6.28h-.78c-.012-2.614-.023-5.228-.038-7.871h.003Zm-9.944-128.173c1.424.345 2.852.706 4.276 1.052 0 .553 0 1.078.006 1.605-1.175-.29-2.348-.58-3.523-.858.006 2.156.012 4.287.02 6.417-.255-.071-.507-.123-.756-.179-.005-2.684-.014-5.353-.02-8.037h-.003Zm-9.343-2.283c1.421.36 2.845.706 4.27 1.052v1.632c-1.173-.29-2.348-.58-3.52-.858v6.528c-.252-.07-.504-.126-.753-.194v-8.16h.003Zm18.692 4.565 4.273 1.037c.006.54.006 1.052.009 1.577-1.175-.276-2.348-.569-3.523-.859.012 2.116.021 4.22.032 6.321a16.648 16.648 0 0 1-.756-.179c-.014-2.628-.026-5.257-.041-7.9l.006.003Zm-9.088 109.764c1.465.055 2.931.123 4.396.178 0 .525 0 1.052.006 1.577-1.208-.041-2.415-.097-3.62-.138l.018 6.42c-.261-.014-.519-.015-.777-.026l-.017-8.008-.006-.003Zm-9.604-.416c1.462.07 2.925.137 4.39.193v1.606c-1.208-.041-2.415-.097-3.62-.138v6.517c-.257 0-.518-.015-.773-.027v-8.148l.003-.003Zm19.214.817c1.465.071 2.928.126 4.396.179 0 .513.006 1.037.009 1.55a292.33 292.33 0 0 1-3.623-.138c.009 2.116.021 4.205.03 6.309-.258 0-.519-.015-.774-.015-.012-2.628-.027-5.271-.038-7.885Zm-9.648-16.406c1.456.097 2.922.208 4.378.32 0 .512 0 1.037.003 1.576l-3.608-.249c.006 2.145.009 4.275.018 6.417-.258-.015-.516-.026-.771-.041l-.02-8.023Zm-9.566-.677c1.456.112 2.916.208 4.372.32v1.605c-1.201-.082-2.403-.167-3.605-.249v6.529c-.257-.015-.515-.027-.77-.056v-8.149h.003Zm19.137 1.357c1.457.097 2.917.193 4.379.305.006.513.006 1.022.009 1.55-1.205-.082-2.406-.153-3.608-.235.009 2.104.018 4.205.029 6.309a69.879 69.879 0 0 0-.77-.041c-.015-2.643-.027-5.257-.041-7.885l.002-.003Zm-9.606-16.696c1.453.152 2.907.29 4.358.442.002.54.002 1.067.005 1.592-1.195-.124-2.394-.235-3.593-.346l.018 6.405c-.258-.026-.516-.056-.768-.07-.006-2.67-.015-5.339-.018-8.023h-.002Zm-9.531-.941c1.45.153 2.904.305 4.358.443v1.617c-1.196-.126-2.395-.234-3.591-.345v6.502a12.848 12.848 0 0 1-.767-.071v-8.148.002Zm19.064 1.882c1.454.152 2.908.29 4.361.427 0 .54.006 1.052.009 1.562-1.199-.111-2.394-.223-3.596-.331.012 2.104.02 4.205.032 6.294-.258-.026-.513-.041-.771-.07-.011-2.629-.026-5.242-.038-7.885l.003.003Zm-9.572-16.931c1.448.179 2.899.372 4.344.554 0 .524.006 1.052.006 1.576-1.193-.152-2.383-.29-3.579-.442.003 2.145.012 4.287.018 6.417-.258-.041-.51-.07-.768-.097-.006-2.669-.012-5.338-.021-8.008Zm-9.492-1.216c1.445.194 2.892.372 4.337.569v1.605c-1.193-.152-2.385-.304-3.575-.442v6.514c-.258-.027-.51-.056-.765-.097v-8.149h.003Zm18.991 2.42c1.445.179 2.893.376 4.343.554.006.513.006 1.038.009 1.55-1.196-.137-2.385-.29-3.581-.442.011 2.115.023 4.205.032 6.308-.255-.029-.513-.055-.768-.082-.015-2.628-.026-5.256-.038-7.885l.003-.003Zm-9.534-17.194c1.442.223 2.884.443 4.323.665 0 .525.006 1.067.006 1.592-1.19-.194-2.377-.373-3.567-.554.006 2.145.012 4.289.015 6.42-.255-.041-.51-.082-.765-.112l-.018-8.008.006-.003Zm-9.457-1.494c1.439.234 2.881.457 4.32.691v1.606c-1.187-.193-2.377-.372-3.561-.554v6.529c-.258-.041-.51-.082-.762-.126v-8.146h.003Zm18.915 2.974c1.442.22 2.884.443 4.326.665 0 .513.005 1.023.008 1.55-1.19-.178-2.376-.36-3.566-.554.008 2.116.02 4.22.032 6.309-.255-.026-.51-.056-.765-.097l-.035-7.87v-.003Zm-9.499-17.499c1.433.264 2.872.539 4.308.803 0 .525.006 1.052.006 1.576a315.615 315.615 0 0 0-3.552-.65l.018 6.417a13.951 13.951 0 0 0-.759-.138l-.018-8.008h-.003Zm-9.419-1.758c1.433.276 2.869.539 4.305.818v1.605c-1.184-.219-2.368-.442-3.549-.65v6.517c-.258-.042-.51-.083-.759-.138v-8.149l.003-.003Zm18.842 3.499c1.436.263 2.872.524 4.308.788.006.524.006 1.037.009 1.55-1.184-.208-2.368-.416-3.553-.636.009 2.101.024 4.22.033 6.309a13.546 13.546 0 0 1-.762-.138c-.012-2.614-.024-5.242-.038-7.87l.003-.003Zm-18.842-19.767c1.43.316 2.857.621 4.287.94 0 .525 0 1.064.003 1.606a154.716 154.716 0 0 0-3.534-.747v6.517c-.255-.056-.507-.097-.756-.167v-8.149Zm18.765 4.041c1.431.304 2.858.609 4.294.911 0 .513.009 1.037.009 1.55-1.181-.235-2.357-.498-3.538-.747.009 2.115.021 4.204.03 6.308a12.668 12.668 0 0 1-.757-.152c-.011-2.614-.026-5.257-.038-7.87Z" fill="#0B8936"/><path fill-rule="evenodd" clip-rule="evenodd" d="m436.906 176.154 4.238 2.423 76.642-6.431 31.5 6.927 2.392-2.919-19.651-8.105-17.975-2.335-73.652 7.296-3.494 3.144Z" fill="#0B8936"/><path fill-rule="evenodd" clip-rule="evenodd" d="m551.144 167.841-30.321-8.726-1.507 3.906 1.507 5.934 30.855 7.199-.534-8.313Z" fill="#0B8936"/><path fill-rule="evenodd" clip-rule="evenodd" d="m438.357 167.841 82.465-8.726v9.84l-83.916 7.199 1.451-8.313Z" fill="#0B8936"/><path fill-rule="evenodd" clip-rule="evenodd" d="M808.4 234.359c-43.402 46.413-83.231 11.832-119.188 22.242-52.648 15.243-81.05 56.482-145.58 24.825-37.434-18.366-97.365 5.045-107.831 9.939-78.233 36.923-197.096 8.19-212.638 11.908-28.505 6.818-77.163 0-90.01 0-80.153 0-66.302 32.311-108.171 39.944C-1.72 355-32.72 400.5 82.067 372.208H808.4V234.359Z" fill="#149C42"/><path fill-rule="evenodd" clip-rule="evenodd" d="M808.4 297.872a16.321 16.321 0 0 0-7.614-1.872c-9.053 0-16.391 7.34-16.391 16.388 0 .551.026 1.096.079 1.632a24.579 24.579 0 0 0-12.523-3.41c-13.634 0-24.689 11.052-24.689 24.683 0 .229.003.457.009.686a15.358 15.358 0 0 0-5.147-.882 15.35 15.35 0 0 0-9.522 3.294c-3.212-7.944-10.87-13.62-19.888-13.942-2.09-7.66-9.097-13.291-17.42-13.291-9.168 0-16.741 6.833-17.901 15.682-7.943 1.776-13.878 8.867-13.878 17.341 0 1.611.217 3.17.619 4.653a23.569 23.569 0 0 0-11.676-3.074c-4.244 0-8.532 1.204-12.066 3.299-3.025-5.497-8.869-9.224-15.586-9.224-1.791 0-3.52.267-5.149.759-4.045-11.923-15.334-20.505-28.625-20.505a30.095 30.095 0 0 0-18.842 6.596c-2.433-5.732-8.115-9.755-14.733-9.755-5.337 0-10.061 2.614-12.969 6.628-4.478-6.845-12.212-11.369-21.004-11.369-9.578 0-17.904 5.371-22.13 13.265a16.67 16.67 0 0 0-4.534-.627c-8.368 0-15.29 6.197-16.427 14.249a20.45 20.45 0 0 0-9.645-2.403c-3.488 0-6.562.815-9.373 2.26-3.91-5.969-10.653-9.913-18.32-9.913-8.069 0-15.12 4.369-18.912 10.871a15.894 15.894 0 0 0-5.944-1.146c-8.801 0-15.94 7.138-15.94 15.937 0 .44.017.873.052 1.304a17.827 17.827 0 0 0-5.996-1.034c-9.115 0-16.632 6.842-17.702 15.667h429.782v-72.75l.005.003Z" fill="#0B8936"/><path fill-rule="evenodd" clip-rule="evenodd" d="M507.611 316.667h34.797l3.493 25.896-3.493 29.416h-34.797v-55.312Z" fill="#DCF2FD"/><path fill-rule="evenodd" clip-rule="evenodd" d="m559.936 300-17.529 16.667v55.312h17.529V300Z" fill="#fff"/><path fill-rule="evenodd" clip-rule="evenodd" d="M507.608 316.667h34.8L559.936 300h-34.799l-17.529 16.667Z" fill="#37C668"/><path fill-rule="evenodd" clip-rule="evenodd" d="M512.37 324.953h5.66v5.658h-5.66v-5.658Zm10.167 0h5.659v5.658h-5.659v-5.658Zm10.167 0h5.659v5.658h-5.659v-5.658Zm-20.334 31.423h5.66v5.658h-5.66v-5.658Zm10.167 0h5.659v5.658h-5.659v-5.658Zm10.167 0h5.659v5.658h-5.659v-5.658Zm-20.334-10.475h5.66v5.658h-5.66v-5.658Zm10.167 0h5.659v5.658h-5.659v-5.658Zm10.167 0h5.659v5.658h-5.659v-5.658Zm-20.334-10.475h5.66v5.658h-5.66v-5.658Zm10.167 0h5.659v5.658h-5.659v-5.658Zm10.167 0h5.659v5.658h-5.659v-5.658Z" fill="#0B8936"/><path fill-rule="evenodd" clip-rule="evenodd" d="M513.179 325.75h4.851v4.864h-4.851v-4.864Zm10.167 0h4.851v4.864h-4.851v-4.864Zm10.167 0h4.85v4.864h-4.85v-4.864Zm-20.334 31.423h4.851v4.864h-4.851v-4.864Zm10.167 0h4.851v4.864h-4.851v-4.864Zm10.167 0h4.85v4.864h-4.85v-4.864Zm-20.334-10.475h4.851v4.864h-4.851v-4.864Zm10.167 0h4.851v4.864h-4.851v-4.864Zm10.167 0h4.85v4.864h-4.85v-4.864Zm-20.334-10.475h4.851v4.864h-4.851v-4.864Zm10.167 0h4.851v4.864h-4.851v-4.864Zm10.167 0h4.85v4.864h-4.85v-4.864ZM556.865 324.953h-11.383v5.658h11.383v-5.658Zm0 31.423h-11.383v5.658h11.383v-5.658Zm0-10.475h-11.383v5.658h11.383v-5.658Zm0-10.475h-11.383v5.658h11.383v-5.658Z" fill="#0B8936"/><path fill-rule="evenodd" clip-rule="evenodd" d="M556.056 325.75h-10.574v4.864h10.574v-4.864Zm0 31.423h-10.574v4.864h10.574v-4.864Zm0-10.475h-10.574v4.864h10.574v-4.864Zm0-10.475h-10.574v4.864h10.574v-4.864Z" fill="#0B8936"/><path fill-rule="evenodd" clip-rule="evenodd" d="M591.055 254.713h73.75l7.406 54.888-7.406 62.339h-73.75V254.713Z" fill="#DCF2FD"/><path fill-rule="evenodd" clip-rule="evenodd" d="M664.805 254.713V371.94h37.153V254.713h-37.153Z" fill="#fff"/><path fill-rule="evenodd" clip-rule="evenodd" d="M588.06 249.348h79.151l.809 11.328h-79.96v-11.328Z" fill="#0B8936"/><path fill-rule="evenodd" clip-rule="evenodd" d="M667.211 249.348v11.328h37.816v-11.328h-37.816Z" fill="#DCF2FD"/><path fill-rule="evenodd" clip-rule="evenodd" d="M601.143 272.28h11.995v11.993h-11.995V272.28Zm21.547 0h11.995v11.993H622.69V272.28Zm21.547 0h11.995v11.993h-11.995V272.28Zm-43.094 66.599h11.995v11.993h-11.995v-11.993Zm21.547 0h11.995v11.993H622.69v-11.993Zm21.547 0h11.995v11.993h-11.995v-11.993Zm-43.094-22.199h11.995v11.993h-11.995V316.68Zm21.547 0h11.995v11.993H622.69V316.68Zm21.547 0h11.995v11.993h-11.995V316.68Zm-43.094-22.199h11.995v11.994h-11.995v-11.994Zm21.547 0h11.995v11.994H622.69v-11.994Zm21.547 0h11.995v11.994h-11.995v-11.994Z" fill="#0B8936"/><path fill-rule="evenodd" clip-rule="evenodd" d="M602.857 273.967h10.281v10.306h-10.281v-10.306Zm21.547 0h10.281v10.306h-10.281v-10.306Zm21.547 0h10.284v10.306h-10.284v-10.306Zm-43.094 66.6h10.281v10.305h-10.281v-10.305Zm21.547 0h10.281v10.305h-10.281v-10.305Zm21.547 0h10.284v10.305h-10.284v-10.305Zm-43.094-22.199h10.284v10.305h-10.284v-10.305Zm21.547 0h10.281v10.305h-10.281v-10.305Zm21.547 0h10.284v10.305h-10.284v-10.305Zm-43.094-22.199h10.284v10.306h-10.284v-10.306Zm21.547 0h10.281v10.306h-10.281v-10.306Zm21.547 0h10.284v10.306h-10.284v-10.306ZM695.446 272.28H671.32v11.993h24.126V272.28Zm0 66.599H671.32v11.993h24.126v-11.993Zm0-22.199H671.32v11.993h24.126V316.68Zm0-22.199H671.32v11.994h24.126v-11.994Z" fill="#0B8936"/><path fill-rule="evenodd" clip-rule="evenodd" d="M693.731 273.967H671.32v10.306h22.411v-10.306Zm0 66.6H671.32v10.305h22.411v-10.305Zm0-22.199H671.32v10.305h22.411v-10.305Zm0-22.199H671.32v10.306h22.411v-10.306Z" fill="#0B8936"/><path fill-rule="evenodd" clip-rule="evenodd" d="M705.027 249.348h-79.154l35.277-20.9h26.969l16.908 20.9Z" fill="#37C668"/><path fill-rule="evenodd" clip-rule="evenodd" d="M588.06 249.348h79.151l20.908-20.9h-79.154l-20.905 20.9Z" fill="#0B8936"/><path fill-rule="evenodd" clip-rule="evenodd" d="M705.911 295.347h48.713l4.891 36.254-4.891 41.175h-48.713v-77.429Z" fill="#DCF2FD"/><path fill-rule="evenodd" clip-rule="evenodd" d="M754.624 295.347v77.429h24.536v-77.429h-24.536Z" fill="#fff"/><path fill-rule="evenodd" clip-rule="evenodd" d="M703.933 291.804h52.279l.533 7.481h-52.812v-7.481Z" fill="#0B8936"/><path fill-rule="evenodd" clip-rule="evenodd" d="M756.212 291.804v7.481h24.976v-7.481h-24.976Z" fill="#DCF2FD"/><path fill-rule="evenodd" clip-rule="evenodd" d="M781.188 291.804h-52.282L752.209 278h17.81l11.169 13.804Z" fill="#37C668"/><path fill-rule="evenodd" clip-rule="evenodd" d="M703.933 291.804h52.279L770.019 278H717.74l-13.807 13.804ZM725.747 308.063h28.876v6.807h-28.876v-6.807Zm0 43.988h28.876v6.807h-28.876v-6.807Zm0-29.325h28.876v6.807h-28.876v-6.807Zm0 14.662h28.876v6.807h-28.876v-6.807Z" fill="#0B8936"/><path fill-rule="evenodd" clip-rule="evenodd" d="M754.623 309.156v5.717h-27.786v-5.717h27.786Zm-27.786 43.988h27.786v5.717h-27.786v-5.717Zm0-29.325h27.786v5.717h-27.786v-5.717Zm0 14.662h27.786v5.717h-27.786v-5.717Z" fill="#62CF87"/><path fill-rule="evenodd" clip-rule="evenodd" d="M771.323 308.063h-16.699v6.807h16.699v-6.807Zm0 43.988h-16.699v6.807h16.699v-6.807Zm0-29.325h-16.699v6.807h16.699v-6.807Zm0 14.662h-16.699v6.807h16.699v-6.807Z" fill="#0B8936"/><path fill-rule="evenodd" clip-rule="evenodd" d="M754.624 309.156v5.717h15.606v-5.717h-15.606Zm15.606 43.988h-15.606v5.717h15.606v-5.717Zm0-29.325h-15.606v5.717h15.606v-5.717Zm0 14.662h-15.606v5.717h15.606v-5.717ZM713.786 308.063h6.791v6.807h-6.791v-6.807Zm0 43.988h6.791v6.807h-6.791v-6.807Zm0-14.663h6.791v6.807h-6.791v-6.807Zm0-14.662h6.791v6.807h-6.791v-6.807Z" fill="#0B8936"/><path fill-rule="evenodd" clip-rule="evenodd" d="M714.879 309.156h5.701v5.717h-5.701v-5.717Zm0 43.988h5.701v5.717h-5.701v-5.717Zm0-14.663h5.701v5.717h-5.701v-5.717Zm0-14.662h5.701v5.717h-5.701v-5.717Z" fill="#62CF87"/><path d="M653.166 65.185c.429-2.69-.38-5.544-2.451-7.614-3.43-3.429-9.01-3.427-12.44 0-2.04 2.039-2.856 4.836-2.469 7.49a9.601 9.601 0 0 1 7.742 7.461 8.918 8.918 0 0 0 1.927-.003 9.593 9.593 0 0 1 7.691-7.334ZM645.416 78.043h-1.841c-.557 0-1.008.45-1.008 1.007v15.436c.635.07 1.279.116 1.928.134.65.018 1.292 0 1.928-.046V79.05c0-.556-.451-1.007-1.007-1.007Z" fill="#3CA15E"/><path d="M645.416 78.043h-1.841c-.557 0-1.008.45-1.008 1.007v15.436c.635.07 1.279.116 1.928.134.65.018 1.292 0 1.928-.046V79.05c0-.556-.451-1.007-1.007-1.007Z" fill="#3CA15E"/><path d="M644.495 94.62c-11.838-.32-21.444-9.597-21.444-21.437 0-2.356.382-4.623 1.084-6.743a21.362 21.362 0 0 0-1.591 8.115c0 11.84 9.605 21.117 21.444 21.438 9.267.25 17.34-5.98 20.273-14.754-3.284 8.044-10.99 13.62-19.766 13.382Z" fill="#3CA15E"/><path d="M627.896 68.34c3.43-3.428 9.011-3.43 12.439 0 3.43 3.429 3.429 9.007 0 12.437-3.428 3.427-9.006 3.427-12.438-.002-3.429-3.429-3.43-9.006-.001-12.434Zm20.76 12.556c3.43 3.428 9.009 3.428 12.438.001 3.429-3.429 3.429-9.008 0-12.437-3.428-3.428-9.011-3.428-12.439.001-3.429 3.428-3.427 9.005.001 12.434Z" fill="#3CA15E"/></g><defs><radialGradient id="a" cx="0" cy="0" r="1" gradientUnits="userSpaceOnUse" gradientTransform="matrix(211.079 0 0 211.036 692.963 104.717)"><stop stop-color="#fff"/><stop offset="1" stop-color="#8FCBEA"/></radialGradient><radialGradient id="b" cx="0" cy="0" r="1" gradientUnits="userSpaceOnUse" gradientTransform="matrix(148.88 0 0 148.849 721.579 146.143)"><stop stop-color="#6085A5"/><stop offset="1" stop-color="#8FCBEA"/></radialGradient><radialGradient id="c" cx="0" cy="0" r="1" gradientUnits="userSpaceOnUse" gradientTransform="matrix(116.993 0 0 116.969 563.433 211.87)"><stop stop-color="#D0DDE8"/><stop offset="1" stop-color="#8FCBEA"/></radialGradient><radialGradient id="d" cx="0" cy="0" r="1" gradientUnits="userSpaceOnUse" gradientTransform="matrix(116.993 0 0 116.969 563.433 211.87)"><stop stop-color="#D0DDE8"/><stop offset="1" stop-color="#8FCBEA"/></radialGradient><radialGradient id="e" cx="0" cy="0" r="1" gradientUnits="userSpaceOnUse" gradientTransform="matrix(116.993 0 0 116.969 563.433 211.87)"><stop stop-color="#fff"/><stop offset="1" stop-color="#D0DDE8"/></radialGradient><radialGradient id="f" cx="0" cy="0" r="1" gradientUnits="userSpaceOnUse" gradientTransform="matrix(102.301 0 0 102.28 768.841 224.912)"><stop stop-color="#fff"/><stop offset="1" stop-color="#D0DDE8"/></radialGradient><radialGradient id="h" cx="0" cy="0" r="1" gradientUnits="userSpaceOnUse" gradientTransform="matrix(162.095 0 0 162.061 645.042 165.981)"><stop stop-color="#fff"/><stop offset="1" stop-color="#D0DDE8"/></radialGradient><radialGradient id="i" cx="0" cy="0" r="1" gradientUnits="userSpaceOnUse" gradientTransform="matrix(90.8946 0 0 90.8758 478.898 245.98)"><stop stop-color="#fff"/><stop offset="1" stop-color="#D0DDE8"/></radialGradient><linearGradient id="g" x1="769.676" y1="129.052" x2="769.676" y2="116.033" gradientUnits="userSpaceOnUse"><stop stop-color="#DDE7EE"/><stop offset="1" stop-color="#fff"/></linearGradient></defs></svg>