<svg width="26" height="26" viewBox="0 0 26 26" fill="none" xmlns="http://www.w3.org/2000/svg">
<g id="cn" clip-path="url(#clip0_242_501)">
<g id="Group">
<path id="Vector" d="M25.5 13C25.5 19.9036 19.9036 25.5 13 25.5C6.09644 25.5 0.5 19.9036 0.5 13C0.5 6.09644 6.09644 0.5 13 0.5C19.9036 0.5 25.5 6.09644 25.5 13Z" fill="#D80027" stroke="#E9E9E9"/>
<g id="Group_2">
<path id="Vector_2" d="M7.11445 7.91173L8.23672 11.3649H11.8676L8.93242 13.5027L10.0547 16.9559L7.11445 14.8231L4.17422 16.9559L5.30156 13.5027L2.36133 11.3649H5.99219L7.11445 7.91173ZM15.4121 20.1348L14.5539 19.0785L13.2844 19.5711L14.0207 18.4285L13.1625 17.3672L14.4777 17.7176L15.2191 16.575L15.2902 17.936L16.6105 18.2863L15.3359 18.7738L15.4121 20.1348ZM17.1184 17.0371L17.5246 15.7371L16.4125 14.95L17.7734 14.9297L18.1746 13.6297L18.6164 14.9195L19.9773 14.9043L18.8855 15.7168L19.3223 17.0067L18.2102 16.2195L17.1184 17.0371ZM19.4187 9.54181L18.8195 10.7656L19.7945 11.7152L18.4488 11.5223L17.8496 12.741L17.616 11.4004L16.2652 11.2074L17.4738 10.5727L17.2402 9.22697L18.2152 10.1766L19.4187 9.54181ZM15.4477 5.83478L15.3461 7.19064L16.6105 7.70353L15.2852 8.02853L15.1887 9.38947L14.4727 8.23165L13.1473 8.55665L14.0258 7.51564L13.3047 6.3629L14.5691 6.87579L15.4477 5.83478Z" fill="#FFDA44"/>
</g>
</g>
</g>
<defs>
<clipPath id="clip0_242_501">
<rect width="26" height="26" fill="white"/>
</clipPath>
</defs>
</svg>
