<svg width="26" height="26" viewBox="0 0 26 26" fill="none" xmlns="http://www.w3.org/2000/svg">
<g id="Frame" clip-path="url(#clip0_439_152)">
<g id="Group">
<g id="Layer 2">
<g id="United kingdom">
<path id="Vector" d="M13 26C20.1797 26 26 20.1797 26 13C26 5.8203 20.1797 0 13 0C5.8203 0 0 5.8203 0 13C0 20.1797 5.8203 26 13 26Z" fill="#012169"/>
<path id="Vector_2" d="M23.0169 4.71552L12.9999 10.7258L2.98301 4.71552C2.14988 5.72296 1.47376 6.85051 0.977539 8.05998L9.21087 13L0.977539 17.94C1.47338 19.1497 2.14921 20.2776 2.98214 21.2853L12.9999 15.2741L23.0177 21.2844C23.8507 20.2767 24.5265 19.1489 25.0223 17.9391L16.789 12.9991L25.0223 8.05911C24.526 6.84995 23.8499 5.7227 23.0169 4.71552Z" fill="white"/>
<path id="Vector_3" d="M2.58938 20.7627L14.2625 13.7583L24.1356 19.682C24.3594 19.3097 24.5645 18.9264 24.75 18.5336L14.2634 12.2416L24.1356 6.31884C23.9108 5.9456 23.669 5.58507 23.4102 5.23724L11.7362 12.2416L1.86311 6.31884C1.64067 6.68978 1.43613 7.07227 1.24951 7.46631L11.7362 13.7583L1.86311 19.682C2.087 20.0541 2.32939 20.4148 2.58938 20.7627Z" fill="#C8102E"/>
<path id="Vector_4" d="M16.25 0.426405C14.1206 -0.142135 11.8794 -0.142135 9.75001 0.426405V9.75001H0.426405C-0.142135 11.8794 -0.142135 14.1206 0.426405 16.25H9.75001V25.5736C11.8794 26.1421 14.1206 26.1421 16.25 25.5736V16.25H25.5736C26.1421 14.1206 26.1421 11.8794 25.5736 9.75001H16.25V0.426405Z" fill="white"/>
<path id="Vector_5" d="M14.95 0.162067C14.305 0.0592379 13.6531 0.00506288 13 0C12.3469 0.00506288 11.695 0.0592379 11.05 0.162067V11.05H0.162067C0.0592379 11.695 0.00506288 12.3469 0 13C0.00506288 13.6531 0.0592379 14.305 0.162067 14.95H11.05V25.8379C11.695 25.9408 12.3469 25.9949 13 26C13.6531 25.9949 14.305 25.9408 14.95 25.8379V14.95H25.8379C25.9408 14.305 25.9949 13.6531 26 13C25.9949 12.3469 25.9408 11.695 25.8379 11.05H14.95V0.162067Z" fill="#C8102E"/>
</g>
</g>
</g>
</g>
<defs>
<clipPath id="clip0_439_152">
<rect width="26" height="26" fill="white"/>
</clipPath>
</defs>
</svg>
