<svg width="26" height="26" viewBox="0 0 26 26" fill="none" xmlns="http://www.w3.org/2000/svg">
<g id="kr" clip-path="url(#clip0_242_490)">
<g id="Group">
<path id="Vector" d="M25.5 13C25.5 19.9036 19.9036 25.5 13 25.5C6.09644 25.5 0.5 19.9036 0.5 13C0.5 6.09644 6.09644 0.5 13 0.5C19.9036 0.5 25.5 6.09644 25.5 13Z" fill="#F2F2F2" stroke="#E9E9E9"/>
<g id="Group_2">
<path id="Vector_2" d="M3.46857 8.38172L6.19044 5.5201L6.799 6.15222L4.07713 9.01466L3.46857 8.38172ZM4.34363 9.31204L7.06469 6.4496L7.67407 7.08172L4.953 9.94416L4.34363 9.31204ZM5.19269 10.2025L7.91375 7.34091L8.52313 7.97222L5.80125 10.8347L5.19269 10.2025ZM19.0385 16.3913L20.1069 15.266L20.7163 15.899L19.6463 17.0267L19.0385 16.3913ZM17.9944 18.7606L17.3843 18.1285L18.4316 17.0267L19.0385 17.6605L17.9944 18.7606ZM19.9233 17.3119L20.982 16.1972L21.5906 16.8293L20.5294 17.9465L19.9233 17.3119ZM18.8711 19.6901L18.2618 19.0572L19.3156 17.9465L19.9233 18.581L18.8711 19.6901ZM21.3826 18.8321L20.7748 18.1975L21.8303 17.0877L22.438 17.7198L21.3826 18.8321ZM19.7202 20.5822L19.1116 19.9493L20.1695 18.8354L20.7773 19.4691L19.7202 20.5822ZM21.4549 7.14591L22.5314 8.2631L21.9261 8.9001L20.8479 7.78047L21.4549 7.14591ZM19.188 6.05391L19.7941 5.41772L20.8479 6.51135L20.241 7.14591L19.188 6.05391ZM18.2999 6.97041L18.9053 6.33341L21.6409 9.17635L21.0364 9.81335L18.2999 6.97041ZM19.1189 9.5956L19.7267 8.96104L20.7894 10.0628L20.1841 10.6998L19.1189 9.5956ZM17.446 7.85847L18.0505 7.22147L19.1173 8.3281L18.5096 8.96266L17.446 7.85847ZM5.22763 15.8583L5.83294 15.2222L8.57188 18.0675L7.96657 18.7037L5.22763 15.8583ZM6.61457 17.8742L7.68138 18.9816L7.07607 19.6178L6.00682 18.5095L6.61457 17.8742ZM4.33957 16.7748L4.94488 16.1378L6.00682 17.2404L5.39988 17.8742L4.33957 16.7748ZM3.48563 17.6629L4.09013 17.0267L6.82907 19.868L6.22375 20.5042L3.48563 17.6629Z" fill="#28292B"/>
</g>
<path id="Vector_3" d="M17.6394 13C17.6666 14.2548 17.1945 15.469 16.3268 16.3759C15.4592 17.2827 14.2669 17.8079 13.0122 17.836C11.7576 17.8077 10.5655 17.2824 9.69805 16.3756C8.83056 15.4688 8.35857 14.2547 8.38581 13C8.35835 11.7452 8.83024 10.5309 9.69776 9.62394C10.5653 8.71696 11.7574 8.19155 13.0122 8.16321C14.267 8.19156 15.4592 8.71693 16.3269 9.62389C17.1945 10.5308 17.6666 11.7452 17.6394 13Z" fill="#2E4593"/>
<path id="Vector_4" d="M17.615 13C17.6161 13.2262 17.6006 13.4521 17.5687 13.676C17.4346 12.7181 16.9341 10.9899 15.0386 10.9566C14.5717 10.8975 14.0991 11.0062 13.7049 11.2632C13.3107 11.5202 13.0206 11.9088 12.8862 12.3598C12.4629 13.4575 12.4174 14.7973 10.5568 14.7973C10.0426 14.8329 9.53352 14.6763 9.1282 14.3579C8.72288 14.0395 8.45022 13.582 8.36306 13.074C8.36144 13.0501 8.36144 13.0263 8.36306 13.0025C8.36087 12.2119 8.54662 11.4321 8.905 10.7275C9.28219 9.96351 9.86387 9.31914 10.5854 8.86602C11.3069 8.41289 12.1399 8.16876 12.9919 8.16077C14.2463 8.19038 15.4378 8.71663 16.3046 9.62395C17.1714 10.5313 17.6427 11.7455 17.615 13Z" fill="#DB2E2E"/>
</g>
</g>
<defs>
<clipPath id="clip0_242_490">
<rect width="26" height="26" fill="white"/>
</clipPath>
</defs>
</svg>
