<svg width="40" height="40" viewBox="0 0 40 40" fill="none" xmlns="http://www.w3.org/2000/svg">
<g id="Frame" clip-path="url(#clip0_110_167)">
<g id="Group">
<path id="Vector" d="M16.1913 38.8281L20 35.6323M20 35.6323L16.8041 31.8236M20 35.6323C9.64469 35.6323 1.25 32.8341 1.25 29.3823C1.25 26.8429 5.79609 24.6588 12.3211 23.6808M31.0296 34.4371C35.7089 33.3006 38.75 31.4598 38.75 29.3823C38.75 26.8429 34.2039 24.6588 27.6789 23.6808M23.125 4.29688C23.125 6.02273 21.7259 7.42188 20 7.42188C18.2741 7.42188 16.875 6.02273 16.875 4.29688C16.875 2.57102 18.2741 1.17188 20 1.17188C21.7259 1.17188 23.125 2.57102 23.125 4.29688ZM14.1406 11.3281V16.0156H16.4844L17.2656 26.9531H22.7344L23.5156 16.0156H25.8594V11.3281C25.8594 9.17078 24.1105 7.42188 21.9531 7.42188H18.0469C15.8895 7.42188 14.1406 9.17078 14.1406 11.3281Z" stroke="#0C8936" stroke-width="2.34375" stroke-miterlimit="10" stroke-linecap="round" stroke-linejoin="round"/>
</g>
</g>
<defs>
<clipPath id="clip0_110_167">
<rect width="40" height="40" fill="white"/>
</clipPath>
</defs>
</svg>
