<svg width="60" height="60" viewBox="0 0 60 60" fill="none" xmlns="http://www.w3.org/2000/svg">
<g id="Group 13843">
<circle id="Ellipse 9" cx="30" cy="30" r="30" fill="url(#paint0_linear_193_1755)"/>
<g id="FirstAidKit">
<path id="Vector" d="M43.749 20.004H37.499V18.754C37.4949 17.7607 37.0985 16.8092 36.3961 16.1069C35.6938 15.4045 34.7423 15.0081 33.749 15.004H26.249C25.2557 15.0081 24.3043 15.4045 23.6019 16.1069C22.8995 16.8092 22.5031 17.7607 22.499 18.754V20.004H16.249C15.586 20.004 14.9501 20.2674 14.4813 20.7362C14.0124 21.205 13.749 21.8409 13.749 22.504V42.504C13.749 43.167 14.0124 43.8029 14.4813 44.2717C14.9501 44.7406 15.586 45.004 16.249 45.004H43.749C44.4121 45.004 45.0479 44.7406 45.5168 44.2717C45.9856 43.8029 46.249 43.167 46.249 42.504V22.504C46.249 21.8409 45.9856 21.205 45.5168 20.7362C45.0479 20.2674 44.4121 20.004 43.749 20.004ZM24.999 18.754C24.999 18.4224 25.1307 18.1045 25.3651 17.8701C25.5996 17.6357 25.9175 17.504 26.249 17.504H33.749C34.0805 17.504 34.3985 17.6357 34.6329 17.8701C34.8673 18.1045 34.999 18.4224 34.999 18.754V20.004H24.999V18.754ZM34.374 33.754H31.249V36.879C31.249 37.2105 31.1173 37.5284 30.8829 37.7629C30.6485 37.9973 30.3305 38.129 29.999 38.129C29.6675 38.129 29.3496 37.9973 29.1151 37.7629C28.8807 37.5284 28.749 37.2105 28.749 36.879V33.754H25.624C25.2925 33.754 24.9746 33.6223 24.7401 33.3879C24.5057 33.1534 24.374 32.8355 24.374 32.504C24.374 32.1724 24.5057 31.8545 24.7401 31.6201C24.9746 31.3857 25.2925 31.254 25.624 31.254H28.749V28.129C28.749 27.7974 28.8807 27.4795 29.1151 27.2451C29.3496 27.0107 29.6675 26.879 29.999 26.879C30.3305 26.879 30.6485 27.0107 30.8829 27.2451C31.1173 27.4795 31.249 27.7974 31.249 28.129V31.254H34.374C34.7055 31.254 35.0235 31.3857 35.2579 31.6201C35.4923 31.8545 35.624 32.1724 35.624 32.504C35.624 32.8355 35.4923 33.1534 35.2579 33.3879C35.0235 33.6223 34.7055 33.754 34.374 33.754Z" fill="white"/>
</g>
</g>
<defs>
<linearGradient id="paint0_linear_193_1755" x1="-31.3055" y1="-33" x2="82.281" y2="-16.1248" gradientUnits="userSpaceOnUse">
<stop stop-color="#34B35E"/>
<stop offset="1" stop-color="#B5A452"/>
</linearGradient>
</defs>
</svg>
