<svg width="80" height="80" viewBox="0 0 80 80" fill="none" xmlns="http://www.w3.org/2000/svg">
<g id="Frame" clip-path="url(#clip0_130_1049)">
<g id="Group">
<path id="Vector" d="M25.1275 16.3533L26.4189 24.5312H9.83109L11.1223 16.3533C11.2094 15.8018 11.4905 15.2996 11.9149 14.9369C12.3393 14.5743 12.8792 14.375 13.4375 14.375H22.8125C23.3707 14.375 23.9107 14.5743 24.335 14.9369C24.7594 15.2996 25.0405 15.8019 25.1275 16.3533ZM65 20.4073L71.6291 13.7783C72.5444 12.863 72.5444 11.379 71.6291 10.4637C70.7138 9.54842 69.2298 9.54842 68.3145 10.4637L63.3427 15.4356L61.6855 13.7781C60.7702 12.8628 59.2863 12.8628 58.3709 13.7781C57.4556 14.6934 57.4556 16.1773 58.3709 17.0926L61.6855 20.4072C62.6008 21.3226 64.0847 21.3226 65 20.4073ZM79.8438 77.6562V46.4062C79.8437 45.9966 79.7364 45.5941 79.5323 45.2389C79.3283 44.8837 79.0348 44.5881 78.6809 44.3817L59.9309 33.4442C58.3684 32.5328 56.4062 33.6598 56.4062 35.4687V42.3256L41.1809 33.4442C39.6184 32.5328 37.6562 33.6598 37.6562 35.4687V45.625H2.5C1.20562 45.625 0.15625 46.6744 0.15625 47.9687V77.6562C0.15625 78.9506 1.20562 80 2.5 80H77.5C78.7944 80 79.8438 78.9506 79.8438 77.6562Z" fill="url(#paint0_linear_130_1049)"/>
<path id="Vector_2" d="M64.9999 0C56.815 0 50.1561 6.65891 50.1561 14.8438C50.1561 23.0286 56.815 29.6875 64.9999 29.6875C73.1847 29.6875 79.8436 23.0286 79.8436 14.8438C79.8436 6.65891 73.1847 0 64.9999 0ZM71.6291 13.7781L64.9999 20.4073C64.0845 21.3227 62.6006 21.3227 61.6853 20.4073L58.3708 17.0928C57.4555 16.1775 57.4555 14.6936 58.3708 13.7783C59.2861 12.863 60.77 12.863 61.6853 13.7783L63.3427 15.4356L68.3145 10.4638C69.2299 9.54844 70.7138 9.54844 71.6291 10.4638C72.5444 11.3791 72.5442 12.863 71.6291 13.7781ZM6.50049 45.625L9.83111 24.5312H26.4188L29.7494 45.625H6.50049ZM21.2499 69.0625H10.3124C9.01799 69.0625 7.96861 68.0131 7.96861 66.7188V55.7812C7.96861 54.4869 9.01799 53.4375 10.3124 53.4375H21.2499C22.5442 53.4375 23.5936 54.4869 23.5936 55.7812V66.7188C23.5936 68.0131 22.5442 69.0625 21.2499 69.0625ZM43.1249 69.0625H32.1874C30.893 69.0625 29.8436 68.0131 29.8436 66.7188V55.7812C29.8436 54.4869 30.893 53.4375 32.1874 53.4375H43.1249C44.4192 53.4375 45.4686 54.4869 45.4686 55.7812V66.7188C45.4686 68.0131 44.4192 69.0625 43.1249 69.0625ZM72.0311 80H51.7186V55.7812C51.7186 54.4869 52.768 53.4375 54.0624 53.4375H69.6874C70.9817 53.4375 72.0311 54.4869 72.0311 55.7812V80ZM18.1249 9.375C16.8305 9.375 15.7811 8.32563 15.7811 7.03125C15.7811 3.15422 18.9353 0 22.8124 0H32.1874C33.4817 0 34.5311 1.04937 34.5311 2.34375C34.5311 3.63812 33.4817 4.6875 32.1874 4.6875H22.8124C21.52 4.6875 20.4686 5.73891 20.4686 7.03125C20.4686 8.32563 19.4192 9.375 18.1249 9.375Z" fill="url(#paint1_linear_130_1049)"/>
</g>
</g>
<defs>
<linearGradient id="paint0_linear_130_1049" x1="40" y1="80" x2="40" y2="9.77717" gradientUnits="userSpaceOnUse">
<stop stop-color="#CAFEE9"/>
<stop offset="1" stop-color="white"/>
</linearGradient>
<linearGradient id="paint1_linear_130_1049" x1="43.1721" y1="0" x2="43.1721" y2="80" gradientUnits="userSpaceOnUse">
<stop stop-color="#34B35E"/>
<stop offset="1" stop-color="#B5A452"/>
</linearGradient>
<clipPath id="clip0_130_1049">
<rect width="80" height="80" fill="white"/>
</clipPath>
</defs>
</svg>
