<svg width="80" height="80" viewBox="0 0 80 80" fill="none" xmlns="http://www.w3.org/2000/svg">
<g id="Frame">
<g id="Group">
<path id="Vector" d="M59.5312 71.4062V77.6562C59.5312 78.9506 58.4819 80 57.1875 80C55.8931 80 54.8438 78.9506 54.8438 77.6562V76.875H31.4062V77.6562C31.4062 78.9506 30.3569 80 29.0625 80C27.7681 80 26.7188 78.9506 26.7188 77.6562V76.875H12.6562V77.6562C12.6562 78.9506 11.6069 80 10.3125 80C9.01812 80 7.96875 78.9506 7.96875 77.6562V71.4062C7.96875 70.1119 9.01812 69.0625 10.3125 69.0625C11.6069 69.0625 12.6562 70.1119 12.6562 71.4062V72.1875H26.7188V71.4062C26.7188 70.1119 27.7681 69.0625 29.0625 69.0625C30.3569 69.0625 31.4062 70.1119 31.4062 71.4062V72.1875H54.8438V71.4062C54.8438 70.1119 55.8931 69.0625 57.1875 69.0625C58.4819 69.0625 59.5312 70.1119 59.5312 71.4062ZM17.3438 53.125C16.0494 53.125 15 54.1744 15 55.4688V64.0625H19.6875V55.4688C19.6875 54.1744 18.6381 53.125 17.3438 53.125ZM17.3438 43.75C16.0494 43.75 15 44.7994 15 46.0938C15 47.3881 16.0494 48.4375 17.3438 48.4375C18.6381 48.4375 19.6875 47.3881 19.6875 46.0938C19.6875 44.7994 18.6381 43.75 17.3438 43.75ZM17.3438 39.0625C18.6381 39.0625 19.6875 38.0131 19.6875 36.7188C19.6875 35.4244 18.6381 34.375 17.3438 34.375C16.0494 34.375 15 35.4244 15 36.7188C15 38.0131 16.0494 39.0625 17.3438 39.0625ZM59.5312 11.7188V61.7188C59.5312 63.0131 58.4819 64.0625 57.1875 64.0625H26.7188V11.7188C26.7188 10.4244 27.7681 9.375 29.0625 9.375H57.1875C58.4819 9.375 59.5312 10.4244 59.5312 11.7188Z" fill="url(#paint0_linear_130_1045)"/>
<path id="Vector_2" d="M50.1565 49.2188V64.0625H36.094V49.2188C36.094 47.9244 37.1433 46.875 38.4377 46.875H47.8127C49.1071 46.875 50.1565 47.9244 50.1565 49.2188ZM4.88412 29.8078L26.719 22.5295V64.0625H19.6877V55.4688C19.6877 54.1744 18.6383 53.125 17.344 53.125C16.0496 53.125 15.0002 54.1744 15.0002 55.4688V64.0625H10.3127C9.01834 64.0625 7.96897 63.0131 7.96897 61.7188V33.7205L6.36631 34.2547C5.13834 34.6641 3.811 34.0003 3.40162 32.7723C2.9924 31.5444 3.656 30.217 4.88412 29.8078ZM15.0002 36.7188C15.0002 38.0131 16.0496 39.0625 17.344 39.0625C18.6383 39.0625 19.6877 38.0131 19.6877 36.7188C19.6877 35.4244 18.6383 34.375 17.344 34.375C16.0496 34.375 15.0002 35.4244 15.0002 36.7188ZM15.0002 46.0938C15.0002 47.3881 16.0496 48.4375 17.344 48.4375C18.6383 48.4375 19.6877 47.3881 19.6877 46.0938C19.6877 44.7994 18.6383 43.75 17.344 43.75C16.0496 43.75 15.0002 44.7994 15.0002 46.0938ZM38.4377 21.0938C39.7321 21.0938 40.7815 20.0444 40.7815 18.75C40.7815 17.4556 39.7321 16.4062 38.4377 16.4062C37.1433 16.4062 36.094 17.4556 36.094 18.75C36.094 20.0444 37.1433 21.0938 38.4377 21.0938ZM38.4377 30.4688C39.7321 30.4688 40.7815 29.4194 40.7815 28.125C40.7815 26.8306 39.7321 25.7812 38.4377 25.7812C37.1433 25.7812 36.094 26.8306 36.094 28.125C36.094 29.4194 37.1433 30.4688 38.4377 30.4688ZM74.3752 14.0625C75.6696 14.0625 76.719 13.0131 76.719 11.7188C76.719 10.4244 75.6696 9.375 74.3752 9.375H73.594V4.6875H74.3752C75.6696 4.6875 76.719 3.63812 76.719 2.34375C76.719 1.04937 75.6696 0 74.3752 0H68.1252C66.8308 0 65.7815 1.04937 65.7815 2.34375C65.7815 3.63812 66.8308 4.6875 68.1252 4.6875H68.9065V9.375H68.1252C66.8308 9.375 65.7815 10.4244 65.7815 11.7188C65.7815 13.0131 66.8308 14.0625 68.1252 14.0625H68.9065V59.375H68.1252C66.8308 59.375 65.7815 60.4244 65.7815 61.7188C65.7815 63.0131 66.8308 64.0625 68.1252 64.0625H74.3752C75.6696 64.0625 76.719 63.0131 76.719 61.7188C76.719 60.4244 75.6696 59.375 74.3752 59.375H73.594V14.0625H74.3752ZM47.8127 16.4062C46.5183 16.4062 45.469 17.4556 45.469 18.75C45.469 20.0444 46.5183 21.0938 47.8127 21.0938C49.1071 21.0938 50.1565 20.0444 50.1565 18.75C50.1565 17.4556 49.1071 16.4062 47.8127 16.4062ZM38.4377 39.8438C39.7321 39.8438 40.7815 38.7944 40.7815 37.5C40.7815 36.2056 39.7321 35.1562 38.4377 35.1562C37.1433 35.1562 36.094 36.2056 36.094 37.5C36.094 38.7944 37.1433 39.8438 38.4377 39.8438ZM47.8127 35.1562C46.5183 35.1562 45.469 36.2056 45.469 37.5C45.469 38.7944 46.5183 39.8438 47.8127 39.8438C49.1071 39.8438 50.1565 38.7944 50.1565 37.5C50.1565 36.2056 49.1071 35.1562 47.8127 35.1562ZM47.8127 25.7812C46.5183 25.7812 45.469 26.8306 45.469 28.125C45.469 29.4194 46.5183 30.4688 47.8127 30.4688C49.1071 30.4688 50.1565 29.4194 50.1565 28.125C50.1565 26.8306 49.1071 25.7812 47.8127 25.7812ZM55.6252 0H30.6252C29.3308 0 28.2815 1.04937 28.2815 2.34375C28.2815 3.63812 29.3308 4.6875 30.6252 4.6875H31.4065V9.375H54.844V4.6875H55.6252C56.9196 4.6875 57.969 3.63812 57.969 2.34375C57.969 1.04937 56.9196 0 55.6252 0Z" fill="url(#paint1_linear_130_1045)"/>
</g>
</g>
<defs>
<linearGradient id="paint0_linear_130_1045" x1="33.75" y1="80" x2="33.75" y2="9.375" gradientUnits="userSpaceOnUse">
<stop stop-color="#C3FFE8"/>
<stop offset="0.997" stop-color="#F0FFF4"/>
</linearGradient>
<linearGradient id="paint1_linear_130_1045" x1="40" y1="-52.5" x2="40" y2="64" gradientUnits="userSpaceOnUse">
<stop stop-color="#2CA755"/>
<stop offset="1" stop-color="#B5A452"/>
</linearGradient>
</defs>
</svg>
