<svg width="79" height="80" viewBox="0 0 79 80" fill="none" xmlns="http://www.w3.org/2000/svg">
<g id="Group 34159">
<path id="Vector" d="M55.5744 51.7575C55.4602 51.482 55.3823 51.1866 55.2282 50.9347C52.5424 46.5581 49.8421 42.1887 47.1545 37.812C44.9073 34.153 42.6764 30.4832 40.4382 26.8188C40.3567 26.8496 40.2751 26.8804 40.1918 26.9112C39.4759 26.8695 38.7583 26.8278 38.0424 26.7861C38.0098 26.9003 38.0007 27.0308 37.9409 27.1287C34.2276 33.1545 30.5033 39.1767 26.7936 45.2043C25.4598 47.3718 24.1549 49.5574 22.8374 51.7357C23.0223 52.0076 23.2198 52.2722 23.392 52.5531C25.5232 56.0127 27.6617 59.4687 29.7748 62.9411C30.1336 63.5319 30.2985 63.5717 30.6846 62.9356C33.3432 58.5626 36.038 54.2113 38.722 49.8546C39.076 49.2807 39.4246 49.2741 39.7677 49.8347C42.4625 54.2204 45.1556 58.6079 47.8668 62.9845C47.9719 63.1531 47.9483 63.5753 48.3688 63.4104C48.4177 63.3289 48.4666 63.2473 48.5174 63.1658C50.8697 59.3636 53.2238 55.5615 55.5762 51.7593L55.5744 51.7575Z" fill="url(#paint0_linear_130_874)"/>
<path id="Vector_2" d="M55.9023 3.60528C55.8388 2.17358 54.9254 1.21851 53.5046 1.18589C52.0312 1.15327 50.556 1.20039 49.0827 1.21126C46.232 1.2022 43.3812 1.19314 40.5287 1.18407C40.4852 1.35624 40.4019 1.53022 40.4019 1.70239C40.4091 6.28926 40.4254 10.8743 40.4399 15.4612C42.4062 15.4503 44.3726 15.4394 46.3371 15.4286C47.9047 15.4249 49.4741 15.4231 51.0417 15.4195C51.5184 15.4195 51.9986 15.4503 52.4734 15.4195C53.6496 15.3416 54.7424 15.4539 55.5072 16.5159C55.5815 16.6192 55.7645 16.6482 55.8968 16.7099C55.9077 13.5402 55.9168 10.3705 55.9294 7.20083C55.9294 6.7822 55.953 6.36537 55.9675 5.94674C55.9458 5.16565 55.9349 4.38456 55.9004 3.60528H55.9023Z" fill="#50AB6D"/>
<path id="Vector_3" d="M40.4378 26.8206C40.3563 26.8514 40.2747 26.8822 40.1914 26.913C39.4755 26.8713 38.7578 26.8296 38.042 26.7879C38.0456 18.6852 38.0492 10.5826 38.0529 2.48168C38.0529 2.20984 38.0583 1.93981 38.0529 1.66797C38.0366 0.894127 38.1435 0.169216 39.075 0.0206092C39.9449 -0.118936 40.3073 0.470054 40.5303 1.1859C40.4868 1.35807 40.4034 1.53205 40.4034 1.70421C40.4106 6.29109 40.4269 10.8761 40.4414 15.463C40.4414 19.2489 40.4396 23.0347 40.4378 26.8206Z" fill="#E8E8E8"/>
<path id="Vector_4" d="M78.3074 79.4128C75.627 75.0525 72.9593 70.6813 70.2572 66.3354C68.8817 64.1227 67.6095 61.8464 66.1071 59.7134L66.089 59.688C66.089 59.6934 66.089 59.6989 66.0854 59.7061C65.9132 59.6427 65.8933 59.4923 65.8896 59.3346C65.7084 58.6568 65.4855 58.7021 65.152 59.2603C64.3891 60.5343 63.5971 61.7921 62.749 63.1658C61.0201 60.3549 59.4053 57.6836 57.7416 55.0431C57.0421 53.934 56.5021 52.718 55.5742 51.7593C53.2218 55.5615 50.8677 59.3636 48.5153 63.1658C48.4664 63.2473 48.4157 63.3289 48.3667 63.4104C47.9463 63.5753 47.9699 63.1531 47.8647 62.9845C45.1554 58.6079 42.4605 54.2204 39.7657 49.8347C39.4226 49.2753 39.074 49.2819 38.72 49.8546C36.036 54.2113 33.3412 58.5626 30.6825 62.9356C30.2965 63.5717 30.1316 63.5318 29.7728 62.941C27.6597 59.4705 25.523 56.0127 23.3899 52.5531C23.2178 52.274 23.0202 52.0076 22.8354 51.7357C20.4903 55.5089 18.1434 59.2821 15.7421 63.1458C14.9411 61.8573 14.2162 60.683 13.4859 59.5122C12.9712 58.6858 12.9567 58.6804 12.4492 59.505C8.40785 66.0708 4.3701 72.6385 0.335972 79.2099C0.200051 79.4309 -0.0137977 79.6249 0.000700517 80H0.885092C24.9032 80 48.9213 80 72.9394 80C73.2402 80 73.5393 79.9764 73.8401 79.962H78.6046C78.4723 79.7173 78.398 79.5614 78.3074 79.4146V79.4128Z" fill="url(#paint1_linear_130_874)"/>
<path id="Vector_5" d="M55.8986 16.7099C56.0128 18.0981 55.7573 19.3322 54.4687 20.1351C52.5151 20.2909 50.5597 20.2493 48.6078 20.1605C47.2649 20.0988 46.4458 19.1474 46.3878 17.7737C46.3552 16.9926 46.3534 16.2097 46.3389 15.4286C47.9065 15.425 49.4759 15.4232 51.0435 15.4195C51.5202 15.4195 52.0004 15.4503 52.4752 15.4195C53.6514 15.3416 54.7442 15.454 55.509 16.516C55.5833 16.6193 55.7663 16.6483 55.8986 16.7099Z" fill="#006320"/>
<path id="Vector_6" d="M66.1073 59.7134C65.9133 59.6554 65.8934 59.4995 65.8916 59.3328C66.0348 59.4198 66.0928 59.5539 66.1073 59.7134Z" fill="#56A347"/>
<path id="Vector_7" d="M65.4272 6.39438C65.4309 6.04279 65.2605 5.91594 64.9307 5.92681C63.4935 5.9703 62.0528 5.83438 60.6193 6.00111C59.0698 5.98299 57.5203 5.96668 55.9708 5.94856C55.9581 6.36719 55.9345 6.78402 55.9327 7.20265C55.92 10.3723 55.911 13.542 55.9001 16.7117C56.0143 18.0999 55.7587 19.334 54.4702 20.1369C56.5217 20.1369 58.5732 20.1369 60.6247 20.1369C60.6881 20.1369 60.7534 20.1369 60.8168 20.1369C62.3246 20.1622 63.8324 20.3036 65.3366 20.0644C65.545 15.5101 65.3711 10.9523 65.4291 6.39619L65.4272 6.39438Z" fill="url(#paint2_linear_130_874)"/>
<path id="Vector_8" d="M48.3667 63.4086C48.4156 63.3271 48.4664 63.2455 48.5153 63.1621C48.4664 63.2437 48.4156 63.3271 48.3667 63.4086Z" fill="#FFEAC3"/>
</g>
<defs>
<linearGradient id="paint0_linear_130_874" x1="39.2068" y1="26.7861" x2="39.2068" y2="63.4479" gradientUnits="userSpaceOnUse">
<stop stop-color="#38B35E"/>
<stop offset="1" stop-color="#B0A553"/>
</linearGradient>
<linearGradient id="paint1_linear_130_874" x1="39.3023" y1="49.42" x2="39.3023" y2="80" gradientUnits="userSpaceOnUse">
<stop stop-color="#D9ECE0"/>
<stop offset="1" stop-color="#C8FFEA"/>
</linearGradient>
<linearGradient id="paint2_linear_130_874" x1="59.9564" y1="5.91544" x2="59.9564" y2="20.2014" gradientUnits="userSpaceOnUse">
<stop stop-color="#5FAF5B"/>
<stop offset="1" stop-color="#B1A553"/>
</linearGradient>
</defs>
</svg>
