<svg width="80" height="80" viewBox="0 0 80 80" fill="none" xmlns="http://www.w3.org/2000/svg">
<g id="Frame" clip-path="url(#clip0_130_989)">
<g id="Group">
<g id="Group_2">
<g id="Group_3">
<path id="Vector" d="M42.7587 56.5517H40.0001V39.1917L34.1973 33.389L36.1477 31.4386L42.3546 37.6455C42.6133 37.9041 42.7586 38.2549 42.7587 38.6207V56.5517ZM32.1242 14.771L34.0732 12.8207L53.3808 32.1283L51.4304 34.0786L32.1242 14.771ZM1.37939 13.7931H4.13802V49.6552H1.37939V13.7931Z" fill="#CCCCCC"/>
</g>
<path id="Vector_2" d="M11.7242 34.4828C12.6387 34.4828 13.5158 34.8461 14.1625 35.4927C14.8091 36.1394 15.1724 37.0165 15.1724 37.931V49.6552H8.27588V37.931C8.27588 37.0165 8.63918 36.1394 9.28586 35.4927C9.93253 34.8461 10.8096 34.4828 11.7242 34.4828Z" fill="#006320"/>
<path id="Vector_3" d="M40 11.0345H2.75862C1.23508 11.0345 0 12.2696 0 13.7931C0 15.3166 1.23508 16.5517 2.75862 16.5517H40C41.5235 16.5517 42.7586 15.3166 42.7586 13.7931C42.7586 12.2696 41.5235 11.0345 40 11.0345Z" fill="#D9ECE0"/>
<path id="Vector_4" d="M5.51724 67.5862H2.75862C2.02766 67.584 1.32726 67.2927 0.810393 66.7758C0.293524 66.2589 0.00218307 65.5585 0 64.8276L0 49.6552C0.00218307 48.9242 0.293524 48.2238 0.810393 47.7069C1.32726 47.1901 2.02766 46.8987 2.75862 46.8965H14.4C16.6996 46.8981 18.9415 47.6165 20.8138 48.9517L24.7034 51.7379C26.5757 53.0731 28.8176 53.7915 31.1172 53.7931H49.6552V59.3103L41.3793 67.5862H5.51724Z" fill="url(#paint0_linear_130_989)"/>
<path id="Vector_5" d="M55.1725 4.13793V62.8138C53.6625 61.4427 51.6948 60.6852 49.6553 60.6897V4.13793C49.6575 3.40697 49.9488 2.70657 50.4657 2.1897C50.9825 1.67283 51.6829 1.38149 52.4139 1.37931C53.1439 1.38472 53.8424 1.6771 54.3585 2.19328C54.8747 2.70945 55.1671 3.40797 55.1725 4.13793Z" fill="#D9ECE0"/>
<path id="Vector_6" d="M80.0001 64.8276C79.998 65.5586 79.7066 66.2589 79.1898 66.7758C78.6729 67.2927 77.9725 67.584 77.2415 67.5862H56.5519C56.5564 65.5466 55.7988 63.579 54.4277 62.069H77.2415C77.9715 62.0744 78.67 62.3668 79.1862 62.8829C79.7024 63.3991 79.9947 64.0976 80.0001 64.8276Z" fill="#D9ECE0"/>
<path id="Vector_7" d="M77.2412 42.7586H63.4481C61.9245 42.7586 60.6895 43.9937 60.6895 45.5172V59.3103C60.6895 60.8339 61.9245 62.069 63.4481 62.069H77.2412C78.7647 62.069 79.9998 60.8339 79.9998 59.3103V45.5172C79.9998 43.9937 78.7647 42.7586 77.2412 42.7586Z" fill="#D9ECE0"/>
<path id="Vector_8" d="M74.4829 42.7586V51.0345C74.4829 51.2842 74.4152 51.5292 74.2869 51.7435C74.1585 51.9577 73.9745 52.1331 73.7543 52.2509C73.5341 52.3687 73.2861 52.4245 73.0367 52.4124C72.7872 52.4003 72.5458 52.3207 72.3381 52.1821L71.1105 51.3641C70.8838 51.2129 70.6174 51.1322 70.345 51.1322C70.0725 51.1322 69.8061 51.2129 69.5794 51.3641L68.3519 52.1821C68.1441 52.3207 67.9027 52.4003 67.6533 52.4124C67.4038 52.4245 67.1558 52.3687 66.9356 52.2509C66.7155 52.1331 66.5314 51.9577 66.4031 51.7435C66.2747 51.5292 66.207 51.2842 66.207 51.0345V42.7586" fill="url(#paint1_linear_130_989)"/>
<path id="Vector_9" d="M77.2412 23.4483H63.4481C61.9245 23.4483 60.6895 24.6833 60.6895 26.2069V40C60.6895 41.5235 61.9245 42.7586 63.4481 42.7586H77.2412C78.7647 42.7586 79.9998 41.5235 79.9998 40V26.2069C79.9998 24.6833 78.7647 23.4483 77.2412 23.4483Z" fill="#D9ECE0"/>
<path id="Vector_10" d="M74.4829 23.4483V31.7241C74.4829 31.9738 74.4152 32.2189 74.2869 32.4331C74.1585 32.6473 73.9745 32.8227 73.7543 32.9405C73.5341 33.0583 73.2861 33.1141 73.0367 33.102C72.7872 33.0899 72.5458 33.0103 72.3381 32.8717L71.1105 32.0538C70.8838 31.9026 70.6174 31.8219 70.345 31.8219C70.0725 31.8219 69.8061 31.9026 69.5794 32.0538L68.3519 32.8717C68.1441 33.0103 67.9027 33.0899 67.6533 33.102C67.4038 33.1141 67.1558 33.0583 66.9356 32.9405C66.7155 32.8227 66.5314 32.6473 66.4031 32.4331C66.2747 32.2189 66.207 31.9738 66.207 31.7241V23.4483" fill="url(#paint2_linear_130_989)"/>
<path id="Vector_11" d="M13.793 75.8621C18.3636 75.8621 22.0688 72.1568 22.0688 67.5862C22.0688 63.0156 18.3636 59.3103 13.793 59.3103C9.22232 59.3103 5.51709 63.0156 5.51709 67.5862C5.51709 72.1568 9.22232 75.8621 13.793 75.8621Z" fill="#006320"/>
<path id="Vector_12" d="M13.7933 70.3448C15.3168 70.3448 16.5519 69.1098 16.5519 67.5862C16.5519 66.0627 15.3168 64.8276 13.7933 64.8276C12.2697 64.8276 11.0347 66.0627 11.0347 67.5862C11.0347 69.1098 12.2697 70.3448 13.7933 70.3448Z" fill="#ECF0F1"/>
<path id="Vector_13" d="M57.9311 67.5862C57.9311 69.223 57.4458 70.8231 56.5364 72.184C55.627 73.545 54.3345 74.6057 52.8223 75.2321C51.3101 75.8585 49.6461 76.0224 48.0407 75.7031C46.4354 75.3837 44.9607 74.5955 43.8033 73.4381C42.6459 72.2807 41.8577 70.8061 41.5384 69.2008C41.2191 67.5954 41.383 65.9314 42.0094 64.4192C42.6357 62.907 43.6965 61.6144 45.0574 60.7051C46.4184 59.7957 48.0185 59.3104 49.6553 59.3104C51.6948 59.3059 53.6625 60.0634 55.1725 61.4345C55.4042 61.6248 55.6166 61.8372 55.807 62.069C57.178 63.579 57.9356 65.5466 57.9311 67.5862Z" fill="#006320"/>
<path id="Vector_14" d="M49.6551 70.3448C51.1786 70.3448 52.4137 69.1098 52.4137 67.5862C52.4137 66.0627 51.1786 64.8276 49.6551 64.8276C48.1316 64.8276 46.8965 66.0627 46.8965 67.5862C46.8965 69.1098 48.1316 70.3448 49.6551 70.3448Z" fill="#ECF0F1"/>
<path id="Vector_15" d="M31.7242 37.2414C31.4515 37.2413 31.1849 37.1604 30.9581 37.0088C30.7313 36.8573 30.5546 36.6419 30.4502 36.3899C30.3458 36.1379 30.3185 35.8606 30.3717 35.5931C30.4249 35.3255 30.5562 35.0798 30.7491 34.8869L37.6456 27.9903C37.9057 27.7391 38.2542 27.6001 38.6158 27.6032C38.9775 27.6063 39.3234 27.7514 39.5792 28.0071C39.8349 28.2629 39.9799 28.6088 39.9831 28.9705C39.9862 29.3321 39.8472 29.6805 39.596 29.9407L32.6994 36.8372C32.4408 37.0959 32.09 37.2413 31.7242 37.2414Z" fill="#006320"/>
<path id="Vector_16" d="M64.8277 78.6207H2.7587C2.39289 78.6207 2.04206 78.4754 1.78339 78.2167C1.52471 77.958 1.37939 77.6072 1.37939 77.2414C1.37939 76.8756 1.52471 76.5247 1.78339 76.2661C2.04206 76.0074 2.39289 75.8621 2.7587 75.8621H64.8277C65.1935 75.8621 65.5443 76.0074 65.803 76.2661C66.0617 76.5247 66.207 76.8756 66.207 77.2414C66.207 77.6072 66.0617 77.958 65.803 78.2167C65.5443 78.4754 65.1935 78.6207 64.8277 78.6207ZM75.8622 78.6207H70.3449C69.9791 78.6207 69.6283 78.4754 69.3696 78.2167C69.1109 77.958 68.9656 77.6072 68.9656 77.2414C68.9656 76.8756 69.1109 76.5247 69.3696 76.2661C69.6283 76.0074 69.9791 75.8621 70.3449 75.8621H75.8622C76.228 75.8621 76.5788 76.0074 76.8375 76.2661C77.0961 76.5247 77.2415 76.8756 77.2415 77.2414C77.2415 77.6072 77.0961 77.958 76.8375 78.2167C76.5788 78.4754 76.228 78.6207 75.8622 78.6207Z" fill="#D9ECE0"/>
</g>
</g>
</g>
<defs>
<linearGradient id="paint0_linear_130_989" x1="24.8276" y1="46.8965" x2="24.8276" y2="67.5862" gradientUnits="userSpaceOnUse">
<stop stop-color="#6CA654"/>
<stop offset="1" stop-color="#B1A553"/>
</linearGradient>
<linearGradient id="paint1_linear_130_989" x1="70.345" y1="42.7586" x2="70.345" y2="52.414" gradientUnits="userSpaceOnUse">
<stop stop-color="#6CA654"/>
<stop offset="1" stop-color="#B1A553"/>
</linearGradient>
<linearGradient id="paint2_linear_130_989" x1="70.345" y1="23.4483" x2="70.345" y2="33.1037" gradientUnits="userSpaceOnUse">
<stop stop-color="#6CA654"/>
<stop offset="1" stop-color="#B1A553"/>
</linearGradient>
<clipPath id="clip0_130_989">
<rect width="80" height="80" fill="white"/>
</clipPath>
</defs>
</svg>
