<svg width="80" height="80" viewBox="0 0 80 80" fill="none" xmlns="http://www.w3.org/2000/svg">
<g id="Frame" clip-path="url(#clip0_130_1041)">
<g id="Group">
<path id="Vector" d="M11.0938 21.4062C11.0938 20.1119 12.1431 19.0625 13.4375 19.0625H66.5625C67.8569 19.0625 68.9062 20.1119 68.9062 21.4062C68.9062 22.7006 67.8569 23.75 66.5625 23.75H65.7812V75.3125H14.2188V23.75H13.4375C12.1431 23.75 11.0938 22.7006 11.0938 21.4062ZM40 7.03125C37.4111 7.03125 35.3125 9.12984 35.3125 11.7188C35.3125 14.3077 37.4111 16.4062 40 16.4062C42.5889 16.4062 44.6875 14.3077 44.6875 11.7188C44.6875 9.12984 42.5889 7.03125 40 7.03125Z" fill="url(#paint0_linear_130_1041)"/>
<path id="Vector_2" d="M37.9755 31.6497C38.8798 33.2 41.12 33.2 42.0244 31.6497L50.1641 17.6961C54.7402 9.85156 49.0817 0 40 0C30.9183 0 25.2598 9.85156 29.8359 17.6961L37.9755 31.6497ZM40 7.03125C42.5889 7.03125 44.6875 9.13 44.6875 11.7188C44.6875 14.3075 42.5889 16.4062 40 16.4062C37.4111 16.4062 35.3125 14.3075 35.3125 11.7188C35.3125 9.13 37.4111 7.03125 40 7.03125ZM56.4062 49.5312C56.4062 50.8256 55.3569 51.875 54.0625 51.875H50.9375C49.6431 51.875 48.5938 50.8256 48.5938 49.5312C48.5938 48.2369 49.6431 47.1875 50.9375 47.1875H54.0625C55.3569 47.1875 56.4062 48.2369 56.4062 49.5312ZM50.9375 36.25H54.0625C55.3569 36.25 56.4062 37.2994 56.4062 38.5938C56.4062 39.8881 55.3569 40.9375 54.0625 40.9375H50.9375C49.6431 40.9375 48.5938 39.8881 48.5938 38.5938C48.5938 37.2994 49.6431 36.25 50.9375 36.25ZM43.9062 38.5938C43.9062 39.8881 42.8569 40.9375 41.5625 40.9375H38.4375C37.1431 40.9375 36.0938 39.8881 36.0938 38.5938C36.0938 37.2994 37.1431 36.25 38.4375 36.25H41.5625C42.8569 36.25 43.9062 37.2994 43.9062 38.5938ZM43.9062 49.5312C43.9062 50.8256 42.8569 51.875 41.5625 51.875H38.4375C37.1431 51.875 36.0938 50.8256 36.0938 49.5312C36.0938 48.2369 37.1431 47.1875 38.4375 47.1875H41.5625C42.8569 47.1875 43.9062 48.2369 43.9062 49.5312ZM23.5938 49.5312C23.5938 48.2369 24.6431 47.1875 25.9375 47.1875H29.0625C30.3569 47.1875 31.4062 48.2369 31.4062 49.5312C31.4062 50.8256 30.3569 51.875 29.0625 51.875H25.9375C24.6431 51.875 23.5938 50.8256 23.5938 49.5312ZM77.6562 75.3125H76.875V36.25H77.6562C78.9506 36.25 80 35.2006 80 33.9062C80 32.6119 78.9506 31.5625 77.6562 31.5625H65.7812V75.3125H50.1562V61.25H50.8712C52.1333 61.25 53.2192 60.2802 53.2786 59.0197C53.342 57.6736 52.2695 56.5625 50.9375 56.5625H29.1287C27.8667 56.5625 26.7808 57.5323 26.7214 58.7928C26.658 60.1389 27.7305 61.25 29.0625 61.25H29.8438V75.3125H14.2188V31.5625H2.34375C1.04937 31.5625 0 32.6119 0 33.9062C0 35.2006 1.04937 36.25 2.34375 36.25H3.125V75.3125H2.34375C1.04937 75.3125 0 76.3619 0 77.6562C0 78.9506 1.04937 80 2.34375 80H77.6562C78.9506 80 80 78.9506 80 77.6562C80 76.3619 78.9506 75.3125 77.6562 75.3125ZM34.5312 75.3125V61.25H45.4688V75.3125H34.5312ZM23.5938 38.5938C23.5938 37.2994 24.6431 36.25 25.9375 36.25H29.0625C30.3569 36.25 31.4062 37.2994 31.4062 38.5938C31.4062 39.8881 30.3569 40.9375 29.0625 40.9375H25.9375C24.6431 40.9375 23.5938 39.8881 23.5938 38.5938Z" fill="url(#paint1_linear_130_1041)"/>
</g>
</g>
<defs>
<linearGradient id="paint0_linear_130_1041" x1="40" y1="75.3125" x2="40" y2="7.03125" gradientUnits="userSpaceOnUse">
<stop stop-color="#C3FFE8"/>
<stop offset="0.997" stop-color="#F0FFF4"/>
</linearGradient>
<linearGradient id="paint1_linear_130_1041" x1="40" y1="0" x2="40" y2="101" gradientUnits="userSpaceOnUse">
<stop stop-color="#31B25D"/>
<stop offset="1" stop-color="#E39E4C"/>
</linearGradient>
<clipPath id="clip0_130_1041">
<rect width="80" height="80" fill="white"/>
</clipPath>
</defs>
</svg>
