<svg width="19" height="19" viewBox="0 0 19 19" fill="none" xmlns="http://www.w3.org/2000/svg">
<g id="paper-airplane" clip-path="url(#clip0_239_1112)">
<path id="Vector" fill-rule="evenodd" clip-rule="evenodd" d="M2.46985 3.55187L3.35765 8.65666H8.83548C9.30146 8.65666 9.67922 9.03442 9.67922 9.50041C9.67922 9.9664 9.30146 10.3442 8.83548 10.3442H3.35765L2.46985 15.4489L16.3498 9.50041L2.46985 3.55187ZM1.79155 9.50041L0.750849 3.51635C0.666716 3.03259 0.82325 2.53814 1.17046 2.19093C1.60672 1.75468 2.26463 1.62797 2.83171 1.871L17.9094 8.33284C18.3764 8.53301 18.6792 8.99226 18.6792 9.50041C18.6792 10.0086 18.3764 10.4678 17.9094 10.668L2.83171 17.1298C2.26463 17.3729 1.60672 17.2461 1.17046 16.8099C0.82325 16.4627 0.666716 15.9682 0.750849 15.4845L1.79155 9.50041Z" fill="#F2F2F2"/>
</g>
<defs>
<clipPath id="clip0_239_1112">
<rect width="18" height="18" fill="white" transform="translate(0.679688 0.500366)"/>
</clipPath>
</defs>
</svg>
