<svg width="21" height="23" viewBox="0 0 21 23" fill="none" xmlns="http://www.w3.org/2000/svg">
<g id="Group">
<path id="Vector" d="M6.3409 14.4736C6.59527 14.7703 6.83879 15.067 7.09611 15.3501C7.69097 16.0093 8.35637 16.5857 9.08018 17.0913C10.2835 17.9336 11.5877 18.5339 12.9945 18.8909C13.4912 19.0167 13.9897 19.124 14.4959 19.1577C15.2697 19.2096 16.0011 19.0714 16.6914 18.7478C17.035 18.5858 17.3522 18.3793 17.6407 18.1358C18.0874 17.7556 18.4444 17.298 18.7082 16.7688C18.8765 16.4294 19.0153 16.0763 19.0746 15.6972C19.1524 15.2134 19.0113 14.781 18.6703 14.4074C18.527 14.2504 18.3502 14.1476 18.1737 14.0418C17.0705 13.3703 15.9689 12.6975 14.8637 12.0304C14.4087 11.7566 13.9412 11.7381 13.4788 11.9555C12.953 12.2024 12.4282 12.4542 11.9034 12.7059C11.7812 12.764 11.6607 12.8207 11.5399 12.8805C11.5089 12.8961 11.4841 12.8956 11.4525 12.8721C11.1271 12.6333 10.8245 12.3684 10.5468 12.0728C10.3069 11.8157 10.0906 11.5403 9.89791 11.2466C9.65863 10.8789 9.45849 10.4922 9.30087 10.0838C9.28847 10.0539 9.289 10.0337 9.31185 10.0075C9.73303 9.51434 10.1528 9.01941 10.574 8.52625C10.7205 8.35342 10.8652 8.18189 10.9449 7.9648C11.0616 7.64573 11.0691 7.31812 10.9672 6.98503C10.6722 6.01699 10.3803 5.0494 10.0853 4.08135C9.98027 3.73378 9.8847 3.3845 9.76376 3.04078C9.5509 2.43246 8.98253 2.02644 8.35296 2.01789C7.59703 2.00289 6.88299 2.16711 6.22715 2.51764C5.21203 3.06213 4.51483 3.88789 4.13587 4.99188C3.98321 5.43487 3.92176 5.89463 3.8905 6.36202C3.85246 6.925 3.85441 7.49084 3.89969 8.05694C3.96255 8.85781 4.10252 9.64686 4.32573 10.425C4.5295 11.1363 4.79104 11.8283 5.12856 12.4895C5.30641 12.8371 5.49573 13.1786 5.69989 13.5114C5.90268 13.8425 6.12874 14.1583 6.3409 14.4736ZM17.3901 15.4934C17.3852 15.5113 17.3802 15.5293 17.3753 15.5472C17.1532 16.2276 16.74 16.7484 16.1313 17.1076C15.6827 17.3707 15.1899 17.4932 14.6612 17.4827C14.3473 17.4777 14.038 17.4127 13.73 17.3495C12.7747 17.1504 11.8614 16.8143 10.9946 16.3434C9.73622 15.6596 8.65772 14.7487 7.76323 13.6162C7.44137 13.2081 7.14983 12.7765 6.89438 12.3254C6.59026 11.7907 6.33612 11.2369 6.12924 10.6607C5.942 10.1341 5.79738 9.59985 5.69874 9.05537C5.56882 8.34885 5.51066 7.63748 5.5392 6.92663C5.55187 6.60914 5.56349 6.28682 5.62329 5.97794C5.81123 5.01362 6.35739 4.33039 7.23976 3.93119C7.55673 3.787 7.89385 3.7175 8.25 3.70381C8.27426 3.78379 8.29748 3.85893 8.32206 3.93584C8.65517 5.02955 8.98522 6.12282 9.31969 7.2183C9.34154 7.29168 9.33647 7.34077 9.28541 7.40013C8.8296 7.92861 8.37652 8.46062 7.92923 8.99662C7.58636 9.40646 7.4966 9.88536 7.673 10.4119C7.88712 11.0531 8.19678 11.6541 8.57696 12.2174C8.8685 12.6489 9.19878 13.0505 9.56842 13.4159C9.91966 13.7644 10.2974 14.0812 10.7091 14.3547C11.1163 14.626 11.5523 14.6943 12.0002 14.5417C12.1641 14.4852 12.3196 14.4041 12.4745 14.3291C13.0203 14.0696 13.566 13.8101 14.1104 13.5488C14.1495 13.5298 14.1736 13.5365 14.2087 13.5573C14.9783 14.0246 15.7492 14.4937 16.5188 14.961C16.8072 15.1382 17.0987 15.3158 17.3901 15.4934Z" fill="#F2F2F2"/>
</g>
</svg>
