<svg width="80" height="80" viewBox="0 0 80 80" fill="none" xmlns="http://www.w3.org/2000/svg">
<g id="CfPqJI.tif">
<g id="Group">
<path id="Vector" d="M39.9361 0.139658C40.6614 0.139658 41.4023 0.217811 42.1119 0.117775C44.938 -0.279244 47.2013 0.208433 47.9859 3.43773C48.1391 4.0692 48.6831 4.36619 49.3677 4.52249C52.5157 5.24776 55.4761 6.46382 58.2178 8.18007C59.3494 8.88657 60.4686 8.5427 61.4752 8.02376C63.132 7.17033 64.2481 7.58923 65.4579 8.94597C67.4242 11.1499 69.575 13.1913 71.7164 15.2295C72.4135 15.8954 72.6886 16.5081 72.251 17.3771C71.2162 19.431 71.3131 21.2911 72.6198 23.3199C73.8703 25.2581 74.6706 27.4933 75.1833 29.7816C75.4771 31.0915 76.1242 32.0731 77.4685 32.4545C79.4317 33.0078 79.9913 34.2551 79.8506 36.2652C79.6505 39.1569 79.7537 42.0736 79.8256 44.9778C79.8506 46.0031 79.5974 46.669 78.5845 46.9879C76.4806 47.6506 75.3927 49.0292 74.8675 51.2519C74.3017 53.6465 73.2888 55.963 71.8946 58.0512C71.2475 59.0203 71.1787 60.0363 71.7133 60.9929C72.8762 63.0749 72.2603 64.5161 70.5222 65.9979C68.3964 67.811 66.4989 69.893 64.5607 71.9156C63.9636 72.5377 63.4321 72.6846 62.66 72.3595C61.9941 72.0782 61.2782 71.9156 60.603 71.6562C59.6495 71.2873 58.8086 71.4498 57.952 71.9813C55.5168 73.4912 52.8877 74.5916 50.1023 75.2387C48.8081 75.5388 47.9015 76.114 47.5483 77.3895C46.9668 79.4871 45.6194 80.1905 43.5093 79.8935C42.337 79.7278 41.1272 79.8591 39.933 79.856C39.9268 74.8792 39.9205 69.9055 39.9143 64.9287C42.9466 64.9694 45.9321 64.7505 48.6987 63.3313C49.4771 63.2125 50.1867 62.9061 50.8807 62.5529C60.728 57.5511 66.5895 47.438 64.5388 35.318C62.8726 25.4676 54.4664 17.1614 44.616 15.3358C43.0404 15.045 41.4117 15.4796 39.9111 14.7887C39.9174 9.90882 39.9268 5.02893 39.933 0.14591L39.9361 0.139658Z" fill="#F2F2F2"/>
<path id="Vector_2" d="M39.9176 64.9225C39.9238 69.8993 39.9301 74.873 39.9363 79.8498C39.2111 79.8498 38.4702 79.7622 37.7605 79.8748C34.9283 80.3218 32.8025 79.6528 32.0272 76.5517C31.8615 75.8921 31.2707 75.6451 30.6173 75.4919C27.635 74.7823 24.8121 73.6413 22.1893 72.0657C20.8825 71.281 19.6321 71.3404 18.3504 71.9625C16.928 72.6534 15.887 72.3283 14.8085 71.156C12.739 68.9052 10.5163 66.795 8.33738 64.6474C7.79031 64.1097 7.17134 63.4501 7.60899 62.7686C9.52844 59.78 7.61837 57.4323 6.4367 54.9626C5.72081 53.4652 5.02056 51.949 4.72358 50.3266C4.43597 48.7666 3.64193 47.7663 2.19141 47.3099C0.428272 46.7534 -0.0906661 45.628 0.0124963 43.8117C0.175055 40.9701 0.100028 38.1097 0.0343792 35.2586C0.00937013 34.1801 0.278217 33.4548 1.35673 33.1203C3.42311 32.4795 4.49224 31.0727 4.99555 28.9501C5.56451 26.5398 6.5211 24.2265 7.90598 22.1351C8.72502 20.8972 8.54371 19.6655 7.96537 18.4463C7.29013 17.027 7.57461 15.986 8.75628 14.8981C11.0071 12.8286 13.136 10.6216 15.2618 8.42391C16.012 7.64551 16.7686 7.37353 17.747 7.86433C19.7071 8.84594 21.4046 8.48018 23.2553 7.30476C25.3435 5.97928 27.7725 5.22588 30.1765 4.62254C31.3363 4.33181 32.0803 3.816 32.3867 2.74998C33.0213 0.524179 34.4406 -0.235471 36.6789 0.108404C37.7449 0.270962 38.8547 0.139665 39.9426 0.142791C39.9363 5.02268 39.9269 9.90257 39.9207 14.7856C38.7234 15.2483 37.4479 14.9294 36.235 15.142C28.4634 16.5018 22.4206 20.5158 18.3348 27.2589C15.1742 32.4732 14.2708 38.1941 15.2305 44.2119C16.2121 50.3641 19.2788 55.344 23.9587 59.3236C26.0719 61.1211 28.4071 62.6873 31.1957 63.35C33.9467 64.7443 36.9102 64.9694 39.9207 64.9256H39.9238L39.9176 64.9225Z" fill="#F2F2F2"/>
<path id="Vector_3" d="M31.1898 63.3438C28.4013 62.681 26.0661 61.1148 23.9528 59.3173C19.273 55.3378 16.2063 50.3547 15.2246 44.2056C14.2649 38.1878 15.1684 32.467 18.3289 27.2526C22.4147 20.5127 28.4576 16.4987 36.2291 15.1357C37.4421 14.9231 38.7175 15.242 39.9148 14.7793C41.4185 15.4702 43.0441 15.0357 44.6197 15.3264C54.4701 17.1521 62.8763 25.4582 64.5425 35.3086C66.5932 47.4286 60.7317 57.5417 50.8844 62.5435C50.1904 62.8967 49.4808 63.2031 48.7024 63.3219C48.6993 60.3083 48.6961 57.2947 48.6899 54.2811C49.0306 54.0467 49.3745 53.8185 49.7121 53.5746C55.6049 49.3418 58.0714 41.7735 55.8237 34.8241C53.6104 27.9747 47.0643 23.2011 39.9961 23.2762C39.2552 23.0667 38.5643 23.4043 37.8516 23.4762C28.3825 24.4016 21.4613 34.0988 23.5589 43.4022C24.6187 48.1039 27.279 51.6239 31.1992 54.2874C31.1992 57.3041 31.1929 60.3239 31.1929 63.3406L31.1898 63.3438Z" fill="#E5E5E5"/>
<path id="Vector_4" d="M48.6891 54.2842C48.6922 57.2978 48.6954 60.3114 48.7016 63.325C45.935 64.7443 42.9495 64.9631 39.9172 64.9225L39.9141 64.9193C39.9234 61.3806 39.9297 57.8449 39.9391 54.3061C40.6737 54.2374 41.4115 54.1686 42.1461 54.0998C44.3188 54.4437 46.5102 54.1154 48.6891 54.2811V54.2842Z" fill="#009832"/>
<path id="Vector_5" d="M39.9395 54.3061C39.9301 57.8449 39.9239 61.3806 39.9145 64.9193C36.904 64.9631 33.9404 64.738 31.1895 63.3438C31.1895 60.3271 31.1957 57.3072 31.1957 54.2905C33.2996 54.1936 35.416 54.4593 37.5136 54.1404C38.3264 54.3061 39.1361 54.3311 39.9489 54.1279C39.9332 54.1873 39.9301 54.2467 39.9395 54.3061Z" fill="#009832"/>
<path id="Vector_6" d="M48.6899 54.2842C46.511 54.1185 44.3195 54.4468 42.1469 54.1029C42.1406 51.9334 42.2594 49.7513 42.0875 47.5912C41.9406 45.7593 42.5877 44.5026 43.9006 43.2834C46.4453 40.9169 46.3609 40.8763 43.9257 38.5067C43.2629 37.8595 42.8471 37.7814 42.1688 38.4785C41.5029 39.1631 40.9965 40.0853 39.9492 40.3292C39.9648 34.6459 39.9805 28.9626 39.9961 23.2824C47.0674 23.2074 53.6104 27.981 55.8237 34.8303C58.0714 41.7797 55.6049 49.3481 49.7121 53.5809C49.3776 53.8216 49.0306 54.0529 48.6899 54.2874V54.2842Z" fill="url(#paint0_linear_239_764)"/>
<path id="Vector_7" d="M39.9928 23.2793C39.9772 28.9626 39.9615 34.6459 39.9459 40.3261V40.3198C39.205 39.9916 38.7111 39.3632 38.2296 38.7755C37.3168 37.6595 36.6322 37.7095 35.6443 38.7661C33.5905 40.9607 33.4592 40.9888 35.6818 42.9989C37.0698 44.2556 37.6294 45.5967 37.5013 47.463C37.3481 49.6763 37.4981 51.9115 37.5138 54.1373C35.413 54.4562 33.2997 54.1905 31.1958 54.2874C27.2757 51.6208 24.6153 48.1039 23.5556 43.399C21.4611 34.0957 28.3792 24.3984 37.8483 23.4731C38.561 23.4043 39.2519 23.0636 39.9928 23.273V23.2793Z" fill="url(#paint1_linear_239_764)"/>
<path id="Vector_8" d="M39.9453 40.3292C40.9926 40.0854 41.499 39.1631 42.1649 38.4785C42.8432 37.7814 43.2559 37.8596 43.9218 38.5067C46.357 40.8763 46.4414 40.9169 43.8967 43.2834C42.5869 44.5026 41.9398 45.7593 42.0836 47.5912C42.2555 49.7482 42.1367 51.9303 42.143 54.1029C41.4083 54.1717 40.6706 54.2405 39.9359 54.3061C39.9266 54.2467 39.9297 54.1873 39.9453 54.1279C39.9453 49.5263 39.9422 44.9215 39.9391 40.3198V40.3261L39.9453 40.3292Z" fill="#F2F2F2"/>
<path id="Vector_9" d="M39.9429 40.3229C39.9429 44.9246 39.9461 49.5294 39.9492 54.1311C39.1395 54.3374 38.3267 54.3092 37.5139 54.1436C37.4952 51.9178 37.3482 49.6826 37.5014 47.4693C37.6296 45.5999 37.07 44.2619 35.682 43.0052C33.4625 40.9951 33.5906 40.9669 35.6445 38.7724C36.6355 37.7157 37.317 37.6657 38.2298 38.7818C38.7081 39.3663 39.2052 39.9978 39.9429 40.3261V40.3229Z" fill="#F2F2F2"/>
</g>
</g>
<defs>
<linearGradient id="paint0_linear_239_764" x1="48.2975" y1="23.2815" x2="48.2975" y2="54.2874" gradientUnits="userSpaceOnUse">
<stop stop-color="#3AB35E"/>
<stop offset="1" stop-color="#B0A553"/>
</linearGradient>
<linearGradient id="paint1_linear_239_764" x1="31.5862" y1="23.2058" x2="31.5862" y2="54.3" gradientUnits="userSpaceOnUse">
<stop stop-color="#3AB35E"/>
<stop offset="1" stop-color="#B0A553"/>
</linearGradient>
</defs>
</svg>
