<svg width="80" height="80" viewBox="0 0 80 80" fill="none" xmlns="http://www.w3.org/2000/svg">
<g id="Group 34096">
<path id="Vector" d="M79.5591 35.489C76.7591 20.3507 68.1104 10.1234 53.7049 4.78217C49.9297 3.38318 45.9708 2.81523 41.9429 2.76094C41.7634 2.75885 41.5838 2.78808 41.4021 2.8027C39.6837 2.77138 37.9736 2.89875 36.2697 3.12426C31.8493 3.711 27.6523 5.00559 23.6976 7.06858C25.2072 8.59704 26.6856 10.161 28.2412 11.6435C29.1703 12.5288 29.4188 13.504 29.1766 14.7317C28.8905 16.1746 28.5335 17.6091 28.45 19.0853C29.5545 18.5863 30.6445 18.0496 31.7679 17.5986C34.8561 16.3583 38.0633 15.6922 41.4042 15.7674C41.4084 15.7277 41.4147 15.6881 41.4188 15.6505C46.2631 15.7841 50.8213 16.9492 54.9264 19.576C61.6875 23.9003 65.7175 30.0643 66.8346 38.0051C68.718 51.3832 59.5577 64.041 46.2861 66.5884C44.6699 66.8995 43.0475 67.0457 41.4084 67.0666L41.4147 67.0039C36.7416 67.0896 32.3588 65.9411 28.4124 63.496C19.3043 57.8583 15.1449 49.5813 15.8298 38.9176C16.072 35.1528 17.3499 31.6595 19.2166 28.3855C17.707 28.6465 16.191 28.8762 14.6897 29.1789C13.487 29.4232 12.5265 29.156 11.6579 28.2498C10.1649 26.6921 8.60098 25.2054 7.06626 23.6895C4.96777 27.6943 3.64186 31.9435 3.10105 36.4286C1.89416 46.4429 4.09705 55.647 9.9937 63.8385C16.1409 72.3828 24.4806 77.5632 34.8645 79.432C36.0567 79.6471 37.2803 79.6408 38.4455 80H44.3818C45.3402 79.6742 46.3529 79.716 47.3364 79.5552C57.194 77.937 65.2623 73.2263 71.5431 65.488C75.9781 60.0236 78.607 53.7448 79.6552 46.7937C79.7679 46.0399 79.7199 45.2611 80.006 44.5344V38.4415C79.6844 37.481 79.745 36.4662 79.5633 35.4827L79.5591 35.489Z" fill="#F2F2F2"/>
<path id="Vector_2" d="M7.96888 11.0798C9.66229 10.7019 10.6854 9.65579 11.0738 7.97491C11.4789 8.02294 11.6856 8.34868 11.9383 8.60133C16.8347 13.4915 21.7249 18.3859 26.6214 23.274C26.8741 23.5246 27.0745 23.8587 27.4775 23.9151C27.5047 24.0675 27.5276 24.2116 27.6487 24.3327C29.8558 26.5105 32.0608 28.6925 34.2658 30.8745C36.5772 33.3155 38.966 35.6791 41.3881 38.0094C41.8182 38.4604 42.2338 38.9261 42.6827 39.3562C43.4386 40.0828 43.9334 40.8909 43.6286 41.9913C43.3154 43.121 42.4822 43.6054 41.3985 43.7724C40.5571 43.6805 39.9077 43.2671 39.3209 42.6637C37.6526 40.9536 35.955 39.2727 34.2595 37.5897C33.1361 36.4747 31.9982 35.3764 30.8685 34.2697C28.6865 32.0647 26.5045 29.8598 24.3267 27.6506C24.2035 27.5274 24.0573 27.5128 23.907 27.4856C23.8548 27.0806 23.5207 26.8801 23.268 26.6295C18.3778 21.7331 13.4834 16.8408 8.59321 11.9443C8.34056 11.6916 8.01691 11.4828 7.9668 11.0778L7.96888 11.0798Z" fill="#009832"/>
<path id="Vector_3" d="M27.4789 23.9129C27.0759 23.8586 26.8755 23.5245 26.6228 23.2719C21.7263 18.3838 16.8361 13.4894 11.9396 8.59917C11.687 8.34652 11.4782 8.02078 11.0752 7.97276C11.781 5.71766 12.6162 3.50642 13.5287 1.33276C14.1822 -0.224925 16.0949 -0.442082 17.3728 0.812836C19.1559 2.56262 20.9099 4.34373 22.6785 6.10813C23.0084 6.43804 23.3571 6.75125 23.6975 7.07072C25.2071 8.59917 26.6854 10.1631 28.241 11.6456C29.1702 12.531 29.4187 13.5061 29.1765 14.7339C28.8904 16.1767 28.5334 17.6112 28.4499 19.0874L28.4561 19.0728C28.4248 19.1292 28.3935 19.1856 28.3622 19.242C28.0677 20.7996 27.7733 22.3552 27.4789 23.9129Z" fill="#99A856"/>
<path id="Vector_4" d="M7.96849 11.0799C8.01651 11.4829 8.34225 11.6938 8.5949 11.9464C13.4851 16.8429 18.3816 21.7352 23.2697 26.6317C23.5203 26.8822 23.8564 27.0827 23.9087 27.4878C22.3447 27.7885 20.7808 28.0912 19.2168 28.3919C17.7071 28.6529 16.1912 28.8826 14.6899 29.1854C13.4872 29.4297 12.5267 29.1624 11.6581 28.2562C10.1651 26.6985 8.60116 25.2118 7.06645 23.6959C4.99719 21.6078 2.92585 19.524 0.860768 17.4317C0.00675585 16.5673 -0.214577 15.6193 0.209297 14.6693C0.438982 14.1514 0.796038 13.7192 1.32431 13.5187C3.52929 12.6773 5.71757 11.794 7.96849 11.0799Z" fill="#99A856"/>
<g id="Group">
<path id="Vector_5" d="M66.8342 38.0073C65.7171 30.0665 61.6871 23.9025 54.926 19.5782C50.8209 16.9535 46.2627 15.7863 41.4185 15.6526C41.4143 15.6923 41.4101 15.732 41.4038 15.7696C38.0609 15.6944 34.8557 16.3605 31.7675 17.6008C30.6462 18.0518 29.5604 18.5864 28.46 19.0833C28.4997 19.1752 28.4371 19.2128 28.364 19.242C28.0696 20.7997 27.7751 22.3553 27.4807 23.913C27.5079 24.0654 27.5308 24.2095 27.652 24.3306C29.859 26.5084 32.064 28.6904 34.269 30.8724C36.428 29.4463 38.7875 28.6842 41.3851 28.7134C41.3976 28.6821 41.4101 28.6508 41.4205 28.6173C46.0372 28.8429 49.7414 30.7472 52.2032 34.7165C57.0872 42.5843 52.1615 52.8345 42.9574 54.0352C42.4437 54.102 41.9196 54.0978 41.4018 54.127L41.408 54.0707C35.1376 54.2941 29.2681 49.0343 28.744 42.7785C28.4851 39.6861 29.1407 36.8526 30.8696 34.2718C28.6876 32.0668 26.5056 29.8618 24.3278 27.6527C24.2046 27.5295 24.0584 27.5149 23.9081 27.4877C22.3441 27.7884 20.7802 28.0912 19.2162 28.3918C17.3495 31.6659 16.0695 35.1592 15.8294 38.924C15.1445 49.5876 19.3039 57.8626 28.412 63.5024C32.3605 65.9475 36.7412 67.0938 41.4143 67.0103L41.408 67.0729C43.0471 67.0521 44.6696 66.9038 46.2857 66.5948C59.5573 64.0474 68.7155 51.3896 66.8342 38.0115V38.0073Z" fill="#E5E5E5"/>
<path id="Vector_6" d="M28.4482 19.0872C28.4482 19.0872 28.4544 19.0852 28.4564 19.0831C28.4564 19.079 28.4564 19.077 28.4544 19.0729L28.4482 19.0872Z" fill="#EFF6FE"/>
</g>
<path id="Vector_7" d="M52.204 34.7165C49.7401 30.7471 46.0379 28.8428 41.4213 28.6173C41.4087 28.6486 41.3983 28.682 41.3858 28.7133C38.7861 28.6841 36.4267 29.4462 34.2697 30.8724C36.5812 33.3133 38.9699 35.677 41.392 38.0072C41.8222 38.4583 42.2377 38.9239 42.6866 39.354C43.4425 40.0807 43.9374 40.8887 43.6325 41.9891C43.3193 43.1188 42.4862 43.6032 41.4025 43.7702C40.561 43.6784 39.9116 43.2649 39.3249 42.6615C37.6565 40.9514 35.9589 39.2705 34.2634 37.5875C33.1401 36.4725 32.0021 35.3742 30.8724 34.2675C29.1456 36.8484 28.4879 39.6819 28.7468 42.7743C29.2709 49.03 35.1404 54.2898 41.4108 54.0664L41.4046 54.1228C41.9224 54.0936 42.4465 54.0977 42.9602 54.0309C52.1643 52.8282 57.09 42.578 52.206 34.7123L52.204 34.7165Z" fill="url(#paint0_linear_239_750)"/>
<path id="Vector_8" d="M28.4543 19.0729C28.5065 19.1753 28.4376 19.2107 28.3604 19.2421C28.3917 19.1857 28.423 19.1293 28.4543 19.0729Z" fill="#FE6C6C"/>
</g>
<defs>
<linearGradient id="paint0_linear_239_750" x1="41.409" y1="28.6173" x2="41.409" y2="54.1228" gradientUnits="userSpaceOnUse">
<stop stop-color="#93A956"/>
<stop offset="1" stop-color="#A9A654"/>
</linearGradient>
</defs>
</svg>
