<svg width="60" height="60" viewBox="0 0 60 60" fill="none" xmlns="http://www.w3.org/2000/svg">
<g id="Group 13843">
<circle id="Ellipse 9" cx="30" cy="30" r="30" fill="url(#paint0_linear_193_1770)"/>
<g id="Tree">
<path id="Vector" d="M30 39.3604C29.5957 39.6208 29.1785 39.8607 28.75 40.0791V46.251C28.75 46.5825 28.8817 46.9004 29.1161 47.1349C29.3505 47.3693 29.6685 47.501 30 47.501C30.3315 47.501 30.6495 47.3693 30.8839 47.1349C31.1183 46.9004 31.25 46.5825 31.25 46.251V40.0791C30.8215 39.8607 30.4043 39.6208 30 39.3604Z" fill="white"/>
<path id="Vector_2" d="M40.9532 19.7827C40.0489 17.6237 38.5268 15.7801 36.578 14.4835C34.6292 13.1869 32.3407 12.4951 30 12.4951C27.6593 12.4951 25.3708 13.1869 23.4221 14.4835C21.4733 15.7801 19.9512 17.6237 19.0469 19.7827C17.1013 20.6843 15.4524 22.1211 14.2931 23.9251C13.1338 25.7291 12.5119 27.8258 12.5 29.9702C12.4844 36.0327 17.4063 41.0952 23.4532 41.2514C25.288 41.2994 27.1067 40.897 28.75 40.0795V34.517L21.9375 31.1264C21.6392 30.9772 21.4123 30.7156 21.3068 30.3992C21.2546 30.2425 21.2337 30.077 21.2454 29.9123C21.2571 29.7475 21.3012 29.5867 21.375 29.4389C21.4489 29.2912 21.5512 29.1594 21.6759 29.0512C21.8007 28.943 21.9456 28.8604 22.1023 28.8082C22.4188 28.7027 22.7642 28.7272 23.0625 28.8764L28.75 31.7358V23.7514C28.75 23.4199 28.8817 23.102 29.1162 22.8675C29.3506 22.6331 29.6685 22.5014 30 22.5014C30.3316 22.5014 30.6495 22.6331 30.8839 22.8675C31.1183 23.102 31.25 23.4199 31.25 23.7514V27.9858L36.9375 25.1264C37.2359 24.9772 37.5813 24.9527 37.8978 25.0582C38.2143 25.1637 38.4759 25.3906 38.625 25.6889C38.7742 25.9873 38.7988 26.3327 38.6933 26.6492C38.5878 26.9656 38.3609 27.2272 38.0625 27.3764L31.25 30.767V40.0795C32.8041 40.8504 34.5153 41.2515 36.25 41.2514H36.5469C42.5938 41.0952 47.5157 36.0327 47.5 29.9702C47.4882 27.8258 46.8663 25.7291 45.707 23.9251C44.5476 22.1211 42.8988 20.6843 40.9532 19.7827Z" fill="white"/>
</g>
</g>
<defs>
<linearGradient id="paint0_linear_193_1770" x1="8.38242e-07" y1="-23.6364" x2="65.4907" y2="-20.0755" gradientUnits="userSpaceOnUse">
<stop stop-color="#34B35E"/>
<stop offset="1" stop-color="#B5A452"/>
</linearGradient>
</defs>
</svg>
