<svg width="80" height="80" viewBox="0 0 80 80" fill="none" xmlns="http://www.w3.org/2000/svg">
<g id="Frame" clip-path="url(#clip0_130_1037)">
<g id="Group">
<path id="Vector" d="M73.5938 33.3894L40 5.39453L6.40625 33.3894V75.3125H73.5938V33.3894Z" fill="url(#paint0_linear_130_1037)"/>
<path id="Vector_2" d="M75.9373 80H4.06227C2.76789 80 1.71852 78.9506 1.71852 77.6562C1.71852 76.3619 2.76789 75.3125 4.06227 75.3125H75.9373C77.2316 75.3125 78.281 76.3619 78.281 77.6562C78.281 78.9506 77.2316 80 75.9373 80ZM79.3002 35.0942C80.1288 34.0998 79.9946 32.6219 79.0001 31.7933L41.5001 0.543277C41.0789 0.192252 40.5479 1.52588e-05 39.9996 1.52588e-05C39.4513 1.52588e-05 38.9203 0.192252 38.4991 0.543277L0.999142 31.7933C0.00476678 32.6219 -0.129608 34.0998 0.698985 35.0942C1.52758 36.0886 3.00555 36.223 3.99992 35.3944L39.9998 5.39468L75.9993 35.3944C76.9937 36.223 78.4716 36.0886 79.3002 35.0942ZM39.9998 69.0625C28.3687 69.0625 18.906 59.5998 18.906 47.9688C18.906 36.3377 28.3687 26.875 39.9998 26.875C51.6309 26.875 61.0935 36.3377 61.0935 47.9688C61.0935 59.5998 51.6309 69.0625 39.9998 69.0625ZM42.3435 52.4703V64.2081C46.1077 63.6673 49.4637 61.8438 51.9521 59.1964L42.3435 52.4703ZM28.0474 59.1963C30.5359 61.8436 33.8918 63.6672 37.656 64.208V52.4703L28.0474 59.1963ZM42.3435 46.7484L54.6451 55.3595C55.7712 53.1373 56.406 50.6256 56.406 47.9688C56.406 39.718 50.2837 32.8702 42.3435 31.7294V46.7484ZM37.656 31.7294C29.7159 32.87 23.5935 39.7178 23.5935 47.9688C23.5935 50.6256 24.2284 53.1373 25.3545 55.3595L37.656 46.7484V31.7294Z" fill="url(#paint1_linear_130_1037)"/>
</g>
</g>
<defs>
<linearGradient id="paint0_linear_130_1037" x1="40" y1="75.3125" x2="40" y2="5.39453" gradientUnits="userSpaceOnUse">
<stop stop-color="#C3FFE8"/>
<stop offset="0.997" stop-color="#F0FFF4"/>
</linearGradient>
<linearGradient id="paint1_linear_130_1037" x1="39.9996" y1="1.52588e-05" x2="39.9996" y2="80" gradientUnits="userSpaceOnUse">
<stop stop-color="#46B15C"/>
<stop offset="1" stop-color="#B8A351"/>
</linearGradient>
<clipPath id="clip0_130_1037">
<rect width="80" height="80" fill="white"/>
</clipPath>
</defs>
</svg>
