<svg width="180" height="46" viewBox="0 0 180 46" fill="none" xmlns="http://www.w3.org/2000/svg">
<g id="Layer_1" clip-path="url(#clip0_110_123)">
<g id="Group">
<g id="Group_2">
<path id="Vector" d="M34.3574 11.4269C34.8385 8.40818 33.9312 5.2073 31.6073 2.88458C27.7592 -0.962471 21.4977 -0.960773 17.6502 2.88515C15.3613 5.17222 14.4456 8.31029 14.8797 11.2888C16.9931 11.66 19.0176 12.6547 20.6454 14.282C22.1752 15.812 23.143 17.6883 23.5658 19.6602C24.2835 19.7372 25.0102 19.7349 25.7279 19.6557C26.1643 17.7358 27.1196 15.9122 28.6133 14.4195C30.2365 12.7962 32.252 11.8026 34.3569 11.4269H34.3574Z" fill="white"/>
<g id="Group_3">
<path id="Vector_2" d="M25.6617 25.8532H23.5958C22.9716 25.8532 22.4656 26.359 22.4656 26.9831V44.3014C23.1781 44.3806 23.8998 44.4321 24.6288 44.4519C25.3572 44.4717 26.0782 44.4519 26.7919 44.401V26.9831C26.7919 26.359 26.286 25.8532 25.6617 25.8532Z" fill="white"/>
<path id="Vector_3" d="M25.6617 25.8532H23.5958C22.9716 25.8532 22.4656 26.359 22.4656 26.9831V44.3014C23.1781 44.3806 23.8998 44.4321 24.6288 44.4519C25.3572 44.4717 26.0782 44.4519 26.7919 44.401V26.9831C26.7919 26.359 26.286 25.8532 25.6617 25.8532Z" fill="white"/>
</g>
<path id="Vector_4" d="M24.6287 44.4525C11.3463 44.0932 0.569378 33.6842 0.569378 20.4003C0.569378 17.7573 0.997261 15.2139 1.78511 12.8352C0.635598 15.6434 0 18.717 0 21.9394C0 35.2233 10.7763 45.6322 24.0594 45.9921C34.4565 46.2739 43.5139 39.2836 46.8051 29.4388C43.1211 38.4643 34.4751 44.7195 24.6287 44.453V44.4525Z" fill="white"/>
</g>
<path id="Vector_5" d="M6.00509 14.9678C9.85321 11.1213 16.1152 11.1196 19.9605 14.9678C23.8098 18.8137 23.8086 25.0729 19.9605 28.9211C16.1152 32.7659 9.85604 32.7659 6.00622 28.9183C2.15867 25.0718 2.15754 18.8137 6.00509 14.9678ZM29.297 29.0541C33.1445 32.9005 39.4049 32.9006 43.2513 29.0558C47.0994 25.2081 47.0994 18.949 43.2513 15.1019C39.4054 11.256 33.1417 11.256 29.2958 15.103C25.4489 18.949 25.4506 25.2064 29.297 29.0535V29.0541Z" fill="white"/>
</g>
<g id="Group_4">
<path id="Vector_6" d="M174.771 35.0156H58.7869C58.0526 35.0156 57.4574 35.6107 57.4574 36.3448V41.4298C57.4574 42.1639 58.0526 42.759 58.7869 42.759H174.771C175.506 42.759 176.101 42.1639 176.101 41.4298V36.3448C176.101 35.6107 175.506 35.0156 174.771 35.0156Z" fill="white"/>
<path id="Vector_7" d="M165.719 38.8757C165.677 38.7258 165.613 38.5917 165.527 38.4723C165.441 38.3529 165.33 38.2573 165.194 38.1837C165.058 38.1101 164.889 38.0734 164.688 38.0734C164.53 38.0734 164.384 38.1022 164.252 38.1605C164.118 38.2188 164 38.3031 163.894 38.4129C163.79 38.5232 163.703 38.6607 163.634 38.8248C163.564 38.9889 163.517 39.1773 163.491 39.3895H165.793V39.3301C165.785 39.1773 165.76 39.0256 165.72 38.8757H165.719ZM165.719 38.8757C165.677 38.7258 165.613 38.5917 165.527 38.4723C165.441 38.3529 165.33 38.2573 165.194 38.1837C165.058 38.1101 164.889 38.0734 164.688 38.0734C164.53 38.0734 164.384 38.1022 164.252 38.1605C164.118 38.2188 164 38.3031 163.894 38.4129C163.79 38.5232 163.703 38.6607 163.634 38.8248C163.564 38.9889 163.517 39.1773 163.491 39.3895H165.793V39.3301C165.785 39.1773 165.76 39.0256 165.72 38.8757H165.719ZM165.719 38.8757C165.677 38.7258 165.613 38.5917 165.527 38.4723C165.441 38.3529 165.33 38.2573 165.194 38.1837C165.058 38.1101 164.889 38.0734 164.688 38.0734C164.53 38.0734 164.384 38.1022 164.252 38.1605C164.118 38.2188 164 38.3031 163.894 38.4129C163.79 38.5232 163.703 38.6607 163.634 38.8248C163.564 38.9889 163.517 39.1773 163.491 39.3895H165.793V39.3301C165.785 39.1773 165.76 39.0256 165.72 38.8757H165.719ZM165.719 38.8757C165.677 38.7258 165.613 38.5917 165.527 38.4723C165.441 38.3529 165.33 38.2573 165.194 38.1837C165.058 38.1101 164.889 38.0734 164.688 38.0734C164.53 38.0734 164.384 38.1022 164.252 38.1605C164.118 38.2188 164 38.3031 163.894 38.4129C163.79 38.5232 163.703 38.6607 163.634 38.8248C163.564 38.9889 163.517 39.1773 163.491 39.3895H165.793V39.3301C165.785 39.1773 165.76 39.0256 165.72 38.8757H165.719ZM165.719 38.8757C165.677 38.7258 165.613 38.5917 165.527 38.4723C165.441 38.3529 165.33 38.2573 165.194 38.1837C165.058 38.1101 164.889 38.0734 164.688 38.0734C164.53 38.0734 164.384 38.1022 164.252 38.1605C164.118 38.2188 164 38.3031 163.894 38.4129C163.79 38.5232 163.703 38.6607 163.634 38.8248C163.564 38.9889 163.517 39.1773 163.491 39.3895H165.793V39.3301C165.785 39.1773 165.76 39.0256 165.72 38.8757H165.719ZM165.719 38.8757C165.677 38.7258 165.613 38.5917 165.527 38.4723C165.441 38.3529 165.33 38.2573 165.194 38.1837C165.058 38.1101 164.889 38.0734 164.688 38.0734C164.53 38.0734 164.384 38.1022 164.252 38.1605C164.118 38.2188 164 38.3031 163.894 38.4129C163.79 38.5232 163.703 38.6607 163.634 38.8248C163.564 38.9889 163.517 39.1773 163.491 39.3895H165.793V39.3301C165.785 39.1773 165.76 39.0256 165.72 38.8757H165.719ZM115.178 39.8778C114.728 39.8778 114.382 39.9474 114.138 40.0883C113.894 40.2286 113.773 40.4396 113.773 40.7231C113.773 40.8335 113.791 40.9376 113.828 41.0332C113.864 41.13 113.921 41.212 113.995 41.2822C114.07 41.3512 114.162 41.4061 114.271 41.4479C114.381 41.4887 114.507 41.5091 114.651 41.5091C114.795 41.5091 114.926 41.4893 115.051 41.4496C115.175 41.4106 115.288 41.3585 115.39 41.2952C115.492 41.2318 115.581 41.1588 115.656 41.0762C115.731 40.9947 115.79 40.9093 115.832 40.8221V39.8789H115.178V39.8778ZM165.719 38.8757C165.677 38.7258 165.613 38.5917 165.527 38.4723C165.441 38.3529 165.33 38.2573 165.194 38.1837C165.058 38.1101 164.889 38.0734 164.688 38.0734C164.53 38.0734 164.384 38.1022 164.252 38.1605C164.118 38.2188 164 38.3031 163.894 38.4129C163.79 38.5232 163.703 38.6607 163.634 38.8248C163.564 38.9889 163.517 39.1773 163.491 39.3895H165.793V39.3301C165.785 39.1773 165.76 39.0256 165.72 38.8757H165.719ZM165.719 38.8757C165.677 38.7258 165.613 38.5917 165.527 38.4723C165.441 38.3529 165.33 38.2573 165.194 38.1837C165.058 38.1101 164.889 38.0734 164.688 38.0734C164.53 38.0734 164.384 38.1022 164.252 38.1605C164.118 38.2188 164 38.3031 163.894 38.4129C163.79 38.5232 163.703 38.6607 163.634 38.8248C163.564 38.9889 163.517 39.1773 163.491 39.3895H165.793V39.3301C165.785 39.1773 165.76 39.0256 165.72 38.8757H165.719ZM115.178 39.8778C114.728 39.8778 114.382 39.9474 114.138 40.0883C113.894 40.2286 113.773 40.4396 113.773 40.7231C113.773 40.8335 113.791 40.9376 113.828 41.0332C113.864 41.13 113.921 41.212 113.995 41.2822C114.07 41.3512 114.162 41.4061 114.271 41.4479C114.381 41.4887 114.507 41.5091 114.651 41.5091C114.795 41.5091 114.926 41.4893 115.051 41.4496C115.175 41.4106 115.288 41.3585 115.39 41.2952C115.492 41.2318 115.581 41.1588 115.656 41.0762C115.731 40.9947 115.79 40.9093 115.832 40.8221V39.8789H115.178V39.8778ZM115.178 39.8778C114.728 39.8778 114.382 39.9474 114.138 40.0883C113.894 40.2286 113.773 40.4396 113.773 40.7231C113.773 40.8335 113.791 40.9376 113.828 41.0332C113.864 41.13 113.921 41.212 113.995 41.2822C114.07 41.3512 114.162 41.4061 114.271 41.4479C114.381 41.4887 114.507 41.5091 114.651 41.5091C114.795 41.5091 114.926 41.4893 115.051 41.4496C115.175 41.4106 115.288 41.3585 115.39 41.2952C115.492 41.2318 115.581 41.1588 115.656 41.0762C115.731 40.9947 115.79 40.9093 115.832 40.8221V39.8789H115.178V39.8778ZM165.719 38.8757C165.677 38.7258 165.613 38.5917 165.527 38.4723C165.441 38.3529 165.33 38.2573 165.194 38.1837C165.058 38.1101 164.889 38.0734 164.688 38.0734C164.53 38.0734 164.384 38.1022 164.252 38.1605C164.118 38.2188 164 38.3031 163.894 38.4129C163.79 38.5232 163.703 38.6607 163.634 38.8248C163.564 38.9889 163.517 39.1773 163.491 39.3895H165.793V39.3301C165.785 39.1773 165.76 39.0256 165.72 38.8757H165.719ZM165.719 38.8757C165.677 38.7258 165.613 38.5917 165.527 38.4723C165.441 38.3529 165.33 38.2573 165.194 38.1837C165.058 38.1101 164.889 38.0734 164.688 38.0734C164.53 38.0734 164.384 38.1022 164.252 38.1605C164.118 38.2188 164 38.3031 163.894 38.4129C163.79 38.5232 163.703 38.6607 163.634 38.8248C163.564 38.9889 163.517 39.1773 163.491 39.3895H165.793V39.3301C165.785 39.1773 165.76 39.0256 165.72 38.8757H165.719ZM115.178 39.8778C114.728 39.8778 114.382 39.9474 114.138 40.0883C113.894 40.2286 113.773 40.4396 113.773 40.7231C113.773 40.8335 113.791 40.9376 113.828 41.0332C113.864 41.13 113.921 41.212 113.995 41.2822C114.07 41.3512 114.162 41.4061 114.271 41.4479C114.381 41.4887 114.507 41.5091 114.651 41.5091C114.795 41.5091 114.926 41.4893 115.051 41.4496C115.175 41.4106 115.288 41.3585 115.39 41.2952C115.492 41.2318 115.581 41.1588 115.656 41.0762C115.731 40.9947 115.79 40.9093 115.832 40.8221V39.8789H115.178V39.8778ZM115.178 39.8778C114.728 39.8778 114.382 39.9474 114.138 40.0883C113.894 40.2286 113.773 40.4396 113.773 40.7231C113.773 40.8335 113.791 40.9376 113.828 41.0332C113.864 41.13 113.921 41.212 113.995 41.2822C114.07 41.3512 114.162 41.4061 114.271 41.4479C114.381 41.4887 114.507 41.5091 114.651 41.5091C114.795 41.5091 114.926 41.4893 115.051 41.4496C115.175 41.4106 115.288 41.3585 115.39 41.2952C115.492 41.2318 115.581 41.1588 115.656 41.0762C115.731 40.9947 115.79 40.9093 115.832 40.8221V39.8789H115.178V39.8778ZM165.719 38.8757C165.677 38.7258 165.613 38.5917 165.527 38.4723C165.441 38.3529 165.33 38.2573 165.194 38.1837C165.058 38.1101 164.889 38.0734 164.688 38.0734C164.53 38.0734 164.384 38.1022 164.252 38.1605C164.118 38.2188 164 38.3031 163.894 38.4129C163.79 38.5232 163.703 38.6607 163.634 38.8248C163.564 38.9889 163.517 39.1773 163.491 39.3895H165.793V39.3301C165.785 39.1773 165.76 39.0256 165.72 38.8757H165.719ZM165.719 38.8757C165.677 38.7258 165.613 38.5917 165.527 38.4723C165.441 38.3529 165.33 38.2573 165.194 38.1837C165.058 38.1101 164.889 38.0734 164.688 38.0734C164.53 38.0734 164.384 38.1022 164.252 38.1605C164.118 38.2188 164 38.3031 163.894 38.4129C163.79 38.5232 163.703 38.6607 163.634 38.8248C163.564 38.9889 163.517 39.1773 163.491 39.3895H165.793V39.3301C165.785 39.1773 165.76 39.0256 165.72 38.8757H165.719ZM115.178 39.8778C114.728 39.8778 114.382 39.9474 114.138 40.0883C113.894 40.2286 113.773 40.4396 113.773 40.7231C113.773 40.8335 113.791 40.9376 113.828 41.0332C113.864 41.13 113.921 41.212 113.995 41.2822C114.07 41.3512 114.162 41.4061 114.271 41.4479C114.381 41.4887 114.507 41.5091 114.651 41.5091C114.795 41.5091 114.926 41.4893 115.051 41.4496C115.175 41.4106 115.288 41.3585 115.39 41.2952C115.492 41.2318 115.581 41.1588 115.656 41.0762C115.731 40.9947 115.79 40.9093 115.832 40.8221V39.8789H115.178V39.8778ZM115.178 39.8778C114.728 39.8778 114.382 39.9474 114.138 40.0883C113.894 40.2286 113.773 40.4396 113.773 40.7231C113.773 40.8335 113.791 40.9376 113.828 41.0332C113.864 41.13 113.921 41.212 113.995 41.2822C114.07 41.3512 114.162 41.4061 114.271 41.4479C114.381 41.4887 114.507 41.5091 114.651 41.5091C114.795 41.5091 114.926 41.4893 115.051 41.4496C115.175 41.4106 115.288 41.3585 115.39 41.2952C115.492 41.2318 115.581 41.1588 115.656 41.0762C115.731 40.9947 115.79 40.9093 115.832 40.8221V39.8789H115.178V39.8778ZM165.719 38.8757C165.677 38.7258 165.613 38.5917 165.527 38.4723C165.441 38.3529 165.33 38.2573 165.194 38.1837C165.058 38.1101 164.889 38.0734 164.688 38.0734C164.53 38.0734 164.384 38.1022 164.252 38.1605C164.118 38.2188 164 38.3031 163.894 38.4129C163.79 38.5232 163.703 38.6607 163.634 38.8248C163.564 38.9889 163.517 39.1773 163.491 39.3895H165.793V39.3301C165.785 39.1773 165.76 39.0256 165.72 38.8757H165.719ZM165.719 38.8757C165.677 38.7258 165.613 38.5917 165.527 38.4723C165.441 38.3529 165.33 38.2573 165.194 38.1837C165.058 38.1101 164.889 38.0734 164.688 38.0734C164.53 38.0734 164.384 38.1022 164.252 38.1605C164.118 38.2188 164 38.3031 163.894 38.4129C163.79 38.5232 163.703 38.6607 163.634 38.8248C163.564 38.9889 163.517 39.1773 163.491 39.3895H165.793V39.3301C165.785 39.1773 165.76 39.0256 165.72 38.8757H165.719ZM115.178 39.8778C114.728 39.8778 114.382 39.9474 114.138 40.0883C113.894 40.2286 113.773 40.4396 113.773 40.7231C113.773 40.8335 113.791 40.9376 113.828 41.0332C113.864 41.13 113.921 41.212 113.995 41.2822C114.07 41.3512 114.162 41.4061 114.271 41.4479C114.381 41.4887 114.507 41.5091 114.651 41.5091C114.795 41.5091 114.926 41.4893 115.051 41.4496C115.175 41.4106 115.288 41.3585 115.39 41.2952C115.492 41.2318 115.581 41.1588 115.656 41.0762C115.731 40.9947 115.79 40.9093 115.832 40.8221V39.8789H115.178V39.8778ZM78.1056 38.4853C78.0382 38.4061 77.9595 38.3376 77.8701 38.2799C77.7807 38.2216 77.6811 38.1763 77.5713 38.1441C77.4604 38.1113 77.3375 38.0949 77.2017 38.0949C76.9866 38.0949 76.8015 38.1396 76.6476 38.229C76.4931 38.3178 76.3669 38.4394 76.2667 38.5922C76.1677 38.7444 76.0946 38.9227 76.0488 39.1247C76.0018 39.3272 75.978 39.5428 75.978 39.772V39.8614C75.978 40.0905 76.0018 40.3061 76.0488 40.5087C76.0952 40.7112 76.1682 40.8867 76.2667 41.0377C76.3663 41.1877 76.492 41.3059 76.6448 41.3942C76.7976 41.4819 76.9798 41.526 77.1926 41.526C77.3313 41.526 77.4558 41.5096 77.5662 41.4774C77.6771 41.4446 77.7767 41.3982 77.8662 41.3393C77.955 41.2799 78.0343 41.2092 78.1039 41.1266C78.1729 41.0451 78.2335 40.954 78.2844 40.855V38.7444C78.2335 38.6511 78.1735 38.5645 78.1056 38.4853ZM115.178 39.8778C114.728 39.8778 114.382 39.9474 114.138 40.0883C113.894 40.2286 113.773 40.4396 113.773 40.7231C113.773 40.8335 113.791 40.9376 113.828 41.0332C113.864 41.13 113.921 41.212 113.995 41.2822C114.07 41.3512 114.162 41.4061 114.271 41.4479C114.381 41.4887 114.507 41.5091 114.651 41.5091C114.795 41.5091 114.926 41.4893 115.051 41.4496C115.175 41.4106 115.288 41.3585 115.39 41.2952C115.492 41.2318 115.581 41.1588 115.656 41.0762C115.731 40.9947 115.79 40.9093 115.832 40.8221V39.8789H115.178V39.8778ZM165.719 38.8757C165.677 38.7258 165.613 38.5917 165.527 38.4723C165.441 38.3529 165.33 38.2573 165.194 38.1837C165.058 38.1101 164.889 38.0734 164.688 38.0734C164.53 38.0734 164.384 38.1022 164.252 38.1605C164.118 38.2188 164 38.3031 163.894 38.4129C163.79 38.5232 163.703 38.6607 163.634 38.8248C163.564 38.9889 163.517 39.1773 163.491 39.3895H165.793V39.3301C165.785 39.1773 165.76 39.0256 165.72 38.8757H165.719ZM165.719 38.8757C165.677 38.7258 165.613 38.5917 165.527 38.4723C165.441 38.3529 165.33 38.2573 165.194 38.1837C165.058 38.1101 164.889 38.0734 164.688 38.0734C164.53 38.0734 164.384 38.1022 164.252 38.1605C164.118 38.2188 164 38.3031 163.894 38.4129C163.79 38.5232 163.703 38.6607 163.634 38.8248C163.564 38.9889 163.517 39.1773 163.491 39.3895H165.793V39.3301C165.785 39.1773 165.76 39.0256 165.72 38.8757H165.719ZM115.178 39.8778C114.728 39.8778 114.382 39.9474 114.138 40.0883C113.894 40.2286 113.773 40.4396 113.773 40.7231C113.773 40.8335 113.791 40.9376 113.828 41.0332C113.864 41.13 113.921 41.212 113.995 41.2822C114.07 41.3512 114.162 41.4061 114.271 41.4479C114.381 41.4887 114.507 41.5091 114.651 41.5091C114.795 41.5091 114.926 41.4893 115.051 41.4496C115.175 41.4106 115.288 41.3585 115.39 41.2952C115.492 41.2318 115.581 41.1588 115.656 41.0762C115.731 40.9947 115.79 40.9093 115.832 40.8221V39.8789H115.178V39.8778ZM78.1056 38.4853C78.0382 38.4061 77.9595 38.3376 77.8701 38.2799C77.7807 38.2216 77.6811 38.1763 77.5713 38.1441C77.4604 38.1113 77.3375 38.0949 77.2017 38.0949C76.9866 38.0949 76.8015 38.1396 76.6476 38.229C76.4931 38.3178 76.3669 38.4394 76.2667 38.5922C76.1677 38.7444 76.0946 38.9227 76.0488 39.1247C76.0018 39.3272 75.978 39.5428 75.978 39.772V39.8614C75.978 40.0905 76.0018 40.3061 76.0488 40.5087C76.0952 40.7112 76.1682 40.8867 76.2667 41.0377C76.3663 41.1877 76.492 41.3059 76.6448 41.3942C76.7976 41.4819 76.9798 41.526 77.1926 41.526C77.3313 41.526 77.4558 41.5096 77.5662 41.4774C77.6771 41.4446 77.7767 41.3982 77.8662 41.3393C77.955 41.2799 78.0343 41.2092 78.1039 41.1266C78.1729 41.0451 78.2335 40.954 78.2844 40.855V38.7444C78.2335 38.6511 78.1735 38.5645 78.1056 38.4853ZM176.16 34.6744H57.3985C56.3798 34.6744 55.5546 35.5 55.5546 36.5173V41.2578C55.5546 42.2752 56.3803 43.1007 57.3985 43.1007H176.16C177.179 43.1007 178.004 42.2752 178.004 41.2578V36.5173C178.004 35.5 177.178 34.6744 176.16 34.6744ZM63.999 42.1066H63.1834V35.9249H63.999V42.1066ZM71.5894 42.1066H70.8038V39.0885C70.8038 38.9097 70.784 38.758 70.7444 38.6318C70.7053 38.5057 70.6465 38.4038 70.5684 38.324C70.4897 38.2448 70.3941 38.1865 70.2797 38.1497C70.1654 38.113 70.0324 38.0943 69.8824 38.0943C69.6272 38.0943 69.4036 38.1628 69.2117 38.298C69.0187 38.4338 68.8687 38.6126 68.7612 38.8333V42.1066H67.9756V37.5132H68.7188L68.7437 38.0909C68.9084 37.8844 69.1065 37.722 69.3385 37.6043C69.5706 37.4872 69.8315 37.4283 70.1201 37.4283C70.3437 37.4283 70.5463 37.4589 70.7274 37.5194C70.908 37.5805 71.0625 37.6778 71.1898 37.8131C71.3177 37.9472 71.4157 38.1198 71.4858 38.3308C71.5549 38.5419 71.5894 38.7971 71.5894 39.0964V42.1066ZM79.07 42.1066H78.3478L78.3093 41.6137C78.1565 41.801 77.9726 41.9442 77.7575 42.0426C77.5419 42.1417 77.2889 42.1909 76.9968 42.1909C76.7274 42.1909 76.4818 42.1326 76.2599 42.0177C76.038 41.9017 75.8473 41.7393 75.6888 41.5311C75.5304 41.3235 75.4081 41.0768 75.3215 40.7922C75.2355 40.5081 75.1919 40.1975 75.1919 39.8608V39.7714C75.1919 39.4206 75.2349 39.1015 75.3215 38.814C75.4081 38.5272 75.5304 38.2805 75.6888 38.0751C75.8473 37.8702 76.038 37.7112 76.2599 37.5975C76.4818 37.4843 76.7308 37.4283 77.0053 37.4283C77.2798 37.4283 77.5305 37.4753 77.74 37.5703C77.9494 37.6654 78.131 37.8018 78.2839 37.98V35.5854H79.0694V42.1066H79.07ZM86.4997 42.1066H85.752L85.7356 41.6522C85.5913 41.8225 85.4084 41.9544 85.1877 42.0494C84.9664 42.1445 84.7004 42.1914 84.3891 42.1914C84.1622 42.1914 83.9573 42.1603 83.7739 42.0964C83.5894 42.0319 83.4309 41.9323 83.2973 41.7942C83.1649 41.6579 83.0619 41.4802 82.9894 41.2641C82.917 41.0479 82.8813 40.7865 82.8813 40.481V37.5132H83.6669V40.4889C83.6669 40.696 83.6913 40.8663 83.7394 41.0009C83.7875 41.135 83.8514 41.2409 83.9307 41.3189C84.0099 41.3976 84.1005 41.4508 84.2023 41.4808C84.3042 41.5108 84.4089 41.5255 84.517 41.5255C84.8362 41.5255 85.0938 41.4644 85.2879 41.3427C85.482 41.2211 85.6235 41.0587 85.7146 40.855V37.5138H86.5002V42.1071L86.4997 42.1066ZM93.6378 41.3846C93.5541 41.5515 93.4346 41.6946 93.279 41.8135C93.1228 41.9317 92.936 42.0251 92.7181 42.0913C92.5002 42.1581 92.258 42.1909 91.992 42.1909C91.6858 42.1909 91.4169 42.1484 91.1826 42.0636C90.9489 41.9787 90.7525 41.8661 90.594 41.7263C90.4355 41.586 90.3155 41.4264 90.234 41.2459C90.1514 41.066 90.1106 40.8821 90.1106 40.692H90.8962C90.9047 40.8538 90.9432 40.9885 91.0134 41.0977C91.0824 41.2069 91.1696 41.2952 91.2737 41.3631C91.379 41.4315 91.4933 41.4791 91.6184 41.5074C91.7424 41.5357 91.8674 41.5498 91.992 41.5498C92.1538 41.5498 92.2948 41.5334 92.4164 41.4989C92.5381 41.4649 92.6411 41.4191 92.7243 41.3591C92.8081 41.2997 92.8709 41.2295 92.9134 41.1486C92.9558 41.0677 92.9768 40.9806 92.9768 40.8872C92.9768 40.8023 92.9643 40.7226 92.9388 40.6473C92.9128 40.5726 92.8624 40.5019 92.7883 40.4357C92.713 40.3689 92.606 40.3078 92.4674 40.2507C92.3287 40.1941 92.1453 40.1426 91.9195 40.0939C91.6642 40.0407 91.435 39.9768 91.2313 39.9032C91.027 39.8297 90.8538 39.7409 90.7111 39.6373C90.5685 39.5343 90.4581 39.4121 90.3823 39.2701C90.3059 39.1286 90.268 38.9634 90.268 38.7733C90.268 38.5832 90.3082 38.4202 90.3891 38.2578C90.47 38.0949 90.5838 37.9517 90.7315 37.8289C90.8781 37.7056 91.0564 37.6083 91.2658 37.5364C91.4752 37.464 91.709 37.4283 91.9665 37.4283C92.241 37.4283 92.4866 37.4662 92.7034 37.5404C92.9202 37.6156 93.1047 37.7186 93.2558 37.8482C93.4075 37.9783 93.5224 38.1305 93.6022 38.3048C93.6814 38.4791 93.7205 38.6646 93.7205 38.8633H92.9309C92.9309 38.7699 92.91 38.676 92.8675 38.5809C92.8251 38.4858 92.7623 38.401 92.6808 38.3257C92.5981 38.251 92.4979 38.1899 92.3785 38.1435C92.2602 38.0966 92.1227 38.0728 91.9665 38.0728C91.8024 38.0728 91.6637 38.0926 91.5482 38.1299C91.4339 38.1684 91.3394 38.2193 91.2658 38.2827C91.1928 38.3461 91.1385 38.4185 91.1051 38.4994C91.0711 38.5803 91.0541 38.6635 91.0541 38.7484C91.0541 38.8333 91.0683 38.9091 91.0966 38.9775C91.1249 39.046 91.1792 39.1071 91.2584 39.162C91.3377 39.2175 91.4458 39.269 91.5833 39.3148C91.7209 39.3617 91.898 39.4087 92.1159 39.4568C92.3961 39.5224 92.6394 39.5954 92.8466 39.678C93.0532 39.7607 93.2241 39.8551 93.3599 39.9644C93.4963 40.0736 93.5977 40.1992 93.6639 40.3401C93.7307 40.4821 93.7646 40.6462 93.7646 40.8329C93.7646 41.0338 93.7222 41.2171 93.639 41.3846H93.6378ZM99.3407 42.1066C99.2784 42.1241 99.1981 42.1417 99.0984 42.162C98.9994 42.1818 98.8794 42.1909 98.7373 42.1909C98.5953 42.1909 98.4566 42.1705 98.3276 42.1298C98.1991 42.089 98.0865 42.02 97.9902 41.9244C97.8935 41.8276 97.8176 41.7009 97.761 41.5436C97.7044 41.3868 97.6761 41.1939 97.6761 40.9647V38.1198H96.8396V37.5126H97.6761V36.4002H98.4617V37.5126H99.3192V38.1198H98.4617V40.9687C98.4617 41.087 98.4759 41.1831 98.5042 41.255C98.5325 41.3274 98.5698 41.3829 98.6162 41.4231C98.6632 41.4632 98.717 41.4887 98.7781 41.5017C98.8386 41.5141 98.902 41.5204 98.9671 41.5204C99.0322 41.5204 99.1007 41.5141 99.1726 41.5017C99.245 41.4893 99.3005 41.4779 99.3407 41.4695V42.1066ZM105.067 38.2176C104.999 38.2069 104.936 38.199 104.878 38.195C104.82 38.1905 104.754 38.1882 104.681 38.1882C104.409 38.1882 104.188 38.2476 104.016 38.367C103.845 38.4853 103.717 38.6454 103.633 38.8463V42.1071H102.847V37.5138H103.612L103.624 38.0439C103.742 37.8549 103.892 37.705 104.07 37.5941C104.248 37.4838 104.465 37.4283 104.72 37.4283C104.776 37.4283 104.841 37.4345 104.915 37.447C104.989 37.4594 105.04 37.4736 105.068 37.4877V38.2176H105.067ZM109.252 42.1066H108.466V37.5132H109.252V42.1066ZM109.214 36.613C109.134 36.6978 109.018 36.7403 108.865 36.7403C108.712 36.7403 108.597 36.6978 108.519 36.613C108.44 36.5281 108.401 36.4217 108.401 36.2944C108.401 36.1671 108.44 36.0596 108.519 35.9719C108.596 35.8842 108.712 35.84 108.865 35.84C109.018 35.84 109.133 35.8842 109.214 35.9719C109.292 36.0596 109.332 36.1671 109.332 36.2944C109.332 36.4217 109.292 36.5281 109.214 36.613ZM116.778 42.1066H115.955C115.926 42.05 115.904 41.9787 115.886 41.8921C115.868 41.8056 115.854 41.7156 115.844 41.6222C115.77 41.6992 115.687 41.7722 115.595 41.8412C115.503 41.9102 115.402 41.9713 115.293 42.024C115.184 42.0766 115.066 42.1173 114.939 42.1473C114.811 42.1762 114.677 42.1914 114.535 42.1914C114.3 42.1914 114.087 42.1564 113.896 42.0856C113.705 42.0149 113.542 41.9187 113.407 41.7971C113.273 41.6754 113.168 41.5317 113.095 41.3665C113.022 41.2007 112.984 41.0236 112.984 40.834C112.984 40.5879 113.032 40.3706 113.129 40.1822C113.225 39.9938 113.362 39.8365 113.543 39.7092C113.723 39.5813 113.94 39.4857 114.194 39.4206C114.45 39.3555 114.734 39.3227 115.048 39.3227H115.83V38.9617C115.83 38.6873 115.747 38.4689 115.584 38.3059C115.42 38.1435 115.177 38.062 114.858 38.062C114.71 38.062 114.575 38.0818 114.454 38.1215C114.332 38.1605 114.228 38.2142 114.142 38.281C114.055 38.3478 113.988 38.4247 113.94 38.5124C113.892 38.6001 113.868 38.6918 113.868 38.788H113.078C113.078 38.6239 113.121 38.4615 113.207 38.3003C113.293 38.1384 113.416 37.9941 113.575 37.8646C113.733 37.7361 113.925 37.6314 114.15 37.5505C114.375 37.4696 114.626 37.4294 114.904 37.4294C115.153 37.4294 115.383 37.4606 115.594 37.5251C115.805 37.5884 115.986 37.6841 116.136 37.8136C116.286 37.9421 116.403 38.1022 116.489 38.2952C116.574 38.4875 116.616 38.7127 116.616 38.9696V41.1051C116.616 41.2612 116.63 41.4242 116.656 41.5956C116.683 41.7665 116.724 41.9148 116.777 42.0398V42.1071L116.778 42.1066ZM121.312 42.1066H120.526V35.5854H121.312V42.1066ZM130.766 40.1839C130.829 40.4498 130.926 40.683 131.057 40.8821C131.187 41.0813 131.353 41.2392 131.554 41.3535C131.755 41.4678 131.992 41.5255 132.267 41.5255C132.527 41.5255 132.747 41.4943 132.925 41.4321C133.103 41.3693 133.252 41.2799 133.368 41.1622C133.486 41.0451 133.577 40.9008 133.643 40.7293C133.707 40.5585 133.757 40.3638 133.791 40.1454H134.61C134.576 40.4374 134.505 40.7078 134.396 40.9585C134.287 41.2097 134.136 41.4259 133.944 41.6081C133.751 41.7908 133.516 41.9334 133.238 42.037C132.961 42.1405 132.637 42.1914 132.266 42.1914C131.894 42.1914 131.569 42.1241 131.272 41.9883C130.975 41.8525 130.72 41.659 130.51 41.4083C130.299 41.1582 130.136 40.8567 130.021 40.5058C129.907 40.155 129.849 39.7629 129.849 39.3301V38.7105C129.849 38.2776 129.908 37.8844 130.024 37.5319C130.14 37.1794 130.306 36.8783 130.521 36.6282C130.736 36.377 130.997 36.1835 131.304 36.046C131.612 35.9085 131.956 35.8406 132.339 35.8406C132.687 35.8406 132.996 35.8915 133.265 35.9934C133.533 36.0952 133.762 36.2373 133.951 36.42C134.139 36.6022 134.288 36.8201 134.399 37.0735C134.509 37.327 134.58 37.606 134.61 37.9121H133.791C133.76 37.6971 133.712 37.5024 133.647 37.3299C133.581 37.1573 133.491 37.0107 133.377 36.8891C133.262 36.7669 133.12 36.6735 132.95 36.6084C132.781 36.5434 132.576 36.5111 132.339 36.5111C132.064 36.5111 131.823 36.5643 131.615 36.6701C131.406 36.7759 131.232 36.9253 131.093 37.116C130.952 37.3072 130.847 37.5381 130.776 37.808C130.706 38.0785 130.67 38.3761 130.67 38.7014V39.3301C130.67 39.6328 130.702 39.918 130.765 40.1839H130.766ZM139.064 42.1066H138.279V35.5854H139.064V42.1066ZM146.531 42.1066H145.784L145.767 41.6522C145.623 41.8225 145.44 41.9544 145.219 42.0494C144.998 42.1445 144.732 42.1914 144.421 42.1914C144.194 42.1914 143.989 42.1603 143.805 42.0964C143.621 42.0319 143.462 41.9323 143.33 41.7942C143.196 41.6579 143.095 41.4802 143.022 41.2641C142.95 41.0479 142.914 40.7865 142.914 40.481V37.5132H143.7V40.4889C143.7 40.696 143.723 40.8663 143.772 41.0009C143.82 41.135 143.884 41.2409 143.963 41.3189C144.042 41.3976 144.133 41.4508 144.235 41.4808C144.336 41.5108 144.442 41.5255 144.549 41.5255C144.869 41.5255 145.126 41.4644 145.32 41.3427C145.514 41.2211 145.657 41.0587 145.747 40.855V37.5138H146.532V42.1071L146.531 42.1066ZM153.669 41.3846C153.586 41.5515 153.466 41.6946 153.311 41.8135C153.155 41.9317 152.968 42.0251 152.75 42.0913C152.532 42.1581 152.289 42.1909 152.023 42.1909C151.718 42.1909 151.448 42.1484 151.215 42.0636C150.981 41.9787 150.785 41.8661 150.627 41.7263C150.468 41.586 150.348 41.4264 150.266 41.2459C150.183 41.066 150.142 40.8821 150.142 40.692H150.928C150.936 40.8538 150.976 40.9885 151.045 41.0977C151.114 41.2069 151.201 41.2952 151.306 41.3631C151.411 41.4315 151.525 41.4791 151.65 41.5074C151.774 41.5357 151.9 41.5498 152.023 41.5498C152.185 41.5498 152.326 41.5334 152.449 41.4989C152.571 41.4649 152.673 41.4191 152.757 41.3591C152.84 41.2997 152.904 41.2295 152.946 41.1486C152.988 41.0677 153.009 40.9806 153.009 40.8872C153.009 40.8023 152.997 40.7226 152.971 40.6473C152.946 40.5726 152.896 40.5019 152.82 40.4357C152.745 40.3689 152.638 40.3078 152.499 40.2507C152.361 40.1941 152.179 40.1426 151.952 40.0939C151.697 40.0407 151.468 39.9768 151.264 39.9032C151.06 39.8297 150.886 39.7409 150.744 39.6373C150.601 39.5343 150.491 39.4121 150.414 39.2701C150.339 39.1286 150.3 38.9634 150.3 38.7733C150.3 38.5832 150.341 38.4202 150.422 38.2578C150.502 38.0949 150.616 37.9517 150.763 37.8289C150.911 37.7056 151.088 37.6083 151.298 37.5364C151.508 37.464 151.742 37.4283 151.999 37.4283C152.274 37.4283 152.519 37.4662 152.736 37.5404C152.953 37.6156 153.136 37.7186 153.288 37.8482C153.44 37.9783 153.554 38.1305 153.634 38.3048C153.714 38.4791 153.754 38.6646 153.754 38.8633H152.964C152.964 38.7699 152.943 38.676 152.9 38.5809C152.858 38.4858 152.796 38.401 152.713 38.3257C152.631 38.251 152.531 38.1899 152.412 38.1435C152.293 38.0966 152.156 38.0728 152 38.0728C151.836 38.0728 151.696 38.0926 151.582 38.1299C151.468 38.1684 151.373 38.2193 151.3 38.2827C151.226 38.3461 151.172 38.4185 151.138 38.4994C151.104 38.5803 151.087 38.6635 151.087 38.7484C151.087 38.8333 151.101 38.9091 151.13 38.9775C151.158 39.046 151.211 39.1071 151.291 39.162C151.37 39.2175 151.478 39.269 151.615 39.3148C151.753 39.3617 151.93 39.4087 152.148 39.4568C152.428 39.5224 152.672 39.5954 152.879 39.678C153.085 39.7607 153.257 39.8551 153.393 39.9644C153.528 40.0736 153.63 40.1992 153.697 40.3401C153.763 40.4821 153.796 40.6462 153.796 40.8329C153.796 41.0338 153.754 41.2171 153.67 41.3846H153.669ZM159.372 42.1066C159.31 42.1241 159.23 42.1417 159.131 42.162C159.031 42.1818 158.911 42.1909 158.769 42.1909C158.628 42.1909 158.489 42.1705 158.36 42.1298C158.231 42.089 158.118 42.02 158.022 41.9244C157.926 41.8276 157.849 41.7009 157.793 41.5436C157.736 41.3868 157.708 41.1939 157.708 40.9647V38.1198H156.871V37.5126H157.708V36.4002H158.493V37.5126H159.351V38.1198H158.493V40.9687C158.493 41.087 158.507 41.1831 158.536 41.255C158.564 41.3274 158.601 41.3829 158.649 41.4231C158.695 41.4632 158.749 41.4887 158.81 41.5017C158.871 41.5141 158.934 41.5204 158.999 41.5204C159.064 41.5204 159.133 41.5141 159.205 41.5017C159.278 41.4893 159.333 41.4779 159.372 41.4695V42.1066ZM166.577 40.0345H163.464C163.47 40.2473 163.504 40.4459 163.568 40.6292C163.632 40.8137 163.722 40.9727 163.84 41.1096C163.957 41.2454 164.099 41.3529 164.265 41.4321C164.43 41.5113 164.618 41.5504 164.827 41.5504C165.104 41.5504 165.339 41.4938 165.532 41.3806C165.724 41.2675 165.893 41.1169 166.037 40.9302L166.518 41.3037C166.444 41.4174 166.355 41.5272 166.25 41.633C166.145 41.7388 166.022 41.8338 165.883 41.917C165.742 42.0008 165.582 42.0675 165.4 42.1173C165.219 42.1665 165.014 42.1909 164.785 42.1909C164.464 42.1909 164.175 42.136 163.916 42.0251C163.657 41.9153 163.435 41.7614 163.251 41.5645C163.068 41.3682 162.926 41.1339 162.827 40.8623C162.728 40.5902 162.679 40.2937 162.679 39.97V39.7918C162.679 39.4183 162.734 39.0839 162.846 38.7897C162.958 38.4955 163.107 38.2476 163.294 38.0468C163.481 37.8459 163.695 37.692 163.935 37.5862C164.176 37.4792 164.426 37.4272 164.687 37.4272C165.016 37.4272 165.299 37.4843 165.537 37.5992C165.775 37.7135 165.97 37.8714 166.125 38.0722C166.279 38.2737 166.393 38.5113 166.467 38.7852C166.54 39.0596 166.577 39.3589 166.577 39.6809V40.0334L166.577 40.0345ZM172.316 38.2176C172.248 38.2069 172.185 38.199 172.127 38.195C172.069 38.1905 172.003 38.1882 171.93 38.1882C171.658 38.1882 171.436 38.2476 171.265 38.367C171.094 38.4853 170.966 38.6454 170.881 38.8463V42.1071H170.095V37.5138H170.859L170.873 38.0439C170.991 37.8549 171.14 37.705 171.319 37.5941C171.497 37.4838 171.713 37.4283 171.969 37.4283C172.025 37.4283 172.09 37.4345 172.164 37.447C172.237 37.4594 172.288 37.4736 172.316 37.4877V38.2176H172.316ZM165.526 38.4728C165.439 38.3534 165.328 38.2578 165.192 38.1843C165.056 38.1107 164.888 38.0739 164.687 38.0739C164.528 38.0739 164.382 38.1028 164.25 38.1611C164.116 38.2193 163.998 38.3037 163.893 38.4134C163.789 38.5238 163.701 38.6613 163.632 38.8253C163.563 38.9894 163.515 39.1779 163.49 39.39H165.792V39.3306C165.783 39.1779 165.759 39.0262 165.718 38.8763C165.676 38.7263 165.613 38.5922 165.527 38.4728H165.526ZM114.137 40.0883C113.893 40.2286 113.771 40.4396 113.771 40.7231C113.771 40.8335 113.79 40.9376 113.826 41.0332C113.863 41.13 113.919 41.212 113.993 41.2822C114.069 41.3512 114.16 41.4061 114.27 41.4479C114.379 41.4887 114.505 41.5091 114.649 41.5091C114.794 41.5091 114.924 41.4893 115.049 41.4496C115.173 41.4106 115.287 41.3585 115.389 41.2952C115.49 41.2318 115.579 41.1588 115.654 41.0762C115.729 40.9947 115.788 40.9093 115.831 40.8221V39.8789H115.176C114.726 39.8789 114.38 39.9485 114.137 40.0894V40.0883ZM77.869 38.2799C77.7796 38.2216 77.68 38.1763 77.5702 38.1441C77.4592 38.1113 77.3364 38.0949 77.2006 38.0949C76.9855 38.0949 76.8004 38.1396 76.6465 38.229C76.492 38.3178 76.3657 38.4394 76.2656 38.5922C76.1665 38.7444 76.0935 38.9227 76.0477 39.1247C76.0007 39.3272 75.9769 39.5428 75.9769 39.772V39.8614C75.9769 40.0905 76.0007 40.3061 76.0477 40.5087C76.0941 40.7112 76.1671 40.8867 76.2656 41.0377C76.3652 41.1877 76.4908 41.3059 76.6436 41.3942C76.7965 41.4819 76.9787 41.526 77.1915 41.526C77.3302 41.526 77.4547 41.5096 77.5651 41.4774C77.676 41.4446 77.7756 41.3982 77.865 41.3393C77.9539 41.2799 78.0331 41.2092 78.1027 41.1266C78.1718 41.0451 78.2324 40.954 78.2833 40.855V38.7444C78.2324 38.6511 78.1724 38.5645 78.1044 38.4853C78.0371 38.4061 77.9584 38.3376 77.869 38.2799ZM78.1044 38.4853C78.0371 38.4061 77.9584 38.3376 77.869 38.2799C77.7796 38.2216 77.68 38.1763 77.5702 38.1441C77.4592 38.1113 77.3364 38.0949 77.2006 38.0949C76.9855 38.0949 76.8004 38.1396 76.6465 38.229C76.492 38.3178 76.3657 38.4394 76.2656 38.5922C76.1665 38.7444 76.0935 38.9227 76.0477 39.1247C76.0007 39.3272 75.9769 39.5428 75.9769 39.772V39.8614C75.9769 40.0905 76.0007 40.3061 76.0477 40.5087C76.0941 40.7112 76.1671 40.8867 76.2656 41.0377C76.3652 41.1877 76.4908 41.3059 76.6436 41.3942C76.7965 41.4819 76.9787 41.526 77.1915 41.526C77.3302 41.526 77.4547 41.5096 77.5651 41.4774C77.676 41.4446 77.7756 41.3982 77.865 41.3393C77.9539 41.2799 78.0331 41.2092 78.1027 41.1266C78.1718 41.0451 78.2324 40.954 78.2833 40.855V38.7444C78.2324 38.6511 78.1724 38.5645 78.1044 38.4853ZM115.177 39.8778C114.727 39.8778 114.381 39.9474 114.137 40.0883C113.893 40.2286 113.772 40.4396 113.772 40.7231C113.772 40.8335 113.79 40.9376 113.827 41.0332C113.863 41.13 113.92 41.212 113.994 41.2822C114.069 41.3512 114.161 41.4061 114.27 41.4479C114.379 41.4887 114.506 41.5091 114.65 41.5091C114.794 41.5091 114.924 41.4893 115.05 41.4496C115.174 41.4106 115.287 41.3585 115.389 41.2952C115.491 41.2318 115.58 41.1588 115.655 41.0762C115.73 40.9947 115.789 40.9093 115.831 40.8221V39.8789H115.177V39.8778ZM165.717 38.8757C165.676 38.7258 165.612 38.5917 165.526 38.4723C165.44 38.3529 165.329 38.2573 165.193 38.1837C165.057 38.1101 164.888 38.0734 164.687 38.0734C164.529 38.0734 164.383 38.1022 164.25 38.1605C164.117 38.2188 163.999 38.3031 163.893 38.4129C163.789 38.5232 163.702 38.6607 163.633 38.8248C163.563 38.9889 163.516 39.1773 163.49 39.3895H165.792V39.3301C165.784 39.1773 165.759 39.0256 165.719 38.8757H165.717ZM165.717 38.8757C165.676 38.7258 165.612 38.5917 165.526 38.4723C165.44 38.3529 165.329 38.2573 165.193 38.1837C165.057 38.1101 164.888 38.0734 164.687 38.0734C164.529 38.0734 164.383 38.1022 164.25 38.1605C164.117 38.2188 163.999 38.3031 163.893 38.4129C163.789 38.5232 163.702 38.6607 163.633 38.8248C163.563 38.9889 163.516 39.1773 163.49 39.3895H165.792V39.3301C165.784 39.1773 165.759 39.0256 165.719 38.8757H165.717ZM115.177 39.8778C114.727 39.8778 114.381 39.9474 114.137 40.0883C113.893 40.2286 113.772 40.4396 113.772 40.7231C113.772 40.8335 113.79 40.9376 113.827 41.0332C113.863 41.13 113.92 41.212 113.994 41.2822C114.069 41.3512 114.161 41.4061 114.27 41.4479C114.379 41.4887 114.506 41.5091 114.65 41.5091C114.794 41.5091 114.924 41.4893 115.05 41.4496C115.174 41.4106 115.287 41.3585 115.389 41.2952C115.491 41.2318 115.58 41.1588 115.655 41.0762C115.73 40.9947 115.789 40.9093 115.831 40.8221V39.8789H115.177V39.8778ZM78.1044 38.4853C78.0371 38.4061 77.9584 38.3376 77.869 38.2799C77.7796 38.2216 77.68 38.1763 77.5702 38.1441C77.4592 38.1113 77.3364 38.0949 77.2006 38.0949C76.9855 38.0949 76.8004 38.1396 76.6465 38.229C76.492 38.3178 76.3657 38.4394 76.2656 38.5922C76.1665 38.7444 76.0935 38.9227 76.0477 39.1247C76.0007 39.3272 75.9769 39.5428 75.9769 39.772V39.8614C75.9769 40.0905 76.0007 40.3061 76.0477 40.5087C76.0941 40.7112 76.1671 40.8867 76.2656 41.0377C76.3652 41.1877 76.4908 41.3059 76.6436 41.3942C76.7965 41.4819 76.9787 41.526 77.1915 41.526C77.3302 41.526 77.4547 41.5096 77.5651 41.4774C77.676 41.4446 77.7756 41.3982 77.865 41.3393C77.9539 41.2799 78.0331 41.2092 78.1027 41.1266C78.1718 41.0451 78.2324 40.954 78.2833 40.855V38.7444C78.2324 38.6511 78.1724 38.5645 78.1044 38.4853ZM115.177 39.8778C114.727 39.8778 114.381 39.9474 114.137 40.0883C113.893 40.2286 113.772 40.4396 113.772 40.7231C113.772 40.8335 113.79 40.9376 113.827 41.0332C113.863 41.13 113.92 41.212 113.994 41.2822C114.069 41.3512 114.161 41.4061 114.27 41.4479C114.379 41.4887 114.506 41.5091 114.65 41.5091C114.794 41.5091 114.924 41.4893 115.05 41.4496C115.174 41.4106 115.287 41.3585 115.389 41.2952C115.491 41.2318 115.58 41.1588 115.655 41.0762C115.73 40.9947 115.789 40.9093 115.831 40.8221V39.8789H115.177V39.8778ZM165.717 38.8757C165.676 38.7258 165.612 38.5917 165.526 38.4723C165.44 38.3529 165.329 38.2573 165.193 38.1837C165.057 38.1101 164.888 38.0734 164.687 38.0734C164.529 38.0734 164.383 38.1022 164.25 38.1605C164.117 38.2188 163.999 38.3031 163.893 38.4129C163.789 38.5232 163.702 38.6607 163.633 38.8248C163.563 38.9889 163.516 39.1773 163.49 39.3895H165.792V39.3301C165.784 39.1773 165.759 39.0256 165.719 38.8757H165.717ZM165.717 38.8757C165.676 38.7258 165.612 38.5917 165.526 38.4723C165.44 38.3529 165.329 38.2573 165.193 38.1837C165.057 38.1101 164.888 38.0734 164.687 38.0734C164.529 38.0734 164.383 38.1022 164.25 38.1605C164.117 38.2188 163.999 38.3031 163.893 38.4129C163.789 38.5232 163.702 38.6607 163.633 38.8248C163.563 38.9889 163.516 39.1773 163.49 39.3895H165.792V39.3301C165.784 39.1773 165.759 39.0256 165.719 38.8757H165.717ZM115.177 39.8778C114.727 39.8778 114.381 39.9474 114.137 40.0883C113.893 40.2286 113.772 40.4396 113.772 40.7231C113.772 40.8335 113.79 40.9376 113.827 41.0332C113.863 41.13 113.92 41.212 113.994 41.2822C114.069 41.3512 114.161 41.4061 114.27 41.4479C114.379 41.4887 114.506 41.5091 114.65 41.5091C114.794 41.5091 114.924 41.4893 115.05 41.4496C115.174 41.4106 115.287 41.3585 115.389 41.2952C115.491 41.2318 115.58 41.1588 115.655 41.0762C115.73 40.9947 115.789 40.9093 115.831 40.8221V39.8789H115.177V39.8778ZM115.177 39.8778C114.727 39.8778 114.381 39.9474 114.137 40.0883C113.893 40.2286 113.772 40.4396 113.772 40.7231C113.772 40.8335 113.79 40.9376 113.827 41.0332C113.863 41.13 113.92 41.212 113.994 41.2822C114.069 41.3512 114.161 41.4061 114.27 41.4479C114.379 41.4887 114.506 41.5091 114.65 41.5091C114.794 41.5091 114.924 41.4893 115.05 41.4496C115.174 41.4106 115.287 41.3585 115.389 41.2952C115.491 41.2318 115.58 41.1588 115.655 41.0762C115.73 40.9947 115.789 40.9093 115.831 40.8221V39.8789H115.177V39.8778ZM165.717 38.8757C165.676 38.7258 165.612 38.5917 165.526 38.4723C165.44 38.3529 165.329 38.2573 165.193 38.1837C165.057 38.1101 164.888 38.0734 164.687 38.0734C164.529 38.0734 164.383 38.1022 164.25 38.1605C164.117 38.2188 163.999 38.3031 163.893 38.4129C163.789 38.5232 163.702 38.6607 163.633 38.8248C163.563 38.9889 163.516 39.1773 163.49 39.3895H165.792V39.3301C165.784 39.1773 165.759 39.0256 165.719 38.8757H165.717ZM165.717 38.8757C165.676 38.7258 165.612 38.5917 165.526 38.4723C165.44 38.3529 165.329 38.2573 165.193 38.1837C165.057 38.1101 164.888 38.0734 164.687 38.0734C164.529 38.0734 164.383 38.1022 164.25 38.1605C164.117 38.2188 163.999 38.3031 163.893 38.4129C163.789 38.5232 163.702 38.6607 163.633 38.8248C163.563 38.9889 163.516 39.1773 163.49 39.3895H165.792V39.3301C165.784 39.1773 165.759 39.0256 165.719 38.8757H165.717ZM115.177 39.8778C114.727 39.8778 114.381 39.9474 114.137 40.0883C113.893 40.2286 113.772 40.4396 113.772 40.7231C113.772 40.8335 113.79 40.9376 113.827 41.0332C113.863 41.13 113.92 41.212 113.994 41.2822C114.069 41.3512 114.161 41.4061 114.27 41.4479C114.379 41.4887 114.506 41.5091 114.65 41.5091C114.794 41.5091 114.924 41.4893 115.05 41.4496C115.174 41.4106 115.287 41.3585 115.389 41.2952C115.491 41.2318 115.58 41.1588 115.655 41.0762C115.73 40.9947 115.789 40.9093 115.831 40.8221V39.8789H115.177V39.8778ZM115.177 39.8778C114.727 39.8778 114.381 39.9474 114.137 40.0883C113.893 40.2286 113.772 40.4396 113.772 40.7231C113.772 40.8335 113.79 40.9376 113.827 41.0332C113.863 41.13 113.92 41.212 113.994 41.2822C114.069 41.3512 114.161 41.4061 114.27 41.4479C114.379 41.4887 114.506 41.5091 114.65 41.5091C114.794 41.5091 114.924 41.4893 115.05 41.4496C115.174 41.4106 115.287 41.3585 115.389 41.2952C115.491 41.2318 115.58 41.1588 115.655 41.0762C115.73 40.9947 115.789 40.9093 115.831 40.8221V39.8789H115.177V39.8778ZM165.717 38.8757C165.676 38.7258 165.612 38.5917 165.526 38.4723C165.44 38.3529 165.329 38.2573 165.193 38.1837C165.057 38.1101 164.888 38.0734 164.687 38.0734C164.529 38.0734 164.383 38.1022 164.25 38.1605C164.117 38.2188 163.999 38.3031 163.893 38.4129C163.789 38.5232 163.702 38.6607 163.633 38.8248C163.563 38.9889 163.516 39.1773 163.49 39.3895H165.792V39.3301C165.784 39.1773 165.759 39.0256 165.719 38.8757H165.717ZM165.717 38.8757C165.676 38.7258 165.612 38.5917 165.526 38.4723C165.44 38.3529 165.329 38.2573 165.193 38.1837C165.057 38.1101 164.888 38.0734 164.687 38.0734C164.529 38.0734 164.383 38.1022 164.25 38.1605C164.117 38.2188 163.999 38.3031 163.893 38.4129C163.789 38.5232 163.702 38.6607 163.633 38.8248C163.563 38.9889 163.516 39.1773 163.49 39.3895H165.792V39.3301C165.784 39.1773 165.759 39.0256 165.719 38.8757H165.717ZM115.177 39.8778C114.727 39.8778 114.381 39.9474 114.137 40.0883C113.893 40.2286 113.772 40.4396 113.772 40.7231C113.772 40.8335 113.79 40.9376 113.827 41.0332C113.863 41.13 113.92 41.212 113.994 41.2822C114.069 41.3512 114.161 41.4061 114.27 41.4479C114.379 41.4887 114.506 41.5091 114.65 41.5091C114.794 41.5091 114.924 41.4893 115.05 41.4496C115.174 41.4106 115.287 41.3585 115.389 41.2952C115.491 41.2318 115.58 41.1588 115.655 41.0762C115.73 40.9947 115.789 40.9093 115.831 40.8221V39.8789H115.177V39.8778ZM165.717 38.8757C165.676 38.7258 165.612 38.5917 165.526 38.4723C165.44 38.3529 165.329 38.2573 165.193 38.1837C165.057 38.1101 164.888 38.0734 164.687 38.0734C164.529 38.0734 164.383 38.1022 164.25 38.1605C164.117 38.2188 163.999 38.3031 163.893 38.4129C163.789 38.5232 163.702 38.6607 163.633 38.8248C163.563 38.9889 163.516 39.1773 163.49 39.3895H165.792V39.3301C165.784 39.1773 165.759 39.0256 165.719 38.8757H165.717ZM165.717 38.8757C165.676 38.7258 165.612 38.5917 165.526 38.4723C165.44 38.3529 165.329 38.2573 165.193 38.1837C165.057 38.1101 164.888 38.0734 164.687 38.0734C164.529 38.0734 164.383 38.1022 164.25 38.1605C164.117 38.2188 163.999 38.3031 163.893 38.4129C163.789 38.5232 163.702 38.6607 163.633 38.8248C163.563 38.9889 163.516 39.1773 163.49 39.3895H165.792V39.3301C165.784 39.1773 165.759 39.0256 165.719 38.8757H165.717ZM165.717 38.8757C165.676 38.7258 165.612 38.5917 165.526 38.4723C165.44 38.3529 165.329 38.2573 165.193 38.1837C165.057 38.1101 164.888 38.0734 164.687 38.0734C164.529 38.0734 164.383 38.1022 164.25 38.1605C164.117 38.2188 163.999 38.3031 163.893 38.4129C163.789 38.5232 163.702 38.6607 163.633 38.8248C163.563 38.9889 163.516 39.1773 163.49 39.3895H165.792V39.3301C165.784 39.1773 165.759 39.0256 165.719 38.8757H165.717ZM165.717 38.8757C165.676 38.7258 165.612 38.5917 165.526 38.4723C165.44 38.3529 165.329 38.2573 165.193 38.1837C165.057 38.1101 164.888 38.0734 164.687 38.0734C164.529 38.0734 164.383 38.1022 164.25 38.1605C164.117 38.2188 163.999 38.3031 163.893 38.4129C163.789 38.5232 163.702 38.6607 163.633 38.8248C163.563 38.9889 163.516 39.1773 163.49 39.3895H165.792V39.3301C165.784 39.1773 165.759 39.0256 165.719 38.8757H165.717ZM165.717 38.8757C165.676 38.7258 165.612 38.5917 165.526 38.4723C165.44 38.3529 165.329 38.2573 165.193 38.1837C165.057 38.1101 164.888 38.0734 164.687 38.0734C164.529 38.0734 164.383 38.1022 164.25 38.1605C164.117 38.2188 163.999 38.3031 163.893 38.4129C163.789 38.5232 163.702 38.6607 163.633 38.8248C163.563 38.9889 163.516 39.1773 163.49 39.3895H165.792V39.3301C165.784 39.1773 165.759 39.0256 165.719 38.8757H165.717ZM165.717 38.8757C165.676 38.7258 165.612 38.5917 165.526 38.4723C165.44 38.3529 165.329 38.2573 165.193 38.1837C165.057 38.1101 164.888 38.0734 164.687 38.0734C164.529 38.0734 164.383 38.1022 164.25 38.1605C164.117 38.2188 163.999 38.3031 163.893 38.4129C163.789 38.5232 163.702 38.6607 163.633 38.8248C163.563 38.9889 163.516 39.1773 163.49 39.3895H165.792V39.3301C165.784 39.1773 165.759 39.0256 165.719 38.8757H165.717ZM165.717 38.8757C165.676 38.7258 165.612 38.5917 165.526 38.4723C165.44 38.3529 165.329 38.2573 165.193 38.1837C165.057 38.1101 164.888 38.0734 164.687 38.0734C164.529 38.0734 164.383 38.1022 164.25 38.1605C164.117 38.2188 163.999 38.3031 163.893 38.4129C163.789 38.5232 163.702 38.6607 163.633 38.8248C163.563 38.9889 163.516 39.1773 163.49 39.3895H165.792V39.3301C165.784 39.1773 165.759 39.0256 165.719 38.8757H165.717ZM165.717 38.8757C165.676 38.7258 165.612 38.5917 165.526 38.4723C165.44 38.3529 165.329 38.2573 165.193 38.1837C165.057 38.1101 164.888 38.0734 164.687 38.0734C164.529 38.0734 164.383 38.1022 164.25 38.1605C164.117 38.2188 163.999 38.3031 163.893 38.4129C163.789 38.5232 163.702 38.6607 163.633 38.8248C163.563 38.9889 163.516 39.1773 163.49 39.3895H165.792V39.3301C165.784 39.1773 165.759 39.0256 165.719 38.8757H165.717Z" fill="#673918"/>
<g id="Group_5">
<path id="Vector_8" d="M157.511 10.0537C157.511 11.174 157.3 12.1286 156.877 12.9185C156.454 13.7078 155.84 14.3042 155.037 14.7076C154.233 15.111 153.257 15.3125 152.108 15.3125C151.834 15.3125 151.421 15.3012 150.869 15.2791C150.317 15.2565 149.87 15.2299 149.529 15.1993C149.187 15.1687 148.915 15.1393 148.714 15.111C148.416 15.0607 148.268 14.8813 148.268 14.5735V2.99782C148.268 2.69567 148.416 2.51913 148.714 2.46877C148.904 2.43539 149.184 2.40314 149.554 2.37202C149.924 2.34146 150.374 2.31487 150.903 2.29223C151.432 2.27017 151.834 2.25885 152.108 2.25885C153.257 2.25885 154.233 2.46028 155.037 2.86372C155.84 3.26715 156.454 3.86467 156.877 4.65739C157.3 5.45011 157.511 6.40636 157.511 7.52613V10.0548V10.0537ZM155.134 10.0537V7.525C155.134 6.70738 155.007 6.05781 154.755 5.57629C154.503 5.09477 154.153 4.75754 153.705 4.56403C153.257 4.37108 152.725 4.27432 152.108 4.27432C151.84 4.27432 151.663 4.27602 151.579 4.27829C151.495 4.28111 151.361 4.28677 151.176 4.29526C150.991 4.30375 150.82 4.31337 150.663 4.32468V13.254C150.943 13.2653 151.195 13.2766 151.419 13.2874C151.643 13.2987 151.873 13.3044 152.108 13.3044C152.724 13.3044 153.254 13.2076 153.7 13.0146C154.145 12.8217 154.495 12.4856 154.75 12.0063C155.005 11.5277 155.133 10.8764 155.133 10.0531L155.134 10.0537Z" fill="white"/>
<path id="Vector_9" d="M169.139 14.8835C169.139 14.9735 169.11 15.0448 169.051 15.098C168.992 15.1512 168.918 15.1778 168.829 15.1778H167.005C166.932 15.1778 166.864 15.1483 166.799 15.0895C166.734 15.0306 166.694 14.9622 166.677 14.8835L165.887 11.6159H161.93L161.14 14.8835C161.123 14.9622 161.082 15.0306 161.018 15.0895C160.954 15.1483 160.885 15.1778 160.812 15.1778H158.989C158.9 15.1778 158.825 15.1512 158.767 15.098C158.708 15.0448 158.678 14.9735 158.678 14.8835C158.684 14.8722 158.688 14.8615 158.691 14.8501C158.694 14.8388 158.695 14.8224 158.695 14.7998L161.518 4.014C161.82 2.84387 162.616 2.25824 163.904 2.25824C165.192 2.25824 165.996 2.8433 166.299 4.014L169.122 14.7998C169.127 14.8168 169.131 14.8303 169.134 14.8417C169.137 14.853 169.138 14.8671 169.138 14.8835H169.139ZM165.425 9.65868L164.182 4.54305C164.154 4.43667 164.122 4.36538 164.085 4.3286C164.048 4.29239 163.988 4.27428 163.905 4.27428C163.826 4.27428 163.769 4.29239 163.732 4.3286C163.696 4.36538 163.664 4.43667 163.636 4.54305L162.392 9.65868H165.425Z" fill="white"/>
<path id="Vector_10" d="M180 15.0267C180 15.1274 179.913 15.1777 179.74 15.1777H177.437C177.252 15.1777 177.121 15.1132 177.042 14.9842L173.101 9.12114V14.8332C173.101 14.9282 173.064 15.0097 172.992 15.0765C172.919 15.1438 172.841 15.1772 172.757 15.1772H171.051C170.967 15.1772 170.888 15.1438 170.815 15.0765C170.742 15.0091 170.706 14.9282 170.706 14.8332V2.73692C170.706 2.64751 170.741 2.57 170.811 2.50606C170.881 2.44155 170.961 2.4093 171.051 2.4093H172.757C172.846 2.4093 172.926 2.44155 172.996 2.50606C173.066 2.57056 173.101 2.64751 173.101 2.73692V8.21412L177.319 2.55246C177.381 2.4574 177.512 2.40987 177.715 2.40987H179.672C179.891 2.40987 180 2.48003 180 2.61979C180 2.69844 179.961 2.79067 179.882 2.89704L175.471 8.59265L179.916 14.8173C179.972 14.9129 180 14.9825 180 15.0272V15.0267Z" fill="white"/>
<path id="Vector_11" d="M157.511 24.8885C157.511 26.0088 157.3 26.9634 156.877 27.7533C156.454 28.5426 155.84 29.139 155.037 29.5424C154.233 29.9458 153.257 30.1473 152.108 30.1473C151.834 30.1473 151.421 30.136 150.869 30.1139C150.317 30.0913 149.87 30.0647 149.529 30.0341C149.187 30.0036 148.915 29.9741 148.714 29.9458C148.416 29.8955 148.268 29.7161 148.268 29.4083V17.8326C148.268 17.5305 148.416 17.3539 148.714 17.3036C148.904 17.2702 149.184 17.2379 149.554 17.2068C149.924 17.1763 150.374 17.1497 150.903 17.127C151.432 17.105 151.834 17.0937 152.108 17.0937C153.257 17.0937 154.233 17.2951 155.037 17.6985C155.84 18.102 156.454 18.6995 156.877 19.4922C157.3 20.2849 157.511 21.2412 157.511 22.3609V24.8896V24.8885ZM155.134 24.8885V22.3598C155.134 21.5422 155.007 20.8926 154.755 20.4111C154.503 19.9296 154.153 19.5923 153.705 19.3988C153.257 19.2059 152.725 19.1091 152.108 19.1091C151.84 19.1091 151.663 19.1108 151.579 19.1131C151.495 19.1159 151.361 19.1216 151.176 19.1301C150.991 19.1386 150.82 19.1482 150.663 19.1595V28.0888C150.943 28.1001 151.195 28.1114 151.419 28.1222C151.643 28.1335 151.873 28.1392 152.108 28.1392C152.724 28.1392 153.254 28.0424 153.7 27.8495C154.145 27.6565 154.495 27.3204 154.75 26.8412C155.005 26.3625 155.133 25.7112 155.133 24.8879L155.134 24.8885Z" fill="white"/>
<path id="Vector_12" d="M168.816 24.7793C168.816 26.0003 168.609 27.0126 168.194 27.8161C167.779 28.6195 167.203 29.2091 166.463 29.5843C165.724 29.9594 164.872 30.1473 163.909 30.1473C162.946 30.1473 162.094 29.96 161.355 29.5843C160.616 29.2091 160.038 28.6195 159.624 27.8161C159.209 27.0126 159.002 26.0003 159.002 24.7793V22.4611C159.002 21.2406 159.209 20.2283 159.624 19.4243C160.038 18.6208 160.616 18.0312 161.355 17.6561C162.094 17.2809 162.946 17.0931 163.909 17.0931C164.872 17.0931 165.724 17.2809 166.463 17.6561C167.203 18.0312 167.78 18.6208 168.194 19.4243C168.608 20.2278 168.816 21.24 168.816 22.4611V24.7793ZM166.405 24.7793V22.4611C166.405 21.33 166.201 20.4999 165.796 19.9703C165.389 19.4413 164.76 19.1765 163.909 19.1765C163.058 19.1765 162.429 19.4413 162.023 19.9703C161.616 20.4994 161.414 21.33 161.414 22.4611V24.7793C161.414 25.9053 161.617 26.7353 162.023 27.27C162.428 27.8047 163.057 28.0724 163.909 28.0724C164.761 28.0724 165.389 27.8047 165.796 27.27C166.202 26.7353 166.405 25.9053 166.405 24.7793Z" fill="white"/>
<path id="Vector_13" d="M180 29.7184C180 29.8083 179.971 29.8796 179.912 29.9328C179.853 29.986 179.779 30.0126 179.689 30.0126H177.866C177.793 30.0126 177.724 29.9832 177.66 29.9243C177.595 29.8655 177.554 29.797 177.538 29.7184L176.748 26.4507H172.79L172 29.7184C171.983 29.797 171.943 29.8655 171.879 29.9243C171.814 29.9832 171.746 30.0126 171.673 30.0126H169.85C169.76 30.0126 169.686 29.986 169.627 29.9328C169.568 29.8796 169.539 29.8083 169.539 29.7184C169.545 29.707 169.549 29.6963 169.551 29.685C169.554 29.6737 169.555 29.6573 169.555 29.6346L172.378 18.8488C172.681 17.6787 173.476 17.0931 174.765 17.0931C176.053 17.0931 176.857 17.6781 177.159 18.8488L179.982 29.6346C179.988 29.6516 179.992 29.6652 179.995 29.6765C179.998 29.6878 179.999 29.702 179.999 29.7184H180ZM176.286 24.4935L175.043 19.3779C175.014 19.2715 174.983 19.2002 174.946 19.1634C174.909 19.1272 174.849 19.1091 174.765 19.1091C174.687 19.1091 174.629 19.1272 174.593 19.1634C174.556 19.2002 174.525 19.2715 174.496 19.3779L173.253 24.4935H176.286Z" fill="white"/>
</g>
<path id="Vector_14" d="M112.74 26.5956V30.1467H103.608C98.5347 30.1467 94.956 29.1005 92.7962 26.9718C90.2816 24.5065 89.05 20.9893 89.05 16.3903C89.05 14.0082 89.445 11.7935 90.2816 9.65811C91.2075 7.23524 92.576 5.398 94.3385 4.17921C96.2402 2.89139 99.2354 2.25766 103.344 2.25766H112.74V5.81501H103.608C101.884 5.81501 100.559 5.89706 99.6769 6.10641C98.2676 6.44251 97.1667 7.06888 96.3721 8.02966C94.8241 9.91046 94.0289 12.7136 94.0289 16.5216C94.0289 20.0721 94.9096 22.7881 96.7253 24.5897C97.6071 25.4616 98.7068 26.0461 100.076 26.3421C100.911 26.5107 102.235 26.5956 104.002 26.5956H112.739H112.74ZM60.049 7.90348V30.1467H55.5008V2.25823H61.108L76.1524 24.5897V2.25823H80.6972V30.1467H75.2706L60.049 7.90348ZM124.448 2.25823V30.1467H119.726V2.25823H124.448ZM144.056 29.0416L130.745 16.1928C130.468 15.9399 130.47 15.5031 130.748 15.2513L143.158 3.36611C143.59 2.97569 143.314 2.25823 142.732 2.25823H138.647L124.449 15.9382L138.965 30.1467H143.627C144.207 30.1467 144.485 29.4326 144.056 29.0411V29.0416Z" fill="white"/>
</g>
</g>
<defs>
<clipPath id="clip0_110_123">
<rect width="180" height="46" fill="white"/>
</clipPath>
</defs>
</svg>
