<svg width="148" height="46" viewBox="0 0 148 46" fill="none" xmlns="http://www.w3.org/2000/svg">
<g id="Group 34162">
<g id="Group">
<g id="Group_2">
<path id="Vector" d="M34.3572 11.4268C34.8382 8.40813 33.931 5.20727 31.6071 2.88456C27.759 -0.962464 21.4976 -0.960767 17.65 2.88513C15.3612 5.17219 14.4455 8.31024 14.8796 11.2887C16.9929 11.6599 19.0174 12.6546 20.6452 14.2819C22.175 15.8119 23.1429 17.6882 23.5656 19.6601C24.2833 19.737 25.01 19.7348 25.7277 19.6556C26.1641 17.7357 27.1194 15.9121 28.613 14.4194C30.2363 12.7961 32.2517 11.8025 34.3566 11.4268H34.3572Z" fill="white"/>
<g id="Group_3">
<path id="Vector_2" d="M25.6615 25.8531H23.5957C22.9714 25.8531 22.4654 26.3589 22.4654 26.983V44.3011C23.178 44.3804 23.8996 44.4318 24.6286 44.4517C25.357 44.4715 26.078 44.4517 26.7917 44.4007V26.983C26.7917 26.3589 26.2858 25.8531 25.6615 25.8531Z" fill="white"/>
<path id="Vector_3" d="M25.6615 25.8531H23.5957C22.9714 25.8531 22.4654 26.3589 22.4654 26.983V44.3011C23.178 44.3804 23.8996 44.4318 24.6286 44.4517C25.357 44.4715 26.078 44.4517 26.7917 44.4007V26.983C26.7917 26.3589 26.2858 25.8531 25.6615 25.8531Z" fill="white"/>
</g>
<path id="Vector_4" d="M24.6286 44.4522C11.3462 44.0929 0.569375 33.684 0.569375 20.4002C0.569375 17.7572 0.997255 15.2138 1.7851 12.8351C0.635594 15.6433 0 18.7168 0 21.9392C0 35.223 10.7762 45.6319 24.0592 45.9918C34.4562 46.2735 43.5136 39.2834 46.8047 29.4386C43.1208 38.4641 34.4749 44.7192 24.6286 44.4527V44.4522Z" fill="white"/>
</g>
<path id="Vector_5" d="M6.00507 14.9678C9.85316 11.1213 16.1152 11.1196 19.9604 14.9678C23.8096 18.8137 23.8085 25.0728 19.9604 28.9209C16.1152 32.7657 9.85599 32.7657 6.0062 28.9181C2.15868 25.0717 2.15755 18.8137 6.00507 14.9678ZM29.2968 29.0539C33.1443 32.9004 39.4046 32.9004 43.251 29.0556C47.0991 25.208 47.0991 18.9489 43.251 15.1019C39.4052 11.256 33.1415 11.256 29.2957 15.103C25.4487 18.9489 25.4504 25.2063 29.2968 29.0534V29.0539Z" fill="white"/>
</g>
<g id="Group 34161">
<g id="Clip path group">
<mask id="mask0_247_1372" style="mask-type:luminance" maskUnits="userSpaceOnUse" x="55" y="41" width="41" height="2">
<g id="clippath">
<path id="Vector_6" d="M56.1183 41.3261C55.7268 41.3261 55.4092 41.6449 55.4092 42.0377C55.4092 42.4305 55.7268 42.7493 56.1183 42.7493H94.7303C95.1222 42.7493 95.4399 42.4305 95.4399 42.0377C95.4399 41.6449 95.1222 41.3261 94.7303 41.3261H56.1183Z" fill="white"/>
</g>
</mask>
<g mask="url(#mask0_247_1372)">
<g id="Group_4">
<path id="Vector_7" d="M95.4399 41.3261H55.4092V42.7499H95.4399V41.3261Z" fill="white"/>
</g>
</g>
</g>
<g id="Clip path group_2">
<mask id="mask1_247_1372" style="mask-type:luminance" maskUnits="userSpaceOnUse" x="55" y="2" width="93" height="24">
<g id="clippath-8">
<path id="Vector_8" d="M85.8957 2.82358C85.7278 2.82358 85.5852 2.88822 85.4668 3.0164C85.3485 3.14512 85.2896 3.28324 85.2896 3.43185V12.2448H74.9251V3.43185C74.9251 3.2639 74.8662 3.12026 74.7479 3.00148C74.6295 2.8827 74.4864 2.82358 74.319 2.82358H72.7813C72.6134 2.82358 72.4708 2.88822 72.3525 3.0164C72.2341 3.14512 72.1752 3.28324 72.1752 3.43185V24.7969C72.1752 24.9654 72.2341 25.1085 72.3525 25.2272C72.4708 25.346 72.6134 25.4051 72.7813 25.4051H74.319C74.4864 25.4051 74.6295 25.3482 74.7479 25.2344C74.8662 25.1206 74.9251 24.9748 74.9251 24.7969V14.7077H85.2896V24.7969C85.2896 24.9654 85.349 25.1085 85.4668 25.2272C85.5852 25.346 85.7278 25.4051 85.8957 25.4051H87.4334C87.6007 25.4051 87.7439 25.3482 87.8622 25.2344C87.9806 25.1206 88.0395 24.9748 88.0395 24.7969V3.43185C88.0395 3.2639 87.9806 3.12026 87.8622 3.00148C87.7439 2.8827 87.6007 2.82358 87.4334 2.82358H85.8957ZM92.6376 2.82358C92.4895 2.82358 92.3612 2.8827 92.2533 3.00148C92.1449 3.12026 92.0909 3.25396 92.0909 3.40202V24.7969C92.0909 24.9748 92.1476 25.1212 92.261 25.2344C92.3744 25.3482 92.5 25.4051 92.6382 25.4051H94.309C94.4665 25.4051 94.5975 25.3433 94.701 25.2195C94.8045 25.0958 94.8563 24.9549 94.8563 24.7969V3.40202C94.8563 3.23407 94.8018 3.0954 94.6939 2.98656C94.5854 2.87773 94.4571 2.82358 94.3096 2.82358H92.6387H92.6376ZM112.627 2.82358C112.469 2.82358 112.339 2.88049 112.235 2.9943C112.132 3.10811 112.08 3.24457 112.08 3.40257V21.1766C112.08 21.2362 112.07 21.2655 112.05 21.2655L111.991 21.1766L102.692 3.43185C102.563 3.19429 102.426 3.03408 102.278 2.94955C102.129 2.86557 101.854 2.82358 101.45 2.82358H99.7786C99.532 2.82358 99.325 2.90756 99.1576 3.07551C98.9897 3.24401 98.906 3.44622 98.906 3.68378V25.0339C98.906 25.2814 99.0883 25.4046 99.4533 25.4046H101.021C101.178 25.4046 101.309 25.3477 101.413 25.2339C101.516 25.1201 101.568 24.9842 101.568 24.8256V7.08145C101.568 7.02234 101.578 6.9925 101.598 6.9925C101.627 6.9925 101.657 7.02234 101.686 7.08145L111.045 24.9151C111.213 25.2416 111.538 25.4046 112.022 25.4046H113.899C114.126 25.4046 114.328 25.3206 114.506 25.1521C114.683 24.9842 114.771 24.7764 114.771 24.5289V3.40202C114.771 3.23407 114.722 3.0954 114.623 2.98656C114.525 2.87773 114.392 2.82358 114.224 2.82358H112.628H112.627ZM58.551 3.20203C57.5408 3.59317 56.7645 4.1937 56.2223 5.00473C55.68 5.81575 55.4091 6.80964 55.4091 7.98695C55.4091 9.16426 55.7416 10.1703 56.4072 11.036C57.0728 11.9017 58.1343 12.779 59.5932 13.6696L62.5204 15.4646C63.9397 16.3253 64.896 17.0297 65.3887 17.5789C65.8814 18.128 66.1281 18.7833 66.1281 19.5446C66.1281 20.3059 65.9927 20.9075 65.7218 21.4362C65.4504 21.9655 64.9945 22.3738 64.3543 22.6599C63.7134 22.9472 62.8805 23.0903 61.8554 23.0903C60.9778 23.0903 60.0122 22.9765 58.9573 22.7489C57.9025 22.5213 56.9319 22.2544 56.045 21.9478C55.6409 21.7898 55.4388 21.9086 55.4388 22.3036V23.55C55.4388 23.7875 55.4708 23.9505 55.5346 24.0394C55.5985 24.1284 55.7587 24.2372 56.0153 24.3659C56.715 24.7024 57.6069 24.9941 58.6914 25.2411C59.7754 25.488 60.8005 25.6118 61.7667 25.6118C64.3691 25.6118 66.2244 25.0284 67.3332 23.861C68.442 22.6942 68.9964 21.255 68.9964 19.5435C68.9964 18.317 68.6441 17.2314 67.9394 16.2867C67.2347 15.3425 66.0147 14.3608 64.2799 13.3415L61.5003 11.6647C60.2682 10.9228 59.4082 10.2974 58.9204 9.78799C58.4327 9.27861 58.1888 8.67808 58.1888 7.98529C58.1888 6.92676 58.5015 6.18259 59.1274 5.75222C59.7534 5.32184 60.7466 5.10693 62.1064 5.10693C62.6878 5.10693 63.2868 5.15389 63.9028 5.24781C64.5189 5.34173 65.1002 5.46272 65.6475 5.61134C66.1947 5.7594 66.8179 5.94779 67.5176 6.17541C67.9019 6.29419 68.0941 6.17043 68.0941 5.8047V4.26166C68.0941 4.11304 68.0473 3.99979 67.9537 3.92023C67.8601 3.84123 67.734 3.77217 67.5766 3.71251C67.0541 3.46555 66.28 3.22081 65.2555 2.97828C64.2304 2.73574 63.1805 2.61475 62.1064 2.61475C60.746 2.61475 59.5607 2.81033 58.5505 3.20092M120.182 3.96498C119.117 4.86495 118.585 6.29971 118.585 8.2676V19.9589C118.585 21.2743 118.827 22.3528 119.31 23.1931C119.792 24.0339 120.509 24.6472 121.46 25.0328C122.412 25.4184 123.602 25.6112 125.031 25.6112C128.018 25.6112 129.989 25.5615 130.945 25.4632C131.142 25.4333 131.241 25.2902 131.241 25.0328V23.4897C131.241 23.2428 131.132 23.119 130.915 23.119H125.06C123.996 23.119 123.197 23.0179 122.665 22.8146C122.133 22.6119 121.778 22.2903 121.601 21.85C121.424 21.4102 121.335 20.7793 121.335 19.9584V14.8547H130.635C130.802 14.8547 130.945 14.7978 131.064 14.684C131.182 14.5701 131.241 14.4243 131.241 14.2464V13.1039C131.241 12.9161 131.186 12.768 131.078 12.6586C130.97 12.5498 130.822 12.4956 130.635 12.4956H121.335V8.26705C121.335 7.44608 121.424 6.81572 121.601 6.3754C121.778 5.93563 122.133 5.6141 122.665 5.41079C123.197 5.20803 123.996 5.10638 125.06 5.10638H130.915C131.132 5.10638 131.241 4.98318 131.241 4.73567V3.22247C131.241 2.96557 131.142 2.82193 130.945 2.79209C130.354 2.73298 129.471 2.68823 128.299 2.6584C127.126 2.62856 126.037 2.61365 125.031 2.61365C122.863 2.61365 121.246 3.06391 120.182 3.96388M136.305 4.76496C134.782 6.19916 134.02 8.61289 134.02 12.005V16.2336C134.02 19.6164 134.782 22.0251 136.305 23.4594C137.827 24.8936 139.762 25.6107 142.108 25.6107C142.729 25.6107 143.367 25.5416 144.023 25.4029C144.678 25.2643 145.284 25.0963 145.841 24.8985C146.398 24.7007 146.839 24.5129 147.165 24.3345C147.372 24.2157 147.475 24.0577 147.475 23.8599V22.3616C147.475 22.2229 147.43 22.1296 147.342 22.0798C147.253 22.0307 147.125 22.0351 146.958 22.0948C144.956 22.7771 143.34 23.1185 142.108 23.1185C141.023 23.1185 140.087 22.8958 139.298 22.4511C138.51 22.0058 137.894 21.2716 137.45 20.2479C137.007 19.2241 136.785 17.8717 136.785 16.19V12.0061C136.785 7.40686 138.56 5.10693 142.108 5.10693C142.818 5.10693 143.67 5.22848 144.666 5.47046C145.661 5.71299 146.425 5.93784 146.958 6.14557C147.106 6.19529 147.228 6.19253 147.327 6.13839C147.425 6.08425 147.475 5.99254 147.475 5.86381V4.37989C147.475 4.17216 147.372 4.00918 147.165 3.8904C146.839 3.71251 146.398 3.52467 145.841 3.32633C145.284 3.12855 144.678 2.9606 144.023 2.82193C143.367 2.68326 142.729 2.6142 142.108 2.6142C139.762 2.6142 137.827 3.3313 136.305 4.76551" fill="white"/>
</g>
</mask>
<g mask="url(#mask1_247_1372)">
<g id="Group_5">
<path id="Vector_9" d="M147.475 2.61594H55.4092V25.6129H147.475V2.61594Z" fill="white"/>
</g>
</g>
</g>
<g id="Clip path group_3">
<mask id="mask2_247_1372" style="mask-type:luminance" maskUnits="userSpaceOnUse" x="99" y="30" width="49" height="13">
<g id="clippath-9">
<path id="Vector_10" d="M109.685 30.432C109.605 30.432 109.535 30.4646 109.475 30.5292C109.416 30.5939 109.387 30.6668 109.387 30.7475V42.4172C109.387 42.5145 109.417 42.594 109.479 42.6559C109.541 42.7178 109.61 42.7487 109.685 42.7487H110.596C110.682 42.7487 110.753 42.715 110.809 42.6476C110.866 42.5802 110.894 42.5034 110.894 42.4167V30.7469C110.894 30.6552 110.864 30.5801 110.805 30.5204C110.746 30.4613 110.677 30.4315 110.596 30.4315H109.685L109.685 30.432ZM127.806 30.432C127.715 30.432 127.636 30.4674 127.572 30.537C127.508 30.6071 127.475 30.6828 127.475 30.7635V39.7787C127.475 40.6311 127.635 41.2852 127.955 41.741C128.275 42.1968 128.69 42.4979 129.201 42.6432C129.712 42.7891 130.309 42.8614 130.991 42.8614C132.492 42.8614 133.567 42.8128 134.217 42.7156C134.324 42.6996 134.378 42.6211 134.378 42.4808V41.704C134.378 41.5692 134.319 41.5018 134.201 41.5018H131.007C130.427 41.5018 129.991 41.4466 129.701 41.3361C129.411 41.2256 129.217 41.0499 129.12 40.8101C129.023 40.5703 128.975 40.2262 128.975 39.7781V30.7629C128.975 30.6712 128.942 30.5928 128.878 30.5281C128.814 30.4635 128.735 30.4309 128.644 30.4309H127.805L127.806 30.432ZM146.097 30.432C146.016 30.432 145.946 30.4646 145.887 30.5292C145.827 30.5939 145.798 30.6668 145.798 30.7475V42.4172C145.798 42.5145 145.829 42.594 145.891 42.6559C145.953 42.7178 146.022 42.7487 146.097 42.7487H147.008C147.094 42.7487 147.165 42.715 147.221 42.6476C147.278 42.5802 147.306 42.5034 147.306 42.4167V30.7469C147.306 30.6552 147.276 30.5801 147.217 30.5204C147.158 30.4613 147.089 30.4315 147.008 30.4315H146.097V30.432ZM102.141 30.5779C101.617 30.7508 101.141 31.0337 100.713 31.4276C100.286 31.8215 99.946 32.3541 99.6933 33.0259C99.4406 33.6977 99.314 34.5192 99.314 35.4904V37.708C99.314 38.6251 99.4307 39.4146 99.6647 40.0753C99.8987 40.7361 100.224 41.272 100.641 41.6819C101.058 42.0918 101.535 42.3913 102.072 42.5802C102.61 42.7692 103.183 42.8636 103.79 42.8636C104.397 42.8636 104.994 42.8338 105.58 42.7747C106.166 42.7156 106.599 42.6642 106.878 42.6211C106.97 42.6051 107.042 42.5642 107.096 42.4996C107.15 42.4349 107.177 42.3537 107.177 42.2565V36.6804C107.177 36.5887 107.145 36.5108 107.08 36.4456C107.016 36.381 106.943 36.3484 106.862 36.3484H105.976C105.884 36.3484 105.811 36.3821 105.758 36.4495C105.704 36.5169 105.677 36.5937 105.677 36.6799V41.4223C105.021 41.4764 104.398 41.5029 103.806 41.5029C103.338 41.5029 102.923 41.43 102.561 41.2841C102.198 41.1383 101.886 40.9118 101.625 40.6046C101.364 40.2969 101.165 39.9046 101.028 39.4273C100.891 38.95 100.822 38.3765 100.822 37.7075V35.4899C100.822 34.1142 101.096 33.1347 101.641 32.5524C102.187 31.9695 102.903 31.6784 103.79 31.6784C104.119 31.6784 104.484 31.711 104.887 31.7756C105.29 31.8403 105.652 31.9148 105.972 31.9983C106.292 32.0822 106.572 32.164 106.815 32.2452C107.003 32.3099 107.097 32.2585 107.097 32.0916V31.2823C107.097 31.1635 107.041 31.0745 106.927 31.0154C106.664 30.8646 106.222 30.711 105.601 30.5541C104.98 30.3978 104.376 30.3193 103.79 30.3193C103.204 30.3193 102.665 30.4055 102.14 30.5784M116.887 31.9298C116.941 31.7303 117.051 31.6303 117.217 31.6303C117.373 31.6303 117.478 31.7303 117.531 31.9298L119.032 37.376H115.386L116.887 31.9298ZM116.201 30.5983C115.889 30.7845 115.666 31.1121 115.532 31.5817L112.475 42.3692C112.464 42.3907 112.459 42.4289 112.459 42.4824C112.459 42.5581 112.487 42.6217 112.544 42.6725C112.601 42.7239 112.666 42.7493 112.742 42.7493H113.717C113.771 42.7493 113.83 42.725 113.894 42.6764C113.959 42.6277 114 42.5686 114.016 42.4985L115.072 38.687H119.346L120.419 42.4985C120.456 42.6659 120.55 42.7493 120.701 42.7493H121.677C121.865 42.7493 121.959 42.6603 121.959 42.4824C121.959 42.4283 121.954 42.3907 121.943 42.3692L118.887 31.5651C118.795 31.2524 118.661 31.0027 118.484 30.8165C118.306 30.6304 118.11 30.5011 117.895 30.4282C117.68 30.3552 117.454 30.3188 117.218 30.3188C116.852 30.3188 116.513 30.4116 116.201 30.5978M139.161 31.9292C139.214 31.7298 139.325 31.6298 139.492 31.6298C139.648 31.6298 139.753 31.7298 139.806 31.9292L141.306 37.3754H137.661L139.161 31.9292H139.161ZM138.475 30.5978C138.163 30.7839 137.94 31.1116 137.806 31.5812L134.749 42.3686C134.738 42.3902 134.733 42.4283 134.733 42.4819C134.733 42.5576 134.762 42.6211 134.818 42.6719C134.874 42.7233 134.94 42.7487 135.016 42.7487H135.992C136.045 42.7487 136.105 42.7244 136.169 42.6758C136.234 42.6272 136.274 42.5681 136.29 42.4979L137.347 38.6864H141.621L142.694 42.4979C142.731 42.6653 142.825 42.7487 142.976 42.7487H143.952C144.14 42.7487 144.234 42.6598 144.234 42.4819C144.234 42.4277 144.229 42.3902 144.218 42.3686L141.162 31.5646C141.07 31.2519 140.936 31.0022 140.759 30.816C140.581 30.6298 140.385 30.5005 140.17 30.4276C139.955 30.3547 139.729 30.3182 139.493 30.3182C139.127 30.3182 138.789 30.411 138.477 30.5972" fill="white"/>
</g>
</mask>
<g mask="url(#mask2_247_1372)">
<g id="Group_6">
<path id="Vector_11" d="M147.306 30.3187H99.314V42.8625H147.306V30.3187Z" fill="white"/>
</g>
</g>
</g>
</g>
</g>
</svg>
