<svg width="557" height="254" viewBox="0 0 557 254" fill="none" xmlns="http://www.w3.org/2000/svg">
<g opacity="0.6">
<path d="M557 212.703H34.9705L0.0791016 254.305H557V212.703Z" fill="#006121"/>
<path d="M553.971 116.186H235.67V210.901H553.971V116.186Z" fill="#006C25"/>
<path d="M464.524 84.7404H402.921V190.356H464.524V84.7404Z" fill="#006C25"/>
<path d="M437.621 59.8351H422.839V190.356H437.621V59.8351Z" fill="#006C25"/>
<path d="M334.283 77.2423H264.175V148.671H334.283V77.2423Z" fill="#006C25"/>
<path d="M391.161 77.2423H321.054V148.671H391.161V77.2423Z" fill="#006C25"/>
<path d="M362.062 167.185H291.955V64.6246L326.686 47.9937L362.062 64.6246V167.185Z" fill="#006C25"/>
<path d="M527.018 127.763H475.688V42.6757L501.122 18.7614L527.018 42.6757V127.763Z" fill="#006C25"/>
<path d="M501.172 213.329H463.038V157.012L501.172 130.967V213.329Z" fill="#014518"/>
<path d="M468.9 213.329H430.766V157.012L468.9 130.967V213.329Z" fill="#014518"/>
<path d="M533.442 213.329H496.778V157.012L533.442 130.967V213.329Z" fill="#014518"/>
<path d="M557 213.375H528.819V156.941L557 130.843V213.375Z" fill="#014518"/>
<path d="M439.569 122.874H350.501V213.329H439.569V122.874Z" fill="#014518"/>
<path d="M347.149 163.948H221.004V213.329H347.149V163.948Z" fill="#014518"/>
<path d="M370.617 196.219H332.483V213.329H370.617V196.219Z" fill="#014518"/>
<path d="M229.807 196.219H188.733V213.329H229.807V196.219Z" fill="#014518"/>
<path d="M345.695 155.145H304.622V213.329H345.695V155.145Z" fill="#014518"/>
<path d="M309.015 155.145H267.941V213.329H309.015V155.145Z" fill="#014518"/>
<path d="M338.362 139.01H304.622V196.219H338.362V139.01Z" fill="#014518"/>
<path d="M309.015 139.01H275.274V196.219H309.015V139.01Z" fill="#014518"/>
<path d="M423.434 51.6661H412.087L406.698 143.592H428.84L423.434 51.6661Z" fill="#014518"/>
<path d="M332.78 120.447H315.654V150.752H332.78V120.447Z" fill="#014518"/>
<path d="M335.423 129.662H313.028V132.305H335.423V129.662Z" fill="#014518"/>
<path d="M335.423 125.715H313.028V128.357H335.423V125.715Z" fill="#014518"/>
<path d="M335.423 121.768H313.028V124.41H335.423V121.768Z" fill="#014518"/>
<path d="M335.423 133.626H313.028V136.252H335.423V133.626Z" fill="#014518"/>
<path d="M327.231 84.8725H321.021L318.775 128.341H329.477L327.231 84.8725Z" fill="#014518"/>
<path d="M305.118 120.447H287.991V150.752H305.118V120.447Z" fill="#014518"/>
<path d="M307.743 129.662H285.349V132.305H307.743V129.662Z" fill="#014518"/>
<path d="M307.743 125.715H285.349V128.357H307.743V125.715Z" fill="#014518"/>
<path d="M307.743 121.768H285.349V124.41H307.743V121.768Z" fill="#014518"/>
<path d="M307.743 133.626H285.349V136.252H307.743V133.626Z" fill="#014518"/>
<path d="M299.552 84.8725H293.359L291.096 128.341H301.815L299.552 84.8725Z" fill="#014518"/>
<path d="M384.622 51.6661H373.081L368.451 143.592H389.252L384.622 51.6661Z" fill="#014518"/>
<path d="M523.186 5.68124H514.383V169.827H523.186V5.68124Z" fill="#014518"/>
<path d="M509.974 38.7616H507.034V213.329H509.974V38.7616Z" fill="#014518"/>
<path d="M449.841 78.8774L458.644 67.5313V213.329H449.841V78.8774Z" fill="#014518"/>
<path d="M465.961 119.935H461.568V213.312H465.961V119.935Z" fill="#014518"/>
<path d="M446.901 102.346H442.508V213.329H446.901V102.346Z" fill="#014518"/>
<path d="M526.11 0H511.444V7.96041H526.11V0Z" fill="#014518"/>
<path d="M517.307 51.9574H508.504V53.4273H517.307V51.9574Z" fill="#014518"/>
<path d="M517.307 46.0944H508.504V47.5643H517.307V46.0944Z" fill="#014518"/>
<path d="M517.307 40.2314H508.504V41.7013H517.307V40.2314Z" fill="#014518"/>
<path d="M517.307 57.8369H508.504V59.3067H517.307V57.8369Z" fill="#014518"/>
<path d="M517.307 63.6998H508.504V65.1696H517.307V63.6998Z" fill="#014518"/>
<path d="M517.307 70.0747H508.504V71.5446H517.307V70.0747Z" fill="#014518"/>
<path d="M517.307 81.8006H508.504V83.2705H517.307V81.8006Z" fill="#014518"/>
<path d="M517.307 87.6801H508.504V89.15H517.307V87.6801Z" fill="#014518"/>
<path d="M517.307 75.9377H508.504V77.4075H517.307V75.9377Z" fill="#014518"/>
<path d="M517.307 93.5431H508.504V95.013H517.307V93.5431Z" fill="#014518"/>
<path d="M517.307 99.406H508.504V100.876H517.307V99.406Z" fill="#014518"/>
<path d="M517.307 105.269H508.504V106.739H517.307V105.269Z" fill="#014518"/>
<path d="M384.667 144.387C384.955 142.581 384.412 140.667 383.022 139.278C380.721 136.977 376.976 136.978 374.675 139.278C373.306 140.646 372.759 142.523 373.018 144.304C374.282 144.526 375.493 145.121 376.466 146.094C377.381 147.009 377.96 148.131 378.213 149.311C378.642 149.357 379.077 149.355 379.506 149.308C379.767 148.16 380.338 147.069 381.232 146.176C382.202 145.205 383.408 144.611 384.666 144.387H384.667Z" fill="#C5FFD8"/>
<path d="M379.467 153.014H378.231C377.858 153.014 377.555 153.317 377.555 153.69V164.047C377.981 164.095 378.413 164.125 378.849 164.137C379.285 164.149 379.716 164.137 380.143 164.107V153.69C380.143 153.317 379.84 153.014 379.467 153.014Z" fill="#C5FFD8"/>
<path d="M379.467 153.014H378.231C377.858 153.014 377.555 153.317 377.555 153.69V164.047C377.981 164.095 378.413 164.125 378.849 164.137C379.285 164.149 379.716 164.137 380.143 164.107V153.69C380.143 153.317 379.84 153.014 379.467 153.014Z" fill="#C5FFD8"/>
<path d="M378.849 164.138C370.905 163.923 364.46 157.698 364.46 149.753C364.46 148.173 364.716 146.651 365.187 145.229C364.5 146.908 364.12 148.746 364.12 150.674C364.12 158.618 370.564 164.843 378.508 165.058C384.726 165.227 390.143 161.046 392.111 155.159C389.908 160.556 384.738 164.297 378.849 164.138V164.138Z" fill="#C5FFD8"/>
<path d="M367.712 146.504C370.013 144.204 373.758 144.203 376.058 146.504C378.36 148.804 378.359 152.548 376.058 154.849C373.758 157.148 370.015 157.148 367.712 154.847C365.411 152.547 365.411 148.804 367.712 146.504ZM381.642 154.929C383.943 157.229 387.687 157.229 389.987 154.93C392.288 152.628 392.288 148.885 389.987 146.584C387.687 144.284 383.941 144.284 381.641 146.585C379.34 148.885 379.341 152.627 381.642 154.928V154.929Z" fill="#C5FFD8"/>
<path d="M557 212.033H34.9702V214.716H557V212.033Z" fill="#006121"/>
<path d="M195.67 164.774H178.196V209.068H195.67V164.774Z" fill="#006121"/>
<path d="M196.727 164.774H178.196V169.481H196.727V164.774Z" fill="#006121"/>
<path d="M201.896 171.727H180.608V212.718H201.896V171.727Z" fill="#006121"/>
<path d="M192.168 159.291H164.291V214.931H192.168V159.291Z" fill="#006121"/>
<path d="M193.407 155.955H164.258V160.81H193.407V155.955Z" fill="#006121"/>
<path d="M187.413 152.85H169.048V164.807H187.413V152.85Z" fill="#006121"/>
<path d="M312.02 172.833H289.279V214.931H312.02V172.833Z" fill="#006121"/>
<path d="M309.51 164.922H291.806V181.653H309.51V164.922Z" fill="#006121"/>
<path d="M295.357 191.446H183.779V213.461H295.357V191.446Z" fill="#006121"/>
<path d="M170.782 193.461H154.663V214.931H170.782V193.461Z" fill="#006121"/>
<path d="M299.469 212.569L358.577 186.145L414.234 212.569" fill="#006121"/>
<path d="M454.069 212.569L466.803 205.022L478.809 212.569" fill="#006121"/>
<path d="M198.824 192.206L217.255 183.965L234.63 192.206" fill="#006121"/>
<path d="M228.437 192.206L246.868 183.965L264.242 192.206" fill="#006121"/>
<path d="M258.248 192.206L276.679 183.965L294.036 192.206" fill="#006121"/>
<path d="M176.066 133.675H172.284V163.915H176.066V133.675Z" fill="#006121"/>
<path d="M185.513 133.675H181.731V163.915H185.513V133.675Z" fill="#006121"/>
<path d="M225.2 171.463H221.417V205.468H225.2V171.463Z" fill="#006121"/>
<path d="M255.439 171.463H251.657V205.468H255.439V171.463Z" fill="#006121"/>
<path d="M283.779 171.463H279.997V205.468H283.779V171.463Z" fill="#006121"/>
<path d="M557 184.522H411.396V188.548H557V184.522Z" fill="#006121"/>
<path d="M496.382 186.574H490.717V212.322H496.382V186.574Z" fill="#006121"/>
<path d="M458.595 186.574H454.812V212.322H458.595V186.574Z" fill="#006121"/>
<path d="M417.768 188.176H413.986V212.734H417.768V188.176Z" fill="#006121"/>
<path d="M425.332 188.176H421.55V212.734H425.332V188.176Z" fill="#006121"/>
<path d="M306.438 88.3242H295.109V179.027H306.438V88.3242Z" fill="#006121"/>
<path d="M430.997 140.942H408.322V197.623H430.997V140.942Z" fill="#006121"/>
<path d="M509.329 195.113H506.621V212.735H509.329V195.113Z" fill="#006121"/>
<path d="M514.747 195.113H512.038V212.735H514.747V195.113Z" fill="#006121"/>
<path d="M518.809 161.223H502.542V201.9H518.809V161.223Z" fill="#006121"/>
<path d="M536.316 195.113H533.608V212.734H536.316V195.113Z" fill="#006121"/>
<path d="M541.733 195.113H539.025V212.734H541.733V195.113Z" fill="#006121"/>
<path d="M545.813 161.223H529.545V201.9H545.813V161.223Z" fill="#006121"/>
</g>
</svg>
