<svg width="830" height="379" viewBox="0 0 830 379" fill="none" xmlns="http://www.w3.org/2000/svg">
<path d="M830 317H52L0 379H830V317Z" fill="#2D824A"/>
<path d="M825.486 173.156H351.11V314.314H825.486V173.156Z" fill="#C3E1CD"/>
<path d="M692.179 126.292H600.371V283.695H692.179V126.292Z" fill="#C3E1CD"/>
<path d="M652.084 89.1746H630.055V283.695H652.084V89.1746Z" fill="#C3E1CD"/>
<path d="M498.077 115.117H393.593V221.57H498.077V115.117Z" fill="#C3E1CD"/>
<path d="M582.846 115.117H478.362V221.57H582.846V115.117Z" fill="#C3E1CD"/>
<path d="M539.478 249.162H434.993V96.3125L486.756 71.5267L539.478 96.3125V249.162Z" fill="#C3E1CD"/>
<path d="M785.317 190.41H708.818V63.6012L746.723 27.9609L785.317 63.6012V190.41Z" fill="#C3E1CD"/>
<path d="M746.797 317.932H689.964V234L746.797 195.185V317.932Z" fill="#64BA81"/>
<path d="M698.702 317.932H641.869V234L698.702 195.185V317.932Z" fill="#64BA81"/>
<path d="M794.891 317.932H740.249V234L794.891 195.185V317.932Z" fill="#64BA81"/>
<path d="M830 318H788V233.895L830 195V318Z" fill="#64BA81"/>
<path d="M654.988 183.124H522.248V317.932H654.988V183.124Z" fill="#64BA81"/>
<path d="M517.252 244.338H329.254V317.932H517.252V244.338Z" fill="#64BA81"/>
<path d="M552.227 292.433H495.395V317.932H552.227V292.433Z" fill="#64BA81"/>
<path d="M342.373 292.433H281.159V317.932H342.373V292.433Z" fill="#64BA81"/>
<path d="M515.085 231.219H453.871V317.932H515.085V231.219Z" fill="#64BA81"/>
<path d="M460.419 231.219H399.205V317.932H460.419V231.219Z" fill="#64BA81"/>
<path d="M504.157 207.172H453.871V292.433H504.157V207.172Z" fill="#64BA81"/>
<path d="M460.419 207.172H410.133V292.433H460.419V207.172Z" fill="#64BA81"/>
<path d="M630.943 77H614.032L606 214H639L630.943 77Z" fill="#64BA81"/>
<path d="M495.838 179.506H470.314V224.672H495.838V179.506Z" fill="#64BA81"/>
<path d="M499.776 193.24H466.4V197.179H499.776V193.24Z" fill="#64BA81"/>
<path d="M499.776 187.358H466.4V191.296H499.776V187.358Z" fill="#64BA81"/>
<path d="M499.776 181.475H466.4V185.413H499.776V181.475Z" fill="#64BA81"/>
<path d="M499.776 199.148H466.4V203.061H499.776V199.148Z" fill="#64BA81"/>
<path d="M487.568 126.489H478.313L474.966 191.271H490.915L487.568 126.489Z" fill="#64BA81"/>
<path d="M454.61 179.506H429.086V224.672H454.61V179.506Z" fill="#64BA81"/>
<path d="M458.524 193.24H425.148V197.179H458.524V193.24Z" fill="#64BA81"/>
<path d="M458.524 187.358H425.148V191.296H458.524V187.358Z" fill="#64BA81"/>
<path d="M458.524 181.475H425.148V185.413H458.524V181.475Z" fill="#64BA81"/>
<path d="M458.524 199.148H425.148V203.061H458.524V199.148Z" fill="#64BA81"/>
<path d="M446.315 126.489H437.085L433.713 191.271H449.687L446.315 126.489Z" fill="#64BA81"/>
<path d="M573.1 77H555.9L549 214H580L573.1 77Z" fill="#64BA81"/>
<path d="M779.606 8.46703H766.487V253.1H779.606V8.46703Z" fill="#64BA81"/>
<path d="M759.916 57.7678H755.534V317.932H759.916V57.7678Z" fill="#64BA81"/>
<path d="M670.297 117.554L683.416 100.645V317.932H670.297V117.554Z" fill="#64BA81"/>
<path d="M694.321 178.743H687.774V317.908H694.321V178.743Z" fill="#64BA81"/>
<path d="M665.916 152.53H659.369V317.932H665.916V152.53Z" fill="#64BA81"/>
<path d="M783.963 0H762.106V11.8637H783.963V0Z" fill="#64BA81"/>
<path d="M770.844 77.4339H757.725V79.6245H770.844V77.4339Z" fill="#64BA81"/>
<path d="M770.844 68.6961H757.725V70.8867H770.844V68.6961Z" fill="#64BA81"/>
<path d="M770.844 59.9584H757.725V62.149H770.844V59.9584Z" fill="#64BA81"/>
<path d="M770.844 86.1964H757.725V88.3869H770.844V86.1964Z" fill="#64BA81"/>
<path d="M770.844 94.9341H757.725V97.1247H770.844V94.9341Z" fill="#64BA81"/>
<path d="M770.844 104.435H757.725V106.626H770.844V104.435Z" fill="#64BA81"/>
<path d="M770.844 121.91H757.725V124.101H770.844V121.91Z" fill="#64BA81"/>
<path d="M770.844 130.673H757.725V132.864H770.844V130.673Z" fill="#64BA81"/>
<path d="M770.844 113.173H757.725V115.363H770.844V113.173Z" fill="#64BA81"/>
<path d="M770.844 139.411H757.725V141.601H770.844V139.411Z" fill="#64BA81"/>
<path d="M770.844 148.148H757.725V150.339H770.844V148.148Z" fill="#64BA81"/>
<path d="M770.844 156.886H757.725V159.077H770.844V156.886Z" fill="#64BA81"/>
<path d="M573.166 215.185C573.595 212.494 572.786 209.641 570.715 207.571C567.285 204.142 561.705 204.144 558.275 207.572C556.235 209.61 555.419 212.407 555.806 215.062C557.69 215.393 559.494 216.279 560.945 217.73C562.308 219.093 563.171 220.766 563.548 222.523C564.187 222.592 564.835 222.59 565.475 222.519C565.864 220.808 566.715 219.182 568.047 217.852C569.493 216.405 571.29 215.52 573.166 215.185H573.166Z" fill="#C5FFD8"/>
<path d="M565.416 228.043H563.575C563.018 228.043 562.567 228.494 562.567 229.05V244.486C563.202 244.556 563.846 244.602 564.495 244.62C565.145 244.638 565.787 244.62 566.423 244.575V229.05C566.423 228.494 565.972 228.043 565.416 228.043Z" fill="#C5FFD8"/>
<path d="M565.416 228.043H563.575C563.018 228.043 562.567 228.494 562.567 229.05V244.486C563.202 244.556 563.846 244.602 564.495 244.62C565.145 244.638 565.787 244.62 566.423 244.575V229.05C566.423 228.494 565.972 228.043 565.416 228.043Z" fill="#C5FFD8"/>
<path d="M564.495 244.62C552.657 244.3 543.051 235.023 543.051 223.183C543.051 220.827 543.433 218.56 544.135 216.44C543.11 218.943 542.544 221.682 542.544 224.554C542.544 236.394 552.149 245.672 563.988 245.993C573.255 246.244 581.328 240.013 584.261 231.239C580.977 239.283 573.271 244.858 564.495 244.621V244.62Z" fill="#C5FFD8"/>
<path d="M547.896 218.341C551.326 214.912 556.907 214.911 560.335 218.341C563.765 221.769 563.764 227.347 560.335 230.777C556.907 234.204 551.329 234.204 547.897 230.775C544.468 227.346 544.467 221.769 547.896 218.341ZM568.656 230.896C572.086 234.324 577.665 234.324 581.094 230.897C584.523 227.468 584.523 221.889 581.094 218.46C577.666 215.032 572.083 215.032 568.655 218.461C565.226 221.889 565.228 227.466 568.656 230.895V230.896Z" fill="#C5FFD8"/>
<path d="M830 316H52V320H830V316Z" fill="#2D824A"/>
<path d="M291.497 245.569H265.456V311.582H291.497V245.569Z" fill="#2D824A"/>
<path d="M293.072 245.569H265.456V252.584H293.072V245.569Z" fill="#2D824A"/>
<path d="M300.776 255.931H269.05V317.021H300.776V255.931Z" fill="#2D824A"/>
<path d="M286.279 237.397H244.731V320.32H286.279V237.397Z" fill="#2D824A"/>
<path d="M288.125 232.425H244.682V239.661H288.125V232.425Z" fill="#2D824A"/>
<path d="M279.19 227.798H251.82V245.618H279.19V227.798Z" fill="#2D824A"/>
<path d="M464.899 257.58H431.006V320.32H464.899V257.58Z" fill="#2D824A"/>
<path d="M461.157 245.79H434.771V270.724H461.157V245.79Z" fill="#2D824A"/>
<path d="M440.064 285.319H273.775V318.129H440.064V285.319Z" fill="#2D824A"/>
<path d="M254.404 288.322H230.382V320.32H254.404V288.322Z" fill="#2D824A"/>
<path d="M446.193 316.8L534.284 277.418L617.232 316.8" fill="#2D824A"/>
<path d="M676.599 316.8L695.576 305.552L713.47 316.8" fill="#2D824A"/>
<path d="M296.198 286.452L323.667 274.17L349.56 286.452" fill="#2D824A"/>
<path d="M340.33 286.452L367.799 274.17L393.692 286.452" fill="#2D824A"/>
<path d="M384.758 286.452L412.226 274.17L438.095 286.452" fill="#2D824A"/>
<path d="M262.281 199.221H256.644V244.289H262.281V199.221Z" fill="#2D824A"/>
<path d="M276.36 199.221H270.723V244.289H276.36V199.221Z" fill="#2D824A"/>
<path d="M335.506 255.537H329.869V306.216H335.506V255.537Z" fill="#2D824A"/>
<path d="M380.573 255.537H374.937V306.216H380.573V255.537Z" fill="#2D824A"/>
<path d="M422.81 255.537H417.173V306.216H422.81V255.537Z" fill="#2D824A"/>
<path d="M830 275H613V281H830V275Z" fill="#2D824A"/>
<path d="M739.659 278.058H731.217V316.431H739.659V278.058Z" fill="#2D824A"/>
<path d="M683.343 278.058H677.707V316.431H683.343V278.058Z" fill="#2D824A"/>
<path d="M622.499 280.446H616.863V317.046H622.499V280.446Z" fill="#2D824A"/>
<path d="M633.772 280.446H628.135V317.046H633.772V280.446Z" fill="#2D824A"/>
<path d="M456.579 131.633H439.694V266.81H456.579V131.633Z" fill="#2D824A"/>
<path d="M642.214 210.051H608.42V294.525H642.214V210.051Z" fill="#2D824A"/>
<path d="M758.956 290.784H754.919V317.046H758.956V290.784Z" fill="#2D824A"/>
<path d="M767.029 290.784H762.992V317.046H767.029V290.784Z" fill="#2D824A"/>
<path d="M773.084 240.277H748.84V300.9H773.084V240.277Z" fill="#2D824A"/>
<path d="M799.174 290.784H795.138V317.046H799.174V290.784Z" fill="#2D824A"/>
<path d="M807.248 290.784H803.211V317.046H807.248V290.784Z" fill="#2D824A"/>
<path d="M813.327 240.277H789.083V300.9H813.327V240.277Z" fill="#2D824A"/>
</svg>
