<svg width="808" height="372" viewBox="0 0 808 372" fill="none" xmlns="http://www.w3.org/2000/svg">
<g opacity="0.8">
<path fill-rule="evenodd" clip-rule="evenodd" d="M363.077 272.331C363.672 271.686 364.525 271.282 365.472 271.282C367.274 271.282 368.734 272.744 368.734 274.543V274.549C370.269 274.642 371.489 275.92 371.489 277.479C371.489 277.869 371.412 278.241 371.275 278.584C371.685 279.149 371.925 279.846 371.925 280.597C371.925 282.498 370.384 284.039 368.482 284.039C367.16 284.039 366.011 283.295 365.434 282.202C365.064 282.492 364.598 282.662 364.094 282.662C363.514 282.662 362.989 282.437 362.6 282.067C362.406 282.947 361.624 283.606 360.686 283.606C359.604 283.606 358.728 282.73 358.728 281.648C358.728 281.587 358.731 281.525 358.737 281.467C358.397 281.675 357.995 281.795 357.567 281.795C356.325 281.795 355.32 280.79 355.32 279.548C355.32 278.915 355.58 278.343 356.002 277.936C355.888 277.599 355.827 277.241 355.827 276.866C355.827 275.486 356.665 274.303 357.858 273.796C357.858 273.769 357.858 273.74 357.858 273.714C357.858 272.172 359.109 270.921 360.651 270.921C361.691 270.921 362.597 271.49 363.077 272.331Z" fill="#0B8936"/>
<path fill-rule="evenodd" clip-rule="evenodd" d="M369.967 270.482C370.562 269.837 371.415 269.433 372.362 269.433C374.164 269.433 375.624 270.895 375.624 272.694V272.7C377.16 272.794 378.379 274.071 378.379 275.63C378.379 276.02 378.303 276.392 378.165 276.735C378.575 277.3 378.815 277.997 378.815 278.748C378.815 280.649 377.274 282.191 375.372 282.191C374.05 282.191 372.901 281.446 372.324 280.353C371.954 280.643 371.488 280.813 370.984 280.813C370.404 280.813 369.88 280.588 369.49 280.219C369.296 281.098 368.514 281.757 367.576 281.757C366.495 281.757 365.618 280.881 365.618 279.8C365.618 279.738 365.621 279.676 365.627 279.618C365.287 279.826 364.885 279.946 364.458 279.946C363.215 279.946 362.21 278.941 362.21 277.699C362.21 277.066 362.471 276.494 362.893 276.087C362.778 275.75 362.717 275.393 362.717 275.017C362.717 273.637 363.555 272.454 364.748 271.947C364.748 271.92 364.748 271.891 364.748 271.865C364.748 270.323 365.999 269.072 367.541 269.072C368.581 269.072 369.487 269.641 369.967 270.482Z" fill="#0B8936"/>
<path fill-rule="evenodd" clip-rule="evenodd" d="M366.076 260.718C366.671 260.074 367.523 259.669 368.47 259.669C370.272 259.669 371.732 261.131 371.732 262.931V262.936C373.268 263.03 374.487 264.308 374.487 265.867C374.487 266.256 374.411 266.628 374.273 266.971C374.683 267.537 374.924 268.234 374.924 268.984C374.924 270.886 373.382 272.427 371.48 272.427C370.158 272.427 369.009 271.683 368.432 270.59C368.063 270.88 367.597 271.05 367.093 271.05C366.512 271.05 365.988 270.824 365.598 270.455C365.404 271.334 364.622 271.994 363.684 271.994C362.603 271.994 361.726 271.117 361.726 270.036C361.726 269.975 361.726 269.913 361.735 269.855C361.395 270.063 360.994 270.183 360.566 270.183C359.323 270.183 358.318 269.178 358.318 267.935C358.318 267.302 358.579 266.731 359.001 266.324C358.886 265.987 358.825 265.629 358.825 265.254C358.825 263.874 359.663 262.69 360.856 262.183C360.856 262.157 360.856 262.128 360.856 262.101C360.856 260.56 362.107 259.309 363.649 259.309C364.689 259.309 365.595 259.877 366.076 260.718Z" fill="#0B8936"/>
<path fill-rule="evenodd" clip-rule="evenodd" d="M369.546 275.817C369.464 276.468 369.091 277.072 368.485 277.429C367.441 278.044 366.099 277.696 365.486 276.655C365.196 276.163 365.12 275.606 365.232 275.088C364.906 274.962 364.619 274.727 364.426 274.402C363.974 273.634 364.229 272.644 364.997 272.193C365.46 271.92 366.002 271.906 366.46 272.102C366.621 271.692 366.917 271.328 367.324 271.088C368.297 270.514 369.551 270.839 370.126 271.812C370.246 272.014 370.325 272.231 370.369 272.451C370.539 272.257 370.741 272.087 370.973 271.95C372.139 271.264 373.64 271.651 374.326 272.817C374.522 273.154 374.633 273.517 374.66 273.881C375.346 273.866 376.02 274.212 376.392 274.845C376.94 275.776 376.629 276.978 375.697 277.529C375.536 277.622 375.366 277.693 375.196 277.737C375.243 277.792 375.287 277.851 375.325 277.915C375.656 278.478 375.469 279.202 374.906 279.533C374.349 279.861 373.631 279.679 373.297 279.128C373.244 279.17 373.189 279.208 373.13 279.243C372.347 279.703 371.342 279.442 370.882 278.663C370.422 277.88 370.683 276.875 371.462 276.415L371.486 276.401C371.02 276.254 370.595 275.97 370.281 275.562C370.246 275.589 370.208 275.612 370.17 275.636C369.973 275.75 369.76 275.812 369.546 275.817Z" fill="#37C668"/>
<path fill-rule="evenodd" clip-rule="evenodd" d="M364.713 265.099C364.631 264.448 364.258 263.845 363.652 263.487C362.608 262.872 361.266 263.221 360.654 264.261C360.363 264.753 360.287 265.31 360.399 265.829C360.073 265.954 359.786 266.189 359.593 266.514C359.141 267.282 359.396 268.272 360.164 268.723C360.627 268.996 361.169 269.011 361.627 268.814C361.788 269.225 362.081 269.588 362.491 269.828C363.464 270.402 364.719 270.077 365.293 269.104C365.413 268.902 365.492 268.685 365.536 268.466C365.706 268.659 365.908 268.829 366.14 268.967C367.306 269.652 368.807 269.266 369.493 268.099C369.692 267.762 369.798 267.399 369.827 267.036C370.513 267.05 371.187 266.705 371.559 266.072C372.107 265.14 371.796 263.939 370.864 263.388C370.703 263.294 370.533 263.224 370.363 263.18C370.41 263.124 370.454 263.065 370.492 263.001C370.823 262.438 370.636 261.715 370.073 261.383C369.516 261.055 368.798 261.237 368.464 261.788C368.411 261.747 368.356 261.709 368.297 261.674C367.515 261.214 366.509 261.474 366.049 262.254C365.589 263.036 365.85 264.041 366.629 264.501L366.653 264.516C366.187 264.662 365.762 264.947 365.448 265.354C365.413 265.327 365.375 265.304 365.337 265.281C365.141 265.166 364.927 265.105 364.713 265.099Z" fill="#37C668"/>
<path fill-rule="evenodd" clip-rule="evenodd" d="M363.057 274.61C363.625 274.748 364.05 275.261 364.05 275.87C364.05 276.368 363.769 276.799 363.359 277.016C363.611 277.376 363.76 277.816 363.76 278.29C363.76 279.515 362.767 280.509 361.542 280.509C360.457 280.509 359.558 279.732 359.361 278.707C359.133 278.897 358.837 279.011 358.514 279.011C357.782 279.011 357.189 278.416 357.189 277.687C357.189 277.408 357.275 277.148 357.424 276.937C356.618 276.893 355.979 276.228 355.979 275.413C355.979 274.598 356.662 273.886 357.506 273.886C357.647 273.886 357.782 273.904 357.913 273.942C358.11 272.703 359.182 271.756 360.475 271.756C361.908 271.756 363.069 272.917 363.069 274.349C363.069 274.44 363.063 274.528 363.054 274.616L363.057 274.61Z" fill="#37C668"/>
<path fill-rule="evenodd" clip-rule="evenodd" d="M373.819 265.55C374.387 265.688 374.812 266.201 374.812 266.81C374.812 267.308 374.534 267.739 374.12 267.956C374.373 268.316 374.522 268.756 374.522 269.23C374.522 270.455 373.528 271.449 372.303 271.449C371.219 271.449 370.319 270.672 370.123 269.647C369.894 269.837 369.598 269.951 369.276 269.951C368.543 269.951 367.951 269.356 367.951 268.627C367.951 268.348 368.036 268.088 368.186 267.877C367.38 267.833 366.741 267.168 366.741 266.353C366.741 265.538 367.424 264.826 368.268 264.826C368.408 264.826 368.543 264.847 368.675 264.882C368.872 263.643 369.944 262.696 371.237 262.696C372.67 262.696 373.83 263.857 373.83 265.289C373.83 265.38 373.824 265.468 373.816 265.556L373.819 265.55Z" fill="#37C668"/>
<path fill-rule="evenodd" clip-rule="evenodd" d="M368.282 266.218C368.968 266.479 369.455 267.141 369.455 267.915C369.455 268.917 368.643 269.731 367.638 269.731C367.113 269.731 366.641 269.509 366.307 269.151C366.026 269.471 365.615 269.673 365.158 269.673C364.314 269.673 363.631 268.99 363.631 268.146C363.631 268.055 363.64 267.968 363.655 267.883C363.482 268.061 363.238 268.176 362.969 268.176C362.444 268.176 362.016 267.751 362.016 267.223C362.016 266.737 362.383 266.333 362.857 266.28C362.837 266.174 362.825 266.066 362.825 265.957C362.825 265.081 363.534 264.372 364.411 264.372C364.634 264.372 364.844 264.419 365.038 264.501C365.369 264.006 365.932 263.681 366.571 263.681C367.591 263.681 368.414 264.507 368.414 265.524C368.414 265.77 368.367 266.004 368.279 266.218H368.282Z" fill="#0B8936"/>
<path d="M367.752 312.623C366.788 306.631 366.245 302.294 366.166 297.943C366.14 296.44 366.166 294.937 366.251 293.366C365.867 290.644 365.114 288.543 364.387 286.518C363.874 285.091 363.376 283.697 363.025 282.152C362.183 280.104 360.923 278.663 359.877 276.831C360.914 278.34 362.084 279.548 362.831 281.188C362.573 279.723 362.459 278.097 362.591 276.175L362.764 276.116C362.462 280.503 363.731 283.401 364.795 286.372C365.366 287.966 365.955 289.607 366.371 291.561C366.565 289.094 366.89 286.413 367.35 283.278C366.656 279.014 361.767 273.623 362.907 270.042C362.561 274.704 366.407 278.179 367.479 282.141C367.667 279.603 367.245 277.022 366.861 274.449C365.832 271.709 363.074 270.713 363.025 267.358C363.496 270.575 365.566 271.308 366.729 273.564C366.506 272.002 366.322 270.446 366.322 268.905H366.518C366.518 271.835 367.321 274.66 367.781 277.567C368.684 273.922 370.973 271.076 371.301 267.212C371.48 269.567 368.145 276.606 367.957 278.859C368.121 280.312 368.159 281.795 367.934 283.327C367.79 284.291 367.667 285.214 367.558 286.099C369.261 282.542 372.805 280.427 373.414 276.307C374.117 278.774 368.183 284.59 367.394 287.526C366.966 291.47 366.864 294.705 366.923 297.931C367.002 302.236 367.541 306.543 368.499 312.503L367.752 312.623Z" fill="#0B8936"/>
<path fill-rule="evenodd" clip-rule="evenodd" d="M372.596 265.07C373.282 265.33 373.769 265.993 373.769 266.766C373.769 267.768 372.957 268.583 371.952 268.583C371.427 268.583 370.955 268.36 370.621 268.003C370.343 268.322 369.93 268.524 369.472 268.524C368.628 268.524 367.945 267.842 367.945 266.998C367.945 266.907 367.954 266.819 367.969 266.734C367.796 266.913 367.553 267.027 367.283 267.027C366.758 267.027 366.331 266.602 366.331 266.078C366.331 265.591 366.697 265.187 367.172 265.134C367.151 265.029 367.139 264.92 367.139 264.812C367.139 263.936 367.849 263.227 368.725 263.227C368.948 263.227 369.159 263.273 369.352 263.355C369.683 262.86 370.246 262.535 370.888 262.535C371.905 262.535 372.731 263.361 372.731 264.378C372.731 264.624 372.684 264.859 372.596 265.073V265.07Z" fill="#0B8936"/>
<path fill-rule="evenodd" clip-rule="evenodd" d="M375.973 274.235C376.658 274.496 377.145 275.158 377.145 275.932C377.145 276.934 376.333 277.748 375.328 277.748C374.803 277.748 374.331 277.526 373.997 277.168C373.716 277.488 373.306 277.69 372.848 277.69C372.004 277.69 371.322 277.007 371.322 276.163C371.322 276.072 371.33 275.984 371.345 275.899C371.172 276.078 370.929 276.192 370.659 276.192C370.135 276.192 369.707 275.768 369.707 275.24C369.707 274.754 370.073 274.349 370.548 274.297C370.527 274.191 370.516 274.083 370.516 273.974C370.516 273.098 371.225 272.389 372.101 272.389C372.324 272.389 372.535 272.436 372.728 272.518C373.059 272.023 373.622 271.698 374.264 271.698C375.284 271.698 376.107 272.524 376.107 273.541C376.107 273.787 376.061 274.021 375.973 274.235Z" fill="#0B8936"/>
<path fill-rule="evenodd" clip-rule="evenodd" d="M364.812 268.867C365.498 269.128 365.985 269.79 365.985 270.564C365.985 271.566 365.173 272.38 364.168 272.38C363.643 272.38 363.171 272.158 362.837 271.8C362.556 272.12 362.145 272.322 361.688 272.322C360.844 272.322 360.161 271.639 360.161 270.795C360.161 270.704 360.17 270.616 360.185 270.531C360.012 270.71 359.769 270.824 359.499 270.824C358.974 270.824 358.546 270.4 358.546 269.872C358.546 269.386 358.913 268.981 359.387 268.929C359.367 268.823 359.355 268.715 359.355 268.606C359.355 267.73 360.064 267.021 360.941 267.021C361.164 267.021 361.375 267.068 361.568 267.15C361.899 266.655 362.462 266.33 363.104 266.33C364.124 266.33 364.947 267.156 364.947 268.173C364.947 268.419 364.9 268.653 364.812 268.867Z" fill="#0B8936"/>
<path fill-rule="evenodd" clip-rule="evenodd" d="M363.054 275.724C363.74 275.984 364.226 276.647 364.226 277.42C364.226 278.422 363.414 279.237 362.409 279.237C361.885 279.237 361.413 279.014 361.079 278.657C360.797 278.976 360.387 279.178 359.93 279.178C359.086 279.178 358.403 278.496 358.403 277.652C358.403 277.561 358.412 277.473 358.426 277.388C358.253 277.567 358.01 277.681 357.74 277.681C357.216 277.681 356.788 277.256 356.788 276.732C356.788 276.245 357.154 275.841 357.629 275.788C357.609 275.683 357.597 275.574 357.597 275.466C357.597 274.59 358.306 273.881 359.182 273.881C359.405 273.881 359.616 273.927 359.81 274.01C360.141 273.514 360.703 273.189 361.345 273.189C362.365 273.189 363.189 274.015 363.189 275.032C363.189 275.278 363.142 275.513 363.054 275.727V275.724Z" fill="#0B8936"/>
<path fill-rule="evenodd" clip-rule="evenodd" d="M365.821 261.729C366.43 261.515 367.131 261.685 367.57 262.21C368.136 262.884 368.051 263.892 367.374 264.457C367.019 264.753 366.577 264.87 366.152 264.821C366.143 265.193 365.982 265.562 365.674 265.823C365.106 266.3 364.259 266.227 363.781 265.659C363.731 265.597 363.687 265.535 363.646 265.468C363.64 265.559 363.62 265.647 363.584 265.732C363.59 265.755 363.596 265.779 363.602 265.802C363.757 266.546 363.28 267.276 362.535 267.431C362.145 267.513 361.759 267.42 361.46 267.206C361.301 267.487 361.026 267.701 360.686 267.771C360.059 267.9 359.446 267.499 359.314 266.872C359.3 266.804 359.294 266.74 359.291 266.672C359.191 266.834 359.027 266.954 358.828 266.995C358.438 267.077 358.057 266.825 357.975 266.435C357.899 266.072 358.11 265.717 358.453 265.603C358.42 265.53 358.394 265.451 358.379 265.368C358.245 264.718 358.661 264.082 359.311 263.947C359.476 263.912 359.643 263.915 359.798 263.947C359.953 263.561 360.281 263.25 360.704 263.127C360.692 263.054 360.683 262.977 360.683 262.898C360.683 262.183 361.263 261.6 361.978 261.6C362.248 261.6 362.497 261.682 362.705 261.823C362.787 261.507 362.963 261.211 363.233 260.985C363.919 260.408 364.941 260.499 365.519 261.184C365.657 261.348 365.756 261.533 365.821 261.726V261.729Z" fill="#0B8936"/>
<path fill-rule="evenodd" clip-rule="evenodd" d="M407.742 264.141C406.813 263.139 405.485 262.509 404.011 262.509C401.204 262.509 398.929 264.785 398.929 267.59V267.598C396.535 267.745 394.639 269.732 394.639 272.164C394.639 272.773 394.759 273.353 394.973 273.884C394.337 274.766 393.959 275.85 393.959 277.019C393.959 279.981 396.362 282.381 399.322 282.381C401.382 282.381 403.17 281.221 404.07 279.518C404.644 279.969 405.368 280.236 406.157 280.236C407.059 280.236 407.88 279.884 408.486 279.307C408.785 280.676 410.005 281.704 411.464 281.704C413.149 281.704 414.512 280.339 414.512 278.657C414.512 278.56 414.506 278.466 414.497 278.373C415.028 278.695 415.652 278.882 416.317 278.882C418.252 278.882 419.82 277.315 419.82 275.381C419.82 274.396 419.412 273.506 418.756 272.87C418.932 272.348 419.028 271.786 419.028 271.205C419.028 269.058 417.724 267.215 415.863 266.423C415.863 266.379 415.863 266.338 415.863 266.294C415.863 263.895 413.917 261.946 411.514 261.946C409.896 261.946 408.484 262.831 407.733 264.144L407.742 264.141Z" fill="#0B8936"/>
<path d="M404.823 308.181C404.07 296.935 408.41 287.84 410.969 278.153C413.563 276.187 416.441 278.238 418.082 274.253L417.798 274.218C417.062 277.277 413.615 275.949 411.154 277.435C412.147 273.523 412.824 269.503 412.736 265.196L412.226 265.061C412.335 267.827 412.1 270.47 411.646 273.043C410.245 270.552 406.637 269.881 407.352 266.693L407.162 266.652C406.582 270.81 410.392 270.476 411.538 273.64C410.474 279.213 408.419 284.461 406.667 289.906C406.268 282.656 399 276.984 399.431 269.233L399.173 269.26C399.006 277.593 406.69 284.177 406.019 291.983C404.495 297.049 403.367 302.338 403.645 308.26L404.823 308.181Z" fill="#0B8936"/>
<path fill-rule="evenodd" clip-rule="evenodd" d="M413.088 269.389C412.282 270.013 411.763 270.989 411.763 272.087C411.763 273.971 413.29 275.498 415.174 275.498C416.062 275.498 416.874 275.158 417.481 274.601C417.909 274.938 418.448 275.141 419.037 275.141C420.426 275.141 421.552 274.015 421.552 272.626C421.552 271.791 421.144 271.05 420.517 270.593C420.939 270.051 421.194 269.371 421.194 268.63C421.194 266.872 419.767 265.445 418.008 265.445C417.642 265.445 417.288 265.506 416.959 265.62C417.085 265.24 417.156 264.835 417.156 264.41C417.156 262.304 415.447 260.595 413.34 260.595C412.733 260.595 412.159 260.736 411.649 260.991C411.127 260.059 410.128 259.429 408.985 259.429C407.299 259.429 405.931 260.795 405.931 262.479C405.931 262.769 405.972 263.054 406.048 263.32C405.937 263.3 405.822 263.288 405.705 263.288C404.688 263.288 403.865 264.111 403.865 265.128C403.865 266.145 404.676 266.954 405.679 266.968C405.667 267.071 405.658 267.176 405.658 267.282C405.658 268.694 406.804 269.84 408.217 269.84C409.629 269.84 410.775 268.694 410.775 267.282V267.238C411.338 267.748 412.056 268.094 412.85 268.193C412.845 268.263 412.839 268.331 412.839 268.404C412.839 268.759 412.929 269.093 413.088 269.386V269.389Z" fill="#37C668"/>
<path fill-rule="evenodd" clip-rule="evenodd" d="M395.266 270.886C394.378 271.1 393.718 271.897 393.718 272.849C393.718 273.623 394.155 274.297 394.794 274.634C394.398 275.196 394.167 275.879 394.167 276.617C394.167 278.525 395.714 280.072 397.622 280.072C399.31 280.072 400.714 278.862 401.019 277.262C401.376 277.558 401.837 277.737 402.338 277.737C403.478 277.737 404.404 276.814 404.404 275.671C404.404 275.237 404.269 274.833 404.041 274.502C405.295 274.434 406.288 273.397 406.288 272.125C406.288 270.854 405.225 269.746 403.909 269.746C403.689 269.746 403.478 269.775 403.276 269.831C402.971 267.9 401.3 266.426 399.284 266.426C397.054 266.426 395.242 268.234 395.242 270.464C395.242 270.605 395.248 270.742 395.263 270.88L395.266 270.886Z" fill="#37C668"/>
<path fill-rule="evenodd" clip-rule="evenodd" d="M396.711 268.858C395.644 269.263 394.885 270.294 394.885 271.504C394.885 273.066 396.151 274.332 397.713 274.332C398.531 274.332 399.266 273.983 399.782 273.429C400.219 273.927 400.858 274.241 401.573 274.241C402.886 274.241 403.953 273.177 403.953 271.862C403.953 271.721 403.941 271.586 403.918 271.451C404.187 271.733 404.565 271.906 404.984 271.906C405.802 271.906 406.464 271.243 406.464 270.426C406.464 269.667 405.893 269.04 405.157 268.955C405.192 268.791 405.21 268.624 405.21 268.451C405.21 267.089 404.105 265.984 402.742 265.984C402.396 265.984 402.065 266.057 401.766 266.186C401.25 265.415 400.374 264.908 399.378 264.908C397.792 264.908 396.506 266.195 396.506 267.78C396.506 268.161 396.582 268.527 396.717 268.861L396.711 268.858Z" fill="#0B8936"/>
<path fill-rule="evenodd" clip-rule="evenodd" d="M410.225 262.321C409.278 261.99 408.182 262.254 407.499 263.068C406.617 264.12 406.752 265.688 407.804 266.57C408.355 267.033 409.046 267.214 409.709 267.132C409.72 267.713 409.972 268.287 410.453 268.691C411.338 269.436 412.657 269.318 413.401 268.436C413.481 268.343 413.551 268.243 413.61 268.14C413.618 268.281 413.651 268.422 413.706 268.551C413.697 268.586 413.689 268.624 413.68 268.659C413.44 269.819 414.184 270.953 415.342 271.197C415.948 271.323 416.549 271.179 417.018 270.848C417.264 271.284 417.692 271.619 418.223 271.727C419.198 271.929 420.154 271.302 420.356 270.329C420.377 270.227 420.388 270.121 420.394 270.019C420.55 270.268 420.805 270.455 421.118 270.523C421.725 270.649 422.32 270.259 422.449 269.652C422.566 269.087 422.238 268.536 421.704 268.357C421.754 268.243 421.795 268.12 421.822 267.991C422.033 266.98 421.382 265.987 420.371 265.776C420.113 265.723 419.858 265.726 419.615 265.776C419.371 265.172 418.861 264.689 418.202 264.498C418.223 264.384 418.234 264.264 418.234 264.141C418.234 263.024 417.329 262.122 416.215 262.122C415.796 262.122 415.406 262.251 415.081 262.471C414.955 261.978 414.679 261.518 414.26 261.167C413.193 260.27 411.599 260.408 410.702 261.474C410.485 261.732 410.33 262.019 410.233 262.321H410.225Z" fill="#0B8936"/>
<path fill-rule="evenodd" clip-rule="evenodd" d="M211.073 303.214C211.894 299.291 215.639 296.63 219.663 297.213C221.87 297.533 223.72 298.76 224.886 300.466C225.833 299.335 227.327 298.708 228.892 298.933C231.208 299.267 232.843 301.351 232.652 303.651C233.866 302.91 235.331 302.573 236.849 302.789C237.875 302.936 238.807 303.323 239.595 303.885C240.671 297.436 246.711 292.997 253.218 293.937C257.382 294.538 260.744 297.205 262.411 300.747C263.267 300.34 264.249 300.173 265.257 300.319C267.309 300.615 268.885 302.124 269.369 304.011C270.635 302.763 272.229 301.814 274.067 301.31C276.412 300.668 278.791 300.856 280.887 301.696C281.01 299.361 282.604 297.26 284.984 296.61C287.206 296.003 289.48 296.827 290.825 298.523C291.417 298.031 292.123 297.653 292.918 297.436C295.887 296.624 298.955 298.371 299.767 301.342C299.855 301.667 299.913 301.992 299.943 302.318C300.664 301.872 301.461 301.521 302.32 301.286C305.623 300.381 309.002 301.424 311.235 303.715C312.648 301.629 314.784 300.015 317.404 299.3C321.909 298.066 326.531 299.839 329.133 303.396C329.628 302.968 330.226 302.64 330.9 302.455C331.785 302.212 332.679 302.25 333.491 302.514C332.562 298.535 334.939 294.5 338.916 293.413C342.896 292.323 347.008 294.594 348.227 298.503C348.725 298.133 349.3 297.849 349.933 297.676C352.682 296.923 355.522 298.544 356.275 301.292C356.342 301.538 356.392 301.787 356.421 302.033C356.799 301.837 357.207 301.679 357.635 301.562C360.935 300.659 364.343 302.602 365.246 305.901C365.319 306.171 365.375 306.443 365.41 306.713C366.236 306.502 367.066 306.429 367.875 306.479C368.772 302.83 371.957 300.082 375.823 299.842C375.515 299.127 375.345 298.336 375.345 297.509C375.345 294.242 377.998 291.59 381.265 291.59C384.533 291.59 387.186 294.239 387.186 297.509C387.186 297.556 387.186 297.603 387.186 297.65C388.504 296.75 390.102 296.223 391.819 296.223C394.709 296.223 397.253 297.711 398.721 299.965C400.356 298.248 402.663 297.175 405.221 297.175C409.805 297.175 413.586 300.615 414.125 305.052C414.878 304.82 415.678 304.697 416.505 304.697C420.977 304.697 424.605 308.324 424.605 312.796C424.605 317.267 420.977 320.895 416.505 320.895C413.559 320.895 410.98 319.321 409.562 316.968V348.019H321.783C321.472 347.284 321.302 346.475 321.302 345.625C321.302 342.215 324.069 339.449 327.48 339.449C327.741 339.449 327.996 339.466 328.248 339.495C328.172 339.141 328.11 338.781 328.069 338.414C321.988 340.304 315.558 342.185 308.887 344.011C303.911 345.373 299.037 346.639 294.307 347.805C294.222 347.876 294.137 347.946 294.052 348.016H293.454C282.464 350.706 272.3 352.842 263.575 354.337L261.846 348.016H209.192V318.574C209.151 318.574 209.11 318.574 209.072 318.574C207.29 318.574 205.648 317.976 204.336 316.974C203.474 319.236 201.299 320.851 198.744 320.886C198.875 321.639 198.946 322.413 198.946 323.201C198.946 330.547 192.988 336.507 185.637 336.507C178.287 336.507 172.329 330.55 172.329 323.201C172.329 315.852 178.287 309.895 185.637 309.895C188.427 309.895 191.018 310.757 193.16 312.225C194.133 310.165 196.229 308.738 198.659 308.738C199.637 308.738 200.564 308.969 201.384 309.382C202.038 305.728 205.232 302.954 209.075 302.954C209.772 302.954 210.446 303.044 211.088 303.217L211.073 303.214Z" fill="#0B8936"/>
<path fill-rule="evenodd" clip-rule="evenodd" d="M685.144 0.0899658H717.722C735.641 0.0899658 750.301 14.7466 750.301 32.6616V307.815H685.141V0.0899658H685.144Z" fill="url(#paint0_radial_115_556)"/>
<path fill-rule="evenodd" clip-rule="evenodd" d="M692.858 0.0899658H717.72C735.638 0.0899658 750.298 14.7466 750.298 32.6616V292.197C718.048 277.37 692.855 152.226 692.855 0.0899658H692.858Z" fill="url(#paint1_radial_115_556)"/>
<path fill-rule="evenodd" clip-rule="evenodd" d="M697.216 4.44125C697.237 10.7118 697.298 16.9882 697.404 23.2616H744.325C740.427 12.3292 729.947 4.44125 717.72 4.44125H697.213H697.216ZM697.442 25.4563C697.497 28.5242 697.565 31.5921 697.644 34.6599H745.952V32.6616C745.952 30.1739 745.623 27.7565 745.011 25.4534H697.445L697.442 25.4563ZM697.703 36.8546C697.785 39.9225 697.878 42.9904 697.984 46.0582H745.952V36.8546H697.703ZM698.063 48.2558C698.174 51.3237 698.295 54.3916 698.426 57.4594H745.952V48.2558H698.063ZM698.526 59.6541C698.664 62.722 698.813 65.7899 698.975 68.8577H745.955V59.6541H698.526ZM699.092 71.0524C699.259 74.1203 699.438 77.1911 699.628 80.256H745.955V71.0524H699.092ZM699.766 82.4537C699.962 85.5245 700.17 88.5923 700.39 91.6573H745.952V82.4537H699.766ZM700.551 93.852C700.777 96.9228 701.017 99.9906 701.266 103.056H745.952V93.852H700.548H700.551ZM701.451 105.25C701.513 105.986 701.574 106.718 701.639 107.454C701.838 109.786 702.046 112.119 702.26 114.454H745.955V105.25H701.451ZM702.465 116.649C702.755 119.716 703.057 122.784 703.374 125.852H745.955V116.649H702.465ZM703.602 128.047C703.925 131.115 704.265 134.183 704.616 137.25H745.955V128.047H703.602ZM704.871 139.445C705.232 142.516 705.61 145.584 706.002 148.649H745.955V139.445H704.871ZM706.287 150.843C706.688 153.914 707.107 156.982 707.547 160.047H745.957V150.843H706.29H706.287ZM707.863 162.245C708.312 165.315 708.775 168.386 709.261 171.448H745.957V162.245H707.863ZM709.613 173.643C710.108 176.717 710.624 179.785 711.164 182.847H745.957V173.643H709.613ZM711.55 185.041C712.101 188.115 712.67 191.183 713.265 194.245H745.957V185.041H711.55ZM713.693 196.443L713.76 196.782C714.346 199.739 714.956 202.695 715.589 205.649H745.957V196.445H713.696L713.693 196.443ZM716.064 207.841C716.738 210.915 717.444 213.985 718.183 217.044H745.955V207.841H716.064ZM718.716 219.239C719.475 222.319 720.269 225.387 721.105 228.443H745.955V219.239H718.716ZM721.711 230.64C721.855 231.15 721.999 231.663 722.142 232.173C722.869 234.731 723.628 237.292 724.422 239.847H745.952V230.643H721.708L721.711 230.64ZM725.117 242.039C726.107 245.127 727.157 248.201 728.273 251.242H745.955V242.039H725.117ZM729.094 253.437C729.932 255.637 730.808 257.82 731.726 259.977C732.08 260.812 732.47 261.706 732.892 262.641H745.955V253.437H729.097H729.094ZM733.9 264.838C736.846 271.088 741.002 278.61 745.952 283.659V264.838H733.9Z" fill="#42B86A"/>
<path fill-rule="evenodd" clip-rule="evenodd" d="M697.216 4.44125C697.237 10.7118 697.298 16.9882 697.404 23.2616H699.118C699.027 17.4834 698.975 11.7051 698.957 5.92977H719.463C726.028 5.92977 732.089 8.20357 736.899 12.004C731.855 7.31866 725.108 4.44125 717.726 4.44125H697.219H697.216ZM697.442 25.4563C697.497 28.5242 697.565 31.5921 697.644 34.6599H699.344C699.282 32.0873 699.227 29.5175 699.18 26.9448H745.363C745.257 26.4438 745.14 25.9486 745.008 25.4563H697.442ZM697.703 36.8546C697.785 39.9225 697.878 42.9904 697.984 46.0582H699.672C699.587 43.4855 699.511 40.9158 699.44 38.3431H745.952V36.8546H697.703ZM698.063 48.2558C698.174 51.3237 698.295 54.3916 698.426 57.4594H700.1C699.991 54.8868 699.892 52.317 699.798 49.7444H745.949V48.2558H698.06H698.063ZM698.526 59.6541C698.664 62.722 698.813 65.7899 698.975 68.8577H700.636C700.504 66.2851 700.381 63.7153 700.264 61.1427H745.955V59.6541H698.526ZM699.092 71.0524C699.259 74.1203 699.438 77.1911 699.628 80.256H701.275C701.12 77.6863 700.97 75.1136 700.83 72.5409H745.955V71.0524H699.092ZM699.766 82.4537C699.962 85.5245 700.17 88.5923 700.39 91.6573H702.022C701.841 89.0875 701.668 86.5149 701.504 83.9422H745.955V82.4537H699.769H699.766ZM700.551 93.852C700.777 96.9228 701.017 99.9906 701.266 103.056H702.884C702.676 100.486 702.48 97.9132 702.289 95.3405H745.955V93.852H700.551ZM701.451 105.25C701.513 105.986 701.574 106.718 701.639 107.454C701.838 109.786 702.046 112.119 702.26 114.454H703.86C703.693 112.617 703.532 110.779 703.374 108.942C703.312 108.207 703.248 107.474 703.186 106.739H745.952V105.25H701.448H701.451ZM702.465 116.649C702.755 119.716 703.057 122.784 703.374 125.852H704.959C704.698 123.279 704.446 120.707 704.206 118.137H745.957V116.649H702.468H702.465ZM703.602 128.047C703.925 131.115 704.265 134.183 704.616 137.25H706.184C705.891 134.678 705.61 132.108 705.34 129.535H745.955V128.047H703.602ZM704.871 139.445C705.232 142.516 705.61 145.584 706.002 148.649H707.55C707.225 146.079 706.911 143.506 706.609 140.934H745.955V139.445H704.871ZM706.287 150.843C706.688 153.914 707.107 156.982 707.547 160.047H709.074C708.713 157.477 708.362 154.905 708.025 152.332H745.955V150.843H706.287ZM707.863 162.245C708.312 165.315 708.775 168.386 709.261 171.448H710.765C710.363 168.879 709.977 166.309 709.601 163.733H745.957V162.245H707.863ZM709.613 173.643C710.108 176.717 710.624 179.785 711.164 182.847H712.641C712.195 180.28 711.767 177.707 711.351 175.132H745.957V173.643H709.613ZM711.55 185.041C712.101 188.115 712.67 191.183 713.265 194.245H714.716C714.226 191.678 713.748 189.105 713.288 186.53H745.957V185.041H711.55ZM713.693 196.443L713.76 196.782C714.346 199.739 714.956 202.695 715.589 205.649H717.01C716.489 203.194 715.988 200.732 715.498 198.271L715.431 197.931H745.955V196.443H713.693ZM716.064 207.841C716.738 210.915 717.444 213.985 718.183 217.044H719.563C718.954 214.478 718.367 211.905 717.802 209.329H745.955V207.841H716.064ZM718.716 219.239C719.475 222.319 720.269 225.387 721.105 228.443H722.441C721.752 225.879 721.093 223.306 720.457 220.728H745.957V219.239H718.719H718.716ZM721.711 230.64C721.855 231.15 721.999 231.663 722.142 232.173C722.869 234.731 723.628 237.292 724.422 239.847H725.7C725.07 237.787 724.463 235.724 723.877 233.664C723.734 233.154 723.587 232.645 723.446 232.132H745.952V230.643H721.708L721.711 230.64ZM725.117 242.039C726.107 245.127 727.157 248.201 728.273 251.242H729.469C728.552 248.687 727.681 246.112 726.855 243.527H745.955V242.039H725.117ZM729.094 253.437C729.932 255.637 730.808 257.82 731.726 259.977C732.08 260.812 732.47 261.706 732.892 262.641H733.971C733.795 262.236 733.625 261.846 733.464 261.466C732.543 259.309 731.67 257.126 730.832 254.925H745.955V253.437H729.097H729.094ZM733.9 264.838C736.846 271.088 741.002 278.61 745.952 283.659V283.24C741.764 278.32 738.232 271.832 735.638 266.327H745.952V264.838H733.9Z" fill="#0B8936"/>
<path fill-rule="evenodd" clip-rule="evenodd" d="M523.018 102.1H578.251L603.845 109.862V321.639L523.018 102.1Z" fill="url(#paint2_radial_115_556)"/>
<path fill-rule="evenodd" clip-rule="evenodd" d="M603.845 117.232V118.166L579.221 111.562H526.499L526.168 110.659H579.277L579.394 110.674L603.845 117.232ZM603.845 123.81L580.188 117.463L580.071 117.448H528.668L528.999 118.351H580.012L603.845 124.745V123.81ZM603.845 130.388V131.323L580.806 125.143H531.502L531.171 124.241H580.868L580.985 124.258L603.851 130.391L603.845 130.388ZM603.845 136.966L581.774 131.044L581.656 131.03H533.668L534.002 131.932H581.601L603.848 137.898V136.963L603.845 136.966ZM603.845 143.544V144.479L582.392 138.724H536.502L536.171 137.822H582.451L582.568 137.836L603.848 143.544H603.845ZM603.845 150.123V151.057L583.183 145.516H538.999L538.668 144.614H583.242L583.359 144.629L603.848 150.123H603.845ZM603.845 156.701V157.635L583.977 152.306H541.502L541.171 151.403H584.036L584.153 151.418L603.848 156.701H603.845ZM603.845 163.279V164.214L584.769 159.098H544.002L543.671 158.195H584.827L584.945 158.213L603.848 163.282L603.845 163.279ZM603.845 169.857V170.792L585.563 165.887H546.502L546.171 164.984H585.622L585.739 164.999L603.848 169.857H603.845ZM603.845 176.435V177.37L586.354 172.679H549.002L548.671 171.776H586.413L586.53 171.791L603.848 176.435H603.845ZM603.845 183.014V183.948L587.146 179.468H551.502L551.168 178.566H587.204L587.321 178.58L603.845 183.014ZM603.845 189.592V190.526L587.94 186.26H554.002L553.67 185.358H587.998L588.116 185.372L603.848 189.592H603.845ZM603.845 196.17V197.105L588.731 193.052H556.502L556.17 192.15H588.79L588.907 192.167L603.848 196.176L603.845 196.17ZM603.845 202.748V203.683L589.525 199.841H559.002L558.667 198.939H589.581L589.698 198.954L603.845 202.748ZM603.845 209.326V210.261L590.317 206.634H561.501L561.17 205.731H590.375L590.493 205.746L603.848 209.326H603.845ZM603.845 215.905V216.839L591.111 213.423H564.001L563.67 212.52H591.167L591.284 212.535L603.845 215.905ZM603.845 222.483V223.417L591.902 220.215H566.501L566.17 219.312H591.961L592.078 219.327L603.848 222.483H603.845ZM603.845 229.061V229.996L592.694 227.004H569.001L568.667 226.101H592.749L592.866 226.119L603.842 229.064L603.845 229.061ZM603.845 235.639V236.574L593.488 233.796H571.501L571.17 232.894H593.546L593.664 232.908L603.848 235.639H603.845ZM603.845 242.217V243.152L594.279 240.585H574.001L573.67 239.683H594.338L594.455 239.697L603.845 242.217ZM603.845 248.796V249.73L595.073 247.377H576.501L576.167 246.475H595.126L595.243 246.489L603.842 248.796H603.845ZM603.845 255.374V256.308L595.865 254.169H579.001L578.67 253.267H595.923L596.04 253.282L603.845 255.377V255.374ZM603.845 261.952V262.887L596.659 260.959H581.501L581.17 260.056H596.715L596.832 260.074L603.845 261.955V261.952ZM603.845 268.53V269.465L597.45 267.751H584.001L583.67 266.848H597.509L597.626 266.863L603.848 268.53H603.845ZM603.845 275.108V276.043L598.244 274.54H586.504L586.17 273.637H598.3L598.417 273.652L603.845 275.108Z" fill="#0B8936"/>
<path fill-rule="evenodd" clip-rule="evenodd" d="M523.018 102.1L603.845 321.639H523.018V102.1Z" fill="url(#paint3_radial_115_556)"/>
<path fill-rule="evenodd" clip-rule="evenodd" d="M523.018 102.1H578.251L603.845 321.639H548.612L523.018 102.1Z" fill="url(#paint4_radial_115_556)"/>
<path fill-rule="evenodd" clip-rule="evenodd" d="M579.247 110.659L579.356 111.6L579.221 111.562H524.12L524.014 110.659H579.247ZM580.039 117.448L580.15 118.389L580.015 118.354H524.914L524.809 117.451H580.042L580.039 117.448ZM580.83 124.238L580.938 125.178L580.804 125.143H525.699L525.594 124.241H580.827L580.83 124.238ZM581.621 131.027L581.73 131.964L581.598 131.929H526.494L526.388 131.027H581.621ZM582.413 137.816L582.521 138.754L582.389 138.718H527.285L527.179 137.816H582.413ZM583.204 144.605L583.312 145.543L583.18 145.508H528.076L527.971 144.605H583.204ZM583.995 151.394L584.104 152.332L583.975 152.297H528.868L528.762 151.394H583.995ZM584.786 158.183L584.895 159.121L584.766 159.086H529.659L529.553 158.183H584.786ZM585.578 164.976L585.686 165.913L585.557 165.878H530.45L530.345 164.976H585.578ZM586.369 171.765L586.478 172.702L586.349 172.667H531.239L531.133 171.765H586.366H586.369ZM587.16 178.557L587.269 179.494L587.143 179.459H532.033L531.927 178.557H587.16ZM587.952 185.346L588.06 186.284L587.934 186.251H532.824L532.719 185.349H587.952V185.346ZM588.743 192.135L588.851 193.073L588.728 193.041H533.615L533.51 192.138H588.743V192.135ZM589.534 198.924L589.643 199.859L589.52 199.827H534.407L534.301 198.924H589.534ZM590.326 205.713L590.434 206.648L590.311 206.616H535.198L535.092 205.713H590.326ZM591.117 212.506L591.225 213.44L591.102 213.408H535.986L535.881 212.506H591.114H591.117ZM591.908 219.295L592.017 220.229L591.896 220.197H536.781L536.675 219.295H591.908ZM592.7 226.084L592.808 227.019L592.688 226.986H537.572L537.466 226.084H592.7ZM593.491 232.876L593.599 233.811L593.479 233.778H538.363L538.258 232.876H593.491ZM594.282 239.665L594.391 240.6L594.273 240.568H539.155L539.049 239.665H594.282ZM595.073 246.454L595.182 247.389L595.065 247.357H539.946L539.84 246.454H595.073ZM595.865 253.243L595.973 254.178L595.859 254.146H540.737L540.632 253.243H595.865ZM596.656 260.033L596.765 260.967L596.65 260.935H541.528L541.423 260.033H596.656ZM597.447 266.822L597.556 267.757L597.441 267.727H542.32L542.214 266.825H597.447V266.822ZM598.239 273.611L598.347 274.546L598.233 274.516H543.111L543.006 273.614H598.239V273.611Z" fill="#0B8936"/>
<path fill-rule="evenodd" clip-rule="evenodd" d="M669.057 281.543C668.521 281.484 667.979 281.455 667.428 281.455C664.638 281.455 662.023 282.217 659.784 283.544C657.868 280.063 654.166 277.701 649.911 277.701C648.776 277.701 647.68 277.871 646.649 278.182C644.087 270.628 636.933 265.193 628.513 265.193C624 265.193 619.85 266.757 616.576 269.371C615.035 265.741 611.436 263.191 607.242 263.191C603.863 263.191 600.867 264.847 599.027 267.39C596.19 263.054 591.29 260.188 585.721 260.188C579.652 260.188 574.379 263.59 571.7 268.592C570.786 268.334 569.825 268.193 568.828 268.193C563.527 268.193 559.142 272.12 558.421 277.221C556.598 276.251 554.52 275.7 552.311 275.7C550.101 275.7 548.152 276.216 546.373 277.133C543.896 273.353 539.623 270.854 534.767 270.854C529.656 270.854 525.189 273.623 522.786 277.74C521.623 277.271 520.354 277.013 519.02 277.013C513.443 277.013 508.921 281.534 508.921 287.11C508.921 287.389 508.932 287.664 508.956 287.937C507.769 287.512 506.488 287.28 505.158 287.28C499.384 287.28 494.619 291.614 493.944 297.205H669.06V281.54L669.057 281.543Z" fill="#0B8936"/>
<path fill-rule="evenodd" clip-rule="evenodd" d="M802.094 128.185L790.954 213.065L799.283 321.639H808.401V131.774L802.094 128.185Z" fill="#0B8936"/>
<path d="M797.527 139.196L797.246 142.358H801.733L808.4 145.648V142.132L802.791 139.363L802.093 139.196H797.527ZM808.4 153.064V156.548L801.745 153.448H796.258L796.54 150.287H802.093L802.759 150.436L808.4 153.062V153.064ZM808.4 164.006V167.446L801.774 164.545H795.274L795.555 161.383H802.093L802.723 161.518L808.4 164.006ZM808.4 174.941V178.346L801.794 175.635H794.283L794.564 172.474H802.09L802.688 172.597L808.397 174.938L808.4 174.941ZM808.4 185.873V189.255L801.806 186.732H793.298L793.579 183.573H802.093L802.656 183.679L808.4 185.876V185.873ZM808.4 196.809V200.158L801.83 197.825H792.31L792.592 194.664H802.093L802.618 194.755L808.4 196.809ZM808.4 207.744V211.064L801.85 208.919H791.323L791.604 205.757H802.093L802.58 205.837L808.4 207.741V207.744ZM808.4 218.676V221.97L801.871 220.013H791.49L791.247 216.854H802.096L802.548 216.921L808.403 218.676H808.4ZM808.4 229.612V232.873L801.906 231.103H792.337L792.094 227.945H802.09L802.504 228.006L808.397 229.612H808.4ZM808.4 240.541V243.785L801.923 242.2H793.187L792.944 239.038H802.09L802.46 239.088L808.395 240.541H808.4ZM808.4 251.468V254.7L801.929 253.293H794.04L793.796 250.132H802.093L802.427 250.17L808.4 251.471V251.468ZM808.4 262.4V265.609L801.964 264.384H794.89L794.646 261.222H802.09L802.381 261.255L808.397 262.4H808.4ZM808.4 273.33V276.524L801.991 275.48H795.742L795.499 272.319H802.093L802.345 272.342L808.4 273.327V273.33ZM808.4 284.256V287.435L802.02 286.571H796.592L796.349 283.409H802.09L802.301 283.427L808.397 284.253L808.4 284.256ZM808.4 295.183V298.356L802.041 297.668H797.445L797.202 294.506H802.093L802.26 294.518L808.4 295.183ZM808.4 306.106V309.274L802.046 308.758H798.295L798.052 305.597H802.093L802.216 305.602L808.4 306.103V306.106ZM808.4 317.036V320.192L802.093 319.849H799.145L798.902 316.69H802.09L802.17 316.696L808.397 317.033L808.4 317.036Z" fill="#42B86A"/>
<path fill-rule="evenodd" clip-rule="evenodd" d="M802.093 128.185V321.639H735.588L737.262 133.391L802.093 128.185Z" fill="url(#paint5_radial_115_556)"/>
<path d="M802.093 139.196V142.534L801.733 142.355H766.004V139.193H802.093V139.196ZM802.093 150.29V153.612L801.744 153.451H766.004V150.29H802.093ZM802.093 161.383V164.683L801.774 164.542H766.004V161.38H802.093V161.383ZM802.093 172.477V175.759L801.794 175.635H766.004V172.474H802.093V172.477ZM802.093 183.57V186.84L801.806 186.732H766.004V183.573H802.093V183.57ZM802.093 194.664V197.916L801.829 197.823H766.004V194.661H802.093V194.664ZM802.093 205.757V208.998L801.85 208.919H766.004V205.757H802.093ZM802.093 216.851V220.077L801.87 220.01H766.007V216.851H802.096H802.093ZM802.093 227.945V231.156L801.905 231.106H766.004V227.947H802.093V227.945ZM802.093 239.038V242.241L801.923 242.2H766.004V239.038H802.093ZM802.093 250.132V253.328L801.929 253.293H766.004V250.132H802.093ZM802.093 261.225V264.41L801.964 264.387H766.004V261.225H802.093ZM802.093 272.319V275.495L801.99 275.478H766.004V272.316H802.093V272.319ZM802.093 283.412V286.583L802.02 286.574H766.004V283.412H802.093ZM802.093 294.506V297.671L802.04 297.665H766.004V294.503H802.093V294.506ZM802.093 305.6V308.764H802.046L766.004 308.761V305.6H802.093ZM802.093 316.693V319.852H766.004V316.693H802.093Z" fill="#0B8936"/>
<path fill-rule="evenodd" clip-rule="evenodd" d="M745.691 299.883C747.716 299.842 749.744 299.777 751.772 299.736C753.797 299.695 755.828 299.651 757.856 299.59V315.747C755.828 315.788 753.8 315.832 751.772 315.852C749.747 315.873 747.719 315.917 745.691 315.937V299.886V299.883ZM745.691 267.801C747.716 267.716 749.744 267.642 751.772 267.569C753.8 267.496 755.828 267.402 757.856 267.317V283.474C755.828 283.535 753.8 283.612 751.772 283.661C749.744 283.714 747.719 283.808 745.691 283.852V267.801ZM745.691 235.698C747.716 235.592 749.744 235.466 751.772 235.361C753.797 235.255 755.828 235.129 757.856 235.027V251.204C755.828 251.31 753.8 251.415 751.772 251.497C749.747 251.582 747.719 251.688 745.691 251.77V235.698ZM745.691 203.616C747.716 203.469 749.744 203.331 751.772 203.196C753.8 203.059 755.828 202.903 757.856 202.757V218.914C755.828 219.04 753.8 219.178 751.772 219.292C749.744 219.406 747.719 219.564 745.691 219.67V203.618V203.616ZM745.691 171.533C747.716 171.366 749.744 171.176 751.772 171.009C753.797 170.842 755.828 170.651 757.856 170.484V186.641C755.828 186.788 753.8 186.978 751.772 187.125C749.747 187.271 747.719 187.441 745.691 187.588V171.536V171.533ZM745.691 139.41C747.716 139.222 749.744 138.991 751.772 138.801C753.797 138.613 755.828 138.381 757.856 138.191V154.368C755.828 154.556 753.797 154.758 751.772 154.934C749.744 155.113 747.719 155.332 745.691 155.499V139.407V139.41Z" fill="#42B86A"/>
<path fill-rule="evenodd" clip-rule="evenodd" d="M745.691 299.883C747.716 299.842 749.744 299.777 751.772 299.736C753.797 299.695 755.828 299.651 757.856 299.59V302.801C756.186 302.842 754.515 302.874 752.845 302.907C751.174 302.939 749.504 302.992 747.836 303.033V315.917C747.121 315.917 746.406 315.937 745.691 315.937V299.886V299.883ZM745.691 267.801C747.716 267.716 749.744 267.642 751.772 267.569C753.8 267.496 755.828 267.402 757.856 267.317V270.528C756.186 270.593 754.515 270.654 752.845 270.716C751.177 270.778 749.504 270.842 747.836 270.904V283.787C747.121 283.808 746.406 283.828 745.691 283.852V267.801ZM745.691 235.698C747.716 235.592 749.744 235.466 751.772 235.361C753.797 235.255 755.828 235.129 757.856 235.027V238.259C756.186 238.344 754.515 238.437 752.845 238.531C751.177 238.625 749.504 238.698 747.836 238.783V251.667C747.121 251.708 746.406 251.729 745.691 251.773V235.701V235.698ZM745.691 203.616C747.716 203.469 749.744 203.331 751.772 203.196C753.8 203.059 755.828 202.903 757.856 202.757V205.968C756.186 206.074 754.515 206.2 752.845 206.305C751.177 206.411 749.504 206.537 747.836 206.642V219.526C747.121 219.591 746.406 219.632 745.691 219.673V203.621V203.616ZM745.691 171.533C747.716 171.366 749.744 171.176 751.772 171.009C753.797 170.842 755.828 170.651 757.856 170.484V173.693C756.186 173.819 754.515 173.977 752.845 174.112C751.177 174.247 749.504 174.384 747.836 174.531V187.415C747.121 187.476 746.406 187.52 745.691 187.582V171.53V171.533ZM745.691 139.41C747.716 139.222 749.744 138.991 751.772 138.801C753.797 138.613 755.828 138.381 757.856 138.191V141.423C756.186 141.57 754.515 141.737 752.845 141.906C751.177 142.073 749.504 142.241 747.836 142.41V155.294C747.121 155.379 746.406 155.42 745.691 155.502V139.41Z" fill="#0B8936"/>
<path fill-rule="evenodd" clip-rule="evenodd" d="M797.638 118.427L801.982 120.692L808.4 126.939V131.774L802.093 128.185L796.018 124.006L797.638 118.427Z" fill="#0B8936"/>
<path fill-rule="evenodd" clip-rule="evenodd" d="M737.262 133.391L773.231 121.228L797.639 118.427L802.093 128.185L737.262 133.391Z" fill="url(#paint6_linear_115_556)"/>
<path fill-rule="evenodd" clip-rule="evenodd" d="M599.935 64.6471L663.776 10.3221L663.093 45.2231L690.15 64.6471V321.639H599.935V64.6471Z" fill="url(#paint7_radial_115_556)"/>
<path fill-rule="evenodd" clip-rule="evenodd" d="M690.15 75.77V321.636H669.216C667.991 302.798 667.34 283.119 667.34 262.872C667.34 188.174 676.176 121.19 690.15 75.77Z" fill="#0B8936"/>
<path fill-rule="evenodd" clip-rule="evenodd" d="M599.935 64.6471L600.058 64.5416C606.069 101.107 609.959 159.382 609.959 225.017C609.959 260.05 608.848 292.979 606.902 321.636H599.935V64.6471Z" fill="#D0DDE8"/>
<path fill-rule="evenodd" clip-rule="evenodd" d="M690.15 105.989V112.71H669.473C670.868 110.41 672.287 108.166 673.729 105.989H690.153H690.15ZM690.15 307.991V314.712H620.122C620.169 312.465 620.228 310.223 620.301 307.991H690.15ZM690.15 296.109V302.83H620.492C620.585 300.583 620.694 298.341 620.814 296.109H690.15ZM690.15 284.227V290.949H621.116C621.256 288.701 621.409 286.457 621.576 284.227H690.153H690.15ZM690.15 272.345V279.067H621.983C622.174 276.817 622.379 274.578 622.593 272.345H690.15ZM690.15 260.463V267.185H623.115C623.352 264.935 623.601 262.693 623.865 260.463H690.147H690.15ZM690.15 248.582V255.303H624.507C624.797 253.05 625.102 250.811 625.418 248.582H690.147H690.15ZM690.15 236.7V243.422H626.177C626.52 241.168 626.881 238.927 627.25 236.7H690.147H690.15ZM690.15 224.818V231.54H628.138C628.536 229.287 628.95 227.042 629.375 224.818H690.147H690.15ZM690.15 212.936V219.658H630.398C630.855 217.402 631.324 215.16 631.81 212.936H690.147H690.15ZM690.15 201.055V207.776H632.977C633.498 205.517 634.035 203.276 634.583 201.055H690.15ZM690.15 189.173V195.895H635.896C636.485 193.635 637.088 191.394 637.707 189.173H690.15ZM690.15 177.291V184.013H639.181C639.843 181.751 640.52 179.509 641.215 177.291H690.15ZM690.15 165.409V172.131H642.871C643.615 169.866 644.374 167.624 645.148 165.409H690.147H690.15ZM690.15 153.527V160.249H647.006C647.841 157.978 648.694 155.74 649.562 153.527H690.15ZM690.15 141.646V148.367H651.634C652.575 146.094 653.53 143.852 654.506 141.646H690.15ZM690.15 129.764V136.486H656.851C657.912 134.206 658.993 131.964 660.089 129.764H690.15ZM690.15 117.882V124.604H662.744C663.955 122.315 665.183 120.074 666.434 117.882H690.15Z" fill="#42B86A"/>
<path fill-rule="evenodd" clip-rule="evenodd" d="M690.15 105.989V112.71H680.886C681.349 110.44 681.82 108.198 682.304 105.989H690.15ZM690.15 307.991V314.712H668.793C668.667 312.482 668.547 310.241 668.436 307.991H690.147H690.15ZM690.15 296.109V302.83H668.198C668.102 300.601 668.014 298.359 667.932 296.109H690.15ZM690.15 284.227V290.949H667.762C667.694 288.716 667.636 286.477 667.583 284.227H690.15ZM690.15 272.345V279.067H667.48C667.442 276.834 667.413 274.593 667.389 272.345H690.15ZM690.15 260.463V267.185H667.351C667.345 265.752 667.343 264.317 667.343 262.878C667.343 262.072 667.343 261.269 667.348 260.463H690.153H690.15ZM690.15 248.582V255.303H667.372C667.389 253.056 667.416 250.814 667.451 248.582H690.15ZM690.15 236.7V243.422H667.542C667.589 241.174 667.641 238.933 667.706 236.7H690.15ZM690.15 224.818V231.54H667.867C667.943 229.29 668.025 227.048 668.119 224.818H690.15ZM690.15 212.936V219.658H668.348C668.453 217.408 668.568 215.166 668.691 212.936H690.153H690.15ZM690.15 201.055V207.776H668.984C669.122 205.523 669.265 203.284 669.418 201.055H690.147H690.15ZM690.15 189.173V195.895H669.79C669.96 193.641 670.136 191.4 670.32 189.173H690.147H690.15ZM690.15 177.291V184.013H670.769C670.971 181.757 671.182 179.518 671.402 177.291H690.15ZM690.15 165.409V172.131H671.926C672.164 169.875 672.41 167.633 672.665 165.409H690.15ZM690.15 153.527V160.249H673.274C673.55 157.99 673.834 155.749 674.124 153.527H690.15ZM690.15 141.646V148.367H674.825C675.141 146.105 675.464 143.867 675.798 141.646H690.15ZM690.15 129.764V136.486H676.595C676.955 134.221 677.325 131.982 677.703 129.764H690.15ZM690.15 117.882V124.604H678.608C679.016 122.336 679.435 120.094 679.863 117.882H690.15Z" fill="#0B8936"/>
<path fill-rule="evenodd" clip-rule="evenodd" d="M690.15 105.989V107.753H674.69C673.62 109.37 672.562 111.026 671.516 112.71H669.473C670.868 110.41 672.287 108.166 673.729 105.989H690.153H690.15ZM690.15 307.991V309.754H621.265C621.213 311.404 621.166 313.057 621.128 314.712H620.125C620.172 312.465 620.231 310.223 620.304 307.991H690.153H690.15ZM690.15 296.109V297.873H621.778C621.69 299.522 621.608 301.172 621.532 302.83H620.492C620.585 300.583 620.694 298.341 620.814 296.109H690.15ZM690.15 284.227V285.991H622.537C622.414 287.638 622.3 289.29 622.191 290.949H621.116C621.256 288.701 621.409 286.457 621.576 284.227H690.153H690.15ZM690.15 272.345V274.109H623.554C623.396 275.756 623.241 277.409 623.097 279.067H621.983C622.174 276.817 622.379 274.578 622.593 272.345H690.15ZM690.15 260.463V262.227H624.829C624.633 263.874 624.448 265.527 624.266 267.185H623.115C623.352 264.935 623.601 262.693 623.865 260.463H690.147H690.15ZM690.15 248.582V250.346H626.382C626.148 251.992 625.922 253.645 625.702 255.303H624.51C624.8 253.05 625.105 250.811 625.421 248.582H690.15ZM690.15 236.7V238.464H628.214C627.942 240.111 627.672 241.763 627.414 243.422H626.18C626.523 241.168 626.884 238.927 627.253 236.7H690.15ZM690.15 224.818V226.582H630.339C630.022 228.226 629.718 229.878 629.416 231.54H628.138C628.536 229.287 628.95 227.042 629.375 224.818H690.147H690.15ZM690.15 212.936V214.7H632.774C632.414 216.344 632.065 217.997 631.722 219.658H630.398C630.855 217.402 631.324 215.16 631.81 212.936H690.147H690.15ZM690.15 201.055V202.819H635.544C635.137 204.462 634.738 206.115 634.348 207.776H632.974C633.495 205.517 634.032 203.276 634.58 201.055H690.147H690.15ZM690.15 189.173V190.937H638.668C638.211 192.578 637.763 194.23 637.32 195.895H635.893C636.482 193.635 637.086 191.394 637.704 189.173H690.147H690.15ZM690.15 177.291V179.055H642.176C641.663 180.696 641.159 182.348 640.664 184.013H639.181C639.843 181.751 640.52 179.509 641.215 177.291H690.15ZM690.15 165.409V167.173H646.112C645.538 168.811 644.975 170.464 644.418 172.131H642.874C643.618 169.866 644.377 167.624 645.151 165.409H690.15ZM690.15 153.527V155.291H650.523C649.881 156.929 649.248 158.582 648.621 160.249H647.003C647.838 157.978 648.691 155.74 649.559 153.527H690.147H690.15ZM690.15 141.646V143.41H655.467C654.746 145.045 654.034 146.697 653.331 148.367H651.634C652.575 146.094 653.53 143.852 654.506 141.646H690.15ZM690.15 129.764V131.528H661.053C660.239 133.157 659.435 134.813 658.641 136.486H656.851C657.912 134.206 658.993 131.964 660.089 129.764H690.15ZM690.15 117.882V119.646H667.395C666.469 121.272 665.552 122.925 664.646 124.604H662.744C663.955 122.315 665.183 120.074 666.434 117.882H690.15Z" fill="#0B8936"/>
<path fill-rule="evenodd" clip-rule="evenodd" d="M549.286 173.101L518.003 163.944L515.656 252.86L518.003 328.012H549.286V173.101Z" fill="#0B8936"/>
<path fill-rule="evenodd" clip-rule="evenodd" d="M441.205 171.574L518.003 163.944V328.012H439.793L441.205 171.574Z" fill="url(#paint8_radial_115_556)"/>
<path fill-rule="evenodd" clip-rule="evenodd" d="M458.831 197.679C460.642 197.541 462.456 197.404 464.274 197.251V205.151C462.456 205.289 460.642 205.426 458.831 205.552V197.682V197.679ZM458.831 307.677C460.642 307.662 462.456 307.648 464.274 307.648V315.533H458.831V307.677ZM446.932 307.733C448.743 307.733 450.558 307.718 452.369 307.703V315.533H446.932V307.733ZM470.73 307.607C472.55 307.592 474.361 307.592 476.172 307.58V315.533H470.73V307.607ZM482.635 307.551C484.449 307.536 486.26 307.525 488.077 307.525V315.533H482.635V307.551ZM494.534 307.481C496.351 307.466 498.165 307.466 499.976 307.451V315.53H494.534V307.481ZM506.438 307.425C508.25 307.41 510.061 307.399 511.875 307.384V315.53H506.438V307.425ZM458.831 181.95C460.642 181.798 462.456 181.631 464.274 181.466V189.378C462.456 189.545 460.642 189.694 458.831 189.835V181.95ZM446.932 183.028C448.743 182.861 450.558 182.697 452.369 182.53V190.386C450.558 190.538 448.743 190.691 446.932 190.855V183.025V183.028ZM470.73 180.883C472.55 180.716 474.361 180.564 476.172 180.4V188.382C474.361 188.534 472.547 188.686 470.73 188.839V180.886V180.883ZM482.635 179.82C484.449 179.653 486.26 179.5 488.077 179.336V187.374C486.257 187.541 484.446 187.678 482.635 187.831V179.823V179.82ZM494.534 178.753C496.351 178.586 498.165 178.422 499.976 178.27V186.374C498.165 186.512 496.351 186.679 494.534 186.832V178.753ZM506.438 177.689C508.25 177.522 510.061 177.358 511.875 177.206V185.366C510.064 185.519 508.25 185.671 506.438 185.824V177.689ZM458.831 291.96C460.642 291.933 462.456 291.904 464.274 291.878V299.774C462.456 299.789 460.642 299.815 458.831 299.83V291.96ZM446.932 292.153C448.743 292.127 450.558 292.097 452.369 292.056V299.9C450.558 299.915 448.743 299.941 446.932 299.956V292.153ZM470.73 291.766C472.55 291.74 474.361 291.711 476.172 291.684V299.651C474.361 299.666 472.547 299.678 470.73 299.707V291.766ZM482.635 291.587C484.449 291.558 486.26 291.532 488.077 291.505V299.528C486.257 299.543 484.446 299.555 482.635 299.584V291.587ZM494.534 291.394C496.351 291.368 498.165 291.338 499.976 291.312V299.405C498.165 299.42 496.351 299.432 494.534 299.461V291.397V291.394ZM506.438 291.215C508.25 291.189 510.061 291.145 511.881 291.119V299.267C510.061 299.294 508.25 299.308 506.438 299.338V291.218V291.215ZM458.831 276.248C460.642 276.207 462.456 276.166 464.274 276.11V284.01C462.456 284.051 460.642 284.092 458.831 284.121V276.251V276.248ZM446.932 276.565C448.743 276.524 450.558 276.468 452.369 276.427V284.256C450.558 284.297 448.743 284.338 446.932 284.379V276.565ZM470.73 275.943C472.55 275.888 474.361 275.847 476.172 275.791V283.758C474.361 283.799 472.547 283.828 470.73 283.869V275.943ZM482.635 275.624C484.449 275.583 486.26 275.527 488.077 275.486V283.509C486.257 283.55 484.446 283.579 482.635 283.62V275.624ZM494.534 275.305C496.351 275.264 498.165 275.208 499.976 275.167V283.26C498.165 283.286 496.351 283.33 494.534 283.371V275.308V275.305ZM506.438 275C508.25 274.944 510.061 274.903 511.881 274.848V282.996C510.061 283.037 508.25 283.078 506.438 283.119V275ZM458.831 260.531C460.642 260.46 462.456 260.393 464.274 260.323V268.222C462.456 268.278 460.642 268.346 458.831 268.401V260.531ZM446.932 260.973C448.743 260.906 450.558 260.836 452.369 260.765V268.595C450.558 268.662 448.743 268.718 446.932 268.773V260.97V260.973ZM470.73 260.088C472.55 260.018 474.361 259.965 476.172 259.895V267.85C474.361 267.906 472.547 267.962 470.73 268.017V260.091V260.088ZM482.635 259.646C484.449 259.576 486.26 259.523 488.077 259.453V267.475C486.257 267.531 484.446 267.587 482.635 267.642V259.646ZM494.534 259.218C496.351 259.148 498.165 259.08 499.976 259.01V267.103C498.165 267.159 496.351 267.214 494.534 267.27V259.221V259.218ZM506.438 258.776C508.25 258.705 510.061 258.638 511.881 258.568V266.716C510.061 266.772 508.25 266.839 506.438 266.895V258.776ZM458.831 244.819C460.642 244.737 462.456 244.652 464.274 244.57V252.455C462.456 252.537 460.642 252.622 458.831 252.69V244.819ZM446.932 245.388C448.743 245.306 450.558 245.221 452.369 245.124V252.968C450.558 253.038 448.743 253.12 446.932 253.202V245.388ZM470.73 244.254C472.55 244.172 474.361 244.087 476.172 244.005V251.957C474.361 252.039 472.547 252.11 470.73 252.192V244.251V244.254ZM482.635 243.7C484.449 243.603 486.26 243.521 488.077 243.436V251.459C486.257 251.541 484.446 251.611 482.635 251.682V243.7ZM494.534 243.132C496.351 243.035 498.165 242.953 499.976 242.868V250.961C498.165 251.031 496.351 251.113 494.534 251.184V243.132ZM506.438 242.566C508.25 242.484 510.061 242.387 511.881 242.302V250.451C510.061 250.533 508.25 250.603 506.438 250.685V242.566ZM458.831 229.108C460.642 229.011 462.456 228.914 464.274 228.803V236.703C462.456 236.799 460.642 236.896 458.831 236.978V229.108ZM446.932 229.814C448.743 229.703 450.558 229.591 452.369 229.495V237.324C450.558 237.421 448.743 237.517 446.932 237.614V229.814ZM470.73 228.431C472.55 228.32 474.361 228.223 476.172 228.112V236.064C474.361 236.161 472.547 236.257 470.73 236.354V228.428V228.431ZM482.635 227.739C484.449 227.628 486.26 227.531 488.077 227.42V235.443C486.257 235.54 484.446 235.636 482.635 235.733V227.737V227.739ZM494.534 227.048C496.351 226.937 498.165 226.828 499.976 226.731V234.825C498.165 234.907 496.351 235.003 494.534 235.1V227.048ZM506.438 226.356C508.25 226.245 510.061 226.148 511.881 226.037V234.183C510.061 234.28 508.25 234.376 506.438 234.473V226.353V226.356ZM458.831 213.396C460.642 213.273 462.456 213.147 464.274 213.024V220.924C462.456 221.035 460.642 221.158 458.831 221.27V213.399V213.396ZM446.932 214.214C448.743 214.088 450.558 213.965 452.369 213.842V221.671C450.558 221.797 448.743 221.906 446.932 222.032V214.217V214.214ZM470.73 212.582C472.55 212.459 474.361 212.333 476.172 212.21V220.177C474.361 220.288 472.547 220.396 470.73 220.508V212.582ZM482.635 211.767C484.449 211.641 486.26 211.518 488.077 211.392V219.415C486.257 219.538 484.446 219.635 482.635 219.761V211.764V211.767ZM494.534 210.95C496.351 210.827 498.165 210.701 499.976 210.575V218.668C498.165 218.779 496.351 218.887 494.534 219.013V210.95ZM506.438 210.132C508.25 210.009 510.061 209.883 511.881 209.76V217.909C510.061 218.02 508.25 218.143 506.438 218.255V210.135V210.132ZM446.932 198.637C448.743 198.485 450.558 198.347 452.369 198.195V206.039C450.558 206.165 448.743 206.302 446.932 206.44V198.637ZM470.73 196.741C472.55 196.604 474.361 196.466 476.172 196.314V204.281C474.361 204.418 472.547 204.544 470.73 204.682V196.741ZM482.635 195.801C484.449 195.663 486.26 195.525 488.077 195.373V203.396C486.257 203.533 484.446 203.659 482.635 203.797V195.801ZM494.534 194.86C496.351 194.722 498.165 194.57 499.976 194.432V202.525C498.165 202.649 496.351 202.789 494.534 202.927V194.863V194.86ZM506.438 193.92C508.25 193.782 510.061 193.63 511.881 193.492V201.641C510.061 201.778 508.25 201.904 506.438 202.042V193.923V193.92Z" fill="#42B86A"/>
<path fill-rule="evenodd" clip-rule="evenodd" d="M458.831 197.679C460.642 197.541 462.456 197.404 464.274 197.251V198.828C462.779 198.939 461.287 199.05 459.792 199.173V205.482C459.467 205.508 459.148 205.523 458.831 205.552V197.682V197.679ZM458.831 307.677C460.642 307.662 462.456 307.648 464.274 307.648V309.224C462.779 309.224 461.287 309.239 459.792 309.239V315.533H458.831V307.677ZM446.932 307.733C448.743 307.733 450.558 307.718 452.369 307.703V309.28C450.874 309.28 449.382 309.294 447.888 309.294V315.533H446.932V307.733ZM470.73 307.607C472.55 307.592 474.361 307.592 476.172 307.58V309.171C474.678 309.186 473.186 309.186 471.691 309.201V315.536H470.73V307.61V307.607ZM482.635 307.551C484.449 307.536 486.26 307.525 488.077 307.525V309.13C486.582 309.13 485.091 309.145 483.596 309.145V315.536H482.635V307.554V307.551ZM494.534 307.481C496.351 307.466 498.165 307.466 499.976 307.451V309.069C498.481 309.083 496.99 309.083 495.495 309.083V315.53H494.534V307.481ZM506.438 307.425C508.25 307.41 510.061 307.399 511.875 307.384V309.016C510.38 309.031 508.888 309.031 507.4 309.042V315.53H506.438V307.425ZM458.831 181.95C460.642 181.798 462.456 181.631 464.274 181.466V183.058C462.779 183.195 461.287 183.321 459.792 183.459V189.768C459.467 189.782 459.148 189.809 458.831 189.838V181.953V181.95ZM446.932 183.028C448.743 182.861 450.558 182.697 452.369 182.53V184.107C450.874 184.244 449.382 184.382 447.888 184.508V190.761C447.571 190.79 447.252 190.817 446.932 190.858V183.028ZM470.73 180.883C472.55 180.716 474.361 180.564 476.172 180.4V182.006C474.678 182.143 473.186 182.269 471.691 182.392V188.757C471.366 188.783 471.049 188.812 470.73 188.839V180.886V180.883ZM482.635 179.82C484.449 179.653 486.26 179.5 488.077 179.336V180.954C486.582 181.077 485.091 181.203 483.596 181.34V187.757C483.271 187.784 482.954 187.799 482.635 187.828V179.82ZM494.534 178.753C496.351 178.586 498.165 178.422 499.976 178.27V179.902C498.481 180.013 496.99 180.151 495.495 180.289V186.75C495.17 186.776 494.853 186.805 494.534 186.832V178.753ZM506.438 177.689C508.25 177.522 510.061 177.358 511.875 177.206V178.838C510.38 178.964 508.888 179.114 507.4 179.24V185.753C507.074 185.783 506.758 185.809 506.438 185.824V177.689ZM458.831 291.96C460.642 291.933 462.456 291.904 464.274 291.878V293.439C462.779 293.466 461.287 293.48 459.792 293.51V299.818C459.467 299.818 459.148 299.833 458.831 299.833V291.963V291.96ZM446.932 292.153C448.743 292.127 450.558 292.097 452.369 292.056V293.618C450.874 293.644 449.382 293.659 447.888 293.688V299.941C447.571 299.941 447.252 299.956 446.932 299.956V292.153ZM470.73 291.766C472.55 291.74 474.361 291.711 476.172 291.684V293.275C474.678 293.29 473.186 293.316 471.691 293.331V299.695C471.366 299.695 471.049 299.71 470.73 299.71V291.769V291.766ZM482.635 291.587C484.449 291.558 486.26 291.532 488.077 291.505V293.097C486.582 293.111 485.091 293.138 483.596 293.167V299.572C483.271 299.572 482.954 299.572 482.635 299.587V291.59V291.587ZM494.534 291.394C496.351 291.368 498.165 291.338 499.976 291.312V292.918C498.481 292.944 496.99 292.959 495.495 292.988V299.449C495.17 299.449 494.853 299.449 494.534 299.464V291.4V291.394ZM506.438 291.215C508.25 291.189 510.061 291.145 511.881 291.119V292.736C510.386 292.762 508.894 292.792 507.4 292.803V299.32C507.074 299.32 506.758 299.32 506.438 299.335V291.215ZM458.831 276.248C460.642 276.207 462.456 276.166 464.274 276.11V277.672C462.779 277.713 461.287 277.754 459.792 277.795V284.104C459.467 284.104 459.148 284.119 458.831 284.119V276.248ZM446.932 276.565C448.743 276.524 450.558 276.468 452.369 276.427V277.977C450.874 278.018 449.382 278.059 447.888 278.088V284.356C447.571 284.356 447.252 284.371 446.932 284.382V276.568V276.565ZM470.73 275.943C472.55 275.888 474.361 275.847 476.172 275.791V277.382C474.678 277.423 473.186 277.452 471.691 277.493V283.858C471.366 283.858 471.049 283.872 470.73 283.872V275.946V275.943ZM482.635 275.624C484.449 275.583 486.26 275.527 488.077 275.486V277.077C486.582 277.118 485.091 277.148 483.596 277.189V283.606C483.271 283.606 482.954 283.606 482.635 283.62V275.624ZM494.534 275.305C496.351 275.264 498.165 275.208 499.976 275.167V276.773C498.481 276.814 496.99 276.858 495.495 276.884V283.345C495.17 283.36 494.853 283.36 494.534 283.371V275.308V275.305ZM506.438 275C508.25 274.944 510.061 274.903 511.881 274.848V276.465C510.386 276.506 508.894 276.547 507.4 276.588V283.09C507.074 283.105 506.758 283.105 506.438 283.116V274.997V275ZM458.831 260.531C460.642 260.46 462.456 260.393 464.274 260.323V261.914C462.779 261.969 461.287 262.011 459.792 262.066V268.36C459.467 268.375 459.148 268.389 458.831 268.401V260.531ZM446.932 260.973C448.743 260.906 450.558 260.836 452.369 260.765V262.327C450.874 262.383 449.382 262.438 447.888 262.494V268.747C447.571 268.747 447.252 268.762 446.932 268.773V260.97V260.973ZM470.73 260.088C472.55 260.018 474.361 259.965 476.172 259.895V261.486C474.678 261.542 473.186 261.583 471.691 261.638V267.988C471.366 268.003 471.049 268.014 470.73 268.014V260.088ZM482.635 259.646C484.449 259.576 486.26 259.523 488.077 259.452V261.058C486.582 261.114 485.091 261.17 483.596 261.225V267.616C483.271 267.631 482.954 267.631 482.635 267.645V259.649V259.646ZM494.534 259.218C496.351 259.148 498.165 259.08 499.976 259.01V260.627C498.481 260.683 496.99 260.739 495.495 260.794V267.241C495.17 267.255 494.853 267.255 494.534 267.267V259.218ZM506.438 258.776C508.25 258.705 510.061 258.638 511.881 258.568V260.2C510.386 260.255 508.894 260.311 507.4 260.367V266.869C507.074 266.869 506.758 266.883 506.438 266.898V258.779V258.776ZM458.831 244.819C460.642 244.737 462.456 244.652 464.274 244.57V246.132C462.779 246.202 461.287 246.27 459.792 246.34V252.649C459.467 252.663 459.148 252.678 458.831 252.69V244.819ZM446.932 245.388C448.743 245.306 450.558 245.221 452.369 245.124V246.686C450.874 246.753 449.382 246.824 447.888 246.894V253.147C447.571 253.161 447.252 253.173 446.932 253.202V245.388ZM470.73 244.254C472.55 244.172 474.361 244.087 476.172 244.005V245.581C474.678 245.651 473.186 245.719 471.691 245.789V252.153C471.366 252.168 471.049 252.18 470.73 252.195V244.254ZM482.635 243.7C484.449 243.603 486.26 243.521 488.077 243.436V245.027C486.582 245.098 485.091 245.165 483.596 245.235V251.652C483.271 251.667 482.954 251.667 482.635 251.679V243.697V243.7ZM494.534 243.132C496.351 243.035 498.165 242.953 499.976 242.868V244.474C498.481 244.541 496.99 244.611 495.495 244.682V251.143C495.17 251.157 494.853 251.169 494.534 251.184V243.132ZM506.438 242.566C508.25 242.484 510.061 242.387 511.881 242.302V243.92C510.386 243.99 508.894 244.072 507.4 244.142V250.644C507.074 250.659 506.758 250.671 506.438 250.685V242.566ZM458.831 229.108C460.642 229.011 462.456 228.914 464.274 228.803V230.365C462.779 230.462 461.287 230.532 459.792 230.629V236.937C459.467 236.952 459.148 236.964 458.831 236.978V229.108ZM446.932 229.814C448.743 229.703 450.558 229.591 452.369 229.495V231.045C450.874 231.13 449.382 231.223 447.888 231.308V237.561C447.571 237.576 447.252 237.588 446.932 237.617V229.817V229.814ZM470.73 228.431C472.55 228.32 474.361 228.223 476.172 228.112V229.688C474.678 229.785 473.186 229.855 471.691 229.952V236.301C471.366 236.328 471.049 236.342 470.73 236.357V228.431ZM482.635 227.739C484.449 227.628 486.26 227.531 488.077 227.42V229.011C486.582 229.093 485.091 229.178 483.596 229.275V235.68C483.271 235.695 482.954 235.707 482.635 235.736V227.739ZM494.534 227.048C496.351 226.937 498.165 226.828 499.976 226.731V228.337C498.481 228.419 496.99 228.504 495.495 228.601V235.062C495.17 235.077 494.853 235.091 494.534 235.103V227.051V227.048ZM506.438 226.356C508.25 226.245 510.061 226.148 511.881 226.037V227.654C510.386 227.737 508.894 227.833 507.4 227.918V234.435C507.074 234.449 506.758 234.461 506.438 234.476V226.356ZM458.831 213.396C460.642 213.273 462.456 213.147 464.274 213.024V214.586C462.779 214.697 461.287 214.794 459.792 214.891V221.199C459.467 221.226 459.148 221.24 458.831 221.267V213.396ZM446.932 214.214C448.743 214.088 450.558 213.965 452.369 213.842V215.392C450.874 215.503 449.382 215.6 447.888 215.697V221.961C447.571 221.976 447.252 222.002 446.932 222.032V214.217V214.214ZM470.73 212.582C472.55 212.459 474.361 212.333 476.172 212.21V213.786C474.678 213.897 473.186 213.994 471.691 214.091V220.455C471.366 220.47 471.049 220.496 470.73 220.511V212.585V212.582ZM482.635 211.767C484.449 211.641 486.26 211.518 488.077 211.392V212.983C486.582 213.08 485.091 213.191 483.596 213.288V219.705C483.271 219.72 482.954 219.731 482.635 219.761V211.764V211.767ZM494.534 210.95C496.351 210.827 498.165 210.701 499.976 210.575V212.18C498.481 212.277 496.99 212.388 495.495 212.485V218.946C495.17 218.972 494.853 218.987 494.534 219.016V210.953V210.95ZM506.438 210.132C508.25 210.009 510.061 209.883 511.881 209.76V211.377C510.386 211.474 508.894 211.6 507.4 211.682V218.196C507.074 218.211 506.758 218.237 506.438 218.252V210.132ZM446.932 198.637C448.743 198.485 450.558 198.347 452.369 198.195V199.756C450.874 199.868 449.382 199.991 447.888 200.102V206.355C447.571 206.384 447.252 206.411 446.932 206.437V198.634V198.637ZM470.73 196.741C472.55 196.604 474.361 196.466 476.172 196.314V197.905C474.678 198.016 473.186 198.127 471.691 198.25V204.615C471.366 204.629 471.049 204.656 470.73 204.685V196.744V196.741ZM482.635 195.801C484.449 195.663 486.26 195.525 488.077 195.373V196.979C486.582 197.075 485.091 197.201 483.596 197.324V203.73C483.271 203.759 482.954 203.771 482.635 203.8V195.804V195.801ZM494.534 194.86C496.351 194.722 498.165 194.57 499.976 194.432V196.05C498.481 196.147 496.99 196.273 495.495 196.396V202.857C495.17 202.871 494.853 202.898 494.534 202.927V194.863V194.86ZM506.438 193.92C508.25 193.782 510.061 193.63 511.881 193.492V195.109C510.386 195.221 508.894 195.358 507.4 195.47V201.972C507.074 202.001 506.758 202.027 506.438 202.042V193.923V193.92Z" fill="#0B8936"/>
<path fill-rule="evenodd" clip-rule="evenodd" d="M530.239 195.508C531.669 195.812 533.103 196.129 534.533 196.434C534.542 199.077 534.55 201.746 534.559 204.389C533.126 204.099 531.69 203.809 530.26 203.519C530.254 200.864 530.248 198.18 530.242 195.511L530.239 195.508ZM530.5 307.525C531.968 307.554 533.44 307.566 534.908 307.595C534.917 310.25 534.928 312.893 534.937 315.536H530.518C530.512 312.881 530.506 310.212 530.5 307.528V307.525ZM520.858 307.387C522.326 307.413 523.794 307.443 525.266 307.454C525.266 310.153 525.272 312.849 525.275 315.533H520.858V307.387ZM540.145 307.662C541.614 307.677 543.085 307.703 544.553 307.718C544.571 310.332 544.582 312.934 544.597 315.533H540.18C540.169 312.919 540.157 310.305 540.142 307.662H540.145ZM530.201 179.489C531.625 179.834 533.053 180.195 534.477 180.541C534.486 183.21 534.495 185.853 534.503 188.508C533.076 188.191 531.649 187.857 530.222 187.526C530.216 184.842 530.207 182.173 530.201 179.489ZM520.858 177.206C522.279 177.566 523.704 177.912 525.128 178.258C525.128 180.968 525.134 183.682 525.137 186.363C523.71 186.032 522.282 185.712 520.858 185.366V177.206ZM539.55 181.771C540.975 182.117 542.399 182.463 543.823 182.808C543.841 185.437 543.856 188.036 543.87 190.652C542.443 190.336 541.016 190.002 539.588 189.671C539.574 187.043 539.562 184.414 539.547 181.771H539.55ZM530.462 291.535C531.927 291.59 533.393 291.658 534.858 291.713C534.864 294.356 534.876 297.026 534.884 299.666C533.416 299.625 531.951 299.584 530.482 299.543C530.477 296.873 530.471 294.204 530.465 291.535H530.462ZM520.858 291.119C522.32 291.189 523.783 291.256 525.248 291.312C525.248 293.996 525.254 296.706 525.254 299.39C523.789 299.349 522.32 299.32 520.858 299.267V291.119ZM540.072 291.936C541.537 292.007 543 292.062 544.468 292.115C544.483 294.717 544.5 297.331 544.512 299.93C543.044 299.903 541.575 299.848 540.11 299.818C540.098 297.19 540.084 294.547 540.072 291.933V291.936ZM530.424 275.53C531.88 275.627 533.346 275.738 534.802 275.85C534.811 278.493 534.82 281.133 534.829 283.79C533.369 283.708 531.907 283.638 530.444 283.556C530.439 280.872 530.43 278.203 530.424 275.533V275.53ZM520.858 274.853C522.315 274.965 523.774 275.061 525.231 275.173C525.231 277.857 525.236 280.553 525.236 283.251C523.777 283.169 522.314 283.099 520.855 283.002V274.853H520.858ZM539.996 276.21C541.452 276.307 542.912 276.403 544.374 276.515C544.392 279.117 544.407 281.716 544.421 284.329C542.956 284.259 541.496 284.177 540.037 284.095C540.022 281.452 540.01 278.838 539.996 276.21ZM530.389 259.514C531.842 259.666 533.296 259.804 534.747 259.956C534.756 262.611 534.767 265.254 534.773 267.912C533.317 267.786 531.863 267.663 530.406 267.537C530.4 264.867 530.392 262.198 530.389 259.514ZM520.858 258.573C522.309 258.726 523.762 258.878 525.216 259.016C525.216 261.715 525.222 264.41 525.222 267.094C523.765 266.968 522.312 266.86 520.858 266.722V258.573ZM539.922 260.455C541.376 260.607 542.83 260.745 544.283 260.882C544.298 263.496 544.316 266.098 544.327 268.697C542.871 268.586 541.414 268.463 539.958 268.337C539.946 265.708 539.931 263.095 539.92 260.452L539.922 260.455ZM530.351 243.524C531.798 243.703 533.249 243.896 534.694 244.078C534.703 246.721 534.712 249.39 534.723 252.03C533.273 251.863 531.822 251.699 530.371 251.532C530.365 248.863 530.359 246.194 530.351 243.524ZM520.858 242.308C522.303 242.502 523.751 242.68 525.195 242.877C525.201 245.561 525.201 248.271 525.204 250.955C523.756 250.788 522.306 250.636 520.858 250.457V242.308ZM539.849 244.728C541.294 244.907 542.742 245.104 544.193 245.282C544.21 247.881 544.222 250.498 544.239 253.097C542.786 252.945 541.335 252.778 539.887 252.614C539.873 249.985 539.861 247.357 539.849 244.728ZM530.315 227.534C531.757 227.757 533.199 227.977 534.638 228.199C534.647 230.854 534.656 233.497 534.668 236.152C533.223 235.959 531.775 235.736 530.333 235.542C530.327 232.858 530.321 230.189 530.315 227.534ZM520.858 226.04C522.297 226.274 523.739 226.497 525.178 226.731C525.178 229.415 525.184 232.111 525.187 234.81C523.742 234.602 522.3 234.408 520.855 234.189V226.043L520.858 226.04ZM539.773 229.014C541.215 229.234 542.657 229.457 544.099 229.679C544.113 232.278 544.128 234.88 544.143 237.494C542.695 237.286 541.25 237.078 539.808 236.884C539.796 234.256 539.785 231.628 539.773 229.014ZM530.274 211.515C531.708 211.779 533.147 212.054 534.583 212.318C534.591 214.973 534.603 217.616 534.612 220.27C533.173 220.021 531.734 219.772 530.295 219.523C530.289 216.854 530.283 214.185 530.277 211.515H530.274ZM520.855 209.757C522.288 210.033 523.724 210.296 525.16 210.575C525.16 213.273 525.166 215.969 525.169 218.653C523.73 218.404 522.291 218.17 520.855 217.906V209.757ZM539.697 213.256C541.133 213.519 542.569 213.78 544.005 214.044C544.023 216.658 544.034 219.26 544.052 221.859C542.61 221.624 541.171 221.375 539.732 221.126C539.72 218.512 539.709 215.884 539.694 213.256H539.697ZM520.855 193.489C522.285 193.805 523.712 194.11 525.143 194.429C525.146 197.113 525.149 199.824 525.151 202.508C523.718 202.218 522.288 201.939 520.855 201.638V193.489ZM539.621 197.53C541.051 197.834 542.478 198.139 543.914 198.441C543.929 201.043 543.946 203.657 543.958 206.256C542.522 205.965 541.089 205.687 539.659 205.397C539.647 202.783 539.632 200.14 539.621 197.527V197.53Z" fill="#42B86A"/>
<path fill-rule="evenodd" clip-rule="evenodd" d="M530.239 195.508C531.669 195.812 533.102 196.129 534.533 196.434C534.533 196.958 534.533 197.486 534.538 198.01C533.36 197.761 532.182 197.512 531.004 197.263C531.01 199.42 531.013 201.55 531.019 203.68C530.764 203.624 530.512 203.569 530.26 203.513C530.254 200.858 530.248 198.174 530.242 195.505L530.239 195.508ZM530.5 307.525C531.968 307.554 533.439 307.566 534.908 307.595C534.908 308.134 534.914 308.661 534.914 309.186C533.7 309.171 532.49 309.16 531.279 309.145C531.282 311.275 531.288 313.405 531.297 315.536H530.517C530.512 312.881 530.506 310.212 530.5 307.528V307.525ZM520.858 307.387C522.326 307.413 523.794 307.443 525.265 307.454C525.265 308.008 525.265 308.533 525.265 309.072C524.052 309.057 522.842 309.045 521.631 309.031C521.631 311.202 521.631 313.373 521.631 315.533H520.852V307.387H520.858ZM540.145 307.662C541.613 307.677 543.085 307.703 544.553 307.718C544.559 308.257 544.559 308.77 544.562 309.294C543.348 309.28 542.138 309.265 540.928 309.253C540.936 311.343 540.945 313.444 540.96 315.533H540.18C540.168 312.919 540.157 310.305 540.142 307.662H540.145ZM530.201 179.489C531.625 179.834 533.053 180.195 534.477 180.541C534.477 181.094 534.477 181.619 534.483 182.146C533.308 181.856 532.135 181.566 530.96 181.288C530.966 183.444 530.972 185.575 530.98 187.705C530.725 187.634 530.473 187.582 530.224 187.526C530.219 184.842 530.21 182.173 530.204 179.489H530.201ZM520.858 177.206C522.279 177.566 523.703 177.912 525.128 178.258V179.89C523.955 179.6 522.78 179.31 521.608 179.032V185.56C521.356 185.49 521.104 185.434 520.855 185.366V177.206H520.858ZM539.55 181.771C540.974 182.117 542.399 182.463 543.823 182.808C543.829 183.348 543.829 183.86 543.832 184.385C542.657 184.109 541.484 183.816 540.309 183.526C540.321 185.642 540.33 187.746 540.341 189.847C540.086 189.791 539.834 189.735 539.585 189.668C539.571 187.04 539.559 184.411 539.544 181.768L539.55 181.771ZM530.462 291.535C531.927 291.59 533.393 291.658 534.858 291.713C534.858 292.238 534.858 292.765 534.864 293.29C533.656 293.249 532.449 293.193 531.244 293.152C531.25 295.297 531.256 297.427 531.262 299.572C531.001 299.558 530.743 299.557 530.485 299.546C530.479 296.876 530.473 294.207 530.468 291.538L530.462 291.535ZM520.858 291.119C522.32 291.189 523.783 291.256 525.248 291.312C525.248 291.851 525.248 292.376 525.248 292.918C524.04 292.877 522.833 292.821 521.628 292.78V299.297C521.371 299.297 521.11 299.282 520.855 299.27V291.122L520.858 291.119ZM540.072 291.936C541.537 292.007 543 292.062 544.468 292.115C544.468 292.628 544.474 293.152 544.477 293.665C543.269 293.624 542.062 293.583 540.854 293.527C540.863 295.643 540.875 297.732 540.884 299.836C540.626 299.836 540.365 299.821 540.11 299.821C540.098 297.193 540.083 294.55 540.072 291.936ZM530.424 275.53C531.88 275.627 533.346 275.738 534.802 275.85C534.802 276.362 534.802 276.887 534.805 277.426C533.604 277.344 532.399 277.259 531.197 277.177C531.203 279.322 531.206 281.452 531.215 283.594C530.957 283.579 530.699 283.568 530.444 283.553C530.438 280.869 530.43 278.2 530.424 275.53ZM520.858 274.853C522.314 274.965 523.774 275.061 525.23 275.173V276.778C524.029 276.696 522.827 276.611 521.625 276.529C521.625 278.715 521.625 280.887 521.625 283.058C521.368 283.043 521.11 283.031 520.855 283.002V274.853H520.858ZM539.995 276.21C541.452 276.307 542.912 276.403 544.374 276.515C544.38 277.028 544.38 277.537 544.383 278.065C543.178 277.983 541.977 277.912 540.775 277.83C540.784 279.934 540.793 282.035 540.804 284.139C540.546 284.124 540.289 284.11 540.034 284.098C540.019 281.455 540.007 278.841 539.993 276.213L539.995 276.21ZM530.389 259.514C531.842 259.666 533.296 259.804 534.747 259.956C534.749 260.496 534.749 261.023 534.752 261.548C533.557 261.424 532.358 261.313 531.159 261.202C531.165 263.332 531.171 265.462 531.177 267.607C530.919 267.581 530.661 267.551 530.409 267.537C530.403 264.867 530.394 262.198 530.391 259.514H530.389ZM520.858 258.573C522.308 258.726 523.762 258.878 525.216 259.016V260.633C524.02 260.507 522.821 260.399 521.625 260.288C521.625 262.459 521.625 264.63 521.625 266.79C521.368 266.775 521.11 266.749 520.858 266.719V258.571V258.573ZM539.922 260.455C541.376 260.607 542.83 260.745 544.283 260.882C544.283 261.422 544.289 261.934 544.292 262.444C543.093 262.333 541.898 262.221 540.696 262.113C540.708 264.217 540.716 266.318 540.728 268.407C540.47 268.381 540.215 268.366 539.957 268.337C539.946 265.708 539.931 263.095 539.919 260.452L539.922 260.455ZM530.35 243.524C531.798 243.703 533.249 243.896 534.694 244.078C534.694 244.602 534.7 245.13 534.7 245.654C533.507 245.502 532.317 245.364 531.121 245.212C531.124 247.357 531.133 249.499 531.139 251.629C530.881 251.588 530.629 251.559 530.371 251.532C530.365 248.863 530.359 246.194 530.35 243.524ZM520.858 242.308C522.303 242.502 523.75 242.68 525.195 242.877C525.195 243.401 525.195 243.943 525.195 244.482C524.002 244.33 522.81 244.178 521.62 244.04V250.554C521.362 250.527 521.11 250.498 520.855 250.457V242.308H520.858ZM539.849 244.728C541.294 244.907 542.742 245.104 544.192 245.282C544.198 245.795 544.198 246.32 544.201 246.832C543.005 246.695 541.816 246.542 540.62 246.39C540.631 248.505 540.643 250.595 540.652 252.698C540.397 252.669 540.139 252.643 539.884 252.616C539.869 249.988 539.858 247.36 539.846 244.731L539.849 244.728ZM530.315 227.534C531.757 227.757 533.199 227.977 534.638 228.199C534.638 228.724 534.644 229.266 534.644 229.791C533.454 229.597 532.267 229.418 531.077 229.237C531.083 231.382 531.089 233.526 531.092 235.657C530.837 235.616 530.582 235.575 530.327 235.545C530.321 232.861 530.315 230.192 530.309 227.537L530.315 227.534ZM520.858 226.04C522.297 226.274 523.739 226.497 525.178 226.731C525.178 227.256 525.178 227.798 525.178 228.337C523.991 228.144 522.801 227.965 521.617 227.783V234.312C521.359 234.271 521.107 234.23 520.855 234.186V226.04H520.858ZM539.773 229.014C541.215 229.234 542.657 229.457 544.099 229.679C544.099 230.192 544.104 230.702 544.107 231.229C542.917 231.051 541.731 230.869 540.541 230.675C540.549 232.791 540.561 234.895 540.573 236.984C540.318 236.958 540.063 236.928 539.808 236.887C539.796 234.259 539.784 231.631 539.773 229.017V229.014ZM530.274 211.515C531.707 211.779 533.146 212.054 534.582 212.318C534.582 212.843 534.588 213.37 534.588 213.894C533.404 213.672 532.22 213.452 531.036 213.244C531.042 215.389 531.048 217.534 531.054 219.661C530.799 219.605 530.547 219.564 530.295 219.523C530.289 216.854 530.283 214.185 530.277 211.515H530.274ZM520.855 209.757C522.288 210.033 523.724 210.296 525.16 210.575C525.16 211.099 525.16 211.638 525.16 212.18C523.976 211.961 522.792 211.738 521.611 211.53C521.611 213.716 521.611 215.887 521.611 218.047C521.353 218.005 521.101 217.964 520.852 217.909V209.76L520.855 209.757ZM539.697 213.256C541.133 213.519 542.569 213.78 544.005 214.044C544.011 214.568 544.011 215.081 544.014 215.594C542.83 215.386 541.646 215.178 540.461 214.958C540.47 217.059 540.485 219.178 540.494 221.267C540.239 221.226 539.987 221.185 539.732 221.129C539.72 218.515 539.708 215.887 539.694 213.259L539.697 213.256ZM520.855 193.489C522.285 193.805 523.712 194.11 525.142 194.429C525.142 194.954 525.142 195.493 525.145 196.035C523.964 195.771 522.786 195.522 521.611 195.288C521.611 197.459 521.611 199.63 521.611 201.805C521.356 201.749 521.104 201.708 520.855 201.638V193.489ZM539.62 197.53C541.051 197.834 542.478 198.139 543.914 198.441C543.914 198.954 543.923 199.478 543.923 199.991C542.742 199.756 541.566 199.493 540.385 199.244C540.394 201.359 540.406 203.448 540.415 205.552C540.16 205.511 539.908 205.456 539.658 205.4C539.647 202.786 539.632 200.143 539.62 197.53Z" fill="#0B8936"/>
<path fill-rule="evenodd" clip-rule="evenodd" d="M436.906 176.154L441.144 178.577L517.786 172.146L549.286 179.073L551.678 176.154L532.027 168.049L514.052 165.714L440.4 173.01L436.906 176.154Z" fill="#0B8936"/>
<path fill-rule="evenodd" clip-rule="evenodd" d="M551.144 167.841L520.823 159.115L519.316 163.021L520.823 168.955L551.678 176.154L551.144 167.841Z" fill="#0B8936"/>
<path fill-rule="evenodd" clip-rule="evenodd" d="M438.357 167.841L520.822 159.115V168.955L436.906 176.154L438.357 167.841Z" fill="#0B8936"/>
<path fill-rule="evenodd" clip-rule="evenodd" d="M808.4 234.359C764.998 280.772 725.169 246.191 689.212 256.601C636.564 271.844 608.162 313.083 543.632 281.426C506.198 263.06 446.267 286.471 435.801 291.365C357.568 328.288 238.705 299.555 223.163 303.273C194.658 310.091 146 303.273 133.153 303.273C53 303.273 66.8507 335.584 24.9819 343.217C-1.71914 355 -32.7192 400.5 82.0672 372.208H808.4V234.359Z" fill="#149C42"/>
<path fill-rule="evenodd" clip-rule="evenodd" d="M808.4 297.872C806.126 296.677 803.535 296 800.786 296C791.733 296 784.395 303.34 784.395 312.388C784.395 312.939 784.421 313.484 784.474 314.02C780.801 311.855 776.523 310.61 771.951 310.61C758.317 310.61 747.262 321.662 747.262 335.293C747.262 335.522 747.265 335.75 747.271 335.979C745.662 335.408 743.93 335.097 742.124 335.097C738.531 335.097 735.225 336.328 732.602 338.391C729.39 330.447 721.732 324.771 712.714 324.449C710.624 316.789 703.617 311.158 695.294 311.158C686.126 311.158 678.553 317.991 677.393 326.84C669.45 328.616 663.515 335.707 663.515 344.181C663.515 345.792 663.732 347.351 664.134 348.834C660.687 346.876 656.701 345.76 652.458 345.76C648.214 345.76 643.926 346.964 640.392 349.059C637.367 343.562 631.523 339.835 624.806 339.835C623.015 339.835 621.286 340.102 619.657 340.594C615.612 328.671 604.323 320.089 591.032 320.089C583.907 320.089 577.357 322.559 572.19 326.685C569.757 320.953 564.075 316.93 557.457 316.93C552.12 316.93 547.396 319.544 544.488 323.558C540.01 316.713 532.276 312.189 523.484 312.189C513.906 312.189 505.58 317.56 501.354 325.454C499.912 325.047 498.391 324.827 496.82 324.827C488.452 324.827 481.53 331.024 480.393 339.076C477.518 337.544 474.235 336.673 470.748 336.673C467.26 336.673 464.186 337.488 461.375 338.933C457.465 332.964 450.722 329.02 443.055 329.02C434.986 329.02 427.935 333.389 424.143 339.891C422.305 339.152 420.3 338.745 418.199 338.745C409.398 338.745 402.259 345.883 402.259 354.682C402.259 355.122 402.276 355.555 402.311 355.986C400.436 355.318 398.419 354.952 396.315 354.952C387.2 354.952 379.683 361.794 378.613 370.619H808.395V297.869L808.4 297.872Z" fill="#0B8936"/>
<path fill-rule="evenodd" clip-rule="evenodd" d="M507.611 316.667H542.408L545.901 342.563L542.408 371.979H507.611V316.667Z" fill="#DCF2FD"/>
<path fill-rule="evenodd" clip-rule="evenodd" d="M559.936 300L542.407 316.667V371.979H559.936V300Z" fill="white"/>
<path fill-rule="evenodd" clip-rule="evenodd" d="M507.608 316.667H542.408L559.936 300H525.137L507.608 316.667Z" fill="#37C668"/>
<path fill-rule="evenodd" clip-rule="evenodd" d="M512.37 324.953H518.03V330.611H512.37V324.953ZM522.537 324.953H528.196V330.611H522.537V324.953ZM532.704 324.953H538.363V330.611H532.704V324.953ZM512.37 356.376H518.03V362.034H512.37V356.376ZM522.537 356.376H528.196V362.034H522.537V356.376ZM532.704 356.376H538.363V362.034H532.704V356.376ZM512.37 345.901H518.03V351.559H512.37V345.901ZM522.537 345.901H528.196V351.559H522.537V345.901ZM532.704 345.901H538.363V351.559H532.704V345.901ZM512.37 335.426H518.03V341.084H512.37V335.426ZM522.537 335.426H528.196V341.084H522.537V335.426ZM532.704 335.426H538.363V341.084H532.704V335.426Z" fill="#0B8936"/>
<path fill-rule="evenodd" clip-rule="evenodd" d="M513.179 325.75H518.03V330.614H513.179V325.75ZM523.346 325.75H528.197V330.614H523.346V325.75ZM533.513 325.75H538.363V330.614H533.513V325.75ZM513.179 357.173H518.03V362.037H513.179V357.173ZM523.346 357.173H528.197V362.037H523.346V357.173ZM533.513 357.173H538.363V362.037H533.513V357.173ZM513.179 346.698H518.03V351.562H513.179V346.698ZM523.346 346.698H528.197V351.562H523.346V346.698ZM533.513 346.698H538.363V351.562H533.513V346.698ZM513.179 336.223H518.03V341.087H513.179V336.223ZM523.346 336.223H528.197V341.087H523.346V336.223ZM533.513 336.223H538.363V341.087H533.513V336.223Z" fill="#0B8936"/>
<path fill-rule="evenodd" clip-rule="evenodd" d="M556.865 324.953H545.482V330.611H556.865V324.953ZM556.865 356.376H545.482V362.034H556.865V356.376ZM556.865 345.901H545.482V351.559H556.865V345.901ZM556.865 335.426H545.482V341.084H556.865V335.426Z" fill="#0B8936"/>
<path fill-rule="evenodd" clip-rule="evenodd" d="M556.056 325.75H545.482V330.614H556.056V325.75ZM556.056 357.173H545.482V362.037H556.056V357.173ZM556.056 346.698H545.482V351.562H556.056V346.698ZM556.056 336.223H545.482V341.087H556.056V336.223Z" fill="#0B8936"/>
<path fill-rule="evenodd" clip-rule="evenodd" d="M591.055 254.713H664.805L672.211 309.601L664.805 371.94H591.055V254.713Z" fill="#DCF2FD"/>
<path fill-rule="evenodd" clip-rule="evenodd" d="M664.805 254.713V371.94H701.958V254.713H664.805Z" fill="white"/>
<path fill-rule="evenodd" clip-rule="evenodd" d="M588.06 249.348H667.211L668.02 260.676H588.06V249.348Z" fill="#0B8936"/>
<path fill-rule="evenodd" clip-rule="evenodd" d="M667.211 249.348V260.676H705.027V249.348H667.211Z" fill="#DCF2FD"/>
<path fill-rule="evenodd" clip-rule="evenodd" d="M601.143 272.28H613.138V284.273H601.143V272.28ZM622.69 272.28H634.685V284.273H622.69V272.28ZM644.237 272.28H656.232V284.273H644.237V272.28ZM601.143 338.879H613.138V350.872H601.143V338.879ZM622.69 338.879H634.685V350.872H622.69V338.879ZM644.237 338.879H656.232V350.872H644.237V338.879ZM601.143 316.68H613.138V328.673H601.143V316.68ZM622.69 316.68H634.685V328.673H622.69V316.68ZM644.237 316.68H656.232V328.673H644.237V316.68ZM601.143 294.481H613.138V306.475H601.143V294.481ZM622.69 294.481H634.685V306.475H622.69V294.481ZM644.237 294.481H656.232V306.475H644.237V294.481Z" fill="#0B8936"/>
<path fill-rule="evenodd" clip-rule="evenodd" d="M602.857 273.967H613.138V284.273H602.857V273.967ZM624.404 273.967H634.685V284.273H624.404V273.967ZM645.951 273.967H656.235V284.273H645.951V273.967ZM602.857 340.567H613.138V350.872H602.857V340.567ZM624.404 340.567H634.685V350.872H624.404V340.567ZM645.951 340.567H656.235V350.872H645.951V340.567ZM602.857 318.368H613.141V328.673H602.857V318.368ZM624.404 318.368H634.685V328.673H624.404V318.368ZM645.951 318.368H656.235V328.673H645.951V318.368ZM602.857 296.169H613.141V306.475H602.857V296.169ZM624.404 296.169H634.685V306.475H624.404V296.169ZM645.951 296.169H656.235V306.475H645.951V296.169Z" fill="#0B8936"/>
<path fill-rule="evenodd" clip-rule="evenodd" d="M695.446 272.28H671.32V284.273H695.446V272.28ZM695.446 338.879H671.32V350.872H695.446V338.879ZM695.446 316.68H671.32V328.673H695.446V316.68ZM695.446 294.481H671.32V306.475H695.446V294.481Z" fill="#0B8936"/>
<path fill-rule="evenodd" clip-rule="evenodd" d="M693.731 273.967H671.32V284.273H693.731V273.967ZM693.731 340.567H671.32V350.872H693.731V340.567ZM693.731 318.368H671.32V328.673H693.731V318.368ZM693.731 296.169H671.32V306.475H693.731V296.169Z" fill="#0B8936"/>
<path fill-rule="evenodd" clip-rule="evenodd" d="M705.027 249.348H625.873L661.15 228.448H688.119L705.027 249.348Z" fill="#37C668"/>
<path fill-rule="evenodd" clip-rule="evenodd" d="M588.06 249.348H667.211L688.119 228.448H608.965L588.06 249.348Z" fill="#0B8936"/>
<path fill-rule="evenodd" clip-rule="evenodd" d="M705.911 295.347H754.624L759.515 331.601L754.624 372.776H705.911V295.347Z" fill="#DCF2FD"/>
<path fill-rule="evenodd" clip-rule="evenodd" d="M754.624 295.347V372.776H779.16V295.347H754.624Z" fill="white"/>
<path fill-rule="evenodd" clip-rule="evenodd" d="M703.933 291.804H756.212L756.745 299.285H703.933V291.804Z" fill="#0B8936"/>
<path fill-rule="evenodd" clip-rule="evenodd" d="M756.212 291.804V299.285H781.188V291.804H756.212Z" fill="#DCF2FD"/>
<path fill-rule="evenodd" clip-rule="evenodd" d="M781.188 291.804H728.906L752.209 278H770.019L781.188 291.804Z" fill="#37C668"/>
<path fill-rule="evenodd" clip-rule="evenodd" d="M703.933 291.804H756.212L770.019 278H717.74L703.933 291.804Z" fill="#0B8936"/>
<path fill-rule="evenodd" clip-rule="evenodd" d="M725.747 308.063H754.623V314.87H725.747V308.063ZM725.747 352.051H754.623V358.858H725.747V352.051ZM725.747 322.726H754.623V329.533H725.747V322.726ZM725.747 337.388H754.623V344.195H725.747V337.388Z" fill="#0B8936"/>
<path fill-rule="evenodd" clip-rule="evenodd" d="M754.623 309.156V314.873H726.837V309.156H754.623ZM726.837 353.144H754.623V358.861H726.837V353.144ZM726.837 323.819H754.623V329.536H726.837V323.819ZM726.837 338.481H754.623V344.198H726.837V338.481Z" fill="#62CF87"/>
<path fill-rule="evenodd" clip-rule="evenodd" d="M771.323 308.063H754.624V314.87H771.323V308.063ZM771.323 352.051H754.624V358.858H771.323V352.051ZM771.323 322.726H754.624V329.533H771.323V322.726ZM771.323 337.388H754.624V344.195H771.323V337.388Z" fill="#0B8936"/>
<path fill-rule="evenodd" clip-rule="evenodd" d="M754.624 309.156V314.873H770.23V309.156H754.624ZM770.23 353.144H754.624V358.861H770.23V353.144ZM770.23 323.819H754.624V329.536H770.23V323.819ZM770.23 338.481H754.624V344.198H770.23V338.481Z" fill="#0B8936"/>
<path fill-rule="evenodd" clip-rule="evenodd" d="M713.786 308.063H720.577V314.87H713.786V308.063ZM713.786 352.051H720.577V358.858H713.786V352.051ZM713.786 337.388H720.577V344.195H713.786V337.388ZM713.786 322.726H720.577V329.533H713.786V322.726Z" fill="#0B8936"/>
<path fill-rule="evenodd" clip-rule="evenodd" d="M714.879 309.156H720.58V314.873H714.879V309.156ZM714.879 353.144H720.58V358.861H714.879V353.144ZM714.879 338.481H720.58V344.198H714.879V338.481ZM714.879 323.819H720.58V329.536H714.879V323.819Z" fill="#62CF87"/>
<path d="M653.166 65.1847C653.595 62.4942 652.786 59.6413 650.715 57.571C647.285 54.1422 641.705 54.1437 638.275 57.5715C636.235 59.61 635.419 62.407 635.806 65.0617C637.69 65.3925 639.494 66.2791 640.945 67.7295C642.308 69.0932 643.171 70.7656 643.548 72.5231C644.187 72.5917 644.835 72.5897 645.475 72.5191C645.864 70.8079 646.715 69.1825 648.047 67.8521C649.493 66.4052 651.29 65.5196 653.166 65.1847H653.166Z" fill="#3CA15E"/>
<path d="M645.416 78.0429H643.575C643.018 78.0429 642.567 78.4938 642.567 79.05V94.4858C643.202 94.5564 643.846 94.6022 644.495 94.6199C645.145 94.6376 645.787 94.6199 646.423 94.5745V79.05C646.423 78.4938 645.972 78.0429 645.416 78.0429Z" fill="#3CA15E"/>
<path d="M645.416 78.0429H643.575C643.018 78.0429 642.567 78.4938 642.567 79.05V94.4858C643.202 94.5564 643.846 94.6022 644.495 94.6199C645.145 94.6376 645.787 94.6199 646.423 94.5745V79.05C646.423 78.4938 645.972 78.0429 645.416 78.0429Z" fill="#3CA15E"/>
<path d="M644.495 94.6204C632.657 94.3002 623.051 85.0227 623.051 73.1828C623.051 70.8271 623.433 68.5601 624.135 66.44C623.11 68.9429 622.544 71.6824 622.544 74.5545C622.544 86.3944 632.149 95.6719 643.988 95.9927C653.255 96.2438 661.328 90.0134 664.261 81.2388C660.977 89.2832 653.271 94.8584 644.495 94.6209V94.6204Z" fill="#3CA15E"/>
<path d="M627.896 68.3408C631.326 64.9124 636.907 64.9109 640.335 68.3408C643.765 71.7686 643.764 77.3474 640.335 80.7773C636.907 84.2042 631.329 84.2042 627.897 80.7748C624.468 77.3464 624.467 71.7686 627.896 68.3408ZM648.656 80.8958C652.086 84.3242 657.665 84.3242 661.094 80.8973C664.523 77.468 664.523 71.8892 661.094 68.4603C657.666 65.0324 652.083 65.0324 648.655 68.4613C645.226 71.8892 645.228 77.4665 648.656 80.8953V80.8958Z" fill="#3CA15E"/>
</g>
<defs>
<radialGradient id="paint0_radial_115_556" cx="0" cy="0" r="1" gradientUnits="userSpaceOnUse" gradientTransform="translate(692.963 104.717) scale(211.079 211.036)">
<stop stop-color="white"/>
<stop offset="1" stop-color="#8FCBEA"/>
</radialGradient>
<radialGradient id="paint1_radial_115_556" cx="0" cy="0" r="1" gradientUnits="userSpaceOnUse" gradientTransform="translate(721.579 146.143) scale(148.88 148.849)">
<stop stop-color="#6085A5"/>
<stop offset="1" stop-color="#8FCBEA"/>
</radialGradient>
<radialGradient id="paint2_radial_115_556" cx="0" cy="0" r="1" gradientUnits="userSpaceOnUse" gradientTransform="translate(563.433 211.87) scale(116.993 116.969)">
<stop stop-color="#D0DDE8"/>
<stop offset="1" stop-color="#8FCBEA"/>
</radialGradient>
<radialGradient id="paint3_radial_115_556" cx="0" cy="0" r="1" gradientUnits="userSpaceOnUse" gradientTransform="translate(563.433 211.87) scale(116.993 116.969)">
<stop stop-color="#D0DDE8"/>
<stop offset="1" stop-color="#8FCBEA"/>
</radialGradient>
<radialGradient id="paint4_radial_115_556" cx="0" cy="0" r="1" gradientUnits="userSpaceOnUse" gradientTransform="translate(563.433 211.87) scale(116.993 116.969)">
<stop stop-color="white"/>
<stop offset="1" stop-color="#D0DDE8"/>
</radialGradient>
<radialGradient id="paint5_radial_115_556" cx="0" cy="0" r="1" gradientUnits="userSpaceOnUse" gradientTransform="translate(768.841 224.912) scale(102.301 102.28)">
<stop stop-color="white"/>
<stop offset="1" stop-color="#D0DDE8"/>
</radialGradient>
<linearGradient id="paint6_linear_115_556" x1="769.676" y1="129.052" x2="769.676" y2="116.033" gradientUnits="userSpaceOnUse">
<stop stop-color="#DDE7EE"/>
<stop offset="1" stop-color="white"/>
</linearGradient>
<radialGradient id="paint7_radial_115_556" cx="0" cy="0" r="1" gradientUnits="userSpaceOnUse" gradientTransform="translate(645.042 165.981) scale(162.095 162.061)">
<stop stop-color="white"/>
<stop offset="1" stop-color="#D0DDE8"/>
</radialGradient>
<radialGradient id="paint8_radial_115_556" cx="0" cy="0" r="1" gradientUnits="userSpaceOnUse" gradientTransform="translate(478.898 245.98) scale(90.8946 90.8758)">
<stop stop-color="white"/>
<stop offset="1" stop-color="#D0DDE8"/>
</radialGradient>
</defs>
</svg>
